<svg xmlns="http://www.w3.org/2000/svg" width="1080" height="620" viewBox="0 0 1080 620">
<style>
  text { font-family: Arial, "Microsoft YaHei", sans-serif; fill: #222; }
  .title { font-size: 18px; font-weight: 700; }
  .label { font-size: 14px; }
  .tick { font-size: 12px; fill: #444; }
  .legend { font-size: 12px; }
  .grid { stroke: #dddddd; stroke-width: 1; }
</style>
<text x="540.0" y="28" text-anchor="middle" class="title">10-2 smoothed normalized intensity</text>
<rect x="78" y="52" width="782" height="496" fill="#ffffff" stroke="#333333" stroke-width="1"/>
<line x1="78" y1="548.00" x2="860" y2="548.00" class="grid"/>
<text x="70" y="552.00" text-anchor="end" class="tick">0</text>
<line x1="78" y1="448.80" x2="860" y2="448.80" class="grid"/>
<text x="70" y="452.80" text-anchor="end" class="tick">0.2</text>
<line x1="78" y1="349.60" x2="860" y2="349.60" class="grid"/>
<text x="70" y="353.60" text-anchor="end" class="tick">0.4</text>
<line x1="78" y1="250.40" x2="860" y2="250.40" class="grid"/>
<text x="70" y="254.40" text-anchor="end" class="tick">0.6</text>
<line x1="78" y1="151.20" x2="860" y2="151.20" class="grid"/>
<text x="70" y="155.20" text-anchor="end" class="tick">0.8</text>
<line x1="78" y1="52.00" x2="860" y2="52.00" class="grid"/>
<text x="70" y="56.00" text-anchor="end" class="tick">1</text>
<line x1="78.00" y1="52" x2="78.00" y2="548" class="grid"/>
<text x="78.00" y="570" text-anchor="middle" class="tick">21</text>
<line x1="234.40" y1="52" x2="234.40" y2="548" class="grid"/>
<text x="234.40" y="570" text-anchor="middle" class="tick">746</text>
<line x1="390.80" y1="52" x2="390.80" y2="548" class="grid"/>
<text x="390.80" y="570" text-anchor="middle" class="tick">1471</text>
<line x1="547.20" y1="52" x2="547.20" y2="548" class="grid"/>
<text x="547.20" y="570" text-anchor="middle" class="tick">2197</text>
<line x1="703.60" y1="52" x2="703.60" y2="548" class="grid"/>
<text x="703.60" y="570" text-anchor="middle" class="tick">2922</text>
<line x1="860.00" y1="52" x2="860.00" y2="548" class="grid"/>
<text x="860.00" y="570" text-anchor="middle" class="tick">3647</text>
<polyline points="78.00,153.94 78.22,153.95 78.43,153.96 78.65,153.98 78.86,153.99 79.08,154.00 79.29,154.01 79.51,154.03 79.73,154.04 79.94,154.04 80.16,154.04 80.37,154.04 80.59,154.03 80.80,154.03 81.02,154.03 81.23,154.04 81.45,154.04 81.67,154.05 81.88,154.07 82.10,154.08 82.31,154.10 82.53,154.11 82.74,154.12 82.96,154.13 83.18,154.15 83.39,154.15 83.61,154.15 83.82,154.15 84.04,154.16 84.25,154.16 84.47,154.16 84.69,154.16 84.90,154.17 85.12,154.17 85.33,154.17 85.55,154.18 85.76,154.19 85.98,154.19 86.20,154.19 86.41,154.21 86.63,154.22 86.84,154.23 87.06,154.24 87.27,154.26 87.49,154.27 87.70,154.28 87.92,154.29 88.14,154.30 88.35,154.31 88.57,154.30 88.78,154.28 89.00,154.27 89.21,154.27 89.43,154.27 89.65,154.27 89.86,154.27 90.08,154.27 90.29,154.27 90.51,154.28 90.72,154.29 90.94,154.30 91.16,154.30 91.37,154.30 91.59,154.31 91.80,154.28 92.02,154.29 92.23,154.29 92.45,154.30 92.67,154.30 92.88,154.30 93.10,154.30 93.31,154.30 93.53,154.30 93.74,154.30 93.96,154.30 94.17,154.29 94.39,154.27 94.61,154.24 94.82,154.22 95.04,154.19 95.25,154.15 95.47,154.12 95.68,154.07 95.90,154.02 96.12,153.98 96.33,153.95 96.55,153.92 96.76,153.88 96.98,153.85 97.19,153.83 97.41,153.80 97.63,153.79 97.84,153.78 98.06,153.77 98.27,153.76 98.49,153.76 98.70,153.76 98.92,153.77 99.14,153.77 99.35,153.79 99.57,153.81 99.78,153.82 100.00,153.83 100.21,153.84 100.43,153.88 100.64,153.91 100.86,153.95 101.08,153.99 101.29,154.04 101.51,154.10 101.72,154.14 101.94,154.20 102.15,154.25 102.37,154.31 102.59,154.37 102.80,154.43 103.02,154.50 103.23,154.57 103.45,154.67 103.66,154.78 103.88,154.90 104.10,154.98 104.31,155.07 104.53,155.15 104.74,155.23 104.96,155.30 105.17,155.36 105.39,155.42 105.61,155.48 105.82,155.55 106.04,155.60 106.25,155.66 106.47,155.70 106.68,155.75 106.90,155.79 107.11,155.83 107.33,155.88 107.55,155.92 107.76,155.96 107.98,156.01 108.19,156.05 108.41,156.10 108.62,156.15 108.84,156.21 109.06,156.26 109.27,156.33 109.49,156.41 109.70,156.49 109.92,156.56 110.13,156.64 110.35,156.71 110.57,156.78 110.78,156.83 111.00,156.88 111.21,156.93 111.43,156.98 111.64,157.03 111.86,157.08 112.08,157.11 112.29,157.13 112.51,157.18 112.72,157.22 112.94,157.26 113.15,157.31 113.37,157.35 113.58,157.39 113.80,157.43 114.02,157.48 114.23,157.51 114.45,157.55 114.66,157.59 114.88,157.62 115.09,157.66 115.31,157.69 115.53,157.73 115.74,157.76 115.96,157.80 116.17,157.85 116.39,157.89 116.60,157.93 116.82,157.97 117.04,158.01 117.25,158.06 117.47,158.12 117.68,158.16 117.90,158.21 118.11,158.26 118.33,158.31 118.54,158.35 118.76,158.40 118.98,158.44 119.19,158.48 119.41,158.51 119.62,158.54 119.84,158.55 120.05,158.56 120.27,158.57 120.49,158.58 120.70,158.58 120.92,158.59 121.13,158.60 121.35,158.64 121.56,158.65 121.78,158.67 122.00,158.68 122.21,158.69 122.43,158.69 122.64,158.70 122.86,158.70 123.07,158.70 123.29,158.69 123.51,158.68 123.72,158.67 123.94,158.66 124.15,158.64 124.37,158.66 124.58,158.63 124.80,158.61 125.01,158.57 125.23,158.54 125.45,158.52 125.66,158.50 125.88,158.47 126.09,158.44 126.31,158.41 126.52,158.38 126.74,158.34 126.96,158.34 127.17,158.34 127.39,158.34 127.60,158.33 127.82,158.33 128.03,158.34 128.25,158.36 128.47,158.37 128.68,158.39 128.90,158.44 129.11,158.46 129.33,158.49 129.54,158.53 129.76,158.58 129.98,158.63 130.19,158.67 130.41,158.71 130.62,158.76 130.84,158.81 131.05,158.86 131.27,158.92 131.48,158.98 131.70,159.04 131.92,159.10 132.13,159.16 132.35,159.23 132.56,159.31 132.78,159.38 132.99,159.43 133.21,159.48 133.43,159.53 133.64,159.59 133.86,159.65 134.07,159.68 134.29,159.73 134.50,159.76 134.72,159.80 134.94,159.84 135.15,159.87 135.37,159.91 135.58,159.95 135.80,159.98 136.01,160.00 136.23,160.01 136.45,160.02 136.66,160.05 136.88,160.07 137.09,160.10 137.31,160.13 137.52,160.16 137.74,160.18 137.95,160.21 138.17,160.23 138.39,160.25 138.60,160.30 138.82,160.32 139.03,160.39 139.25,160.46 139.46,160.52 139.68,160.59 139.90,160.65 140.11,160.73 140.33,160.80 140.54,160.86 140.76,160.93 140.97,161.00 141.19,161.07 141.41,161.10 141.62,161.16 141.84,161.19 142.05,161.21 142.27,161.21 142.48,161.21 142.70,161.22 142.92,161.22 143.13,161.21 143.35,161.22 143.56,161.22 143.78,161.24 143.99,161.25 144.21,161.26 144.42,161.26 144.64,161.27 144.86,161.28 145.07,161.30 145.29,161.31 145.50,161.35 145.72,161.38 145.93,161.42 146.15,161.45 146.37,161.48 146.58,161.51 146.80,161.52 147.01,161.53 147.23,161.54 147.44,161.56 147.66,161.57 147.88,161.58 148.09,161.59 148.31,161.60 148.52,161.61 148.74,161.61 148.95,161.62 149.17,161.63 149.38,161.63 149.60,161.64 149.82,161.65 150.03,161.63 150.25,161.64 150.46,161.63 150.68,161.61 150.89,161.60 151.11,161.61 151.33,161.59 151.54,161.57 151.76,161.55 151.97,161.53 152.19,161.51 152.40,161.50 152.62,161.50 152.84,161.49 153.05,161.48 153.27,161.47 153.48,161.46 153.70,161.46 153.91,161.46 154.13,161.45 154.35,161.44 154.56,161.42 154.78,161.41 154.99,161.40 155.21,161.39 155.42,161.38 155.64,161.37 155.85,161.36 156.07,161.36 156.29,161.35 156.50,161.34 156.72,161.34 156.93,161.33 157.15,161.33 157.36,161.33 157.58,161.34 157.80,161.35 158.01,161.37 158.23,161.36 158.44,161.35 158.66,161.34 158.87,161.34 159.09,161.34 159.31,161.34 159.52,161.33 159.74,161.30 159.95,161.31 160.17,161.31 160.38,161.33 160.60,161.34 160.82,161.36 161.03,161.36 161.25,161.37 161.46,161.38 161.68,161.39 161.89,161.41 162.11,161.43 162.32,161.44 162.54,161.45 162.76,161.47 162.97,161.50 163.19,161.54 163.40,161.56 163.62,161.61 163.83,161.65 164.05,161.71 164.27,161.76 164.48,161.82 164.70,161.87 164.91,161.92 165.13,161.97 165.34,162.01 165.56,162.05 165.78,162.11 165.99,162.16 166.21,162.21 166.42,162.26 166.64,162.32 166.85,162.39 167.07,162.46 167.29,162.52 167.50,162.59 167.72,162.64 167.93,162.69 168.15,162.75 168.36,162.80 168.58,162.86 168.79,162.91 169.01,162.97 169.23,163.02 169.44,163.09 169.66,163.16 169.87,163.21 170.09,163.27 170.30,163.33 170.52,163.39 170.74,163.46 170.95,163.53 171.17,163.61 171.38,163.67 171.60,163.72 171.81,163.77 172.03,163.81 172.25,163.86 172.46,163.89 172.68,163.91 172.89,163.92 173.11,163.94 173.32,163.94 173.54,163.95 173.76,163.95 173.97,163.95 174.19,163.95 174.40,163.94 174.62,163.94 174.83,163.93 175.05,163.91 175.26,163.89 175.48,163.88 175.70,163.88 175.91,163.88 176.13,163.88 176.34,163.89 176.56,163.90 176.77,163.91 176.99,163.96 177.21,164.01 177.42,164.06 177.64,164.09 177.85,164.12 178.07,164.13 178.28,164.14 178.50,164.15 178.72,164.15 178.93,164.16 179.15,164.17 179.36,164.19 179.58,164.21 179.79,164.23 180.01,164.25 180.23,164.28 180.44,164.30 180.66,164.32 180.87,164.35 181.09,164.38 181.30,164.42 181.52,164.47 181.73,164.51 181.95,164.56 182.17,164.60 182.38,164.63 182.60,164.66 182.81,164.68 183.03,164.71 183.24,164.73 183.46,164.76 183.68,164.78 183.89,164.80 184.11,164.83 184.32,164.87 184.54,164.93 184.75,164.97 184.97,165.01 185.19,165.04 185.40,165.05 185.62,165.07 185.83,165.10 186.05,165.13 186.26,165.14 186.48,165.16 186.69,165.18 186.91,165.20 187.13,165.23 187.34,165.25 187.56,165.28 187.77,165.32 187.99,165.36 188.20,165.40 188.42,165.44 188.64,165.47 188.85,165.50 189.07,165.53 189.28,165.56 189.50,165.56 189.71,165.56 189.93,165.56 190.15,165.55 190.36,165.55 190.58,165.54 190.79,165.53 191.01,165.54 191.22,165.55 191.44,165.57 191.66,165.57 191.87,165.59 192.09,165.62 192.30,165.65 192.52,165.67 192.73,165.69 192.95,165.71 193.16,165.73 193.38,165.77 193.60,165.82 193.81,165.88 194.03,165.90 194.24,165.93 194.46,165.97 194.67,166.01 194.89,166.05 195.11,166.10 195.32,166.15 195.54,166.19 195.75,166.22 195.97,166.27 196.18,166.31 196.40,166.33 196.62,166.36 196.83,166.38 197.05,166.40 197.26,166.42 197.48,166.44 197.69,166.47 197.91,166.49 198.13,166.51 198.34,166.53 198.56,166.55 198.77,166.56 198.99,166.57 199.20,166.57 199.42,166.58 199.63,166.57 199.85,166.56 200.07,166.55 200.28,166.55 200.50,166.55 200.71,166.55 200.93,166.54 201.14,166.54 201.36,166.54 201.58,166.54 201.79,166.53 202.01,166.52 202.22,166.51 202.44,166.51 202.65,166.51 202.87,166.51 203.09,166.52 203.30,166.50 203.52,166.49 203.73,166.48 203.95,166.47 204.16,166.45 204.38,166.43 204.60,166.41 204.81,166.39 205.03,166.38 205.24,166.37 205.46,166.36 205.67,166.37 205.89,166.39 206.10,166.40 206.32,166.42 206.54,166.45 206.75,166.48 206.97,166.50 207.18,166.54 207.40,166.59 207.61,166.62 207.83,166.66 208.05,166.70 208.26,166.74 208.48,166.78 208.69,166.82 208.91,166.86 209.12,166.89 209.34,166.91 209.56,166.91 209.77,166.91 209.99,166.91 210.20,166.90 210.42,166.92 210.63,166.94 210.85,166.99 211.07,167.06 211.28,167.12 211.50,167.19 211.71,167.24 211.93,167.29 212.14,167.34 212.36,167.39 212.57,167.44 212.79,167.49 213.01,167.53 213.22,167.58 213.44,167.62 213.65,167.67 213.87,167.71 214.08,167.74 214.30,167.77 214.52,167.80 214.73,167.83 214.95,167.88 215.16,167.91 215.38,167.94 215.59,167.97 215.81,168.00 216.03,168.04 216.24,168.08 216.46,168.13 216.67,168.17 216.89,168.19 217.10,168.21 217.32,168.26 217.54,168.30 217.75,168.35 217.97,168.41 218.18,168.46 218.40,168.51 218.61,168.57 218.83,168.63 219.04,168.68 219.26,168.73 219.48,168.79 219.69,168.86 219.91,168.92 220.12,168.96 220.34,168.99 220.55,169.01 220.77,169.03 220.99,169.04 221.20,169.05 221.42,169.06 221.63,169.06 221.85,169.06 222.06,169.09 222.28,169.11 222.50,169.14 222.71,169.17 222.93,169.20 223.14,169.23 223.36,169.27 223.57,169.30 223.79,169.34 224.00,169.37 224.22,169.41 224.44,169.45 224.65,169.49 224.87,169.52 225.08,169.56 225.30,169.60 225.51,169.63 225.73,169.66 225.95,169.68 226.16,169.69 226.38,169.70 226.59,169.71 226.81,169.72 227.02,169.74 227.24,169.74 227.46,169.74 227.67,169.75 227.89,169.76 228.10,169.77 228.32,169.79 228.53,169.81 228.75,169.83 228.97,169.84 229.18,169.86 229.40,169.89 229.61,169.91 229.83,169.94 230.04,169.97 230.26,170.00 230.47,170.04 230.69,170.07 230.91,170.10 231.12,170.14 231.34,170.17 231.55,170.21 231.77,170.24 231.98,170.28 232.20,170.31 232.42,170.34 232.63,170.38 232.85,170.41 233.06,170.45 233.28,170.49 233.49,170.54 233.71,170.60 233.93,170.65 234.14,170.71 234.36,170.77 234.57,170.83 234.79,170.90 235.00,170.97 235.22,171.04 235.44,171.11 235.65,171.17 235.87,171.23 236.08,171.31 236.30,171.39 236.51,171.47 236.73,171.56 236.94,171.66 237.16,171.76 237.38,171.86 237.59,171.96 237.81,172.06 238.02,172.17 238.24,172.25 238.45,172.33 238.67,172.41 238.89,172.49 239.10,172.56 239.32,172.64 239.53,172.72 239.75,172.79 239.96,172.87 240.18,172.95 240.40,173.04 240.61,173.12 240.83,173.21 241.04,173.30 241.26,173.39 241.47,173.48 241.69,173.57 241.91,173.66 242.12,173.77 242.34,173.89 242.55,174.01 242.77,174.14 242.98,174.26 243.20,174.38 243.41,174.48 243.63,174.57 243.85,174.65 244.06,174.73 244.28,174.83 244.49,174.92 244.71,174.97 244.92,175.03 245.14,175.09 245.36,175.16 245.57,175.23 245.79,175.31 246.00,175.39 246.22,175.47 246.43,175.55 246.65,175.64 246.87,175.76 247.08,175.88 247.30,176.01 247.51,176.12 247.73,176.26 247.94,176.38 248.16,176.52 248.38,176.68 248.59,176.82 248.81,176.98 249.02,177.13 249.24,177.28 249.45,177.44 249.67,177.59 249.88,177.72 250.10,177.85 250.32,177.99 250.53,178.11 250.75,178.25 250.96,178.39 251.18,178.51 251.39,178.62 251.61,178.75 251.83,178.87 252.04,178.99 252.26,179.09 252.47,179.20 252.69,179.30 252.90,179.41 253.12,179.51 253.34,179.61 253.55,179.70 253.77,179.80 253.98,179.88 254.20,179.97 254.41,180.06 254.63,180.14 254.85,180.22 255.06,180.30 255.28,180.37 255.49,180.42 255.71,180.50 255.92,180.57 256.14,180.61 256.35,180.65 256.57,180.69 256.79,180.75 257.00,180.82 257.22,180.88 257.43,180.93 257.65,180.99 257.86,181.04 258.08,181.10 258.30,181.15 258.51,181.20 258.73,181.24 258.94,181.30 259.16,181.36 259.37,181.42 259.59,181.47 259.81,181.54 260.02,181.60 260.24,181.66 260.45,181.72 260.67,181.78 260.88,181.83 261.10,181.88 261.31,181.93 261.53,181.97 261.75,182.01 261.96,182.04 262.18,182.06 262.39,182.09 262.61,182.11 262.82,182.13 263.04,182.14 263.26,182.15 263.47,182.14 263.69,182.13 263.90,182.12 264.12,182.10 264.33,182.09 264.55,182.07 264.77,182.08 264.98,182.08 265.20,182.09 265.41,182.10 265.63,182.13 265.84,182.17 266.06,182.20 266.28,182.23 266.49,182.23 266.71,182.23 266.92,182.23 267.14,182.23 267.35,182.24 267.57,182.24 267.78,182.25 268.00,182.25 268.22,182.27 268.43,182.30 268.65,182.32 268.86,182.36 269.08,182.40 269.29,182.43 269.51,182.46 269.73,182.48 269.94,182.51 270.16,182.53 270.37,182.54 270.59,182.56 270.80,182.57 271.02,182.56 271.24,182.56 271.45,182.54 271.67,182.53 271.88,182.50 272.10,182.47 272.31,182.43 272.53,182.37 272.75,182.33 272.96,182.30 273.18,182.26 273.39,182.24 273.61,182.21 273.82,182.19 274.04,182.20 274.25,182.21 274.47,182.22 274.69,182.22 274.90,182.23 275.12,182.23 275.33,182.22 275.55,182.22 275.76,182.23 275.98,182.24 276.20,182.25 276.41,182.26 276.63,182.28 276.84,182.32 277.06,182.36 277.27,182.45 277.49,182.55 277.71,182.62 277.92,182.69 278.14,182.77 278.35,182.85 278.57,182.94 278.78,183.03 279.00,183.13 279.22,183.23 279.43,183.31 279.65,183.39 279.86,183.46 280.08,183.54 280.29,183.62 280.51,183.73 280.72,183.82 280.94,183.89 281.16,183.98 281.37,184.07 281.59,184.16 281.80,184.25 282.02,184.33 282.23,184.42 282.45,184.50 282.67,184.59 282.88,184.68 283.10,184.76 283.31,184.85 283.53,184.93 283.74,185.01 283.96,185.10 284.18,185.18 284.39,185.27 284.61,185.34 284.82,185.42 285.04,185.50 285.25,185.57 285.47,185.65 285.69,185.73 285.90,185.80 286.12,185.88 286.33,185.96 286.55,186.04 286.76,186.13 286.98,186.23 287.19,186.33 287.41,186.43 287.63,186.53 287.84,186.63 288.06,186.76 288.27,186.86 288.49,186.96 288.70,187.08 288.92,187.22 289.14,187.36 289.35,187.46 289.57,187.57 289.78,187.67 290.00,187.77 290.21,187.88 290.43,187.94 290.65,187.99 290.86,188.03 291.08,188.07 291.29,188.10 291.51,188.15 291.72,188.19 291.94,188.23 292.15,188.28 292.37,188.35 292.59,188.41 292.80,188.48 293.02,188.55 293.23,188.62 293.45,188.68 293.66,188.75 293.88,188.81 294.10,188.89 294.31,188.99 294.53,189.08 294.74,189.18 294.96,189.27 295.17,189.33 295.39,189.39 295.61,189.43 295.82,189.47 296.04,189.54 296.25,189.61 296.47,189.68 296.68,189.75 296.90,189.82 297.12,189.90 297.33,189.98 297.55,190.05 297.76,190.15 297.98,190.25 298.19,190.34 298.41,190.43 298.62,190.49 298.84,190.57 299.06,190.67 299.27,190.77 299.49,190.87 299.70,190.96 299.92,191.06 300.13,191.15 300.35,191.22 300.57,191.30 300.78,191.37 301.00,191.45 301.21,191.52 301.43,191.55 301.64,191.59 301.86,191.63 302.08,191.66 302.29,191.70 302.51,191.73 302.72,191.76 302.94,191.78 303.15,191.81 303.37,191.82 303.59,191.89 303.80,191.95 304.02,191.99 304.23,192.04 304.45,192.09 304.66,192.15 304.88,192.21 305.09,192.30 305.31,192.39 305.53,192.47 305.74,192.55 305.96,192.64 306.17,192.71 306.39,192.78 306.60,192.83 306.82,192.89 307.04,192.95 307.25,193.00 307.47,193.06 307.68,193.14 307.90,193.21 308.11,193.29 308.33,193.37 308.55,193.45 308.76,193.54 308.98,193.63 309.19,193.73 309.41,193.80 309.62,193.86 309.84,193.93 310.06,193.99 310.27,194.07 310.49,194.15 310.70,194.22 310.92,194.30 311.13,194.37 311.35,194.45 311.56,194.53 311.78,194.60 312.00,194.67 312.21,194.74 312.43,194.82 312.64,194.89 312.86,194.97 313.07,195.05 313.29,195.13 313.51,195.20 313.72,195.28 313.94,195.35 314.15,195.42 314.37,195.49 314.58,195.56 314.80,195.63 315.02,195.71 315.23,195.77 315.45,195.84 315.66,195.91 315.88,195.98 316.09,196.06 316.31,196.13 316.53,196.20 316.74,196.26 316.96,196.32 317.17,196.38 317.39,196.44 317.60,196.49 317.82,196.55 318.03,196.61 318.25,196.68 318.47,196.76 318.68,196.81 318.90,196.88 319.11,196.94 319.33,197.01 319.54,197.07 319.76,197.12 319.98,197.17 320.19,197.22 320.41,197.27 320.62,197.31 320.84,197.36 321.05,197.40 321.27,197.44 321.49,197.47 321.70,197.49 321.92,197.53 322.13,197.56 322.35,197.59 322.56,197.62 322.78,197.65 323.00,197.71 323.21,197.77 323.43,197.86 323.64,197.95 323.86,197.99 324.07,198.03 324.29,198.08 324.50,198.13 324.72,198.19 324.94,198.23 325.15,198.27 325.37,198.31 325.58,198.37 325.80,198.44 326.01,198.50 326.23,198.56 326.45,198.63 326.66,198.68 326.88,198.70 327.09,198.72 327.31,198.76 327.52,198.79 327.74,198.84 327.96,198.90 328.17,198.97 328.39,199.05 328.60,199.13 328.82,199.22 329.03,199.31 329.25,199.39 329.46,199.47 329.68,199.55 329.90,199.63 330.11,199.72 330.33,199.78 330.54,199.83 330.76,199.88 330.97,199.91 331.19,199.94 331.41,199.98 331.62,200.03 331.84,200.07 332.05,200.12 332.27,200.18 332.48,200.25 332.70,200.32 332.92,200.40 333.13,200.48 333.35,200.55 333.56,200.64 333.78,200.72 333.99,200.83 334.21,200.92 334.43,201.01 334.64,201.11 334.86,201.21 335.07,201.31 335.29,201.41 335.50,201.50 335.72,201.59 335.93,201.67 336.15,201.73 336.37,201.79 336.58,201.86 336.80,201.94 337.01,202.02 337.23,202.10 337.44,202.18 337.66,202.25 337.88,202.33 338.09,202.42 338.31,202.51 338.52,202.60 338.74,202.71 338.95,202.81 339.17,202.91 339.39,203.02 339.60,203.13 339.82,203.24 340.03,203.35 340.25,203.47 340.46,203.58 340.68,203.69 340.90,203.81 341.11,203.92 341.33,204.02 341.54,204.12 341.76,204.22 341.97,204.31 342.19,204.41 342.40,204.50 342.62,204.60 342.84,204.69 343.05,204.79 343.27,204.89 343.48,204.98 343.70,205.09 343.91,205.17 344.13,205.26 344.35,205.34 344.56,205.42 344.78,205.50 344.99,205.56 345.21,205.62 345.42,205.68 345.64,205.75 345.86,205.82 346.07,205.89 346.29,205.99 346.50,206.07 346.72,206.17 346.93,206.27 347.15,206.39 347.37,206.52 347.58,206.64 347.80,206.76 348.01,206.88 348.23,206.99 348.44,207.09 348.66,207.18 348.87,207.27 349.09,207.36 349.31,207.42 349.52,207.50 349.74,207.58 349.95,207.66 350.17,207.74 350.38,207.82 350.60,207.90 350.82,207.98 351.03,208.05 351.25,208.14 351.46,208.22 351.68,208.30 351.89,208.39 352.11,208.46 352.33,208.54 352.54,208.62 352.76,208.70 352.97,208.78 353.19,208.86 353.40,208.94 353.62,209.02 353.84,209.10 354.05,209.18 354.27,209.27 354.48,209.34 354.70,209.40 354.91,209.47 355.13,209.53 355.34,209.60 355.56,209.66 355.78,209.73 355.99,209.79 356.21,209.85 356.42,209.96 356.64,210.06 356.85,210.17 357.07,210.28 357.29,210.39 357.50,210.50 357.72,210.61 357.93,210.71 358.15,210.80 358.36,210.88 358.58,210.97 358.80,211.05 359.01,211.13 359.23,211.19 359.44,211.28 359.66,211.35 359.87,211.41 360.09,211.47 360.31,211.57 360.52,211.64 360.74,211.74 360.95,211.82 361.17,211.91 361.38,211.99 361.60,212.07 361.81,212.16 362.03,212.25 362.25,212.34 362.46,212.42 362.68,212.50 362.89,212.58 363.11,212.65 363.32,212.73 363.54,212.81 363.76,212.90 363.97,213.00 364.19,213.08 364.40,213.17 364.62,213.25 364.83,213.33 365.05,213.41 365.27,213.49 365.48,213.59 365.70,213.69 365.91,213.79 366.13,213.89 366.34,213.98 366.56,214.06 366.77,214.13 366.99,214.21 367.21,214.27 367.42,214.32 367.64,214.38 367.85,214.43 368.07,214.50 368.28,214.56 368.50,214.63 368.72,214.69 368.93,214.75 369.15,214.82 369.36,214.89 369.58,214.95 369.79,215.01 370.01,215.07 370.23,215.14 370.44,215.20 370.66,215.26 370.87,215.32 371.09,215.38 371.30,215.43 371.52,215.48 371.74,215.55 371.95,215.60 372.17,215.65 372.38,215.70 372.60,215.74 372.81,215.79 373.03,215.83 373.24,215.87 373.46,215.91 373.68,215.95 373.89,215.98 374.11,216.01 374.32,216.04 374.54,216.07 374.75,216.09 374.97,216.11 375.19,216.14 375.40,216.16 375.62,216.19 375.83,216.22 376.05,216.26 376.26,216.29 376.48,216.34 376.70,216.38 376.91,216.43 377.13,216.48 377.34,216.53 377.56,216.61 377.77,216.68 377.99,216.75 378.21,216.82 378.42,216.89 378.64,216.97 378.85,217.01 379.07,217.08 379.28,217.13 379.50,217.17 379.71,217.18 379.93,217.19 380.15,217.19 380.36,217.19 380.58,217.19 380.79,217.18 381.01,217.17 381.22,217.16 381.44,217.14 381.66,217.14 381.87,217.16 382.09,217.18 382.30,217.20 382.52,217.23 382.73,217.25 382.95,217.27 383.17,217.29 383.38,217.31 383.60,217.32 383.81,217.34 384.03,217.35 384.24,217.36 384.46,217.37 384.68,217.37 384.89,217.38 385.11,217.38 385.32,217.39 385.54,217.38 385.75,217.38 385.97,217.38 386.18,217.38 386.40,217.36 386.62,217.35 386.83,217.34 387.05,217.33 387.26,217.32 387.48,217.31 387.69,217.30 387.91,217.29 388.13,217.28 388.34,217.28 388.56,217.29 388.77,217.29 388.99,217.28 389.20,217.28 389.42,217.29 389.64,217.28 389.85,217.26 390.07,217.24 390.28,217.20 390.50,217.17 390.71,217.15 390.93,217.13 391.15,217.10 391.36,217.07 391.58,217.04 391.79,217.03 392.01,217.01 392.22,217.00 392.44,217.02 392.65,217.04 392.87,217.03 393.09,217.03 393.30,217.01 393.52,216.99 393.73,216.97 393.95,216.94 394.16,216.90 394.38,216.86 394.60,216.80 394.81,216.74 395.03,216.69 395.24,216.62 395.46,216.54 395.67,216.48 395.89,216.41 396.11,216.34 396.32,216.30 396.54,216.26 396.75,216.22 396.97,216.17 397.18,216.13 397.40,216.09 397.62,216.04 397.83,215.98 398.05,215.92 398.26,215.86 398.48,215.79 398.69,215.72 398.91,215.64 399.12,215.56 399.34,215.48 399.56,215.40 399.77,215.33 399.99,215.25 400.20,215.17 400.42,215.08 400.63,214.99 400.85,214.90 401.07,214.81 401.28,214.72 401.50,214.64 401.71,214.54 401.93,214.44 402.14,214.35 402.36,214.26 402.58,214.17 402.79,214.08 403.01,213.99 403.22,213.89 403.44,213.80 403.65,213.70 403.87,213.62 404.08,213.54 404.30,213.46 404.52,213.38 404.73,213.29 404.95,213.21 405.16,213.13 405.38,213.06 405.59,213.01 405.81,212.93 406.03,212.85 406.24,212.78 406.46,212.71 406.67,212.64 406.89,212.56 407.10,212.48 407.32,212.39 407.54,212.30 407.75,212.21 407.97,212.12 408.18,212.02 408.40,211.92 408.61,211.80 408.83,211.67 409.05,211.54 409.26,211.42 409.48,211.29 409.69,211.16 409.91,211.02 410.12,210.88 410.34,210.76 410.55,210.61 410.77,210.48 410.99,210.33 411.20,210.19 411.42,210.05 411.63,209.89 411.85,209.74 412.06,209.59 412.28,209.43 412.50,209.27 412.71,209.11 412.93,208.95 413.14,208.78 413.36,208.62 413.57,208.45 413.79,208.30 414.01,208.19 414.22,208.05 414.44,207.94 414.65,207.82 414.87,207.69 415.08,207.55 415.30,207.41 415.52,207.27 415.73,207.11 415.95,206.96 416.16,206.81 416.38,206.66 416.59,206.50 416.81,206.36 417.02,206.22 417.24,206.07 417.46,205.92 417.67,205.76 417.89,205.61 418.10,205.46 418.32,205.31 418.53,205.14 418.75,204.98 418.97,204.82 419.18,204.65 419.40,204.48 419.61,204.31 419.83,204.13 420.04,203.96 420.26,203.78 420.48,203.60 420.69,203.43 420.91,203.23 421.12,203.03 421.34,202.84 421.55,202.65 421.77,202.46 421.99,202.24 422.20,202.03 422.42,201.83 422.63,201.62 422.85,201.43 423.06,201.22 423.28,201.01 423.49,200.79 423.71,200.57 423.93,200.35 424.14,200.15 424.36,199.94 424.57,199.74 424.79,199.53 425.00,199.28 425.22,199.05 425.44,198.81 425.65,198.57 425.87,198.32 426.08,198.09 426.30,197.85 426.51,197.61 426.73,197.36 426.95,197.10 427.16,196.86 427.38,196.59 427.59,196.32 427.81,196.07 428.02,195.82 428.24,195.56 428.46,195.32 428.67,195.07 428.89,194.80 429.10,194.52 429.32,194.24 429.53,193.97 429.75,193.70 429.96,193.42 430.18,193.16 430.40,192.88 430.61,192.60 430.83,192.33 431.04,192.06 431.26,191.78 431.47,191.49 431.69,191.20 431.91,190.90 432.12,190.61 432.34,190.31 432.55,190.01 432.77,189.72 432.98,189.43 433.20,189.13 433.42,188.85 433.63,188.56 433.85,188.27 434.06,187.97 434.28,187.67 434.49,187.37 434.71,187.07 434.92,186.76 435.14,186.45 435.36,186.15 435.57,185.85 435.79,185.55 436.00,185.25 436.22,184.94 436.43,184.61 436.65,184.32 436.87,184.01 437.08,183.71 437.30,183.41 437.51,183.11 437.73,182.81 437.94,182.48 438.16,182.14 438.38,181.80 438.59,181.47 438.81,181.12 439.02,180.77 439.24,180.40 439.45,180.04 439.67,179.68 439.89,179.31 440.10,178.96 440.32,178.60 440.53,178.23 440.75,177.88 440.96,177.51 441.18,177.14 441.39,176.77 441.61,176.40 441.83,176.01 442.04,175.63 442.26,175.24 442.47,174.85 442.69,174.49 442.90,174.10 443.12,173.74 443.34,173.37 443.55,172.99 443.77,172.60 443.98,172.22 444.20,171.85 444.41,171.46 444.63,171.07 444.85,170.68 445.06,170.30 445.28,169.92 445.49,169.54 445.71,169.16 445.92,168.79 446.14,168.41 446.36,168.04 446.57,167.63 446.79,167.21 447.00,166.77 447.22,166.34 447.43,165.89 447.65,165.45 447.86,165.01 448.08,164.59 448.30,164.16 448.51,163.73 448.73,163.28 448.94,162.86 449.16,162.45 449.37,162.01 449.59,161.56 449.81,161.11 450.02,160.65 450.24,160.19 450.45,159.72 450.67,159.24 450.88,158.75 451.10,158.27 451.32,157.79 451.53,157.31 451.75,156.84 451.96,156.37 452.18,155.90 452.39,155.43 452.61,154.96 452.83,154.49 453.04,154.03 453.26,153.57 453.47,153.10 453.69,152.65 453.90,152.18 454.12,151.71 454.33,151.24 454.55,150.77 454.77,150.30 454.98,149.84 455.20,149.38 455.41,148.92 455.63,148.46 455.84,148.01 456.06,147.56 456.28,147.10 456.49,146.65 456.71,146.20 456.92,145.74 457.14,145.27 457.35,144.79 457.57,144.34 457.79,143.86 458.00,143.39 458.22,142.91 458.43,142.43 458.65,141.93 458.86,141.43 459.08,140.94 459.30,140.44 459.51,139.94 459.73,139.45 459.94,138.97 460.16,138.49 460.37,138.01 460.59,137.54 460.80,137.09 461.02,136.63 461.24,136.17 461.45,135.70 461.67,135.24 461.88,134.78 462.10,134.31 462.31,133.84 462.53,133.38 462.75,132.91 462.96,132.45 463.18,132.01 463.39,131.56 463.61,131.12 463.82,130.68 464.04,130.25 464.26,129.82 464.47,129.39 464.69,128.96 464.90,128.54 465.12,128.12 465.33,127.69 465.55,127.27 465.77,126.86 465.98,126.43 466.20,126.01 466.41,125.60 466.63,125.19 466.84,124.79 467.06,124.40 467.27,124.01 467.49,123.63 467.71,123.26 467.92,122.88 468.14,122.51 468.35,122.14 468.57,121.77 468.78,121.42 469.00,121.08 469.22,120.71 469.43,120.35 469.65,119.99 469.86,119.64 470.08,119.29 470.29,118.94 470.51,118.59 470.73,118.26 470.94,117.93 471.16,117.59 471.37,117.27 471.59,116.96 471.80,116.65 472.02,116.34 472.23,116.04 472.45,115.76 472.67,115.45 472.88,115.15 473.10,114.86 473.31,114.56 473.53,114.28 473.74,114.01 473.96,113.74 474.18,113.49 474.39,113.25 474.61,113.01 474.82,112.78 475.04,112.58 475.25,112.37 475.47,112.16 475.69,111.94 475.90,111.72 476.12,111.50 476.33,111.30 476.55,111.09 476.76,110.89 476.98,110.70 477.20,110.52 477.41,110.33 477.63,110.16 477.84,110.00 478.06,109.84 478.27,109.68 478.49,109.54 478.70,109.40 478.92,109.26 479.14,109.12 479.35,109.01 479.57,108.88 479.78,108.77 480.00,108.66 480.21,108.56 480.43,108.47 480.65,108.36 480.86,108.24 481.08,108.14 481.29,108.05 481.51,107.95 481.72,107.85 481.94,107.75 482.16,107.66 482.37,107.57 482.59,107.49 482.80,107.42 483.02,107.36 483.23,107.30 483.45,107.26 483.67,107.21 483.88,107.16 484.10,107.13 484.31,107.08 484.53,107.04 484.74,107.01 484.96,106.98 485.17,106.96 485.39,106.94 485.61,106.91 485.82,106.88 486.04,106.85 486.25,106.81 486.47,106.78 486.68,106.74 486.90,106.71 487.12,106.68 487.33,106.64 487.55,106.61 487.76,106.59 487.98,106.57 488.19,106.57 488.41,106.56 488.63,106.55 488.84,106.54 489.06,106.52 489.27,106.48 489.49,106.44 489.70,106.41 489.92,106.38 490.14,106.34 490.35,106.30 490.57,106.25 490.78,106.21 491.00,106.16 491.21,106.12 491.43,106.09 491.64,106.05 491.86,106.01 492.08,105.97 492.29,105.94 492.51,105.90 492.72,105.86 492.94,105.82 493.15,105.80 493.37,105.76 493.59,105.72 493.80,105.68 494.02,105.65 494.23,105.63 494.45,105.61 494.66,105.60 494.88,105.59 495.10,105.57 495.31,105.56 495.53,105.53 495.74,105.48 495.96,105.43 496.17,105.38 496.39,105.31 496.61,105.24 496.82,105.17 497.04,105.09 497.25,105.00 497.47,104.92 497.68,104.84 497.90,104.77 498.11,104.71 498.33,104.65 498.55,104.59 498.76,104.53 498.98,104.47 499.19,104.40 499.41,104.34 499.62,104.27 499.84,104.21 500.06,104.15 500.27,104.09 500.49,104.03 500.70,103.96 500.92,103.90 501.13,103.84 501.35,103.77 501.57,103.71 501.78,103.63 502.00,103.54 502.21,103.46 502.43,103.37 502.64,103.28 502.86,103.18 503.08,103.07 503.29,102.97 503.51,102.88 503.72,102.79 503.94,102.70 504.15,102.59 504.37,102.49 504.58,102.40 504.80,102.30 505.02,102.22 505.23,102.14 505.45,102.05 505.66,101.97 505.88,101.88 506.09,101.78 506.31,101.71 506.53,101.64 506.74,101.57 506.96,101.48 507.17,101.40 507.39,101.32 507.60,101.23 507.82,101.14 508.04,101.05 508.25,100.98 508.47,100.91 508.68,100.85 508.90,100.79 509.11,100.74 509.33,100.68 509.54,100.63 509.76,100.58 509.98,100.54 510.19,100.50 510.41,100.44 510.62,100.37 510.84,100.31 511.05,100.26 511.27,100.20 511.49,100.16 511.70,100.11 511.92,100.07 512.13,100.04 512.35,100.01 512.56,99.99 512.78,99.96 513.00,99.95 513.21,99.93 513.43,99.92 513.64,99.91 513.86,99.88 514.07,99.86 514.29,99.85 514.51,99.84 514.72,99.84 514.94,99.84 515.15,99.84 515.37,99.85 515.58,99.87 515.80,99.89 516.01,99.91 516.23,99.95 516.45,99.97 516.66,100.00 516.88,100.02 517.09,100.05 517.31,100.08 517.52,100.12 517.74,100.17 517.96,100.22 518.17,100.29 518.39,100.36 518.60,100.45 518.82,100.54 519.03,100.64 519.25,100.75 519.47,100.84 519.68,100.94 519.90,101.06 520.11,101.17 520.33,101.26 520.54,101.36 520.76,101.45 520.98,101.53 521.19,101.62 521.41,101.72 521.62,101.83 521.84,101.95 522.05,102.08 522.27,102.21 522.48,102.34 522.70,102.49 522.92,102.65 523.13,102.80 523.35,102.97 523.56,103.15 523.78,103.34 523.99,103.53 524.21,103.73 524.43,103.92 524.64,104.12 524.86,104.33 525.07,104.55 525.29,104.77 525.50,105.01 525.72,105.22 525.94,105.45 526.15,105.68 526.37,105.91 526.58,106.14 526.80,106.39 527.01,106.62 527.23,106.86 527.45,107.10 527.66,107.35 527.88,107.61 528.09,107.88 528.31,108.14 528.52,108.40 528.74,108.66 528.95,108.94 529.17,109.22 529.39,109.52 529.60,109.84 529.82,110.16 530.03,110.49 530.25,110.82 530.46,111.15 530.68,111.47 530.90,111.79 531.11,112.12 531.33,112.45 531.54,112.79 531.76,113.13 531.97,113.47 532.19,113.81 532.41,114.15 532.62,114.48 532.84,114.82 533.05,115.16 533.27,115.50 533.48,115.84 533.70,116.18 533.92,116.52 534.13,116.85 534.35,117.20 534.56,117.56 534.78,117.90 534.99,118.26 535.21,118.61 535.42,118.97 535.64,119.34 535.86,119.71 536.07,120.06 536.29,120.41 536.50,120.76 536.72,121.13 536.93,121.49 537.15,121.85 537.37,122.21 537.58,122.55 537.80,122.91 538.01,123.25 538.23,123.59 538.44,123.98 538.66,124.36 538.88,124.70 539.09,125.05 539.31,125.39 539.52,125.74 539.74,126.10 539.95,126.44 540.17,126.77 540.38,127.09 540.60,127.42 540.82,127.75 541.03,128.07 541.25,128.38 541.46,128.68 541.68,128.99 541.89,129.30 542.11,129.61 542.33,129.90 542.54,130.19 542.76,130.46 542.97,130.74 543.19,131.03 543.40,131.32 543.62,131.59 543.84,131.85 544.05,132.10 544.27,132.35 544.48,132.58 544.70,132.81 544.91,133.04 545.13,133.26 545.35,133.45 545.56,133.62 545.78,133.80 545.99,133.98 546.21,134.15 546.42,134.33 546.64,134.48 546.85,134.62 547.07,134.76 547.29,134.89 547.50,135.04 547.72,135.17 547.93,135.29 548.15,135.38 548.36,135.48 548.58,135.55 548.80,135.59 549.01,135.63 549.23,135.67 549.44,135.71 549.66,135.74 549.87,135.77 550.09,135.79 550.31,135.79 550.52,135.77 550.74,135.73 550.95,135.69 551.17,135.66 551.38,135.61 551.60,135.52 551.82,135.43 552.03,135.33 552.25,135.24 552.46,135.13 552.68,135.02 552.89,134.88 553.11,134.71 553.32,134.51 553.54,134.33 553.76,134.14 553.97,133.91 554.19,133.67 554.40,133.44 554.62,133.17 554.83,132.89 555.05,132.60 555.27,132.31 555.48,132.02 555.70,131.71 555.91,131.36 556.13,130.99 556.34,130.58 556.56,130.16 556.78,129.71 556.99,129.25 557.21,128.81 557.42,128.34 557.64,127.84 557.85,127.31 558.07,126.75 558.29,126.18 558.50,125.59 558.72,124.98 558.93,124.33 559.15,123.68 559.36,123.00 559.58,122.31 559.79,121.60 560.01,120.87 560.23,120.11 560.44,119.34 560.66,118.54 560.87,117.73 561.09,116.92 561.30,116.09 561.52,115.24 561.74,114.38 561.95,113.50 562.17,112.61 562.38,111.72 562.60,110.81 562.81,109.86 563.03,108.90 563.25,107.93 563.46,106.95 563.68,105.95 563.89,104.94 564.11,103.91 564.32,102.88 564.54,101.84 564.76,100.79 564.97,99.74 565.19,98.68 565.40,97.63 565.62,96.56 565.83,95.49 566.05,94.42 566.26,93.32 566.48,92.21 566.70,91.09 566.91,89.97 567.13,88.85 567.34,87.74 567.56,86.62 567.77,85.51 567.99,84.40 568.21,83.31 568.42,82.22 568.64,81.14 568.85,80.07 569.07,79.02 569.28,77.96 569.50,76.91 569.72,75.88 569.93,74.86 570.15,73.84 570.36,72.85 570.58,71.87 570.79,70.89 571.01,69.92 571.23,68.94 571.44,67.99 571.66,67.07 571.87,66.19 572.09,65.32 572.30,64.45 572.52,63.63 572.73,62.84 572.95,62.10 573.17,61.33 573.38,60.60 573.60,59.88 573.81,59.19 574.03,58.53 574.24,57.90 574.46,57.28 574.68,56.69 574.89,56.14 575.11,55.61 575.32,55.12 575.54,54.68 575.75,54.26 575.97,53.88 576.19,53.51 576.40,53.20 576.62,52.92 576.83,52.66 577.05,52.46 577.26,52.28 577.48,52.14 577.69,52.05 577.91,52.00 578.13,52.00 578.34,52.01 578.56,52.05 578.77,52.13 578.99,52.26 579.20,52.42 579.42,52.63 579.64,52.87 579.85,53.16 580.07,53.43 580.28,53.74 580.50,54.09 580.71,54.50 580.93,54.92 581.15,55.36 581.36,55.86 581.58,56.35 581.79,56.88 582.01,57.46 582.22,58.06 582.44,58.70 582.66,59.39 582.87,60.10 583.09,60.87 583.30,61.67 583.52,62.49 583.73,63.31 583.95,64.17 584.16,65.07 584.38,65.99 584.60,66.94 584.81,67.90 585.03,68.88 585.24,69.87 585.46,70.91 585.67,71.96 585.89,73.04 586.11,74.12 586.32,75.21 586.54,76.34 586.75,77.45 586.97,78.56 587.18,79.71 587.40,80.87 587.62,82.05 587.83,83.20 588.05,84.32 588.26,85.46 588.48,86.62 588.69,87.80 588.91,88.98 589.13,90.16 589.34,91.35 589.56,92.55 589.77,93.73 589.99,94.91 590.20,96.10 590.42,97.29 590.63,98.50 590.85,99.70 591.07,100.89 591.28,102.09 591.50,103.29 591.71,104.49 591.93,105.69 592.14,106.88 592.36,108.05 592.58,109.22 592.79,110.40 593.01,111.56 593.22,112.72 593.44,113.87 593.65,115.00 593.87,116.12 594.09,117.24 594.30,118.35 594.52,119.44 594.73,120.50 594.95,121.54 595.16,122.56 595.38,123.59 595.60,124.60 595.81,125.61 596.03,126.61 596.24,127.57 596.46,128.54 596.67,129.50 596.89,130.45 597.10,131.39 597.32,132.30 597.54,133.20 597.75,134.08 597.97,134.94 598.18,135.79 598.40,136.63 598.61,137.46 598.83,138.27 599.05,139.10 599.26,139.91 599.48,140.73 599.69,141.53 599.91,142.33 600.12,143.12 600.34,143.89 600.56,144.66 600.77,145.40 600.99,146.14 601.20,146.87 601.42,147.58 601.63,148.26 601.85,148.97 602.07,149.65 602.28,150.31 602.50,150.95 602.71,151.59 602.93,152.22 603.14,152.83 603.36,153.47 603.57,154.08 603.79,154.71 604.01,155.33 604.22,155.92 604.44,156.50 604.65,157.08 604.87,157.66 605.08,158.22 605.30,158.77 605.52,159.30 605.73,159.85 605.95,160.39 606.16,160.92 606.38,161.43 606.59,161.94 606.81,162.44 607.03,162.93 607.24,163.42 607.46,163.91 607.67,164.41 607.89,164.90 608.10,165.37 608.32,165.84 608.54,166.30 608.75,166.78 608.97,167.24 609.18,167.72 609.40,168.14 609.61,168.55 609.83,168.95 610.04,169.34 610.26,169.72 610.48,170.08 610.69,170.45 610.91,170.84 611.12,171.26 611.34,171.66 611.55,172.06 611.77,172.46 611.99,172.85 612.20,173.23 612.42,173.59 612.63,173.97 612.85,174.35 613.06,174.72 613.28,175.08 613.50,175.45 613.71,175.83 613.93,176.21 614.14,176.64 614.36,177.06 614.57,177.48 614.79,177.89 615.00,178.29 615.22,178.69 615.44,179.08 615.65,179.44 615.87,179.81 616.08,180.17 616.30,180.53 616.51,180.89 616.73,181.23 616.95,181.58 617.16,181.92 617.38,182.26 617.59,182.58 617.81,182.91 618.02,183.23 618.24,183.56 618.46,183.88 618.67,184.19 618.89,184.50 619.10,184.79 619.32,185.12 619.53,185.42 619.75,185.72 619.97,186.00 620.18,186.27 620.40,186.55 620.61,186.84 620.83,187.13 621.04,187.41 621.26,187.68 621.47,187.96 621.69,188.24 621.91,188.51 622.12,188.78 622.34,189.05 622.55,189.31 622.77,189.56 622.98,189.80 623.20,190.05 623.42,190.27 623.63,190.51 623.85,190.74 624.06,190.96 624.28,191.19 624.49,191.40 624.71,191.61 624.93,191.83 625.14,192.05 625.36,192.26 625.57,192.45 625.79,192.63 626.00,192.83 626.22,193.04 626.44,193.26 626.65,193.45 626.87,193.63 627.08,193.82 627.30,194.00 627.51,194.20 627.73,194.41 627.94,194.62 628.16,194.83 628.38,195.04 628.59,195.25 628.81,195.48 629.02,195.70 629.24,195.92 629.45,196.14 629.67,196.36 629.89,196.60 630.10,196.85 630.32,197.09 630.53,197.34 630.75,197.59 630.96,197.84 631.18,198.09 631.40,198.35 631.61,198.62 631.83,198.90 632.04,199.17 632.26,199.44 632.47,199.72 632.69,200.00 632.91,200.27 633.12,200.54 633.34,200.82 633.55,201.09 633.77,201.36 633.98,201.63 634.20,201.90 634.41,202.16 634.63,202.41 634.85,202.66 635.06,202.92 635.28,203.18 635.49,203.43 635.71,203.67 635.92,203.92 636.14,204.17 636.36,204.44 636.57,204.68 636.79,204.93 637.00,205.18 637.22,205.42 637.43,205.67 637.65,205.92 637.87,206.17 638.08,206.42 638.30,206.65 638.51,206.89 638.73,207.13 638.94,207.40 639.16,207.67 639.38,207.94 639.59,208.22 639.81,208.49 640.02,208.75 640.24,209.01 640.45,209.26 640.67,209.51 640.88,209.76 641.10,210.01 641.32,210.27 641.53,210.52 641.75,210.77 641.96,211.05 642.18,211.34 642.39,211.65 642.61,211.97 642.83,212.28 643.04,212.59 643.26,212.89 643.47,213.21 643.69,213.50 643.90,213.79 644.12,214.07 644.34,214.35 644.55,214.62 644.77,214.90 644.98,215.19 645.20,215.47 645.41,215.75 645.63,216.03 645.85,216.31 646.06,216.58 646.28,216.85 646.49,217.12 646.71,217.37 646.92,217.59 647.14,217.81 647.35,218.03 647.57,218.23 647.79,218.45 648.00,218.69 648.22,218.95 648.43,219.19 648.65,219.44 648.86,219.69 649.08,219.90 649.30,220.09 649.51,220.28 649.73,220.47 649.94,220.65 650.16,220.82 650.37,221.00 650.59,221.17 650.81,221.35 651.02,221.52 651.24,221.69 651.45,221.86 651.67,222.03 651.88,222.20 652.10,222.37 652.31,222.54 652.53,222.71 652.75,222.89 652.96,223.06 653.18,223.23 653.39,223.38 653.61,223.53 653.82,223.69 654.04,223.85 654.26,224.01 654.47,224.16 654.69,224.31 654.90,224.46 655.12,224.61 655.33,224.76 655.55,224.92 655.77,225.05 655.98,225.18 656.20,225.31 656.41,225.43 656.63,225.56 656.84,225.69 657.06,225.85 657.28,225.99 657.49,226.12 657.71,226.25 657.92,226.41 658.14,226.59 658.35,226.77 658.57,226.94 658.78,227.07 659.00,227.20 659.22,227.35 659.43,227.50 659.65,227.67 659.86,227.83 660.08,228.01 660.29,228.17 660.51,228.34 660.73,228.51 660.94,228.68 661.16,228.85 661.37,229.02 661.59,229.20 661.80,229.39 662.02,229.58 662.24,229.76 662.45,229.95 662.67,230.14 662.88,230.32 663.10,230.51 663.31,230.70 663.53,230.89 663.75,231.07 663.96,231.25 664.18,231.43 664.39,231.60 664.61,231.77 664.82,231.93 665.04,232.07 665.25,232.21 665.47,232.36 665.69,232.50 665.90,232.65 666.12,232.78 666.33,232.90 666.55,233.04 666.76,233.18 666.98,233.31 667.20,233.46 667.41,233.63 667.63,233.81 667.84,233.99 668.06,234.17 668.27,234.36 668.49,234.56 668.71,234.73 668.92,234.89 669.14,235.07 669.35,235.24 669.57,235.41 669.78,235.58 670.00,235.75 670.22,235.92 670.43,236.09 670.65,236.25 670.86,236.42 671.08,236.59 671.29,236.76 671.51,236.93 671.72,237.10 671.94,237.27 672.16,237.44 672.37,237.60 672.59,237.78 672.80,237.97 673.02,238.16 673.23,238.34 673.45,238.53 673.67,238.71 673.88,238.88 674.10,239.06 674.31,239.24 674.53,239.41 674.74,239.58 674.96,239.73 675.18,239.88 675.39,240.03 675.61,240.19 675.82,240.34 676.04,240.48 676.25,240.61 676.47,240.74 676.69,240.87 676.90,240.99 677.12,241.12 677.33,241.25 677.55,241.37 677.76,241.48 677.98,241.58 678.19,241.68 678.41,241.78 678.63,241.86 678.84,241.93 679.06,242.01 679.27,242.09 679.49,242.20 679.70,242.31 679.92,242.42 680.14,242.53 680.35,242.64 680.57,242.72 680.78,242.80 681.00,242.88 681.21,242.95 681.43,243.03 681.65,243.12 681.86,243.24 682.08,243.36 682.29,243.48 682.51,243.60 682.72,243.72 682.94,243.84 683.15,243.95 683.37,244.07 683.59,244.18 683.80,244.29 684.02,244.40 684.23,244.51 684.45,244.61 684.66,244.72 684.88,244.82 685.10,244.93 685.31,245.03 685.53,245.13 685.74,245.23 685.96,245.35 686.17,245.46 686.39,245.56 686.61,245.65 686.82,245.75 687.04,245.85 687.25,245.94 687.47,246.03 687.68,246.12 687.90,246.21 688.12,246.30 688.33,246.40 688.55,246.55 688.76,246.67 688.98,246.82 689.19,246.96 689.41,247.11 689.62,247.22 689.84,247.35 690.06,247.47 690.27,247.60 690.49,247.69 690.70,247.78 690.92,247.88 691.13,247.97 691.35,248.08 691.57,248.20 691.78,248.32 692.00,248.44 692.21,248.56 692.43,248.68 692.64,248.80 692.86,248.92 693.08,249.03 693.29,249.15 693.51,249.27 693.72,249.38 693.94,249.49 694.15,249.61 694.37,249.72 694.59,249.83 694.80,249.93 695.02,250.04 695.23,250.15 695.45,250.25 695.66,250.35 695.88,250.45 696.09,250.55 696.31,250.65 696.53,250.74 696.74,250.82 696.96,250.90 697.17,250.98 697.39,251.08 697.60,251.18 697.82,251.29 698.04,251.40 698.25,251.50 698.47,251.60 698.68,251.70 698.90,251.80 699.11,251.91 699.33,252.02 699.55,252.12 699.76,252.23 699.98,252.32 700.19,252.41 700.41,252.50 700.62,252.59 700.84,252.68 701.06,252.77 701.27,252.85 701.49,252.95 701.70,253.05 701.92,253.14 702.13,253.23 702.35,253.31 702.56,253.40 702.78,253.45 703.00,253.51 703.21,253.57 703.43,253.63 703.64,253.69 703.86,253.74 704.07,253.80 704.29,253.86 704.51,253.92 704.72,253.98 704.94,254.03 705.15,254.09 705.37,254.15 705.58,254.20 705.80,254.25 706.02,254.30 706.23,254.35 706.45,254.40 706.66,254.44 706.88,254.49 707.09,254.56 707.31,254.59 707.53,254.67 707.74,254.74 707.96,254.80 708.17,254.87 708.39,254.93 708.60,254.98 708.82,255.05 709.03,255.08 709.25,255.11 709.47,255.14 709.68,255.17 709.90,255.20 710.11,255.22 710.33,255.26 710.54,255.31 710.76,255.35 710.98,255.40 711.19,255.48 711.41,255.56 711.62,255.62 711.84,255.68 712.05,255.74 712.27,255.80 712.49,255.86 712.70,255.92 712.92,255.98 713.13,256.04 713.35,256.11 713.56,256.17 713.78,256.23 714.00,256.28 714.21,256.34 714.43,256.40 714.64,256.46 714.86,256.52 715.07,256.57 715.29,256.63 715.50,256.68 715.72,256.74 715.94,256.79 716.15,256.84 716.37,256.89 716.58,256.94 716.80,256.99 717.01,257.03 717.23,257.07 717.45,257.11 717.66,257.15 717.88,257.18 718.09,257.22 718.31,257.25 718.52,257.28 718.74,257.32 718.96,257.36 719.17,257.41 719.39,257.45 719.60,257.50 719.82,257.56 720.03,257.61 720.25,257.66 720.46,257.71 720.68,257.77 720.90,257.83 721.11,257.86 721.33,257.91 721.54,257.94 721.76,257.96 721.97,257.99 722.19,258.02 722.41,258.06 722.62,258.09 722.84,258.14 723.05,258.18 723.27,258.22 723.48,258.26 723.70,258.30 723.92,258.34 724.13,258.38 724.35,258.42 724.56,258.46 724.78,258.49 724.99,258.52 725.21,258.56 725.43,258.59 725.64,258.63 725.86,258.66 726.07,258.70 726.29,258.73 726.50,258.77 726.72,258.80 726.93,258.83 727.15,258.86 727.37,258.89 727.58,258.92 727.80,258.95 728.01,258.97 728.23,259.00 728.44,259.02 728.66,259.04 728.88,259.07 729.09,259.09 729.31,259.12 729.52,259.15 729.74,259.18 729.95,259.21 730.17,259.24 730.39,259.25 730.60,259.26 730.82,259.28 731.03,259.30 731.25,259.32 731.46,259.35 731.68,259.37 731.90,259.39 732.11,259.41 732.33,259.42 732.54,259.44 732.76,259.44 732.97,259.45 733.19,259.45 733.40,259.43 733.62,259.43 733.84,259.43 734.05,259.42 734.27,259.42 734.48,259.40 734.70,259.40 734.91,259.38 735.13,259.36 735.35,259.35 735.56,259.35 735.78,259.36 735.99,259.35 736.21,259.37 736.42,259.39 736.64,259.41 736.86,259.43 737.07,259.46 737.29,259.50 737.50,259.53 737.72,259.56 737.93,259.59 738.15,259.63 738.37,259.65 738.58,259.68 738.80,259.71 739.01,259.73 739.23,259.75 739.44,259.76 739.66,259.77 739.87,259.80 740.09,259.80 740.31,259.79 740.52,259.79 740.74,259.81 740.95,259.82 741.17,259.83 741.38,259.84 741.60,259.87 741.82,259.90 742.03,259.94 742.25,259.98 742.46,260.02 742.68,260.06 742.89,260.09 743.11,260.11 743.33,260.14 743.54,260.16 743.76,260.17 743.97,260.19 744.19,260.21 744.40,260.24 744.62,260.27 744.84,260.30 745.05,260.33 745.27,260.36 745.48,260.39 745.70,260.42 745.91,260.45 746.13,260.48 746.34,260.51 746.56,260.54 746.78,260.57 746.99,260.60 747.21,260.62 747.42,260.65 747.64,260.68 747.85,260.71 748.07,260.73 748.29,260.76 748.50,260.79 748.72,260.80 748.93,260.81 749.15,260.81 749.36,260.84 749.58,260.86 749.80,260.89 750.01,260.93 750.23,260.97 750.44,261.01 750.66,261.05 750.87,261.09 751.09,261.14 751.31,261.19 751.52,261.24 751.74,261.28 751.95,261.31 752.17,261.34 752.38,261.39 752.60,261.42 752.81,261.45 753.03,261.48 753.25,261.51 753.46,261.53 753.68,261.56 753.89,261.58 754.11,261.59 754.32,261.61 754.54,261.62 754.76,261.64 754.97,261.66 755.19,261.68 755.40,261.69 755.62,261.71 755.83,261.73 756.05,261.76 756.27,261.80 756.48,261.83 756.70,261.87 756.91,261.90 757.13,261.92 757.34,261.96 757.56,261.98 757.77,262.00 757.99,262.02 758.21,262.04 758.42,262.06 758.64,262.07 758.85,262.09 759.07,262.10 759.28,262.12 759.50,262.13 759.72,262.15 759.93,262.16 760.15,262.18 760.36,262.20 760.58,262.24 760.79,262.27 761.01,262.31 761.23,262.34 761.44,262.35 761.66,262.36 761.87,262.37 762.09,262.38 762.30,262.39 762.52,262.40 762.74,262.41 762.95,262.41 763.17,262.42 763.38,262.43 763.60,262.44 763.81,262.45 764.03,262.46 764.24,262.46 764.46,262.47 764.68,262.48 764.89,262.48 765.11,262.49 765.32,262.51 765.54,262.52 765.75,262.52 765.97,262.55 766.19,262.55 766.40,262.55 766.62,262.55 766.83,262.56 767.05,262.58 767.26,262.58 767.48,262.60 767.70,262.62 767.91,262.66 768.13,262.70 768.34,262.72 768.56,262.76 768.77,262.79 768.99,262.82 769.21,262.84 769.42,262.87 769.64,262.89 769.85,262.90 770.07,262.92 770.28,262.94 770.50,262.95 770.71,262.97 770.93,262.99 771.15,263.02 771.36,263.05 771.58,263.07 771.79,263.12 772.01,263.16 772.22,263.19 772.44,263.22 772.66,263.25 772.87,263.31 773.09,263.36 773.30,263.38 773.52,263.42 773.73,263.42 773.95,263.43 774.17,263.46 774.38,263.48 774.60,263.50 774.81,263.50 775.03,263.51 775.24,263.54 775.46,263.57 775.68,263.60 775.89,263.63 776.11,263.66 776.32,263.68 776.54,263.71 776.75,263.74 776.97,263.77 777.18,263.80 777.40,263.82 777.62,263.85 777.83,263.87 778.05,263.90 778.26,263.92 778.48,263.94 778.69,263.96 778.91,263.99 779.13,264.01 779.34,264.03 779.56,264.05 779.77,264.07 779.99,264.09 780.20,264.11 780.42,264.13 780.64,264.15 780.85,264.17 781.07,264.19 781.28,264.22 781.50,264.26 781.71,264.30 781.93,264.34 782.15,264.37 782.36,264.39 782.58,264.41 782.79,264.43 783.01,264.44 783.22,264.46 783.44,264.48 783.65,264.48 783.87,264.48 784.09,264.48 784.30,264.48 784.52,264.49 784.73,264.50 784.95,264.49 785.16,264.50 785.38,264.50 785.60,264.50 785.81,264.50 786.03,264.50 786.24,264.50 786.46,264.52 786.67,264.53 786.89,264.54 787.11,264.54 787.32,264.55 787.54,264.56 787.75,264.57 787.97,264.59 788.18,264.61 788.40,264.63 788.62,264.63 788.83,264.63 789.05,264.62 789.26,264.62 789.48,264.61 789.69,264.62 789.91,264.61 790.12,264.62 790.34,264.62 790.56,264.63 790.77,264.63 790.99,264.63 791.20,264.64 791.42,264.65 791.63,264.66 791.85,264.67 792.07,264.68 792.28,264.69 792.50,264.70 792.71,264.71 792.93,264.71 793.14,264.70 793.36,264.69 793.58,264.68 793.79,264.66 794.01,264.66 794.22,264.65 794.44,264.66 794.65,264.66 794.87,264.67 795.08,264.67 795.30,264.68 795.52,264.68 795.73,264.68 795.95,264.68 796.16,264.68 796.38,264.68 796.59,264.68 796.81,264.68 797.03,264.68 797.24,264.68 797.46,264.68 797.67,264.67 797.89,264.67 798.10,264.67 798.32,264.66 798.54,264.66 798.75,264.65 798.97,264.65 799.18,264.64 799.40,264.64 799.61,264.63 799.83,264.63 800.05,264.61 800.26,264.60 800.48,264.58 800.69,264.57 800.91,264.56 801.12,264.55 801.34,264.54 801.55,264.54 801.77,264.54 801.99,264.54 802.20,264.55 802.42,264.55 802.63,264.55 802.85,264.56 803.06,264.56 803.28,264.56 803.50,264.56 803.71,264.57 803.93,264.57 804.14,264.57 804.36,264.58 804.57,264.58 804.79,264.58 805.01,264.58 805.22,264.59 805.44,264.58 805.65,264.57 805.87,264.56 806.08,264.55 806.30,264.56 806.52,264.57 806.73,264.57 806.95,264.59 807.16,264.60 807.38,264.62 807.59,264.65 807.81,264.65 808.02,264.66 808.24,264.67 808.46,264.69 808.67,264.70 808.89,264.71 809.10,264.71 809.32,264.70 809.53,264.69 809.75,264.68 809.97,264.67 810.18,264.66 810.40,264.66 810.61,264.65 810.83,264.64 811.04,264.63 811.26,264.64 811.48,264.65 811.69,264.66 811.91,264.67 812.12,264.70 812.34,264.72 812.55,264.74 812.77,264.76 812.99,264.76 813.20,264.77 813.42,264.78 813.63,264.79 813.85,264.78 814.06,264.76 814.28,264.75 814.49,264.73 814.71,264.71 814.93,264.70 815.14,264.68 815.36,264.68 815.57,264.66 815.79,264.64 816.00,264.63 816.22,264.63 816.44,264.62 816.65,264.60 816.87,264.57 817.08,264.54 817.30,264.51 817.51,264.47 817.73,264.45 817.95,264.41 818.16,264.39 818.38,264.37 818.59,264.35 818.81,264.33 819.02,264.31 819.24,264.29 819.46,264.26 819.67,264.24 819.89,264.23 820.10,264.20 820.32,264.17 820.53,264.14 820.75,264.11 820.96,264.07 821.18,264.03 821.40,264.00 821.61,263.96 821.83,263.92 822.04,263.88 822.26,263.84 822.47,263.80 822.69,263.75 822.91,263.70 823.12,263.66 823.34,263.61 823.55,263.56 823.77,263.51 823.98,263.47 824.20,263.42 824.42,263.39 824.63,263.37 824.85,263.31 825.06,263.29 825.28,263.25 825.49,263.22 825.71,263.18 825.92,263.14 826.14,263.10 826.36,263.05 826.57,263.01 826.79,262.95 827.00,262.90 827.22,262.86 827.43,262.81 827.65,262.75 827.87,262.68 828.08,262.62 828.30,262.56 828.51,262.50 828.73,262.43 828.94,262.36 829.16,262.29 829.38,262.21 829.59,262.14 829.81,262.07 830.02,261.99 830.24,261.92 830.45,261.85 830.67,261.77 830.89,261.69 831.10,261.61 831.32,261.54 831.53,261.46 831.75,261.38 831.96,261.30 832.18,261.24 832.39,261.17 832.61,261.11 832.83,261.05 833.04,260.99 833.26,260.93 833.47,260.87 833.69,260.80 833.90,260.74 834.12,260.66 834.34,260.58 834.55,260.49 834.77,260.41 834.98,260.33 835.20,260.24 835.41,260.15 835.63,260.06 835.85,259.97 836.06,259.88 836.28,259.79 836.49,259.70 836.71,259.61 836.92,259.52 837.14,259.42 837.36,259.33 837.57,259.24 837.79,259.15 838.00,259.05 838.22,258.96 838.43,258.87 838.65,258.77 838.86,258.68 839.08,258.59 839.30,258.51 839.51,258.43 839.73,258.35 839.94,258.27 840.16,258.18 840.37,258.09 840.59,257.98 840.81,257.86 841.02,257.74 841.24,257.62 841.45,257.49 841.67,257.38 841.88,257.30 842.10,257.20 842.32,257.10 842.53,257.00 842.75,256.91 842.96,256.80 843.18,256.71 843.39,256.62 843.61,256.53 843.83,256.42 844.04,256.31 844.26,256.21 844.47,256.10 844.69,255.97 844.90,255.84 845.12,255.72 845.33,255.59 845.55,255.48 845.77,255.35 845.98,255.23 846.20,255.10 846.41,255.00 846.63,254.90 846.84,254.80 847.06,254.71 847.28,254.61 847.49,254.52 847.71,254.42 847.92,254.31 848.14,254.22 848.35,254.14 848.57,254.03 848.79,253.93 849.00,253.83 849.22,253.74 849.43,253.66 849.65,253.58 849.86,253.51 850.08,253.44 850.30,253.37 850.51,253.30 850.73,253.24 850.94,253.16 851.16,253.08 851.37,253.01 851.59,252.94 851.80,252.87 852.02,252.80 852.24,252.74 852.45,252.67 852.67,252.61 852.88,252.56 853.10,252.50 853.31,252.45 853.53,252.40 853.75,252.35 853.96,252.31 854.18,252.27 854.39,252.23 854.61,252.19 854.82,252.16 855.04,252.13 855.26,252.10 855.47,252.08 855.69,252.07 855.90,252.05 856.12,252.04 856.33,252.03 856.55,252.02 856.77,252.02 856.98,251.99 857.20,251.96 857.41,251.96 857.63,251.94 857.84,251.91 858.06,251.89 858.27,251.88 858.49,251.86 858.71,251.84 858.92,251.83 859.14,251.82 859.35,251.81 859.57,251.80 859.78,251.79 860.00,251.77" fill="none" stroke="#1f77b4" stroke-width="2" stroke-linejoin="round" stroke-linecap="round"/>
<text x="469.0" y="596" text-anchor="middle" class="label">Pixel</text>
<text x="22" y="300.0" text-anchor="middle" class="label" transform="rotate(-90 22 300.0)">Smoothed normalized intensity</text>
<line x1="882" y1="64" x2="906" y2="64" stroke="#1f77b4" stroke-width="3"/>
<text x="914" y="68" class="legend">10-2</text>
</svg>