<svg xmlns="http://www.w3.org/2000/svg" width="1080" height="620" viewBox="0 0 1080 620">
<style>
  text { font-family: Arial, "Microsoft YaHei", sans-serif; fill: #222; }
  .title { font-size: 18px; font-weight: 700; }
  .label { font-size: 14px; }
  .tick { font-size: 12px; fill: #444; }
  .legend { font-size: 12px; }
  .grid { stroke: #dddddd; stroke-width: 1; }
</style>
<text x="540.0" y="28" text-anchor="middle" class="title">9-5 smoothed normalized intensity</text>
<rect x="78" y="52" width="782" height="496" fill="#ffffff" stroke="#333333" stroke-width="1"/>
<line x1="78" y1="548.00" x2="860" y2="548.00" class="grid"/>
<text x="70" y="552.00" text-anchor="end" class="tick">0</text>
<line x1="78" y1="448.80" x2="860" y2="448.80" class="grid"/>
<text x="70" y="452.80" text-anchor="end" class="tick">0.2</text>
<line x1="78" y1="349.60" x2="860" y2="349.60" class="grid"/>
<text x="70" y="353.60" text-anchor="end" class="tick">0.4</text>
<line x1="78" y1="250.40" x2="860" y2="250.40" class="grid"/>
<text x="70" y="254.40" text-anchor="end" class="tick">0.6</text>
<line x1="78" y1="151.20" x2="860" y2="151.20" class="grid"/>
<text x="70" y="155.20" text-anchor="end" class="tick">0.8</text>
<line x1="78" y1="52.00" x2="860" y2="52.00" class="grid"/>
<text x="70" y="56.00" text-anchor="end" class="tick">1</text>
<line x1="78.00" y1="52" x2="78.00" y2="548" class="grid"/>
<text x="78.00" y="570" text-anchor="middle" class="tick">21</text>
<line x1="234.40" y1="52" x2="234.40" y2="548" class="grid"/>
<text x="234.40" y="570" text-anchor="middle" class="tick">746</text>
<line x1="390.80" y1="52" x2="390.80" y2="548" class="grid"/>
<text x="390.80" y="570" text-anchor="middle" class="tick">1471</text>
<line x1="547.20" y1="52" x2="547.20" y2="548" class="grid"/>
<text x="547.20" y="570" text-anchor="middle" class="tick">2197</text>
<line x1="703.60" y1="52" x2="703.60" y2="548" class="grid"/>
<text x="703.60" y="570" text-anchor="middle" class="tick">2922</text>
<line x1="860.00" y1="52" x2="860.00" y2="548" class="grid"/>
<text x="860.00" y="570" text-anchor="middle" class="tick">3647</text>
<polyline points="78.00,144.10 78.22,144.12 78.43,144.15 78.65,144.17 78.86,144.19 79.08,144.21 79.29,144.24 79.51,144.26 79.73,144.27 79.94,144.26 80.16,144.25 80.37,144.24 80.59,144.23 80.80,144.22 81.02,144.21 81.23,144.21 81.45,144.20 81.67,144.23 81.88,144.25 82.10,144.28 82.31,144.30 82.53,144.32 82.74,144.35 82.96,144.36 83.18,144.36 83.39,144.37 83.61,144.38 83.82,144.41 84.04,144.44 84.25,144.47 84.47,144.50 84.69,144.53 84.90,144.55 85.12,144.58 85.33,144.61 85.55,144.63 85.76,144.66 85.98,144.68 86.20,144.71 86.41,144.73 86.63,144.75 86.84,144.77 87.06,144.79 87.27,144.80 87.49,144.81 87.70,144.82 87.92,144.82 88.14,144.83 88.35,144.84 88.57,144.85 88.78,144.86 89.00,144.88 89.21,144.89 89.43,144.91 89.65,144.92 89.86,144.93 90.08,144.95 90.29,144.95 90.51,144.93 90.72,144.91 90.94,144.89 91.16,144.87 91.37,144.85 91.59,144.84 91.80,144.82 92.02,144.81 92.23,144.80 92.45,144.79 92.67,144.78 92.88,144.77 93.10,144.76 93.31,144.75 93.53,144.74 93.74,144.74 93.96,144.73 94.17,144.73 94.39,144.73 94.61,144.73 94.82,144.72 95.04,144.71 95.25,144.71 95.47,144.71 95.68,144.70 95.90,144.70 96.12,144.69 96.33,144.69 96.55,144.68 96.76,144.67 96.98,144.66 97.19,144.65 97.41,144.64 97.63,144.63 97.84,144.62 98.06,144.62 98.27,144.62 98.49,144.62 98.70,144.62 98.92,144.62 99.14,144.62 99.35,144.63 99.57,144.64 99.78,144.64 100.00,144.64 100.21,144.65 100.43,144.66 100.64,144.67 100.86,144.69 101.08,144.69 101.29,144.74 101.51,144.80 101.72,144.87 101.94,144.93 102.15,145.00 102.37,145.08 102.59,145.15 102.80,145.21 103.02,145.28 103.23,145.34 103.45,145.40 103.66,145.48 103.88,145.56 104.10,145.64 104.31,145.67 104.53,145.72 104.74,145.75 104.96,145.79 105.17,145.82 105.39,145.86 105.61,145.89 105.82,145.93 106.04,145.96 106.25,145.99 106.47,146.02 106.68,146.05 106.90,146.08 107.11,146.11 107.33,146.14 107.55,146.16 107.76,146.19 107.98,146.23 108.19,146.27 108.41,146.31 108.62,146.35 108.84,146.38 109.06,146.42 109.27,146.45 109.49,146.48 109.70,146.50 109.92,146.53 110.13,146.55 110.35,146.58 110.57,146.59 110.78,146.61 111.00,146.63 111.21,146.64 111.43,146.65 111.64,146.66 111.86,146.67 112.08,146.67 112.29,146.68 112.51,146.72 112.72,146.76 112.94,146.79 113.15,146.84 113.37,146.87 113.58,146.91 113.80,146.95 114.02,146.99 114.23,147.01 114.45,147.02 114.66,147.04 114.88,147.05 115.09,147.06 115.31,147.08 115.53,147.11 115.74,147.14 115.96,147.17 116.17,147.20 116.39,147.21 116.60,147.22 116.82,147.23 117.04,147.25 117.25,147.25 117.47,147.27 117.68,147.29 117.90,147.30 118.11,147.32 118.33,147.33 118.54,147.33 118.76,147.34 118.98,147.34 119.19,147.34 119.41,147.35 119.62,147.35 119.84,147.34 120.05,147.33 120.27,147.33 120.49,147.33 120.70,147.33 120.92,147.33 121.13,147.33 121.35,147.32 121.56,147.31 121.78,147.30 122.00,147.28 122.21,147.26 122.43,147.23 122.64,147.19 122.86,147.16 123.07,147.16 123.29,147.16 123.51,147.15 123.72,147.15 123.94,147.15 124.15,147.14 124.37,147.10 124.58,147.07 124.80,147.04 125.01,147.01 125.23,146.99 125.45,146.97 125.66,146.95 125.88,146.94 126.09,146.92 126.31,146.94 126.52,146.96 126.74,146.98 126.96,147.00 127.17,147.03 127.39,147.05 127.60,147.07 127.82,147.09 128.03,147.11 128.25,147.13 128.47,147.15 128.68,147.18 128.90,147.20 129.11,147.24 129.33,147.25 129.54,147.26 129.76,147.27 129.98,147.29 130.19,147.31 130.41,147.34 130.62,147.37 130.84,147.40 131.05,147.43 131.27,147.46 131.48,147.50 131.70,147.54 131.92,147.59 132.13,147.63 132.35,147.68 132.56,147.76 132.78,147.84 132.99,147.92 133.21,147.99 133.43,148.06 133.64,148.11 133.86,148.13 134.07,148.17 134.29,148.21 134.50,148.22 134.72,148.23 134.94,148.25 135.15,148.26 135.37,148.32 135.58,148.38 135.80,148.42 136.01,148.46 136.23,148.49 136.45,148.50 136.66,148.52 136.88,148.56 137.09,148.60 137.31,148.64 137.52,148.69 137.74,148.73 137.95,148.77 138.17,148.82 138.39,148.86 138.60,148.91 138.82,148.96 139.03,149.01 139.25,149.06 139.46,149.11 139.68,149.16 139.90,149.21 140.11,149.26 140.33,149.31 140.54,149.35 140.76,149.42 140.97,149.49 141.19,149.56 141.41,149.62 141.62,149.68 141.84,149.74 142.05,149.81 142.27,149.88 142.48,149.94 142.70,149.99 142.92,150.05 143.13,150.07 143.35,150.10 143.56,150.12 143.78,150.15 143.99,150.17 144.21,150.20 144.42,150.22 144.64,150.25 144.86,150.27 145.07,150.30 145.29,150.33 145.50,150.36 145.72,150.39 145.93,150.42 146.15,150.46 146.37,150.50 146.58,150.53 146.80,150.57 147.01,150.60 147.23,150.64 147.44,150.68 147.66,150.71 147.88,150.75 148.09,150.79 148.31,150.83 148.52,150.85 148.74,150.89 148.95,150.92 149.17,150.96 149.38,151.00 149.60,151.03 149.82,151.07 150.03,151.09 150.25,151.14 150.46,151.19 150.68,151.23 150.89,151.27 151.11,151.31 151.33,151.31 151.54,151.32 151.76,151.32 151.97,151.33 152.19,151.32 152.40,151.33 152.62,151.34 152.84,151.35 153.05,151.36 153.27,151.35 153.48,151.35 153.70,151.34 153.91,151.34 154.13,151.33 154.35,151.32 154.56,151.31 154.78,151.29 154.99,151.29 155.21,151.28 155.42,151.28 155.64,151.27 155.85,151.26 156.07,151.25 156.29,151.24 156.50,151.23 156.72,151.23 156.93,151.25 157.15,151.26 157.36,151.27 157.58,151.28 157.80,151.29 158.01,151.31 158.23,151.33 158.44,151.35 158.66,151.37 158.87,151.35 159.09,151.34 159.31,151.33 159.52,151.32 159.74,151.29 159.95,151.26 160.17,151.24 160.38,151.22 160.60,151.20 160.82,151.19 161.03,151.19 161.25,151.19 161.46,151.18 161.68,151.18 161.89,151.20 162.11,151.23 162.32,151.25 162.54,151.28 162.76,151.32 162.97,151.35 163.19,151.38 163.40,151.41 163.62,151.45 163.83,151.49 164.05,151.53 164.27,151.58 164.48,151.64 164.70,151.70 164.91,151.76 165.13,151.79 165.34,151.81 165.56,151.83 165.78,151.84 165.99,151.86 166.21,151.90 166.42,151.94 166.64,151.95 166.85,151.96 167.07,151.99 167.29,152.02 167.50,152.06 167.72,152.09 167.93,152.10 168.15,152.12 168.36,152.17 168.58,152.21 168.79,152.25 169.01,152.30 169.23,152.34 169.44,152.38 169.66,152.42 169.87,152.46 170.09,152.51 170.30,152.54 170.52,152.58 170.74,152.62 170.95,152.66 171.17,152.70 171.38,152.72 171.60,152.75 171.81,152.78 172.03,152.81 172.25,152.85 172.46,152.88 172.68,152.92 172.89,152.95 173.11,152.99 173.32,153.02 173.54,153.03 173.76,153.06 173.97,153.08 174.19,153.09 174.40,153.10 174.62,153.11 174.83,153.12 175.05,153.13 175.26,153.11 175.48,153.09 175.70,153.11 175.91,153.12 176.13,153.13 176.34,153.15 176.56,153.17 176.77,153.20 176.99,153.23 177.21,153.26 177.42,153.30 177.64,153.33 177.85,153.37 178.07,153.39 178.28,153.41 178.50,153.44 178.72,153.47 178.93,153.49 179.15,153.53 179.36,153.57 179.58,153.63 179.79,153.67 180.01,153.71 180.23,153.75 180.44,153.79 180.66,153.82 180.87,153.85 181.09,153.89 181.30,153.95 181.52,154.00 181.73,154.05 181.95,154.11 182.17,154.17 182.38,154.22 182.60,154.27 182.81,154.30 183.03,154.30 183.24,154.31 183.46,154.31 183.68,154.30 183.89,154.31 184.11,154.33 184.32,154.34 184.54,154.36 184.75,154.39 184.97,154.40 185.19,154.42 185.40,154.44 185.62,154.46 185.83,154.49 186.05,154.51 186.26,154.54 186.48,154.57 186.69,154.59 186.91,154.62 187.13,154.66 187.34,154.70 187.56,154.73 187.77,154.76 187.99,154.79 188.20,154.82 188.42,154.85 188.64,154.87 188.85,154.90 189.07,154.92 189.28,154.93 189.50,154.95 189.71,154.98 189.93,155.01 190.15,155.04 190.36,155.08 190.58,155.10 190.79,155.13 191.01,155.16 191.22,155.19 191.44,155.22 191.66,155.25 191.87,155.27 192.09,155.30 192.30,155.34 192.52,155.36 192.73,155.40 192.95,155.42 193.16,155.46 193.38,155.49 193.60,155.51 193.81,155.52 194.03,155.53 194.24,155.53 194.46,155.52 194.67,155.52 194.89,155.52 195.11,155.52 195.32,155.52 195.54,155.52 195.75,155.52 195.97,155.53 196.18,155.53 196.40,155.54 196.62,155.57 196.83,155.59 197.05,155.59 197.26,155.60 197.48,155.60 197.69,155.60 197.91,155.60 198.13,155.61 198.34,155.62 198.56,155.60 198.77,155.59 198.99,155.58 199.20,155.56 199.42,155.54 199.63,155.52 199.85,155.51 200.07,155.48 200.28,155.45 200.50,155.43 200.71,155.39 200.93,155.35 201.14,155.32 201.36,155.28 201.58,155.25 201.79,155.21 202.01,155.18 202.22,155.15 202.44,155.12 202.65,155.09 202.87,155.07 203.09,155.05 203.30,155.04 203.52,155.02 203.73,155.00 203.95,155.02 204.16,155.03 204.38,155.05 204.60,155.06 204.81,155.08 205.03,155.10 205.24,155.11 205.46,155.13 205.67,155.15 205.89,155.16 206.10,155.15 206.32,155.14 206.54,155.13 206.75,155.13 206.97,155.12 207.18,155.13 207.40,155.12 207.61,155.11 207.83,155.13 208.05,155.15 208.26,155.17 208.48,155.19 208.69,155.22 208.91,155.24 209.12,155.27 209.34,155.28 209.56,155.30 209.77,155.32 209.99,155.33 210.20,155.35 210.42,155.37 210.63,155.41 210.85,155.46 211.07,155.51 211.28,155.56 211.50,155.62 211.71,155.66 211.93,155.71 212.14,155.74 212.36,155.79 212.57,155.85 212.79,155.90 213.01,155.95 213.22,156.01 213.44,156.07 213.65,156.14 213.87,156.17 214.08,156.22 214.30,156.25 214.52,156.28 214.73,156.31 214.95,156.33 215.16,156.35 215.38,156.37 215.59,156.41 215.81,156.43 216.03,156.45 216.24,156.49 216.46,156.53 216.67,156.56 216.89,156.60 217.10,156.64 217.32,156.69 217.54,156.74 217.75,156.82 217.97,156.89 218.18,156.97 218.40,157.04 218.61,157.12 218.83,157.18 219.04,157.25 219.26,157.32 219.48,157.39 219.69,157.44 219.91,157.49 220.12,157.55 220.34,157.60 220.55,157.65 220.77,157.68 220.99,157.72 221.20,157.75 221.42,157.79 221.63,157.82 221.85,157.86 222.06,157.89 222.28,157.92 222.50,157.96 222.71,157.99 222.93,158.02 223.14,158.04 223.36,158.07 223.57,158.08 223.79,158.10 224.00,158.12 224.22,158.14 224.44,158.16 224.65,158.18 224.87,158.21 225.08,158.25 225.30,158.28 225.51,158.32 225.73,158.34 225.95,158.36 226.16,158.38 226.38,158.41 226.59,158.42 226.81,158.45 227.02,158.48 227.24,158.51 227.46,158.54 227.67,158.57 227.89,158.60 228.10,158.64 228.32,158.69 228.53,158.74 228.75,158.80 228.97,158.85 229.18,158.88 229.40,158.90 229.61,158.93 229.83,158.94 230.04,158.94 230.26,158.97 230.47,158.97 230.69,158.97 230.91,158.97 231.12,158.98 231.34,158.99 231.55,159.00 231.77,159.03 231.98,159.05 232.20,159.08 232.42,159.11 232.63,159.14 232.85,159.17 233.06,159.18 233.28,159.19 233.49,159.21 233.71,159.23 233.93,159.27 234.14,159.31 234.36,159.35 234.57,159.39 234.79,159.43 235.00,159.48 235.22,159.54 235.44,159.60 235.65,159.66 235.87,159.72 236.08,159.78 236.30,159.84 236.51,159.90 236.73,159.95 236.94,160.02 237.16,160.08 237.38,160.15 237.59,160.23 237.81,160.30 238.02,160.37 238.24,160.44 238.45,160.52 238.67,160.60 238.89,160.69 239.10,160.78 239.32,160.85 239.53,160.93 239.75,161.00 239.96,161.08 240.18,161.16 240.40,161.25 240.61,161.33 240.83,161.42 241.04,161.50 241.26,161.59 241.47,161.68 241.69,161.78 241.91,161.87 242.12,161.97 242.34,162.05 242.55,162.14 242.77,162.23 242.98,162.32 243.20,162.41 243.41,162.48 243.63,162.55 243.85,162.63 244.06,162.70 244.28,162.78 244.49,162.84 244.71,162.92 244.92,162.99 245.14,163.06 245.36,163.13 245.57,163.21 245.79,163.28 246.00,163.37 246.22,163.45 246.43,163.55 246.65,163.65 246.87,163.75 247.08,163.85 247.30,163.96 247.51,164.07 247.73,164.21 247.94,164.35 248.16,164.49 248.38,164.64 248.59,164.81 248.81,164.96 249.02,165.12 249.24,165.30 249.45,165.47 249.67,165.62 249.88,165.77 250.10,165.92 250.32,166.05 250.53,166.17 250.75,166.32 250.96,166.45 251.18,166.58 251.39,166.72 251.61,166.86 251.83,167.00 252.04,167.14 252.26,167.27 252.47,167.40 252.69,167.52 252.90,167.64 253.12,167.76 253.34,167.89 253.55,168.02 253.77,168.14 253.98,168.26 254.20,168.38 254.41,168.48 254.63,168.56 254.85,168.64 255.06,168.70 255.28,168.77 255.49,168.84 255.71,168.92 255.92,169.00 256.14,169.07 256.35,169.15 256.57,169.23 256.79,169.32 257.00,169.41 257.22,169.49 257.43,169.57 257.65,169.64 257.86,169.70 258.08,169.76 258.30,169.82 258.51,169.88 258.73,169.92 258.94,169.97 259.16,170.03 259.37,170.09 259.59,170.15 259.81,170.21 260.02,170.27 260.24,170.33 260.45,170.38 260.67,170.44 260.88,170.49 261.10,170.52 261.31,170.55 261.53,170.57 261.75,170.60 261.96,170.62 262.18,170.63 262.39,170.67 262.61,170.70 262.82,170.71 263.04,170.73 263.26,170.76 263.47,170.78 263.69,170.80 263.90,170.82 264.12,170.84 264.33,170.86 264.55,170.87 264.77,170.88 264.98,170.90 265.20,170.93 265.41,170.96 265.63,171.00 265.84,171.04 266.06,171.08 266.28,171.13 266.49,171.14 266.71,171.14 266.92,171.15 267.14,171.16 267.35,171.17 267.57,171.18 267.78,171.18 268.00,171.18 268.22,171.21 268.43,171.25 268.65,171.29 268.86,171.33 269.08,171.37 269.29,171.41 269.51,171.43 269.73,171.46 269.94,171.48 270.16,171.50 270.37,171.52 270.59,171.53 270.80,171.55 271.02,171.56 271.24,171.56 271.45,171.55 271.67,171.52 271.88,171.49 272.10,171.47 272.31,171.45 272.53,171.42 272.75,171.40 272.96,171.39 273.18,171.37 273.39,171.36 273.61,171.36 273.82,171.36 274.04,171.36 274.25,171.37 274.47,171.37 274.69,171.38 274.90,171.40 275.12,171.44 275.33,171.47 275.55,171.50 275.76,171.53 275.98,171.58 276.20,171.64 276.41,171.70 276.63,171.76 276.84,171.82 277.06,171.90 277.27,171.98 277.49,172.06 277.71,172.15 277.92,172.23 278.14,172.32 278.35,172.42 278.57,172.52 278.78,172.63 279.00,172.74 279.22,172.85 279.43,172.96 279.65,173.08 279.86,173.20 280.08,173.31 280.29,173.40 280.51,173.49 280.72,173.58 280.94,173.67 281.16,173.74 281.37,173.83 281.59,173.92 281.80,174.00 282.02,174.07 282.23,174.18 282.45,174.29 282.67,174.39 282.88,174.50 283.10,174.61 283.31,174.68 283.53,174.77 283.74,174.87 283.96,174.94 284.18,175.01 284.39,175.08 284.61,175.15 284.82,175.22 285.04,175.28 285.25,175.34 285.47,175.41 285.69,175.47 285.90,175.50 286.12,175.52 286.33,175.54 286.55,175.56 286.76,175.58 286.98,175.61 287.19,175.66 287.41,175.73 287.63,175.79 287.84,175.86 288.06,175.95 288.27,176.04 288.49,176.13 288.70,176.22 288.92,176.31 289.14,176.41 289.35,176.48 289.57,176.55 289.78,176.62 290.00,176.69 290.21,176.75 290.43,176.82 290.65,176.89 290.86,176.97 291.08,177.03 291.29,177.09 291.51,177.15 291.72,177.21 291.94,177.27 292.15,177.34 292.37,177.41 292.59,177.48 292.80,177.55 293.02,177.62 293.23,177.69 293.45,177.76 293.66,177.83 293.88,177.91 294.10,177.98 294.31,178.06 294.53,178.13 294.74,178.20 294.96,178.26 295.17,178.33 295.39,178.38 295.61,178.42 295.82,178.46 296.04,178.50 296.25,178.55 296.47,178.59 296.68,178.65 296.90,178.71 297.12,178.78 297.33,178.85 297.55,178.91 297.76,178.97 297.98,179.03 298.19,179.09 298.41,179.15 298.62,179.22 298.84,179.28 299.06,179.35 299.27,179.44 299.49,179.54 299.70,179.64 299.92,179.74 300.13,179.84 300.35,179.93 300.57,180.02 300.78,180.10 301.00,180.16 301.21,180.22 301.43,180.28 301.64,180.32 301.86,180.35 302.08,180.38 302.29,180.41 302.51,180.44 302.72,180.46 302.94,180.49 303.15,180.51 303.37,180.54 303.59,180.56 303.80,180.59 304.02,180.63 304.23,180.69 304.45,180.76 304.66,180.83 304.88,180.91 305.09,180.98 305.31,181.06 305.53,181.14 305.74,181.21 305.96,181.29 306.17,181.37 306.39,181.45 306.60,181.53 306.82,181.60 307.04,181.67 307.25,181.75 307.47,181.83 307.68,181.90 307.90,181.98 308.11,182.06 308.33,182.14 308.55,182.21 308.76,182.29 308.98,182.35 309.19,182.43 309.41,182.50 309.62,182.57 309.84,182.65 310.06,182.72 310.27,182.80 310.49,182.89 310.70,182.97 310.92,183.04 311.13,183.09 311.35,183.13 311.56,183.18 311.78,183.22 312.00,183.27 312.21,183.31 312.43,183.36 312.64,183.41 312.86,183.46 313.07,183.52 313.29,183.59 313.51,183.65 313.72,183.71 313.94,183.78 314.15,183.84 314.37,183.90 314.58,183.97 314.80,184.03 315.02,184.09 315.23,184.15 315.45,184.21 315.66,184.27 315.88,184.34 316.09,184.40 316.31,184.47 316.53,184.53 316.74,184.60 316.96,184.66 317.17,184.73 317.39,184.79 317.60,184.85 317.82,184.92 318.03,184.98 318.25,185.04 318.47,185.12 318.68,185.22 318.90,185.32 319.11,185.42 319.33,185.53 319.54,185.63 319.76,185.73 319.98,185.84 320.19,185.95 320.41,186.04 320.62,186.13 320.84,186.21 321.05,186.29 321.27,186.37 321.49,186.44 321.70,186.51 321.92,186.58 322.13,186.65 322.35,186.70 322.56,186.76 322.78,186.83 323.00,186.89 323.21,186.95 323.43,187.01 323.64,187.08 323.86,187.18 324.07,187.27 324.29,187.37 324.50,187.47 324.72,187.56 324.94,187.64 325.15,187.72 325.37,187.81 325.58,187.89 325.80,187.97 326.01,188.05 326.23,188.12 326.45,188.20 326.66,188.27 326.88,188.35 327.09,188.42 327.31,188.50 327.52,188.59 327.74,188.68 327.96,188.78 328.17,188.90 328.39,189.02 328.60,189.14 328.82,189.26 329.03,189.39 329.25,189.50 329.46,189.62 329.68,189.72 329.90,189.82 330.11,189.92 330.33,190.02 330.54,190.12 330.76,190.22 330.97,190.31 331.19,190.39 331.41,190.48 331.62,190.57 331.84,190.66 332.05,190.73 332.27,190.81 332.48,190.89 332.70,190.96 332.92,191.04 333.13,191.11 333.35,191.19 333.56,191.26 333.78,191.33 333.99,191.41 334.21,191.49 334.43,191.59 334.64,191.70 334.86,191.80 335.07,191.91 335.29,192.01 335.50,192.12 335.72,192.22 335.93,192.32 336.15,192.42 336.37,192.52 336.58,192.62 336.80,192.71 337.01,192.81 337.23,192.90 337.44,193.00 337.66,193.09 337.88,193.18 338.09,193.27 338.31,193.36 338.52,193.45 338.74,193.54 338.95,193.62 339.17,193.71 339.39,193.79 339.60,193.88 339.82,193.96 340.03,194.04 340.25,194.12 340.46,194.20 340.68,194.27 340.90,194.34 341.11,194.40 341.33,194.48 341.54,194.55 341.76,194.62 341.97,194.69 342.19,194.76 342.40,194.83 342.62,194.88 342.84,194.92 343.05,194.96 343.27,195.00 343.48,195.04 343.70,195.11 343.91,195.18 344.13,195.25 344.35,195.33 344.56,195.40 344.78,195.48 344.99,195.55 345.21,195.63 345.42,195.70 345.64,195.78 345.86,195.86 346.07,195.93 346.29,196.01 346.50,196.07 346.72,196.15 346.93,196.23 347.15,196.29 347.37,196.36 347.58,196.42 347.80,196.48 348.01,196.54 348.23,196.60 348.44,196.66 348.66,196.72 348.87,196.78 349.09,196.84 349.31,196.90 349.52,196.96 349.74,197.02 349.95,197.08 350.17,197.14 350.38,197.21 350.60,197.26 350.82,197.32 351.03,197.38 351.25,197.44 351.46,197.50 351.68,197.53 351.89,197.56 352.11,197.60 352.33,197.63 352.54,197.66 352.76,197.69 352.97,197.74 353.19,197.78 353.40,197.82 353.62,197.88 353.84,197.93 354.05,197.98 354.27,198.03 354.48,198.09 354.70,198.15 354.91,198.22 355.13,198.30 355.34,198.36 355.56,198.44 355.78,198.52 355.99,198.60 356.21,198.67 356.42,198.73 356.64,198.80 356.85,198.87 357.07,198.93 357.29,199.01 357.50,199.10 357.72,199.17 357.93,199.25 358.15,199.33 358.36,199.41 358.58,199.50 358.80,199.60 359.01,199.69 359.23,199.78 359.44,199.86 359.66,199.95 359.87,200.05 360.09,200.14 360.31,200.23 360.52,200.32 360.74,200.41 360.95,200.50 361.17,200.59 361.38,200.68 361.60,200.77 361.81,200.85 362.03,200.95 362.25,201.05 362.46,201.16 362.68,201.26 362.89,201.37 363.11,201.47 363.32,201.57 363.54,201.67 363.76,201.77 363.97,201.87 364.19,201.97 364.40,202.07 364.62,202.17 364.83,202.27 365.05,202.39 365.27,202.49 365.48,202.60 365.70,202.71 365.91,202.82 366.13,202.93 366.34,203.05 366.56,203.15 366.77,203.26 366.99,203.37 367.21,203.46 367.42,203.56 367.64,203.66 367.85,203.76 368.07,203.85 368.28,203.94 368.50,204.03 368.72,204.12 368.93,204.21 369.15,204.30 369.36,204.39 369.58,204.48 369.79,204.56 370.01,204.64 370.23,204.73 370.44,204.81 370.66,204.89 370.87,204.97 371.09,205.05 371.30,205.12 371.52,205.20 371.74,205.25 371.95,205.30 372.17,205.35 372.38,205.39 372.60,205.43 372.81,205.46 373.03,205.50 373.24,205.54 373.46,205.58 373.68,205.63 373.89,205.67 374.11,205.71 374.32,205.76 374.54,205.79 374.75,205.83 374.97,205.87 375.19,205.94 375.40,206.02 375.62,206.09 375.83,206.17 376.05,206.24 376.26,206.31 376.48,206.37 376.70,206.44 376.91,206.49 377.13,206.55 377.34,206.60 377.56,206.64 377.77,206.70 377.99,206.74 378.21,206.78 378.42,206.83 378.64,206.87 378.85,206.91 379.07,206.95 379.28,206.99 379.50,207.01 379.71,207.04 379.93,207.07 380.15,207.11 380.36,207.14 380.58,207.16 380.79,207.19 381.01,207.22 381.22,207.25 381.44,207.28 381.66,207.29 381.87,207.31 382.09,207.33 382.30,207.35 382.52,207.37 382.73,207.39 382.95,207.40 383.17,207.42 383.38,207.42 383.60,207.43 383.81,207.44 384.03,207.44 384.24,207.47 384.46,207.50 384.68,207.53 384.89,207.57 385.11,207.60 385.32,207.63 385.54,207.66 385.75,207.69 385.97,207.72 386.18,207.74 386.40,207.76 386.62,207.79 386.83,207.80 387.05,207.82 387.26,207.83 387.48,207.85 387.69,207.87 387.91,207.88 388.13,207.90 388.34,207.91 388.56,207.93 388.77,207.94 388.99,207.95 389.20,207.95 389.42,207.96 389.64,207.97 389.85,207.97 390.07,207.96 390.28,207.96 390.50,207.96 390.71,207.96 390.93,207.96 391.15,207.96 391.36,207.97 391.58,207.98 391.79,207.99 392.01,208.01 392.22,208.04 392.44,208.05 392.65,208.06 392.87,208.08 393.09,208.09 393.30,208.10 393.52,208.11 393.73,208.11 393.95,208.11 394.16,208.10 394.38,208.10 394.60,208.09 394.81,208.07 395.03,208.07 395.24,208.07 395.46,208.07 395.67,208.06 395.89,208.05 396.11,208.04 396.32,208.02 396.54,207.99 396.75,207.97 396.97,207.95 397.18,207.92 397.40,207.90 397.62,207.87 397.83,207.82 398.05,207.79 398.26,207.76 398.48,207.73 398.69,207.70 398.91,207.65 399.12,207.62 399.34,207.57 399.56,207.54 399.77,207.51 399.99,207.46 400.20,207.42 400.42,207.37 400.63,207.33 400.85,207.28 401.07,207.23 401.28,207.18 401.50,207.14 401.71,207.10 401.93,207.05 402.14,207.01 402.36,206.97 402.58,206.92 402.79,206.86 403.01,206.81 403.22,206.75 403.44,206.68 403.65,206.62 403.87,206.55 404.08,206.48 404.30,206.42 404.52,206.34 404.73,206.29 404.95,206.22 405.16,206.17 405.38,206.13 405.59,206.10 405.81,206.06 406.03,206.01 406.24,205.96 406.46,205.91 406.67,205.88 406.89,205.85 407.10,205.83 407.32,205.80 407.54,205.76 407.75,205.70 407.97,205.64 408.18,205.57 408.40,205.50 408.61,205.42 408.83,205.35 409.05,205.26 409.26,205.18 409.48,205.10 409.69,205.02 409.91,204.95 410.12,204.87 410.34,204.78 410.55,204.70 410.77,204.61 410.99,204.51 411.20,204.41 411.42,204.32 411.63,204.23 411.85,204.13 412.06,204.04 412.28,203.96 412.50,203.88 412.71,203.79 412.93,203.70 413.14,203.60 413.36,203.51 413.57,203.41 413.79,203.31 414.01,203.20 414.22,203.11 414.44,203.01 414.65,202.91 414.87,202.82 415.08,202.72 415.30,202.62 415.52,202.52 415.73,202.41 415.95,202.30 416.16,202.19 416.38,202.08 416.59,201.96 416.81,201.84 417.02,201.72 417.24,201.59 417.46,201.45 417.67,201.32 417.89,201.22 418.10,201.11 418.32,201.00 418.53,200.88 418.75,200.76 418.97,200.65 419.18,200.53 419.40,200.42 419.61,200.31 419.83,200.19 420.04,200.06 420.26,199.93 420.48,199.79 420.69,199.66 420.91,199.53 421.12,199.39 421.34,199.24 421.55,199.10 421.77,198.98 421.99,198.85 422.20,198.71 422.42,198.58 422.63,198.45 422.85,198.32 423.06,198.18 423.28,198.04 423.49,197.90 423.71,197.77 423.93,197.63 424.14,197.49 424.36,197.35 424.57,197.20 424.79,197.05 425.00,196.90 425.22,196.75 425.44,196.58 425.65,196.42 425.87,196.25 426.08,196.08 426.30,195.93 426.51,195.77 426.73,195.61 426.95,195.45 427.16,195.28 427.38,195.11 427.59,194.91 427.81,194.70 428.02,194.49 428.24,194.28 428.46,194.09 428.67,193.89 428.89,193.70 429.10,193.51 429.32,193.32 429.53,193.12 429.75,192.92 429.96,192.70 430.18,192.47 430.40,192.27 430.61,192.05 430.83,191.84 431.04,191.62 431.26,191.40 431.47,191.18 431.69,190.95 431.91,190.72 432.12,190.49 432.34,190.25 432.55,190.03 432.77,189.81 432.98,189.57 433.20,189.35 433.42,189.12 433.63,188.89 433.85,188.66 434.06,188.42 434.28,188.17 434.49,187.92 434.71,187.68 434.92,187.45 435.14,187.21 435.36,186.97 435.57,186.74 435.79,186.50 436.00,186.27 436.22,186.03 436.43,185.80 436.65,185.57 436.87,185.33 437.08,185.10 437.30,184.85 437.51,184.62 437.73,184.38 437.94,184.13 438.16,183.87 438.38,183.60 438.59,183.34 438.81,183.08 439.02,182.82 439.24,182.54 439.45,182.26 439.67,181.96 439.89,181.67 440.10,181.37 440.32,181.07 440.53,180.77 440.75,180.46 440.96,180.16 441.18,179.86 441.39,179.55 441.61,179.26 441.83,178.97 442.04,178.68 442.26,178.39 442.47,178.09 442.69,177.78 442.90,177.47 443.12,177.17 443.34,176.86 443.55,176.54 443.77,176.22 443.98,175.90 444.20,175.57 444.41,175.25 444.63,174.92 444.85,174.58 445.06,174.24 445.28,173.89 445.49,173.53 445.71,173.18 445.92,172.81 446.14,172.44 446.36,172.07 446.57,171.70 446.79,171.35 447.00,171.00 447.22,170.64 447.43,170.27 447.65,169.89 447.86,169.51 448.08,169.12 448.30,168.76 448.51,168.39 448.73,168.02 448.94,167.65 449.16,167.29 449.37,166.93 449.59,166.59 449.81,166.23 450.02,165.89 450.24,165.53 450.45,165.14 450.67,164.74 450.88,164.33 451.10,163.93 451.32,163.52 451.53,163.11 451.75,162.68 451.96,162.27 452.18,161.86 452.39,161.45 452.61,161.03 452.83,160.60 453.04,160.20 453.26,159.77 453.47,159.34 453.69,158.92 453.90,158.52 454.12,158.11 454.33,157.69 454.55,157.26 454.77,156.84 454.98,156.41 455.20,155.98 455.41,155.56 455.63,155.13 455.84,154.69 456.06,154.24 456.28,153.78 456.49,153.30 456.71,152.82 456.92,152.36 457.14,151.87 457.35,151.37 457.57,150.87 457.79,150.36 458.00,149.86 458.22,149.34 458.43,148.85 458.65,148.36 458.86,147.84 459.08,147.33 459.30,146.82 459.51,146.30 459.73,145.79 459.94,145.27 460.16,144.76 460.37,144.25 460.59,143.74 460.80,143.24 461.02,142.72 461.24,142.21 461.45,141.70 461.67,141.19 461.88,140.67 462.10,140.15 462.31,139.64 462.53,139.13 462.75,138.64 462.96,138.15 463.18,137.66 463.39,137.16 463.61,136.67 463.82,136.17 464.04,135.68 464.26,135.20 464.47,134.72 464.69,134.23 464.90,133.74 465.12,133.24 465.33,132.74 465.55,132.23 465.77,131.72 465.98,131.23 466.20,130.72 466.41,130.22 466.63,129.72 466.84,129.22 467.06,128.73 467.27,128.20 467.49,127.67 467.71,127.14 467.92,126.62 468.14,126.08 468.35,125.55 468.57,125.02 468.78,124.49 469.00,123.93 469.22,123.40 469.43,122.87 469.65,122.35 469.86,121.83 470.08,121.31 470.29,120.77 470.51,120.24 470.73,119.70 470.94,119.17 471.16,118.64 471.37,118.11 471.59,117.57 471.80,117.03 472.02,116.50 472.23,115.96 472.45,115.44 472.67,114.92 472.88,114.41 473.10,113.92 473.31,113.42 473.53,112.93 473.74,112.43 473.96,111.93 474.18,111.41 474.39,110.89 474.61,110.36 474.82,109.82 475.04,109.29 475.25,108.76 475.47,108.24 475.69,107.71 475.90,107.18 476.12,106.65 476.33,106.16 476.55,105.64 476.76,105.14 476.98,104.63 477.20,104.13 477.41,103.60 477.63,103.09 477.84,102.57 478.06,102.07 478.27,101.57 478.49,101.08 478.70,100.59 478.92,100.12 479.14,99.65 479.35,99.17 479.57,98.69 479.78,98.21 480.00,97.74 480.21,97.26 480.43,96.81 480.65,96.36 480.86,95.89 481.08,95.42 481.29,94.95 481.51,94.48 481.72,94.01 481.94,93.53 482.16,93.06 482.37,92.58 482.59,92.10 482.80,91.63 483.02,91.15 483.23,90.68 483.45,90.22 483.67,89.75 483.88,89.28 484.10,88.82 484.31,88.37 484.53,87.89 484.74,87.42 484.96,86.95 485.17,86.49 485.39,86.04 485.61,85.58 485.82,85.11 486.04,84.66 486.25,84.22 486.47,83.77 486.68,83.32 486.90,82.86 487.12,82.41 487.33,81.94 487.55,81.50 487.76,81.06 487.98,80.64 488.19,80.21 488.41,79.79 488.63,79.37 488.84,78.92 489.06,78.48 489.27,78.04 489.49,77.59 489.70,77.15 489.92,76.71 490.14,76.30 490.35,75.90 490.57,75.53 490.78,75.16 491.00,74.77 491.21,74.38 491.43,74.00 491.64,73.63 491.86,73.26 492.08,72.89 492.29,72.53 492.51,72.17 492.72,71.82 492.94,71.47 493.15,71.13 493.37,70.77 493.59,70.43 493.80,70.07 494.02,69.73 494.23,69.39 494.45,69.06 494.66,68.74 494.88,68.42 495.10,68.11 495.31,67.78 495.53,67.46 495.74,67.13 495.96,66.80 496.17,66.47 496.39,66.15 496.61,65.82 496.82,65.50 497.04,65.18 497.25,64.87 497.47,64.57 497.68,64.26 497.90,63.96 498.11,63.67 498.33,63.39 498.55,63.09 498.76,62.83 498.98,62.55 499.19,62.27 499.41,62.00 499.62,61.74 499.84,61.49 500.06,61.24 500.27,61.01 500.49,60.75 500.70,60.50 500.92,60.24 501.13,60.00 501.35,59.77 501.57,59.58 501.78,59.38 502.00,59.17 502.21,58.97 502.43,58.76 502.64,58.57 502.86,58.39 503.08,58.22 503.29,58.05 503.51,57.88 503.72,57.71 503.94,57.54 504.15,57.39 504.37,57.22 504.58,57.07 504.80,56.95 505.02,56.81 505.23,56.67 505.45,56.54 505.66,56.39 505.88,56.23 506.09,56.06 506.31,55.90 506.53,55.75 506.74,55.62 506.96,55.49 507.17,55.38 507.39,55.26 507.60,55.14 507.82,55.03 508.04,54.92 508.25,54.81 508.47,54.72 508.68,54.64 508.90,54.55 509.11,54.47 509.33,54.38 509.54,54.31 509.76,54.25 509.98,54.18 510.19,54.13 510.41,54.08 510.62,54.04 510.84,54.01 511.05,53.97 511.27,53.94 511.49,53.92 511.70,53.89 511.92,53.87 512.13,53.85 512.35,53.82 512.56,53.81 512.78,53.78 513.00,53.75 513.21,53.73 513.43,53.73 513.64,53.74 513.86,53.76 514.07,53.78 514.29,53.80 514.51,53.84 514.72,53.87 514.94,53.90 515.15,53.94 515.37,53.97 515.58,54.02 515.80,54.09 516.01,54.16 516.23,54.23 516.45,54.32 516.66,54.41 516.88,54.50 517.09,54.61 517.31,54.73 517.52,54.86 517.74,55.00 517.96,55.16 518.17,55.33 518.39,55.52 518.60,55.72 518.82,55.89 519.03,56.06 519.25,56.24 519.47,56.44 519.68,56.65 519.90,56.85 520.11,57.04 520.33,57.25 520.54,57.45 520.76,57.66 520.98,57.88 521.19,58.11 521.41,58.40 521.62,58.68 521.84,58.98 522.05,59.28 522.27,59.61 522.48,59.94 522.70,60.26 522.92,60.60 523.13,60.93 523.35,61.27 523.56,61.62 523.78,61.96 523.99,62.33 524.21,62.68 524.43,63.04 524.64,63.42 524.86,63.80 525.07,64.18 525.29,64.58 525.50,64.98 525.72,65.40 525.94,65.82 526.15,66.26 526.37,66.68 526.58,67.10 526.80,67.54 527.01,67.99 527.23,68.46 527.45,68.94 527.66,69.43 527.88,69.93 528.09,70.44 528.31,70.96 528.52,71.49 528.74,72.00 528.95,72.52 529.17,73.06 529.39,73.60 529.60,74.15 529.82,74.71 530.03,75.27 530.25,75.85 530.46,76.43 530.68,77.02 530.90,77.62 531.11,78.22 531.33,78.83 531.54,79.45 531.76,80.07 531.97,80.70 532.19,81.33 532.41,81.97 532.62,82.61 532.84,83.25 533.05,83.91 533.27,84.56 533.48,85.21 533.70,85.87 533.92,86.53 534.13,87.17 534.35,87.79 534.56,88.40 534.78,89.02 534.99,89.64 535.21,90.26 535.42,90.87 535.64,91.48 535.86,92.09 536.07,92.70 536.29,93.34 536.50,93.97 536.72,94.61 536.93,95.25 537.15,95.88 537.37,96.48 537.58,97.09 537.80,97.70 538.01,98.30 538.23,98.89 538.44,99.49 538.66,100.10 538.88,100.69 539.09,101.29 539.31,101.87 539.52,102.44 539.74,103.00 539.95,103.57 540.17,104.14 540.38,104.69 540.60,105.26 540.82,105.81 541.03,106.35 541.25,106.88 541.46,107.39 541.68,107.90 541.89,108.39 542.11,108.87 542.33,109.36 542.54,109.84 542.76,110.32 542.97,110.77 543.19,111.23 543.40,111.67 543.62,112.12 543.84,112.54 544.05,112.95 544.27,113.35 544.48,113.77 544.70,114.18 544.91,114.59 545.13,114.99 545.35,115.39 545.56,115.77 545.78,116.14 545.99,116.49 546.21,116.82 546.42,117.13 546.64,117.45 546.85,117.75 547.07,118.03 547.29,118.31 547.50,118.57 547.72,118.83 547.93,119.07 548.15,119.30 548.36,119.51 548.58,119.70 548.80,119.89 549.01,120.08 549.23,120.25 549.44,120.43 549.66,120.60 549.87,120.75 550.09,120.88 550.31,120.99 550.52,121.08 550.74,121.14 550.95,121.19 551.17,121.24 551.38,121.30 551.60,121.34 551.82,121.37 552.03,121.38 552.25,121.35 552.46,121.34 552.68,121.31 552.89,121.26 553.11,121.19 553.32,121.12 553.54,121.02 553.76,120.90 553.97,120.77 554.19,120.65 554.40,120.50 554.62,120.35 554.83,120.20 555.05,120.04 555.27,119.85 555.48,119.63 555.70,119.38 555.91,119.10 556.13,118.81 556.34,118.51 556.56,118.18 556.78,117.88 556.99,117.54 557.21,117.18 557.42,116.79 557.64,116.39 557.85,115.96 558.07,115.51 558.29,115.06 558.50,114.58 558.72,114.08 558.93,113.59 559.15,113.07 559.36,112.54 559.58,111.98 559.79,111.40 560.01,110.80 560.23,110.17 560.44,109.54 560.66,108.88 560.87,108.21 561.09,107.53 561.30,106.86 561.52,106.17 561.74,105.47 561.95,104.74 562.17,104.01 562.38,103.25 562.60,102.47 562.81,101.67 563.03,100.85 563.25,100.02 563.46,99.18 563.68,98.32 563.89,97.45 564.11,96.56 564.32,95.66 564.54,94.75 564.76,93.83 564.97,92.91 565.19,91.97 565.40,91.02 565.62,90.09 565.83,89.15 566.05,88.21 566.26,87.27 566.48,86.34 566.70,85.38 566.91,84.43 567.13,83.48 567.34,82.53 567.56,81.59 567.77,80.63 567.99,79.68 568.21,78.74 568.42,77.82 568.64,76.88 568.85,75.96 569.07,75.01 569.28,74.07 569.50,73.14 569.72,72.20 569.93,71.28 570.15,70.39 570.36,69.51 570.58,68.64 570.79,67.78 571.01,66.95 571.23,66.13 571.44,65.34 571.66,64.56 571.87,63.80 572.09,63.05 572.30,62.33 572.52,61.64 572.73,60.96 572.95,60.26 573.17,59.59 573.38,58.96 573.60,58.36 573.81,57.80 574.03,57.28 574.24,56.73 574.46,56.22 574.68,55.74 574.89,55.27 575.11,54.85 575.32,54.46 575.54,54.10 575.75,53.75 575.97,53.45 576.19,53.17 576.40,52.94 576.62,52.72 576.83,52.55 577.05,52.39 577.26,52.26 577.48,52.15 577.69,52.05 577.91,52.00 578.13,52.00 578.34,52.03 578.56,52.10 578.77,52.20 578.99,52.34 579.20,52.48 579.42,52.66 579.64,52.88 579.85,53.12 580.07,53.40 580.28,53.72 580.50,54.07 580.71,54.43 580.93,54.83 581.15,55.27 581.36,55.74 581.58,56.22 581.79,56.73 582.01,57.27 582.22,57.83 582.44,58.41 582.66,59.04 582.87,59.68 583.09,60.36 583.30,61.06 583.52,61.80 583.73,62.53 583.95,63.29 584.16,64.07 584.38,64.88 584.60,65.73 584.81,66.60 585.03,67.48 585.24,68.41 585.46,69.35 585.67,70.32 585.89,71.29 586.11,72.28 586.32,73.29 586.54,74.28 586.75,75.29 586.97,76.32 587.18,77.34 587.40,78.36 587.62,79.38 587.83,80.42 588.05,81.45 588.26,82.51 588.48,83.57 588.69,84.62 588.91,85.68 589.13,86.74 589.34,87.77 589.56,88.82 589.77,89.87 589.99,90.94 590.20,92.01 590.42,93.08 590.63,94.16 590.85,95.22 591.07,96.29 591.28,97.36 591.50,98.43 591.71,99.50 591.93,100.57 592.14,101.60 592.36,102.64 592.58,103.68 592.79,104.71 593.01,105.74 593.22,106.76 593.44,107.75 593.65,108.73 593.87,109.70 594.09,110.66 594.30,111.61 594.52,112.54 594.73,113.45 594.95,114.35 595.16,115.25 595.38,116.15 595.60,117.04 595.81,117.93 596.03,118.81 596.24,119.66 596.46,120.50 596.67,121.34 596.89,122.16 597.10,122.96 597.32,123.74 597.54,124.51 597.75,125.29 597.97,126.04 598.18,126.78 598.40,127.52 598.61,128.24 598.83,128.93 599.05,129.60 599.26,130.27 599.48,130.95 599.69,131.60 599.91,132.24 600.12,132.86 600.34,133.48 600.56,134.10 600.77,134.71 600.99,135.29 601.20,135.87 601.42,136.45 601.63,137.05 601.85,137.64 602.07,138.21 602.28,138.81 602.50,139.39 602.71,139.96 602.93,140.52 603.14,141.09 603.36,141.65 603.57,142.21 603.79,142.76 604.01,143.30 604.22,143.84 604.44,144.35 604.65,144.87 604.87,145.38 605.08,145.88 605.30,146.37 605.52,146.89 605.73,147.37 605.95,147.85 606.16,148.30 606.38,148.75 606.59,149.18 606.81,149.63 607.03,150.12 607.24,150.58 607.46,151.05 607.67,151.51 607.89,151.97 608.10,152.43 608.32,152.89 608.54,153.33 608.75,153.78 608.97,154.21 609.18,154.65 609.40,155.08 609.61,155.50 609.83,155.89 610.04,156.28 610.26,156.70 610.48,157.10 610.69,157.50 610.91,157.89 611.12,158.27 611.34,158.64 611.55,159.02 611.77,159.42 611.99,159.80 612.20,160.18 612.42,160.56 612.63,160.94 612.85,161.29 613.06,161.66 613.28,162.03 613.50,162.40 613.71,162.77 613.93,163.14 614.14,163.51 614.36,163.89 614.57,164.26 614.79,164.59 615.00,164.94 615.22,165.28 615.44,165.62 615.65,165.96 615.87,166.31 616.08,166.66 616.30,167.00 616.51,167.36 616.73,167.72 616.95,168.07 617.16,168.41 617.38,168.75 617.59,169.10 617.81,169.44 618.02,169.78 618.24,170.11 618.46,170.44 618.67,170.76 618.89,171.06 619.10,171.36 619.32,171.67 619.53,171.97 619.75,172.27 619.97,172.56 620.18,172.84 620.40,173.12 620.61,173.42 620.83,173.70 621.04,173.98 621.26,174.28 621.47,174.57 621.69,174.87 621.91,175.17 622.12,175.43 622.34,175.69 622.55,175.94 622.77,176.20 622.98,176.46 623.20,176.71 623.42,176.95 623.63,177.20 623.85,177.44 624.06,177.68 624.28,177.91 624.49,178.13 624.71,178.38 624.93,178.63 625.14,178.87 625.36,179.09 625.57,179.31 625.79,179.53 626.00,179.75 626.22,179.97 626.44,180.19 626.65,180.41 626.87,180.62 627.08,180.85 627.30,181.09 627.51,181.30 627.73,181.52 627.94,181.73 628.16,181.93 628.38,182.12 628.59,182.32 628.81,182.52 629.02,182.74 629.24,182.97 629.45,183.20 629.67,183.44 629.89,183.69 630.10,183.93 630.32,184.18 630.53,184.43 630.75,184.68 630.96,184.92 631.18,185.16 631.40,185.40 631.61,185.65 631.83,185.89 632.04,186.15 632.26,186.40 632.47,186.66 632.69,186.94 632.91,187.23 633.12,187.51 633.34,187.80 633.55,188.10 633.77,188.41 633.98,188.72 634.20,189.03 634.41,189.34 634.63,189.65 634.85,189.97 635.06,190.28 635.28,190.58 635.49,190.87 635.71,191.17 635.92,191.47 636.14,191.75 636.36,192.03 636.57,192.31 636.79,192.59 637.00,192.85 637.22,193.12 637.43,193.38 637.65,193.64 637.87,193.90 638.08,194.16 638.30,194.46 638.51,194.75 638.73,195.04 638.94,195.33 639.16,195.63 639.38,195.91 639.59,196.18 639.81,196.45 640.02,196.72 640.24,196.99 640.45,197.25 640.67,197.51 640.88,197.77 641.10,198.05 641.32,198.31 641.53,198.58 641.75,198.85 641.96,199.12 642.18,199.39 642.39,199.68 642.61,199.97 642.83,200.26 643.04,200.54 643.26,200.81 643.47,201.08 643.69,201.35 643.90,201.62 644.12,201.88 644.34,202.15 644.55,202.40 644.77,202.66 644.98,202.90 645.20,203.15 645.41,203.41 645.63,203.67 645.85,203.92 646.06,204.16 646.28,204.40 646.49,204.64 646.71,204.89 646.92,205.13 647.14,205.36 647.35,205.62 647.57,205.88 647.79,206.14 648.00,206.40 648.22,206.66 648.43,206.91 648.65,207.14 648.86,207.37 649.08,207.60 649.30,207.83 649.51,208.04 649.73,208.25 649.94,208.46 650.16,208.66 650.37,208.86 650.59,209.04 650.81,209.21 651.02,209.37 651.24,209.53 651.45,209.72 651.67,209.91 651.88,210.09 652.10,210.28 652.31,210.46 652.53,210.63 652.75,210.82 652.96,210.99 653.18,211.16 653.39,211.34 653.61,211.51 653.82,211.67 654.04,211.82 654.26,211.95 654.47,212.07 654.69,212.23 654.90,212.37 655.12,212.52 655.33,212.64 655.55,212.77 655.77,212.90 655.98,213.04 656.20,213.17 656.41,213.31 656.63,213.45 656.84,213.59 657.06,213.74 657.28,213.89 657.49,214.04 657.71,214.18 657.92,214.35 658.14,214.51 658.35,214.68 658.57,214.84 658.78,215.01 659.00,215.18 659.22,215.35 659.43,215.51 659.65,215.68 659.86,215.85 660.08,216.03 660.29,216.22 660.51,216.42 660.73,216.62 660.94,216.82 661.16,217.01 661.37,217.23 661.59,217.43 661.80,217.62 662.02,217.81 662.24,217.99 662.45,218.18 662.67,218.36 662.88,218.56 663.10,218.75 663.31,218.93 663.53,219.12 663.75,219.31 663.96,219.51 664.18,219.71 664.39,219.91 664.61,220.12 664.82,220.34 665.04,220.55 665.25,220.76 665.47,220.97 665.69,221.17 665.90,221.38 666.12,221.58 666.33,221.78 666.55,221.98 666.76,222.17 666.98,222.35 667.20,222.53 667.41,222.71 667.63,222.88 667.84,223.06 668.06,223.23 668.27,223.41 668.49,223.59 668.71,223.77 668.92,223.95 669.14,224.13 669.35,224.30 669.57,224.49 669.78,224.65 670.00,224.81 670.22,224.97 670.43,225.12 670.65,225.28 670.86,225.45 671.08,225.60 671.29,225.75 671.51,225.90 671.72,226.05 671.94,226.21 672.16,226.38 672.37,226.56 672.59,226.73 672.80,226.91 673.02,227.08 673.23,227.25 673.45,227.42 673.67,227.57 673.88,227.73 674.10,227.89 674.31,228.05 674.53,228.21 674.74,228.38 674.96,228.54 675.18,228.70 675.39,228.85 675.61,229.02 675.82,229.18 676.04,229.34 676.25,229.50 676.47,229.66 676.69,229.82 676.90,229.97 677.12,230.13 677.33,230.28 677.55,230.44 677.76,230.57 677.98,230.70 678.19,230.85 678.41,230.98 678.63,231.12 678.84,231.24 679.06,231.35 679.27,231.46 679.49,231.57 679.70,231.68 679.92,231.78 680.14,231.89 680.35,231.98 680.57,232.08 680.78,232.17 681.00,232.24 681.21,232.35 681.43,232.44 681.65,232.54 681.86,232.64 682.08,232.74 682.29,232.83 682.51,232.92 682.72,233.01 682.94,233.09 683.15,233.19 683.37,233.29 683.59,233.38 683.80,233.47 684.02,233.55 684.23,233.62 684.45,233.70 684.66,233.77 684.88,233.84 685.10,233.91 685.31,233.97 685.53,234.03 685.74,234.08 685.96,234.13 686.17,234.17 686.39,234.23 686.61,234.26 686.82,234.30 687.04,234.38 687.25,234.47 687.47,234.55 687.68,234.64 687.90,234.75 688.12,234.86 688.33,234.98 688.55,235.10 688.76,235.21 688.98,235.33 689.19,235.45 689.41,235.56 689.62,235.68 689.84,235.80 690.06,235.92 690.27,236.03 690.49,236.15 690.70,236.25 690.92,236.35 691.13,236.46 691.35,236.55 691.57,236.64 691.78,236.73 692.00,236.83 692.21,236.92 692.43,237.02 692.64,237.11 692.86,237.20 693.08,237.30 693.29,237.40 693.51,237.51 693.72,237.62 693.94,237.72 694.15,237.83 694.37,237.94 694.59,238.05 694.80,238.17 695.02,238.29 695.23,238.41 695.45,238.52 695.66,238.63 695.88,238.74 696.09,238.85 696.31,238.97 696.53,239.08 696.74,239.18 696.96,239.28 697.17,239.39 697.39,239.49 697.60,239.57 697.82,239.66 698.04,239.75 698.25,239.83 698.47,239.92 698.68,240.00 698.90,240.07 699.11,240.15 699.33,240.23 699.55,240.31 699.76,240.39 699.98,240.47 700.19,240.56 700.41,240.65 700.62,240.74 700.84,240.82 701.06,240.89 701.27,240.97 701.49,241.04 701.70,241.10 701.92,241.16 702.13,241.23 702.35,241.30 702.56,241.37 702.78,241.47 703.00,241.53 703.21,241.61 703.43,241.69 703.64,241.75 703.86,241.82 704.07,241.89 704.29,241.95 704.51,242.02 704.72,242.09 704.94,242.16 705.15,242.23 705.37,242.31 705.58,242.38 705.80,242.46 706.02,242.54 706.23,242.62 706.45,242.70 706.66,242.82 706.88,242.90 707.09,242.98 707.31,243.08 707.53,243.19 707.74,243.30 707.96,243.39 708.17,243.50 708.39,243.57 708.60,243.64 708.82,243.71 709.03,243.78 709.25,243.85 709.47,243.92 709.68,243.99 709.90,244.06 710.11,244.12 710.33,244.20 710.54,244.28 710.76,244.35 710.98,244.43 711.19,244.49 711.41,244.60 711.62,244.71 711.84,244.82 712.05,244.93 712.27,245.03 712.49,245.13 712.70,245.23 712.92,245.33 713.13,245.43 713.35,245.52 713.56,245.62 713.78,245.71 714.00,245.78 714.21,245.84 714.43,245.91 714.64,245.99 714.86,246.06 715.07,246.14 715.29,246.21 715.50,246.28 715.72,246.34 715.94,246.40 716.15,246.46 716.37,246.50 716.58,246.54 716.80,246.59 717.01,246.62 717.23,246.65 717.45,246.67 717.66,246.70 717.88,246.74 718.09,246.77 718.31,246.82 718.52,246.86 718.74,246.91 718.96,246.95 719.17,247.02 719.39,247.10 719.60,247.14 719.82,247.18 720.03,247.23 720.25,247.27 720.46,247.30 720.68,247.33 720.90,247.36 721.11,247.39 721.33,247.42 721.54,247.46 721.76,247.48 721.97,247.52 722.19,247.55 722.41,247.58 722.62,247.60 722.84,247.63 723.05,247.65 723.27,247.69 723.48,247.73 723.70,247.77 723.92,247.81 724.13,247.85 724.35,247.89 724.56,247.94 724.78,247.98 724.99,248.03 725.21,248.06 725.43,248.09 725.64,248.12 725.86,248.15 726.07,248.18 726.29,248.21 726.50,248.24 726.72,248.27 726.93,248.29 727.15,248.32 727.37,248.35 727.58,248.38 727.80,248.42 728.01,248.44 728.23,248.46 728.44,248.49 728.66,248.52 728.88,248.54 729.09,248.56 729.31,248.58 729.52,248.61 729.74,248.63 729.95,248.65 730.17,248.69 730.39,248.70 730.60,248.72 730.82,248.75 731.03,248.78 731.25,248.81 731.46,248.82 731.68,248.84 731.90,248.85 732.11,248.88 732.33,248.90 732.54,248.92 732.76,248.91 732.97,248.92 733.19,248.93 733.40,248.93 733.62,248.94 733.84,248.94 734.05,248.94 734.27,248.94 734.48,248.94 734.70,248.95 734.91,248.95 735.13,248.94 735.35,248.94 735.56,248.97 735.78,248.97 735.99,248.96 736.21,248.99 736.42,249.02 736.64,249.05 736.86,249.08 737.07,249.11 737.29,249.14 737.50,249.17 737.72,249.21 737.93,249.24 738.15,249.28 738.37,249.32 738.58,249.36 738.80,249.40 739.01,249.45 739.23,249.46 739.44,249.50 739.66,249.54 739.87,249.56 740.09,249.58 740.31,249.59 740.52,249.60 740.74,249.62 740.95,249.66 741.17,249.70 741.38,249.74 741.60,249.78 741.82,249.82 742.03,249.87 742.25,249.91 742.46,249.96 742.68,250.01 742.89,250.06 743.11,250.11 743.33,250.16 743.54,250.21 743.76,250.26 743.97,250.28 744.19,250.31 744.40,250.33 744.62,250.34 744.84,250.36 745.05,250.38 745.27,250.39 745.48,250.40 745.70,250.41 745.91,250.42 746.13,250.43 746.34,250.42 746.56,250.44 746.78,250.46 746.99,250.46 747.21,250.45 747.42,250.44 747.64,250.43 747.85,250.42 748.07,250.42 748.29,250.42 748.50,250.42 748.72,250.42 748.93,250.44 749.15,250.46 749.36,250.49 749.58,250.50 749.80,250.53 750.01,250.55 750.23,250.57 750.44,250.59 750.66,250.61 750.87,250.62 751.09,250.62 751.31,250.63 751.52,250.65 751.74,250.67 751.95,250.70 752.17,250.72 752.38,250.74 752.60,250.78 752.81,250.82 753.03,250.87 753.25,250.92 753.46,250.96 753.68,251.01 753.89,251.03 754.11,251.05 754.32,251.10 754.54,251.12 754.76,251.13 754.97,251.16 755.19,251.18 755.40,251.21 755.62,251.22 755.83,251.23 756.05,251.24 756.27,251.25 756.48,251.26 756.70,251.28 756.91,251.30 757.13,251.31 757.34,251.32 757.56,251.35 757.77,251.39 757.99,251.41 758.21,251.47 758.42,251.52 758.64,251.57 758.85,251.62 759.07,251.65 759.28,251.67 759.50,251.70 759.72,251.72 759.93,251.75 760.15,251.77 760.36,251.79 760.58,251.82 760.79,251.85 761.01,251.87 761.23,251.89 761.44,251.92 761.66,251.95 761.87,251.97 762.09,251.98 762.30,252.00 762.52,252.01 762.74,252.03 762.95,252.06 763.17,252.08 763.38,252.10 763.60,252.12 763.81,252.14 764.03,252.16 764.24,252.19 764.46,252.22 764.68,252.24 764.89,252.25 765.11,252.28 765.32,252.31 765.54,252.33 765.75,252.36 765.97,252.39 766.19,252.41 766.40,252.44 766.62,252.46 766.83,252.49 767.05,252.51 767.26,252.54 767.48,252.57 767.70,252.60 767.91,252.63 768.13,252.66 768.34,252.69 768.56,252.73 768.77,252.76 768.99,252.80 769.21,252.82 769.42,252.84 769.64,252.86 769.85,252.89 770.07,252.91 770.28,252.93 770.50,252.95 770.71,252.98 770.93,253.01 771.15,253.04 771.36,253.06 771.58,253.09 771.79,253.12 772.01,253.15 772.22,253.18 772.44,253.21 772.66,253.24 772.87,253.27 773.09,253.30 773.30,253.33 773.52,253.35 773.73,253.37 773.95,253.40 774.17,253.42 774.38,253.44 774.60,253.48 774.81,253.51 775.03,253.54 775.24,253.57 775.46,253.61 775.68,253.64 775.89,253.68 776.11,253.70 776.32,253.73 776.54,253.76 776.75,253.79 776.97,253.82 777.18,253.85 777.40,253.88 777.62,253.90 777.83,253.93 778.05,253.96 778.26,253.98 778.48,254.00 778.69,254.03 778.91,254.06 779.13,254.09 779.34,254.13 779.56,254.16 779.77,254.19 779.99,254.23 780.20,254.26 780.42,254.29 780.64,254.32 780.85,254.35 781.07,254.37 781.28,254.39 781.50,254.42 781.71,254.44 781.93,254.46 782.15,254.49 782.36,254.52 782.58,254.56 782.79,254.59 783.01,254.62 783.22,254.66 783.44,254.70 783.65,254.75 783.87,254.79 784.09,254.82 784.30,254.84 784.52,254.87 784.73,254.90 784.95,254.92 785.16,254.93 785.38,254.94 785.60,254.95 785.81,254.97 786.03,254.98 786.24,254.99 786.46,255.02 786.67,255.04 786.89,255.05 787.11,255.07 787.32,255.10 787.54,255.12 787.75,255.14 787.97,255.16 788.18,255.19 788.40,255.21 788.62,255.23 788.83,255.26 789.05,255.29 789.26,255.31 789.48,255.33 789.69,255.36 789.91,255.38 790.12,255.39 790.34,255.42 790.56,255.46 790.77,255.47 790.99,255.46 791.20,255.46 791.42,255.46 791.63,255.48 791.85,255.51 792.07,255.52 792.28,255.54 792.50,255.55 792.71,255.56 792.93,255.57 793.14,255.59 793.36,255.60 793.58,255.61 793.79,255.62 794.01,255.63 794.22,255.65 794.44,255.67 794.65,255.69 794.87,255.71 795.08,255.72 795.30,255.74 795.52,255.75 795.73,255.77 795.95,255.79 796.16,255.80 796.38,255.80 796.59,255.81 796.81,255.81 797.03,255.81 797.24,255.82 797.46,255.81 797.67,255.81 797.89,255.81 798.10,255.80 798.32,255.79 798.54,255.78 798.75,255.77 798.97,255.76 799.18,255.75 799.40,255.74 799.61,255.72 799.83,255.71 800.05,255.69 800.26,255.68 800.48,255.66 800.69,255.64 800.91,255.62 801.12,255.60 801.34,255.57 801.55,255.55 801.77,255.53 801.99,255.52 802.20,255.50 802.42,255.49 802.63,255.47 802.85,255.46 803.06,255.45 803.28,255.44 803.50,255.44 803.71,255.42 803.93,255.39 804.14,255.37 804.36,255.35 804.57,255.32 804.79,255.30 805.01,255.28 805.22,255.25 805.44,255.23 805.65,255.21 805.87,255.19 806.08,255.17 806.30,255.16 806.52,255.15 806.73,255.12 806.95,255.10 807.16,255.07 807.38,255.05 807.59,255.03 807.81,255.01 808.02,254.97 808.24,254.94 808.46,254.92 808.67,254.90 808.89,254.88 809.10,254.84 809.32,254.81 809.53,254.78 809.75,254.75 809.97,254.73 810.18,254.71 810.40,254.69 810.61,254.70 810.83,254.71 811.04,254.71 811.26,254.72 811.48,254.73 811.69,254.74 811.91,254.75 812.12,254.76 812.34,254.76 812.55,254.76 812.77,254.77 812.99,254.77 813.20,254.75 813.42,254.74 813.63,254.72 813.85,254.70 814.06,254.68 814.28,254.66 814.49,254.64 814.71,254.62 814.93,254.59 815.14,254.57 815.36,254.54 815.57,254.52 815.79,254.50 816.00,254.48 816.22,254.46 816.44,254.44 816.65,254.41 816.87,254.39 817.08,254.37 817.30,254.35 817.51,254.34 817.73,254.32 817.95,254.30 818.16,254.27 818.38,254.25 818.59,254.23 818.81,254.21 819.02,254.18 819.24,254.14 819.46,254.11 819.67,254.09 819.89,254.05 820.10,254.02 820.32,253.99 820.53,253.96 820.75,253.93 820.96,253.90 821.18,253.87 821.40,253.83 821.61,253.80 821.83,253.77 822.04,253.74 822.26,253.70 822.47,253.67 822.69,253.64 822.91,253.58 823.12,253.53 823.34,253.50 823.55,253.48 823.77,253.46 823.98,253.43 824.20,253.39 824.42,253.35 824.63,253.31 824.85,253.25 825.06,253.19 825.28,253.13 825.49,253.07 825.71,253.00 825.92,252.97 826.14,252.93 826.36,252.89 826.57,252.85 826.79,252.80 827.00,252.74 827.22,252.68 827.43,252.62 827.65,252.56 827.87,252.50 828.08,252.43 828.30,252.37 828.51,252.29 828.73,252.22 828.94,252.15 829.16,252.08 829.38,252.02 829.59,251.96 829.81,251.89 830.02,251.83 830.24,251.76 830.45,251.71 830.67,251.65 830.89,251.60 831.10,251.55 831.32,251.50 831.53,251.44 831.75,251.37 831.96,251.27 832.18,251.18 832.39,251.09 832.61,250.99 832.83,250.89 833.04,250.79 833.26,250.70 833.47,250.59 833.69,250.49 833.90,250.40 834.12,250.31 834.34,250.22 834.55,250.12 834.77,250.04 834.98,249.96 835.20,249.88 835.41,249.80 835.63,249.72 835.85,249.62 836.06,249.52 836.28,249.42 836.49,249.32 836.71,249.22 836.92,249.12 837.14,249.01 837.36,248.91 837.57,248.81 837.79,248.70 838.00,248.59 838.22,248.48 838.43,248.37 838.65,248.26 838.86,248.15 839.08,248.05 839.30,247.95 839.51,247.86 839.73,247.77 839.94,247.67 840.16,247.57 840.37,247.47 840.59,247.40 840.81,247.33 841.02,247.25 841.24,247.17 841.45,247.08 841.67,247.01 841.88,246.94 842.10,246.88 842.32,246.82 842.53,246.74 842.75,246.66 842.96,246.58 843.18,246.47 843.39,246.36 843.61,246.23 843.83,246.10 844.04,245.97 844.26,245.84 844.47,245.71 844.69,245.58 844.90,245.45 845.12,245.32 845.33,245.19 845.55,245.06 845.77,244.94 845.98,244.82 846.20,244.70 846.41,244.58 846.63,244.47 846.84,244.35 847.06,244.24 847.28,244.12 847.49,244.01 847.71,243.91 847.92,243.80 848.14,243.69 848.35,243.59 848.57,243.48 848.79,243.37 849.00,243.27 849.22,243.17 849.43,243.07 849.65,242.97 849.86,242.88 850.08,242.78 850.30,242.69 850.51,242.60 850.73,242.51 850.94,242.42 851.16,242.32 851.37,242.23 851.59,242.14 851.80,242.07 852.02,241.99 852.24,241.90 852.45,241.82 852.67,241.75 852.88,241.67 853.10,241.60 853.31,241.53 853.53,241.46 853.75,241.39 853.96,241.33 854.18,241.27 854.39,241.22 854.61,241.16 854.82,241.11 855.04,241.07 855.26,241.02 855.47,240.98 855.69,240.95 855.90,240.89 856.12,240.83 856.33,240.77 856.55,240.71 856.77,240.66 856.98,240.61 857.20,240.56 857.41,240.54 857.63,240.52 857.84,240.51 858.06,240.50 858.27,240.50 858.49,240.47 858.71,240.45 858.92,240.43 859.14,240.41 859.35,240.39 859.57,240.38 859.78,240.37 860.00,240.36" fill="none" stroke="#1f77b4" stroke-width="2" stroke-linejoin="round" stroke-linecap="round"/>
<text x="469.0" y="596" text-anchor="middle" class="label">Pixel</text>
<text x="22" y="300.0" text-anchor="middle" class="label" transform="rotate(-90 22 300.0)">Smoothed normalized intensity</text>
<line x1="882" y1="64" x2="906" y2="64" stroke="#1f77b4" stroke-width="3"/>
<text x="914" y="68" class="legend">9-5</text>
</svg>