ISO-10303-21;
HEADER;
FILE_DESCRIPTION (( 'STEP AP203' ),
    '1' );
FILE_NAME ('·½ÐÎ¾µ¼Ü.STEP',
    '2026-05-06T01:02:47',
    ( '' ),
    ( '' ),
    'SwSTEP 2.0',
    'SolidWorks 2024',
    '' );
FILE_SCHEMA (( 'CONFIG_CONTROL_DESIGN' ));
ENDSEC;

DATA;
#1 = CARTESIAN_POINT ( 'NONE',  ( 1.836970198721029934E-16, -30.00000000000000355, 5.500000000000000888 ) ) ;
#2 = CARTESIAN_POINT ( 'NONE',  ( 15.00000000000002842, -30.00000000000000355, 8.000000000000000000 ) ) ;
#3 = DIRECTION ( 'NONE',  ( 2.312964634635751339E-15, 1.000000000000000000, 0.000000000000000000 ) ) ;
#4 = APPROVAL_DATE_TIME ( #238, #973 ) ;
#5 = EDGE_CURVE ( 'NONE', #589, #427, #980, .T. ) ;
#6 = DIRECTION ( 'NONE',  ( -0.000000000000000000, -0.000000000000000000, -1.000000000000000000 ) ) ;
#7 = CARTESIAN_POINT ( 'NONE',  ( -28.99999999999999645, 10.00000000000007994, 4.000000000000000000 ) ) ;
#8 = EDGE_CURVE ( 'NONE', #615, #413, #450, .T. ) ;
#9 = CARTESIAN_POINT ( 'NONE',  ( -14.99999999999993072, 4.163336342344322512E-14, 8.000000000000000000 ) ) ;
#10 = LINE ( 'NONE', #867, #872 ) ;
#11 = CARTESIAN_POINT ( 'NONE',  ( -14.99999999999989342, -3.583373285376506633E-15, 0.000000000000000000 ) ) ;
#12 = AXIS2_PLACEMENT_3D ( 'NONE', #706, #999, #918 ) ;
#13 = CIRCLE ( 'NONE', #941, 1.500000000000000444 ) ;
#14 = CARTESIAN_POINT ( 'NONE',  ( -14.99999999999993072, 4.163336342344322512E-14, 8.000000000000000000 ) ) ;
#15 = LINE ( 'NONE', #419, #506 ) ;
#16 = EDGE_CURVE ( 'NONE', #436, #475, #555, .T. ) ;
#17 = CARTESIAN_POINT ( 'NONE',  ( 12.99999999999999822, -10.00000000000003730, 4.000000000000000000 ) ) ;
#18 = DIRECTION ( 'NONE',  ( -0.000000000000000000, -0.000000000000000000, -1.000000000000000000 ) ) ;
#19 = CARTESIAN_POINT ( 'NONE',  ( -13.00000000000000178, -9.999999999999966249, 4.000000000000000000 ) ) ;
#20 = EDGE_CURVE ( 'NONE', #430, #413, #504, .T. ) ;
#21 = ORIENTED_EDGE ( 'NONE', *, *, #429, .F. ) ;
#22 = CARTESIAN_POINT ( 'NONE',  ( 0.000000000000000000, -18.00000000000000355, 4.000000000000000000 ) ) ;
#23 = DIRECTION ( 'NONE',  ( 3.736327486719282280E-15, 1.000000000000000000, 0.000000000000000000 ) ) ;
#24 = CARTESIAN_POINT ( 'NONE',  ( -13.00000000000001066, -12.99999999999994138, 8.000000000000000000 ) ) ;
#25 = ORIENTED_EDGE ( 'NONE', *, *, #702, .F. ) ;
#26 = AXIS2_PLACEMENT_3D ( 'NONE', #853, #473, #781 ) ;
#27 = LOCAL_TIME ( 9, 2, 47.00000000000000000, #61 ) ;
#28 = DIRECTION ( 'NONE',  ( 1.000000000000000000, -2.775557561562892140E-15, -0.000000000000000000 ) ) ;
#29 = CARTESIAN_POINT ( 'NONE',  ( -12.99999999999996270, 4.857225732735052922E-14, 8.000000000000000000 ) ) ;
#30 = CARTESIAN_POINT ( 'NONE',  ( -4.954868497365396252, -22.73844780675204191, 0.000000000000000000 ) ) ;
#31 = DIRECTION ( 'NONE',  ( -1.000000000000000000, 5.337610695313252962E-15, 0.000000000000000000 ) ) ;
#32 = EDGE_CURVE ( 'NONE', #340, #110, #314, .T. ) ;
#33 = EDGE_LOOP ( 'NONE', ( #162, #891, #345, #455 ) ) ;
#34 = DIRECTION ( 'NONE',  ( -1.000000000000000000, 2.775557561562899240E-15, 0.000000000000000000 ) ) ;
#35 = ORIENTED_EDGE ( 'NONE', *, *, #489, .F. ) ;
#36 = DIRECTION ( 'NONE',  ( 1.000000000000000000, -4.536969091016258944E-15, 0.000000000000000000 ) ) ;
#37 = EDGE_CURVE ( 'NONE', #753, #903, #769, .T. ) ;
#38 = ORIENTED_EDGE ( 'NONE', *, *, #720, .T. ) ;
#39 = DIRECTION ( 'NONE',  ( 5.782411586589378544E-15, 1.000000000000000000, 0.000000000000000000 ) ) ;
#40 = ORIENTED_EDGE ( 'NONE', *, *, #670, .F. ) ;
#41 = CIRCLE ( 'NONE', #174, 1.499999999999994449 ) ;
#42 = ORIENTED_EDGE ( 'NONE', *, *, #8, .T. ) ;
#43 = AXIS2_PLACEMENT_3D ( 'NONE', #495, #500, #571 ) ;
#44 = ORIENTED_EDGE ( 'NONE', *, *, #324, .F. ) ;
#45 = VECTOR ( 'NONE', #709, 1000.000000000000000 ) ;
#46 = DIRECTION ( 'NONE',  ( 0.000000000000000000, 0.000000000000000000, 1.000000000000000000 ) ) ;
#47 = EDGE_CURVE ( 'NONE', #790, #588, #241, .T. ) ;
#48 = ORIENTED_EDGE ( 'NONE', *, *, #583, .F. ) ;
#49 = LINE ( 'NONE', #205, #955 ) ;
#50 = ORIENTED_EDGE ( 'NONE', *, *, #835, .F. ) ;
#51 = DIRECTION ( 'NONE',  ( -2.388915523584355472E-16, 1.000000000000000000, -0.000000000000000000 ) ) ;
#52 = ORIENTED_EDGE ( 'NONE', *, *, #8, .F. ) ;
#53 = EDGE_CURVE ( 'NONE', #903, #895, #707, .T. ) ;
#54 = EDGE_CURVE ( 'NONE', #728, #785, #461, .T. ) ;
#55 = EDGE_LOOP ( 'NONE', ( #770, #758, #190, #573 ) ) ;
#56 = ORIENTED_EDGE ( 'NONE', *, *, #540, .F. ) ;
#57 = CARTESIAN_POINT ( 'NONE',  ( 5.045131502634605525, -22.73844780675204191, -1.387778780781445676E-14 ) ) ;
#58 = ORIENTED_EDGE ( 'NONE', *, *, #948, .T. ) ;
#59 = DIRECTION ( 'NONE',  ( 0.000000000000000000, 1.000000000000000000, 0.000000000000000000 ) ) ;
#60 = ORIENTED_EDGE ( 'NONE', *, *, #125, .F. ) ;
#61 = COORDINATED_UNIVERSAL_TIME_OFFSET ( 8, 0, .AHEAD. ) ;
#62 = CIRCLE ( 'NONE', #319, 1.499999999999996225 ) ;
#63 = CARTESIAN_POINT ( 'NONE',  ( 0.000000000000000000, -22.73844780675204191, 0.000000000000000000 ) ) ;
#64 = CARTESIAN_POINT ( 'NONE',  ( 5.898059818321118877E-14, 12.99999999999996270, 0.000000000000000000 ) ) ;
#65 = CARTESIAN_POINT ( 'NONE',  ( 5.898059818321118877E-14, 12.99999999999996270, 8.000000000000000000 ) ) ;
#66 = ORIENTED_EDGE ( 'NONE', *, *, #429, .T. ) ;
#67 = ADVANCED_FACE ( 'NONE', ( #848 ), #625, .F. ) ;
#68 = ORIENTED_EDGE ( 'NONE', *, *, #301, .F. ) ;
#69 = FACE_OUTER_BOUND ( 'NONE', #765, .T. ) ;
#70 = ORIENTED_EDGE ( 'NONE', *, *, #276, .F. ) ;
#71 = CARTESIAN_POINT ( 'NONE',  ( 5.045131502634605525, -22.73844780675204191, -33.54101966249677247 ) ) ;
#72 = PERSON_AND_ORGANIZATION ( #634, #336 ) ;
#73 = CARTESIAN_POINT ( 'NONE',  ( 14.99999999999996092, -8.500000000000047962, 4.000000000000000000 ) ) ;
#74 = PERSON_AND_ORGANIZATION_ROLE ( 'creator' ) ;
#75 = FACE_OUTER_BOUND ( 'NONE', #672, .T. ) ;
#76 = PLANE ( 'NONE',  #335 ) ;
#77 = VECTOR ( 'NONE', #51, 1000.000000000000000 ) ;
#78 = EDGE_LOOP ( 'NONE', ( #775, #38, #347, #744 ) ) ;
#79 = AXIS2_PLACEMENT_3D ( 'NONE', #646, #730, #882 ) ;
#80 = LINE ( 'NONE', #138, #321 ) ;
#81 = EDGE_CURVE ( 'NONE', #605, #683, #161, .T. ) ;
#82 = DATE_AND_TIME ( #851, #163 ) ;
#83 = LINE ( 'NONE', #711, #841 ) ;
#84 = CARTESIAN_POINT ( 'NONE',  ( -14.99999999999993072, 4.163336342344322512E-14, 0.000000000000000000 ) ) ;
#85 = ORIENTED_EDGE ( 'NONE', *, *, #1001, .F. ) ;
#86 = CC_DESIGN_PERSON_AND_ORGANIZATION_ASSIGNMENT ( #772, #377, ( #512 ) ) ;
#87 = FACE_BOUND ( 'NONE', #446, .T. ) ;
#88 = CARTESIAN_POINT ( 'NONE',  ( -12.99999999999991473, 13.00000000000002132, 8.000000000000000000 ) ) ;
#89 = ADVANCED_FACE ( 'NONE', ( #69 ), #1002, .F. ) ;
#90 = LINE ( 'NONE', #938, #703 ) ;
#91 = CIRCLE ( 'NONE', #860, 1.499999999999996225 ) ;
#92 = VECTOR ( 'NONE', #462, 1000.000000000000000 ) ;
#93 = AXIS2_PLACEMENT_3D ( 'NONE', #1012, #757, #787 ) ;
#94 = ORIENTED_EDGE ( 'NONE', *, *, #97, .F. ) ;
#95 = DIRECTION ( 'NONE',  ( 0.000000000000000000, -1.000000000000000000, 0.000000000000000000 ) ) ;
#96 = DIRECTION ( 'NONE',  ( 1.000000000000000000, -2.775557561562891745E-15, 0.000000000000000000 ) ) ;
#97 = EDGE_CURVE ( 'NONE', #911, #127, #698, .T. ) ;
#98 = DIRECTION ( 'NONE',  ( 0.000000000000000000, -1.000000000000000000, 0.000000000000000000 ) ) ;
#99 = CARTESIAN_POINT ( 'NONE',  ( 13.00000000000011724, 11.49999999999995914, 4.000000000000000000 ) ) ;
#100 = APPROVAL ( #632, 'æœª' ) ;
#101 = ORIENTED_EDGE ( 'NONE', *, *, #519, .F. ) ;
#102 = EDGE_LOOP ( 'NONE', ( #408, #85, #277, #179 ) ) ;
#103 = CARTESIAN_POINT ( 'NONE',  ( -29.00000000000004974, -8.499999999999925393, 4.000000000000000000 ) ) ;
#104 = FACE_OUTER_BOUND ( 'NONE', #696, .T. ) ;
#105 = AXIS2_PLACEMENT_3D ( 'NONE', #944, #727, #487 ) ;
#106 = EDGE_CURVE ( 'NONE', #683, #690, #919, .T. ) ;
#107 = VECTOR ( 'NONE', #111, 1000.000000000000000 ) ;
#108 = AXIS2_PLACEMENT_3D ( 'NONE', #14, #331, #322 ) ;
#109 = PLANE ( 'NONE',  #992 ) ;
#110 = VERTEX_POINT ( 'NONE', #2 ) ;
#111 = DIRECTION ( 'NONE',  ( 0.000000000000000000, 0.000000000000000000, 1.000000000000000000 ) ) ;
#112 = CARTESIAN_POINT ( 'NONE',  ( 15.00000000000002665, 14.99999999999992362, 8.000000000000000000 ) ) ;
#113 = EDGE_LOOP ( 'NONE', ( #292, #50, #586, #909 ) ) ;
#114 = CARTESIAN_POINT ( 'NONE',  ( 0.000000000000000000, 0.000000000000000000, 8.000000000000000000 ) ) ;
#115 = CARTESIAN_POINT ( 'NONE',  ( -29.00000000000004974, -8.499999999999925393, 4.000000000000000000 ) ) ;
#116 = ORIENTED_EDGE ( 'NONE', *, *, #852, .F. ) ;
#117 = EDGE_CURVE ( 'NONE', #749, #588, #712, .T. ) ;
#118 = DIRECTION ( 'NONE',  ( 2.312964634635751339E-15, 1.000000000000000000, 0.000000000000000000 ) ) ;
#119 = ORIENTED_EDGE ( 'NONE', *, *, #20, .T. ) ;
#120 = VERTEX_POINT ( 'NONE', #854 ) ;
#121 = DIRECTION ( 'NONE',  ( 0.000000000000000000, 0.000000000000000000, 1.000000000000000000 ) ) ;
#122 = AXIS2_PLACEMENT_3D ( 'NONE', #313, #237, #859 ) ;
#123 = VERTEX_POINT ( 'NONE', #153 ) ;
#124 = VECTOR ( 'NONE', #802, 1000.000000000000000 ) ;
#125 = EDGE_CURVE ( 'NONE', #436, #397, #311, .T. ) ;
#126 = DIRECTION ( 'NONE',  ( 1.000000000000000000, -5.337610695313256118E-15, 0.000000000000000000 ) ) ;
#127 = VERTEX_POINT ( 'NONE', #563 ) ;
#128 = ORIENTED_EDGE ( 'NONE', *, *, #658, .F. ) ;
#129 = CARTESIAN_POINT ( 'NONE',  ( 14.99999999999994316, -15.00000000000007283, 8.000000000000000000 ) ) ;
#130 = ORIENTED_EDGE ( 'NONE', *, *, #774, .T. ) ;
#131 = CYLINDRICAL_SURFACE ( 'NONE', #637, 1.499999999999994449 ) ;
#132 = DIRECTION ( 'NONE',  ( 1.000000000000000000, -2.775557561562892140E-15, -0.000000000000000000 ) ) ;
#133 = DIRECTION ( 'NONE',  ( -0.000000000000000000, -1.000000000000000000, -0.000000000000000000 ) ) ;
#134 = VERTEX_POINT ( 'NONE', #30 ) ;
#135 = CARTESIAN_POINT ( 'NONE',  ( -12.99999999999996270, 4.857225732735052922E-14, 0.000000000000000000 ) ) ;
#136 = DIRECTION ( 'NONE',  ( 1.000000000000000000, 0.000000000000000000, 0.000000000000000000 ) ) ;
#137 = EDGE_LOOP ( 'NONE', ( #592, #296, #199, #247 ) ) ;
#138 = CARTESIAN_POINT ( 'NONE',  ( 5.045131502634605525, 0.000000000000000000, 0.000000000000000000 ) ) ;
#139 = ADVANCED_FACE ( 'NONE', ( #807, #794, #501 ), #412, .F. ) ;
#140 = AXIS2_PLACEMENT_3D ( 'NONE', #416, #325, #871 ) ;
#141 = AXIS2_PLACEMENT_3D ( 'NONE', #29, #482, #23 ) ;
#142 = CARTESIAN_POINT ( 'NONE',  ( 15.00000000000002842, -30.00000000000000355, 0.000000000000000000 ) ) ;
#143 = LINE ( 'NONE', #211, #748 ) ;
#144 = EDGE_CURVE ( 'NONE', #916, #352, #644, .T. ) ;
#145 = PERSON_AND_ORGANIZATION ( #634, #336 ) ;
#146 = FACE_OUTER_BOUND ( 'NONE', #299, .T. ) ;
#147 = CARTESIAN_POINT ( 'NONE',  ( 14.99999999999994316, -15.00000000000007283, 8.000000000000000000 ) ) ;
#148 = ORIENTED_EDGE ( 'NONE', *, *, #1001, .T. ) ;
#149 = DIRECTION ( 'NONE',  ( 4.536969091016259733E-15, 1.000000000000000000, -0.000000000000000000 ) ) ;
#150 = APPLICATION_PROTOCOL_DEFINITION ( 'international standard', 'config_control_design', 1994, #850 ) ;
#151 = DIRECTION ( 'NONE',  ( -0.000000000000000000, -0.000000000000000000, -1.000000000000000000 ) ) ;
#152 = ADVANCED_FACE ( 'NONE', ( #175, #497, #958 ), #253, .T. ) ;
#153 = CARTESIAN_POINT ( 'NONE',  ( -12.99999999999999645, -8.499999999999971578, 4.000000000000000000 ) ) ;
#154 = ORIENTED_EDGE ( 'NONE', *, *, #484, .T. ) ;
#155 = APPROVAL_DATE_TIME ( #628, #618 ) ;
#156 = PLANE ( 'NONE',  #459 ) ;
#157 = DIRECTION ( 'NONE',  ( 1.000000000000000000, -2.775557561562899240E-15, 0.000000000000000000 ) ) ;
#158 = VECTOR ( 'NONE', #776, 1000.000000000000000 ) ;
#159 = AXIS2_PLACEMENT_3D ( 'NONE', #737, #755, #34 ) ;
#160 = ADVANCED_FACE ( 'NONE', ( #320 ), #641, .T. ) ;
#161 = LINE ( 'NONE', #84, #267 ) ;
#162 = ORIENTED_EDGE ( 'NONE', *, *, #720, .F. ) ;
#163 = LOCAL_TIME ( 9, 2, 47.00000000000000000, #234 ) ;
#164 = FACE_OUTER_BOUND ( 'NONE', #549, .T. ) ;
#165 = CARTESIAN_POINT ( 'NONE',  ( 15.00000000000001421, 9.999999999999959144, 4.000000000000000000 ) ) ;
#166 = VERTEX_POINT ( 'NONE', #24 ) ;
#167 = CARTESIAN_POINT ( 'NONE',  ( 13.00000000000010836, 9.999999999999964473, 4.000000000000000000 ) ) ;
#168 = DIRECTION ( 'NONE',  ( 1.000000000000000000, -2.775557561562892140E-15, -0.000000000000000000 ) ) ;
#169 = APPLICATION_CONTEXT ( 'configuration controlled 3d designs of mechanical parts and assemblies' ) ;
#170 = ORIENTED_EDGE ( 'NONE', *, *, #796, .F. ) ;
#171 = EDGE_CURVE ( 'NONE', #216, #749, #334, .T. ) ;
#172 = LINE ( 'NONE', #103, #439 ) ;
#173 = DIRECTION ( 'NONE',  ( 2.388915523584355472E-16, -1.000000000000000000, 0.000000000000000000 ) ) ;
#174 = AXIS2_PLACEMENT_3D ( 'NONE', #19, #655, #648 ) ;
#175 = FACE_BOUND ( 'NONE', #441, .T. ) ;
#176 = ORIENTED_EDGE ( 'NONE', *, *, #931, .T. ) ;
#177 = VECTOR ( 'NONE', #863, 1000.000000000000000 ) ;
#178 = VECTOR ( 'NONE', #121, 1000.000000000000000 ) ;
#179 = ORIENTED_EDGE ( 'NONE', *, *, #97, .T. ) ;
#180 = FACE_OUTER_BOUND ( 'NONE', #55, .T. ) ;
#181 = DIRECTION ( 'NONE',  ( 1.000000000000000000, 0.000000000000000000, 0.000000000000000000 ) ) ;
#182 = DIRECTION ( 'NONE',  ( -0.000000000000000000, -1.000000000000000000, -0.000000000000000000 ) ) ;
#183 = ORIENTED_EDGE ( 'NONE', *, *, #564, .F. ) ;
#184 = CARTESIAN_POINT ( 'NONE',  ( -14.99999999999990585, 8.500000000000046185, 4.000000000000000000 ) ) ;
#185 = DIRECTION ( 'NONE',  ( 2.388915523584354979E-16, -1.000000000000000000, 0.000000000000000000 ) ) ;
#186 = EDGE_CURVE ( 'NONE', #427, #123, #41, .T. ) ;
#187 = DIRECTION ( 'NONE',  ( 0.000000000000000000, 0.000000000000000000, 1.000000000000000000 ) ) ;
#188 = ORIENTED_EDGE ( 'NONE', *, *, #876, .F. ) ;
#189 = CC_DESIGN_PERSON_AND_ORGANIZATION_ASSIGNMENT ( #541, #1013, ( #303 ) ) ;
#190 = ORIENTED_EDGE ( 'NONE', *, *, #964, .T. ) ;
#191 = CARTESIAN_POINT ( 'NONE',  ( 14.99999999999994316, -15.00000000000007283, 0.000000000000000000 ) ) ;
#192 = ORIENTED_EDGE ( 'NONE', *, *, #464, .T. ) ;
#193 = DIRECTION ( 'NONE',  ( -0.000000000000000000, -1.000000000000000000, -0.000000000000000000 ) ) ;
#194 = VERTEX_POINT ( 'NONE', #260 ) ;
#195 = EDGE_CURVE ( 'NONE', #916, #517, #677, .T. ) ;
#196 = CARTESIAN_POINT ( 'NONE',  ( -4.954868497365396252, 0.000000000000000000, 0.000000000000000000 ) ) ;
#197 = ORIENTED_EDGE ( 'NONE', *, *, #398, .T. ) ;
#198 = DIRECTION ( 'NONE',  ( 1.000000000000000000, -5.337610695313252962E-15, 0.000000000000000000 ) ) ;
#199 = ORIENTED_EDGE ( 'NONE', *, *, #988, .F. ) ;
#200 = VERTEX_POINT ( 'NONE', #528 ) ;
#201 = ORIENTED_EDGE ( 'NONE', *, *, #598, .F. ) ;
#202 = ORIENTED_EDGE ( 'NONE', *, *, #822, .F. ) ;
#203 = DIRECTION ( 'NONE',  ( 1.000000000000000000, -5.337610695313252962E-15, 0.000000000000000000 ) ) ;
#204 = EDGE_LOOP ( 'NONE', ( #820, #382, #283, #148 ) ) ;
#205 = CARTESIAN_POINT ( 'NONE',  ( 0.000000000000000000, -30.00000000000000355, 0.000000000000000000 ) ) ;
#206 = VECTOR ( 'NONE', #136, 1000.000000000000000 ) ;
#207 = ORIENTED_EDGE ( 'NONE', *, *, #37, .F. ) ;
#208 = VECTOR ( 'NONE', #235, 1000.000000000000000 ) ;
#209 = FACE_OUTER_BOUND ( 'NONE', #102, .T. ) ;
#210 = ORIENTED_EDGE ( 'NONE', *, *, #379, .F. ) ;
#211 = CARTESIAN_POINT ( 'NONE',  ( 0.000000000000000000, -18.00000000000000355, 2.499999999999999556 ) ) ;
#212 = ORIENTED_EDGE ( 'NONE', *, *, #125, .T. ) ;
#213 = CARTESIAN_POINT ( 'NONE',  ( 5.045131502634605525, -22.73844780675204191, 8.000000000000000000 ) ) ;
#214 = DIRECTION ( 'NONE',  ( 0.000000000000000000, 0.000000000000000000, 1.000000000000000000 ) ) ;
#215 = ADVANCED_FACE ( 'NONE', ( #209 ), #290, .T. ) ;
#216 = VERTEX_POINT ( 'NONE', #834 ) ;
#217 = DIRECTION ( 'NONE',  ( 1.000000000000000000, 0.000000000000000000, 0.000000000000000000 ) ) ;
#218 = DIRECTION ( 'NONE',  ( 3.469446951953622866E-15, 1.000000000000000000, 0.000000000000000000 ) ) ;
#219 = ADVANCED_FACE ( 'NONE', ( #361 ), #131, .F. ) ;
#220 = CARTESIAN_POINT ( 'NONE',  ( 13.00000000000005329, -6.938893903907261194E-14, 0.000000000000000000 ) ) ;
#221 = ORIENTED_EDGE ( 'NONE', *, *, #329, .F. ) ;
#222 = VECTOR ( 'NONE', #157, 1000.000000000000000 ) ;
#223 = VECTOR ( 'NONE', #642, 1000.000000000000000 ) ;
#224 = CARTESIAN_POINT ( 'NONE',  ( 0.000000000000000000, -18.00000000000000355, 2.499999999999999556 ) ) ;
#225 = CC_DESIGN_SECURITY_CLASSIFICATION ( #255, ( #303 ) ) ;
#226 = DIRECTION ( 'NONE',  ( 0.000000000000000000, -1.000000000000000000, 0.000000000000000000 ) ) ;
#227 = ORIENTED_EDGE ( 'NONE', *, *, #53, .F. ) ;
#228 = LINE ( 'NONE', #220, #732 ) ;
#229 = PERSON_AND_ORGANIZATION_ROLE ( 'creator' ) ;
#230 = ADVANCED_FACE ( 'NONE', ( #587 ), #449, .F. ) ;
#231 = CARTESIAN_POINT ( 'NONE',  ( -14.99999999999995737, -9.999999999999959144, 4.000000000000000000 ) ) ;
#232 = DIRECTION ( 'NONE',  ( 1.000000000000000000, -3.700743415417198986E-15, 0.000000000000000000 ) ) ;
#233 = ORIENTED_EDGE ( 'NONE', *, *, #552, .F. ) ;
#234 = COORDINATED_UNIVERSAL_TIME_OFFSET ( 8, 0, .AHEAD. ) ;
#235 = DIRECTION ( 'NONE',  ( 0.000000000000000000, 0.000000000000000000, 1.000000000000000000 ) ) ;
#236 = EDGE_CURVE ( 'NONE', #380, #649, #676, .T. ) ;
#237 = DIRECTION ( 'NONE',  ( 1.000000000000000000, -2.775557561562894507E-15, 0.000000000000000000 ) ) ;
#238 = DATE_AND_TIME ( #760, #843 ) ;
#239 = FACE_BOUND ( 'NONE', #738, .T. ) ;
#240 = CIRCLE ( 'NONE', #572, 1.499999999999996225 ) ;
#241 = LINE ( 'NONE', #553, #456 ) ;
#242 = VERTEX_POINT ( 'NONE', #57 ) ;
#243 = AXIS2_PLACEMENT_3D ( 'NONE', #750, #680, #31 ) ;
#244 = DIRECTION ( 'NONE',  ( -0.000000000000000000, -1.000000000000000000, -0.000000000000000000 ) ) ;
#245 = CYLINDRICAL_SURFACE ( 'NONE', #906, 1.499999999999996225 ) ;
#246 = ADVANCED_FACE ( 'NONE', ( #682, #365 ), #985, .T. ) ;
#247 = ORIENTED_EDGE ( 'NONE', *, *, #835, .T. ) ;
#248 = PLANE ( 'NONE',  #108 ) ;
#249 = PLANE ( 'NONE',  #716 ) ;
#250 = CYLINDRICAL_SURFACE ( 'NONE', #557, 1.499999999999996225 ) ;
#251 = FACE_OUTER_BOUND ( 'NONE', #113, .T. ) ;
#252 = VECTOR ( 'NONE', #594, 1000.000000000000000 ) ;
#253 = PLANE ( 'NONE',  #140 ) ;
#254 = CIRCLE ( 'NONE', #43, 1.500000000000000444 ) ;
#255 = SECURITY_CLASSIFICATION ( '', '', #309 ) ;
#256 = EDGE_LOOP ( 'NONE', ( #610, #469, #994, #524 ) ) ;
#257 = DIRECTION ( 'NONE',  ( -1.000000000000000000, 0.000000000000000000, 0.000000000000000000 ) ) ;
#258 = ADVANCED_FACE ( 'NONE', ( #965 ), #286, .F. ) ;
#259 = CARTESIAN_POINT ( 'NONE',  ( 15.00000000000001421, 9.999999999999959144, 4.000000000000000000 ) ) ;
#260 = CARTESIAN_POINT ( 'NONE',  ( -14.99999999999995381, -8.499999999999964473, 4.000000000000000000 ) ) ;
#261 = FACE_OUTER_BOUND ( 'NONE', #624, .T. ) ;
#262 = EDGE_CURVE ( 'NONE', #833, #649, #91, .T. ) ;
#263 = ORIENTED_EDGE ( 'NONE', *, *, #262, .T. ) ;
#264 = DIRECTION ( 'NONE',  ( -2.775557561562891745E-15, -1.000000000000000000, 0.000000000000000000 ) ) ;
#265 = ORIENTED_EDGE ( 'NONE', *, *, #598, .T. ) ;
#266 = CARTESIAN_POINT ( 'NONE',  ( -12.99999999999992539, 10.00000000000003553, 4.000000000000000000 ) ) ;
#267 = VECTOR ( 'NONE', #536, 1000.000000000000000 ) ;
#268 = EDGE_CURVE ( 'NONE', #467, #895, #608, .T. ) ;
#269 = ORIENTED_EDGE ( 'NONE', *, *, #16, .F. ) ;
#270 = AXIS2_PLACEMENT_3D ( 'NONE', #914, #343, #907 ) ;
#271 = AXIS2_PLACEMENT_3D ( 'NONE', #476, #780, #217 ) ;
#272 =( LENGTH_UNIT ( ) NAMED_UNIT ( * ) SI_UNIT ( .MILLI., .METRE. ) );
#273 = ORIENTED_EDGE ( 'NONE', *, *, #692, .F. ) ;
#274 = CARTESIAN_POINT ( 'NONE',  ( 0.000000000000000000, -18.00000000000000355, 4.000000000000000000 ) ) ;
#275 = EDGE_LOOP ( 'NONE', ( #922, #545, #659, #154 ) ) ;
#276 = EDGE_CURVE ( 'NONE', #134, #352, #979, .T. ) ;
#277 = ORIENTED_EDGE ( 'NONE', *, *, #692, .T. ) ;
#278 = ORIENTED_EDGE ( 'NONE', *, *, #117, .T. ) ;
#279 = DIRECTION ( 'NONE',  ( -1.000000000000000000, 0.000000000000000000, 0.000000000000000000 ) ) ;
#280 = ORIENTED_EDGE ( 'NONE', *, *, #931, .F. ) ;
#281 = CARTESIAN_POINT ( 'NONE',  ( -5.551115123125804790E-14, -15.00000000000001599, 0.000000000000000000 ) ) ;
#282 = CARTESIAN_POINT ( 'NONE',  ( -29.00000000000005684, -11.49999999999991473, 4.000000000000000000 ) ) ;
#283 = ORIENTED_EDGE ( 'NONE', *, *, #774, .F. ) ;
#284 = LINE ( 'NONE', #442, #391 ) ;
#285 = VERTEX_POINT ( 'NONE', #516 ) ;
#286 = CYLINDRICAL_SURFACE ( 'NONE', #1007, 1.500000000000000444 ) ;
#287 = ORIENTED_EDGE ( 'NONE', *, *, #645, .F. ) ;
#288 = CARTESIAN_POINT ( 'NONE',  ( 14.99999999999998579, -4.163336342344333240E-14, 8.000000000000000000 ) ) ;
#289 = EDGE_CURVE ( 'NONE', #808, #777, #405, .T. ) ;
#290 = PLANE ( 'NONE',  #159 ) ;
#291 = CARTESIAN_POINT ( 'NONE',  ( 4.163336342344338920E-14, 14.99999999999996447, 8.000000000000000000 ) ) ;
#292 = ORIENTED_EDGE ( 'NONE', *, *, #905, .F. ) ;
#293 = CARTESIAN_POINT ( 'NONE',  ( -14.99999999999990230, 10.00000000000004263, 4.000000000000000000 ) ) ;
#294 = DIRECTION ( 'NONE',  ( -0.000000000000000000, -0.000000000000000000, -1.000000000000000000 ) ) ;
#295 = DESIGN_CONTEXT ( 'detailed design', #850, 'design' ) ;
#296 = ORIENTED_EDGE ( 'NONE', *, *, #384, .F. ) ;
#297 = DIRECTION ( 'NONE',  ( 2.312964634635748578E-15, 1.000000000000000000, 0.000000000000000000 ) ) ;
#298 = CARTESIAN_POINT ( 'NONE',  ( 15.00000000000002665, 14.99999999999992362, 8.000000000000000000 ) ) ;
#299 = EDGE_LOOP ( 'NONE', ( #362, #901, #287, #453, #221, #358, #472, #70, #58, #424, #599, #626 ) ) ;
#300 = CARTESIAN_POINT ( 'NONE',  ( -14.99999999999988809, 15.00000000000000711, 0.000000000000000000 ) ) ;
#301 = EDGE_CURVE ( 'NONE', #662, #120, #349, .T. ) ;
#302 = AXIS2_PLACEMENT_3D ( 'NONE', #399, #810, #339 ) ;
#303 = PRODUCT_DEFINITION_FORMATION_WITH_SPECIFIED_SOURCE ( 'ä»', '', #512, .NOT_KNOWN. ) ;
#304 = DIRECTION ( 'NONE',  ( -5.337610695313256118E-15, -1.000000000000000000, 0.000000000000000000 ) ) ;
#305 = APPROVAL_PERSON_ORGANIZATION ( #1005, #100, #547 ) ;
#306 = EDGE_LOOP ( 'NONE', ( #66, #885 ) ) ;
#307 = CARTESIAN_POINT ( 'NONE',  ( 13.00000000000009948, 8.499999999999968026, 4.000000000000000000 ) ) ;
#308 = EDGE_CURVE ( 'NONE', #166, #978, #892, .T. ) ;
#309 = SECURITY_CLASSIFICATION_LEVEL ( 'unclassified' ) ;
#310 = CARTESIAN_POINT ( 'NONE',  ( -14.99999999999997158, -14.99999999999996092, 8.000000000000000000 ) ) ;
#311 = LINE ( 'NONE', #631, #601 ) ;
#312 = APPROVAL_STATUS ( 'not_yet_approved' ) ;
#313 = CARTESIAN_POINT ( 'NONE',  ( -14.99999999999990230, 10.00000000000004263, 4.000000000000000000 ) ) ;
#314 = LINE ( 'NONE', #792, #317 ) ;
#315 = CARTESIAN_POINT ( 'NONE',  ( -14.99999999999988809, -22.73844780675204191, 8.000000000000000000 ) ) ;
#316 = CARTESIAN_POINT ( 'NONE',  ( -4.954868497365396252, -22.73844780675204191, 8.000000000000000000 ) ) ;
#317 = VECTOR ( 'NONE', #694, 1000.000000000000000 ) ;
#318 = ADVANCED_FACE ( 'NONE', ( #444 ), #824, .T. ) ;
#319 = AXIS2_PLACEMENT_3D ( 'NONE', #259, #96, #647 ) ;
#320 = FACE_OUTER_BOUND ( 'NONE', #868, .T. ) ;
#321 = VECTOR ( 'NONE', #59, 1000.000000000000000 ) ;
#322 = DIRECTION ( 'NONE',  ( 2.775557561562894507E-15, 1.000000000000000000, 0.000000000000000000 ) ) ;
#323 = CARTESIAN_POINT ( 'NONE',  ( 15.00000000000002132, 3.583373285376537399E-15, -33.54101966249677247 ) ) ;
#324 = EDGE_CURVE ( 'NONE', #521, #837, #355, .T. ) ;
#325 = DIRECTION ( 'NONE',  ( 1.000000000000000000, -2.775557561562891745E-15, 0.000000000000000000 ) ) ;
#326 = ORIENTED_EDGE ( 'NONE', *, *, #20, .F. ) ;
#327 = CARTESIAN_POINT ( 'NONE',  ( 5.045131502634605525, -15.00000000000003553, 8.000000000000000000 ) ) ;
#328 = CARTESIAN_POINT ( 'NONE',  ( -13.00000000000001066, -12.99999999999994138, 0.000000000000000000 ) ) ;
#329 = EDGE_CURVE ( 'NONE', #340, #662, #752, .T. ) ;
#330 = ORIENTED_EDGE ( 'NONE', *, *, #741, .T. ) ;
#331 = DIRECTION ( 'NONE',  ( 1.000000000000000000, -2.775557561562894507E-15, 0.000000000000000000 ) ) ;
#332 = LINE ( 'NONE', #880, #800 ) ;
#333 = AXIS2_PLACEMENT_3D ( 'NONE', #468, #480, #375 ) ;
#334 = LINE ( 'NONE', #406, #715 ) ;
#335 = AXIS2_PLACEMENT_3D ( 'NONE', #535, #840, #548 ) ;
#336 = ORGANIZATION ( 'æœª', 'æœª', '' ) ;
#337 = EDGE_CURVE ( 'NONE', #753, #894, #630, .T. ) ;
#338 = CARTESIAN_POINT ( 'NONE',  ( -12.99999999999993072, 8.500000000000039080, 4.000000000000000000 ) ) ;
#339 = DIRECTION ( 'NONE',  ( -1.000000000000000000, 3.700743415417198986E-15, 0.000000000000000000 ) ) ;
#340 = VERTEX_POINT ( 'NONE', #142 ) ;
#341 = DIRECTION ( 'NONE',  ( -2.775557561562891745E-15, -1.000000000000000000, 0.000000000000000000 ) ) ;
#342 = ORIENTED_EDGE ( 'NONE', *, *, #262, .F. ) ;
#343 = DIRECTION ( 'NONE',  ( 0.000000000000000000, -1.000000000000000000, 0.000000000000000000 ) ) ;
#344 = ORIENTED_EDGE ( 'NONE', *, *, #16, .T. ) ;
#345 = ORIENTED_EDGE ( 'NONE', *, *, #578, .T. ) ;
#346 = LINE ( 'NONE', #359, #929 ) ;
#347 = ORIENTED_EDGE ( 'NONE', *, *, #117, .F. ) ;
#348 = ADVANCED_FACE ( 'NONE', ( #146, #373 ), #76, .F. ) ;
#349 = LINE ( 'NONE', #668, #458 ) ;
#350 = AXIS2_PLACEMENT_3D ( 'NONE', #231, #933, #996 ) ;
#351 = VECTOR ( 'NONE', #896, 1000.000000000000000 ) ;
#352 = VERTEX_POINT ( 'NONE', #460 ) ;
#353 =( NAMED_UNIT ( * ) SI_UNIT ( $, .STERADIAN. ) SOLID_ANGLE_UNIT ( ) );
#354 = ORIENTED_EDGE ( 'NONE', *, *, #865, .T. ) ;
#355 = LINE ( 'NONE', #593, #745 ) ;
#356 = ADVANCED_FACE ( 'NONE', ( #623 ), #392, .F. ) ;
#357 = ORIENTED_EDGE ( 'NONE', *, *, #905, .T. ) ;
#358 = ORIENTED_EDGE ( 'NONE', *, *, #939, .T. ) ;
#359 = CARTESIAN_POINT ( 'NONE',  ( -29.00000000000005684, -11.49999999999991473, 4.000000000000000000 ) ) ;
#360 = ORIENTED_EDGE ( 'NONE', *, *, #47, .F. ) ;
#361 = FACE_OUTER_BOUND ( 'NONE', #743, .T. ) ;
#362 = ORIENTED_EDGE ( 'NONE', *, *, #889, .T. ) ;
#363 = EDGE_CURVE ( 'NONE', #605, #127, #544, .T. ) ;
#364 = APPLICATION_PROTOCOL_DEFINITION ( 'international standard', 'config_control_design', 1994, #169 ) ;
#365 = FACE_BOUND ( 'NONE', #1000, .T. ) ;
#366 = CARTESIAN_POINT ( 'NONE',  ( -29.00000000000000000, 8.500000000000083489, 4.000000000000000000 ) ) ;
#367 = CARTESIAN_POINT ( 'NONE',  ( -14.99999999999997158, -14.99999999999996092, 0.000000000000000000 ) ) ;
#368 = ORIENTED_EDGE ( 'NONE', *, *, #481, .F. ) ;
#369 = CC_DESIGN_PERSON_AND_ORGANIZATION_ASSIGNMENT ( #145, #229, ( #303 ) ) ;
#370 = COORDINATED_UNIVERSAL_TIME_OFFSET ( 8, 0, .AHEAD. ) ;
#371 = CIRCLE ( 'NONE', #122, 1.499999999999996225 ) ;
#372 = CIRCLE ( 'NONE', #733, 1.499999999999996225 ) ;
#373 = FACE_BOUND ( 'NONE', #681, .T. ) ;
#374 = MANIFOLD_SOLID_BREP ( '\X2\52079664\X0\-\X2\62c94f38\X0\2', #827 ) ;
#375 = DIRECTION ( 'NONE',  ( 2.312964634635751339E-15, 1.000000000000000000, 0.000000000000000000 ) ) ;
#376 = ORIENTED_EDGE ( 'NONE', *, *, #865, .F. ) ;
#377 = PERSON_AND_ORGANIZATION_ROLE ( 'design_owner' ) ;
#378 = CARTESIAN_POINT ( 'NONE',  ( 15.00000000000001066, 8.499999999999962697, 4.000000000000000000 ) ) ;
#379 = EDGE_CURVE ( 'NONE', #649, #833, #240, .T. ) ;
#380 = VERTEX_POINT ( 'NONE', #1006 ) ;
#381 = FACE_OUTER_BOUND ( 'NONE', #855, .T. ) ;
#382 = ORIENTED_EDGE ( 'NONE', *, *, #417, .F. ) ;
#383 = CARTESIAN_POINT ( 'NONE',  ( 5.045131502634605525, 0.000000000000000000, 8.000000000000000000 ) ) ;
#384 = EDGE_CURVE ( 'NONE', #664, #785, #83, .T. ) ;
#385 = DIRECTION ( 'NONE',  ( 1.000000000000000000, -2.775557561562892140E-15, -0.000000000000000000 ) ) ;
#386 = ORIENTED_EDGE ( 'NONE', *, *, #670, .T. ) ;
#387 = CARTESIAN_POINT ( 'NONE',  ( -14.99999999999989342, -3.583373285376506633E-15, 8.000000000000000000 ) ) ;
#388 = DATE_AND_TIME ( #917, #764 ) ;
#389 = VECTOR ( 'NONE', #613, 1000.000000000000000 ) ;
#390 = AXIS2_PLACEMENT_3D ( 'NONE', #719, #803, #530 ) ;
#391 = VECTOR ( 'NONE', #341, 1000.000000000000000 ) ;
#392 = PLANE ( 'NONE',  #12 ) ;
#393 = DIRECTION ( 'NONE',  ( 2.312964634635748578E-15, 1.000000000000000000, 0.000000000000000000 ) ) ;
#394 = ORIENTED_EDGE ( 'NONE', *, *, #822, .T. ) ;
#395 = MECHANICAL_CONTEXT ( 'NONE', #169, 'mechanical' ) ;
#396 = LINE ( 'NONE', #310, #438 ) ;
#397 = VERTEX_POINT ( 'NONE', #1 ) ;
#398 = EDGE_CURVE ( 'NONE', #194, #589, #621, .T. ) ;
#399 = CARTESIAN_POINT ( 'NONE',  ( -5.551115123125804790E-14, -15.00000000000001599, 8.000000000000000000 ) ) ;
#400 = CARTESIAN_POINT ( 'NONE',  ( 13.00000000000005329, -6.938893903907261194E-14, 8.000000000000000000 ) ) ;
#401 = ORIENTED_EDGE ( 'NONE', *, *, #702, .T. ) ;
#402 = DIRECTION ( 'NONE',  ( 0.000000000000000000, 0.000000000000000000, -1.000000000000000000 ) ) ;
#403 = LINE ( 'NONE', #793, #539 ) ;
#404 = CIRCLE ( 'NONE', #26, 1.499999999999994449 ) ;
#405 = CIRCLE ( 'NONE', #556, 1.499999999999994449 ) ;
#406 = CARTESIAN_POINT ( 'NONE',  ( -5.551115123125804790E-14, -15.00000000000001599, 8.000000000000000000 ) ) ;
#407 = VECTOR ( 'NONE', #36, 1000.000000000000000 ) ;
#408 = ORIENTED_EDGE ( 'NONE', *, *, #363, .F. ) ;
#409 = FACE_OUTER_BOUND ( 'NONE', #509, .T. ) ;
#410 = CARTESIAN_POINT ( 'NONE',  ( -5.551115123125804790E-14, -15.00000000000001599, 8.000000000000000000 ) ) ;
#411 = EDGE_CURVE ( 'NONE', #975, #440, #404, .T. ) ;
#412 = PLANE ( 'NONE',  #420 ) ;
#413 = VERTEX_POINT ( 'NONE', #378 ) ;
#414 = CARTESIAN_POINT ( 'NONE',  ( -4.954868497365396252, -22.73844780675204191, -33.54101966249677247 ) ) ;
#415 = DIRECTION ( 'NONE',  ( 1.000000000000000000, -5.337610695313256118E-15, 0.000000000000000000 ) ) ;
#416 = CARTESIAN_POINT ( 'NONE',  ( 14.99999999999998579, -4.163336342344333240E-14, 8.000000000000000000 ) ) ;
#417 = EDGE_CURVE ( 'NONE', #216, #683, #396, .T. ) ;
#418 = FACE_OUTER_BOUND ( 'NONE', #204, .T. ) ;
#419 = CARTESIAN_POINT ( 'NONE',  ( 15.00000000000002132, 3.583373285376537399E-15, 8.000000000000000000 ) ) ;
#420 = AXIS2_PLACEMENT_3D ( 'NONE', #400, #567, #721 ) ;
#421 = ORIENTED_EDGE ( 'NONE', *, *, #451, .T. ) ;
#422 = VECTOR ( 'NONE', #742, 1000.000000000000000 ) ;
#423 = CARTESIAN_POINT ( 'NONE',  ( 13.00000000000000711, -8.500000000000042633, 4.000000000000000000 ) ) ;
#424 = ORIENTED_EDGE ( 'NONE', *, *, #106, .F. ) ;
#425 = PRODUCT_DEFINITION_SHAPE ( 'NONE', 'NONE',  #913 ) ;
#426 = CARTESIAN_POINT ( 'NONE',  ( 0.000000000000000000, -22.73844780675204191, 0.000000000000000000 ) ) ;
#427 = VERTEX_POINT ( 'NONE', #839 ) ;
#428 = DIRECTION ( 'NONE',  ( 1.000000000000000000, -3.736327486719282280E-15, 0.000000000000000000 ) ) ;
#429 = EDGE_CURVE ( 'NONE', #380, #740, #814, .T. ) ;
#430 = VERTEX_POINT ( 'NONE', #551 ) ;
#431 = DIRECTION ( 'NONE',  ( -0.000000000000000000, 0.000000000000000000, 1.000000000000000000 ) ) ;
#432 = ORIENTED_EDGE ( 'NONE', *, *, #678, .T. ) ;
#433 = ORIENTED_EDGE ( 'NONE', *, *, #144, .F. ) ;
#434 = VERTEX_POINT ( 'NONE', #936 ) ;
#435 = CC_DESIGN_PERSON_AND_ORGANIZATION_ASSIGNMENT ( #935, #691, ( #255 ) ) ;
#436 = VERTEX_POINT ( 'NONE', #925 ) ;
#437 = CARTESIAN_POINT ( 'NONE',  ( -4.954868497365396252, 0.000000000000000000, -33.54101966249677247 ) ) ;
#438 = VECTOR ( 'NONE', #6, 1000.000000000000000 ) ;
#439 = VECTOR ( 'NONE', #28, 1000.000000000000000 ) ;
#440 = VERTEX_POINT ( 'NONE', #73 ) ;
#441 = EDGE_LOOP ( 'NONE', ( #326, #35 ) ) ;
#442 = CARTESIAN_POINT ( 'NONE',  ( 14.99999999999998579, -4.163336342344333240E-14, 0.000000000000000000 ) ) ;
#443 = EDGE_LOOP ( 'NONE', ( #44, #714, #531, #609 ) ) ;
#444 = FACE_OUTER_BOUND ( 'NONE', #78, .T. ) ;
#445 = EDGE_CURVE ( 'NONE', #740, #380, #371, .T. ) ;
#446 = EDGE_LOOP ( 'NONE', ( #210, #342 ) ) ;
#447 = LINE ( 'NONE', #983, #543 ) ;
#448 = ORIENTED_EDGE ( 'NONE', *, *, #481, .T. ) ;
#449 = PLANE ( 'NONE',  #270 ) ;
#450 = LINE ( 'NONE', #366, #252 ) ;
#451 = EDGE_CURVE ( 'NONE', #690, #749, #693, .T. ) ;
#452 = LINE ( 'NONE', #387, #492 ) ;
#453 = ORIENTED_EDGE ( 'NONE', *, *, #465, .F. ) ;
#454 = CARTESIAN_POINT ( 'NONE',  ( -4.954868497365396252, -14.99999999999999822, -33.54101966249677247 ) ) ;
#455 = ORIENTED_EDGE ( 'NONE', *, *, #47, .T. ) ;
#456 = VECTOR ( 'NONE', #560, 1000.000000000000000 ) ;
#457 = ORIENTED_EDGE ( 'NONE', *, *, #384, .T. ) ;
#458 = VECTOR ( 'NONE', #972, 1000.000000000000000 ) ;
#459 = AXIS2_PLACEMENT_3D ( 'NONE', #478, #635, #791 ) ;
#460 = CARTESIAN_POINT ( 'NONE',  ( -14.99999999999988809, -22.73844780675204191, 0.000000000000000000 ) ) ;
#461 = LINE ( 'NONE', #64, #651 ) ;
#462 = DIRECTION ( 'NONE',  ( 1.000000000000000000, -2.775557561562899240E-15, 0.000000000000000000 ) ) ;
#463 = DATE_TIME_ROLE ( 'classification_date' ) ;
#464 = EDGE_CURVE ( 'NONE', #517, #110, #533, .T. ) ;
#465 = EDGE_CURVE ( 'NONE', #662, #242, #761, .T. ) ;
#466 = CARTESIAN_POINT ( 'NONE',  ( 5.045131502634605525, -15.00000000000003553, 0.000000000000000000 ) ) ;
#467 = VERTEX_POINT ( 'NONE', #466 ) ;
#468 = CARTESIAN_POINT ( 'NONE',  ( -29.00000000000005329, -9.999999999999920064, 4.000000000000000000 ) ) ;
#469 = ORIENTED_EDGE ( 'NONE', *, *, #32, .T. ) ;
#470 = CARTESIAN_POINT ( 'NONE',  ( 15.00000000000002665, -22.73844780675204191, 0.000000000000000000 ) ) ;
#471 = COORDINATED_UNIVERSAL_TIME_OFFSET ( 8, 0, .AHEAD. ) ;
#472 = ORIENTED_EDGE ( 'NONE', *, *, #144, .T. ) ;
#473 = DIRECTION ( 'NONE',  ( 1.000000000000000000, -2.775557561562891745E-15, 0.000000000000000000 ) ) ;
#474 = DIRECTION ( 'NONE',  ( 1.000000000000000000, -2.775557561562891745E-15, 0.000000000000000000 ) ) ;
#475 = VERTEX_POINT ( 'NONE', #224 ) ;
#476 = CARTESIAN_POINT ( 'NONE',  ( 0.000000000000000000, 0.000000000000000000, 0.000000000000000000 ) ) ;
#477 = AXIS2_PLACEMENT_3D ( 'NONE', #1004, #930, #3 ) ;
#478 = CARTESIAN_POINT ( 'NONE',  ( -14.99999999999989342, -3.583373285376506633E-15, -33.54101966249677247 ) ) ;
#479 = CARTESIAN_POINT ( 'NONE',  ( 4.163336342344338920E-14, 14.99999999999996447, 0.000000000000000000 ) ) ;
#480 = DIRECTION ( 'NONE',  ( 1.000000000000000000, -2.775557561562892140E-15, -0.000000000000000000 ) ) ;
#481 = EDGE_CURVE ( 'NONE', #664, #978, #847, .T. ) ;
#482 = DIRECTION ( 'NONE',  ( 1.000000000000000000, -3.736327486719282280E-15, 0.000000000000000000 ) ) ;
#483 = ORIENTED_EDGE ( 'NONE', *, *, #379, .T. ) ;
#484 = EDGE_CURVE ( 'NONE', #120, #110, #15, .T. ) ;
#485 = CYLINDRICAL_SURFACE ( 'NONE', #79, 1.499999999999994449 ) ;
#486 = FACE_OUTER_BOUND ( 'NONE', #256, .T. ) ;
#487 = DIRECTION ( 'NONE',  ( 0.000000000000000000, -0.000000000000000000, -1.000000000000000000 ) ) ;
#488 = CARTESIAN_POINT ( 'NONE',  ( 12.99999999999998401, -13.00000000000008171, 0.000000000000000000 ) ) ;
#489 = EDGE_CURVE ( 'NONE', #413, #430, #62, .T. ) ;
#490 = DIRECTION ( 'NONE',  ( 2.312964634635748578E-15, 1.000000000000000000, 0.000000000000000000 ) ) ;
#491 = VECTOR ( 'NONE', #616, 1000.000000000000000 ) ;
#492 = VECTOR ( 'NONE', #627, 1000.000000000000000 ) ;
#493 = ORIENTED_EDGE ( 'NONE', *, *, #417, .T. ) ;
#494 = DIRECTION ( 'NONE',  ( 2.312964634635748578E-15, 1.000000000000000000, 0.000000000000000000 ) ) ;
#495 = CARTESIAN_POINT ( 'NONE',  ( 0.000000000000000000, -30.00000000000000355, 4.000000000000000000 ) ) ;
#496 = ADVANCED_FACE ( 'NONE', ( #87, #239, #251 ), #731, .T. ) ;
#497 = FACE_BOUND ( 'NONE', #795, .T. ) ;
#498 = ORIENTED_EDGE ( 'NONE', *, *, #540, .T. ) ;
#499 = CARTESIAN_POINT ( 'NONE',  ( 12.99999999999998934, -11.50000000000003020, 4.000000000000000000 ) ) ;
#500 = DIRECTION ( 'NONE',  ( 0.000000000000000000, -1.000000000000000000, 0.000000000000000000 ) ) ;
#501 = FACE_OUTER_BOUND ( 'NONE', #671, .T. ) ;
#502 = CYLINDRICAL_SURFACE ( 'NONE', #887, 1.499999999999994449 ) ;
#503 = VERTEX_POINT ( 'NONE', #99 ) ;
#504 = CIRCLE ( 'NONE', #581, 1.499999999999996225 ) ;
#505 = DIRECTION ( 'NONE',  ( 1.000000000000000000, -3.700743415417198986E-15, 0.000000000000000000 ) ) ;
#506 = VECTOR ( 'NONE', #185, 1000.000000000000000 ) ;
#507 = VECTOR ( 'NONE', #579, 1000.000000000000000 ) ;
#508 = ADVANCED_FACE ( 'NONE', ( #723 ), #713, .F. ) ;
#509 = EDGE_LOOP ( 'NONE', ( #756, #673, #825, #170 ) ) ;
#510 = LINE ( 'NONE', #817, #407 ) ;
#511 = EDGE_LOOP ( 'NONE', ( #68, #580, #401, #498 ) ) ;
#512 = PRODUCT ( '\X2\65b95f62955c67b6\X0\', '\X2\65b95f62955c67b6\X0\', '', ( #395 ) ) ;
#513 = CARTESIAN_POINT ( 'NONE',  ( -28.99999999999999289, 11.50000000000007638, 4.000000000000000000 ) ) ;
#514 = DIRECTION ( 'NONE',  ( 1.000000000000000000, -2.775557561562892140E-15, -0.000000000000000000 ) ) ;
#515 = ORIENTED_EDGE ( 'NONE', *, *, #678, .F. ) ;
#516 = CARTESIAN_POINT ( 'NONE',  ( -14.99999999999988809, 15.00000000000000711, 8.000000000000000000 ) ) ;
#517 = VERTEX_POINT ( 'NONE', #805 ) ;
#518 = EDGE_LOOP ( 'NONE', ( #128, #21, #998, #483 ) ) ;
#519 = EDGE_CURVE ( 'NONE', #503, #430, #643, .T. ) ;
#520 = CARTESIAN_POINT ( 'NONE',  ( 15.00000000000002132, 3.583373285376537399E-15, 0.000000000000000000 ) ) ;
#521 = VERTEX_POINT ( 'NONE', #328 ) ;
#522 = CIRCLE ( 'NONE', #477, 1.499999999999994449 ) ;
#523 = CIRCLE ( 'NONE', #789, 1.500000000000000444 ) ;
#524 = ORIENTED_EDGE ( 'NONE', *, *, #195, .F. ) ;
#525 = ORIENTED_EDGE ( 'NONE', *, *, #852, .T. ) ;
#526 = ADVANCED_FACE ( 'NONE', ( #164 ), #249, .F. ) ;
#527 = EDGE_CURVE ( 'NONE', #503, #615, #952, .T. ) ;
#528 = CARTESIAN_POINT ( 'NONE',  ( -12.99999999999991473, 13.00000000000002132, 8.000000000000000000 ) ) ;
#529 = EDGE_LOOP ( 'NONE', ( #52, #1003, #953, #119 ) ) ;
#530 = DIRECTION ( 'NONE',  ( 0.000000000000000000, -0.000000000000000000, -1.000000000000000000 ) ) ;
#531 = ORIENTED_EDGE ( 'NONE', *, *, #308, .T. ) ;
#532 = LINE ( 'NONE', #288, #1011 ) ;
#533 = LINE ( 'NONE', #611, #206 ) ;
#534 = DATE_TIME_ROLE ( 'creation_date' ) ;
#535 = CARTESIAN_POINT ( 'NONE',  ( 0.000000000000000000, 0.000000000000000000, 0.000000000000000000 ) ) ;
#536 = DIRECTION ( 'NONE',  ( -2.775557561562894507E-15, -1.000000000000000000, 0.000000000000000000 ) ) ;
#537 = VECTOR ( 'NONE', #294, 1000.000000000000000 ) ;
#538 = DIRECTION ( 'NONE',  ( -5.337610695313256118E-15, -1.000000000000000000, 0.000000000000000000 ) ) ;
#539 = VECTOR ( 'NONE', #181, 1000.000000000000000 ) ;
#540 = EDGE_CURVE ( 'NONE', #894, #120, #403, .T. ) ;
#541 = PERSON_AND_ORGANIZATION ( #634, #336 ) ;
#542 = CC_DESIGN_APPROVAL ( #973, ( #913 ) ) ;
#543 = VECTOR ( 'NONE', #591, 1000.000000000000000 ) ;
#544 = LINE ( 'NONE', #479, #222 ) ;
#545 = ORIENTED_EDGE ( 'NONE', *, *, #329, .T. ) ;
#546 = LINE ( 'NONE', #910, #602 ) ;
#547 = APPROVAL_ROLE ( '' ) ;
#548 = DIRECTION ( 'NONE',  ( 1.000000000000000000, 0.000000000000000000, 0.000000000000000000 ) ) ;
#549 = EDGE_LOOP ( 'NONE', ( #924, #421, #963, #493 ) ) ;
#550 = PERSON_AND_ORGANIZATION ( #634, #336 ) ;
#551 = CARTESIAN_POINT ( 'NONE',  ( 15.00000000000001599, 11.49999999999995381, 4.000000000000000000 ) ) ;
#552 = EDGE_CURVE ( 'NONE', #200, #166, #332, .T. ) ;
#553 = CARTESIAN_POINT ( 'NONE',  ( 0.000000000000000000, -22.73844780675204191, 8.000000000000000000 ) ) ;
#554 = DATE_AND_TIME ( #937, #622 ) ;
#555 = CIRCLE ( 'NONE', #966, 1.500000000000000444 ) ;
#556 = AXIS2_PLACEMENT_3D ( 'NONE', #898, #126, #39 ) ;
#557 = AXIS2_PLACEMENT_3D ( 'NONE', #570, #875, #494 ) ;
#558 = DIRECTION ( 'NONE',  ( -1.000000000000000000, 3.700743415417198986E-15, 0.000000000000000000 ) ) ;
#559 = CC_DESIGN_DATE_AND_TIME_ASSIGNMENT ( #388, #534, ( #913 ) ) ;
#560 = DIRECTION ( 'NONE',  ( 1.000000000000000000, 0.000000000000000000, 0.000000000000000000 ) ) ;
#561 = CARTESIAN_POINT ( 'NONE',  ( -29.00000000000005329, -9.999999999999920064, 4.000000000000000000 ) ) ;
#562 = CARTESIAN_POINT ( 'NONE',  ( -28.99999999999999645, 10.00000000000007994, 4.000000000000000000 ) ) ;
#563 = CARTESIAN_POINT ( 'NONE',  ( 15.00000000000002665, 14.99999999999992362, 0.000000000000000000 ) ) ;
#564 = EDGE_CURVE ( 'NONE', #434, #397, #254, .T. ) ;
#565 = FACE_BOUND ( 'NONE', #306, .T. ) ;
#566 = PLANE ( 'NONE',  #302 ) ;
#567 = DIRECTION ( 'NONE',  ( 1.000000000000000000, -5.337610695313256118E-15, 0.000000000000000000 ) ) ;
#568 = ORIENTED_EDGE ( 'NONE', *, *, #954, .F. ) ;
#569 = ADVANCED_FACE ( 'NONE', ( #104 ), #566, .F. ) ;
#570 = CARTESIAN_POINT ( 'NONE',  ( -28.99999999999999645, 10.00000000000007994, 4.000000000000000000 ) ) ;
#571 = DIRECTION ( 'NONE',  ( 0.000000000000000000, 0.000000000000000000, -1.000000000000000000 ) ) ;
#572 = AXIS2_PLACEMENT_3D ( 'NONE', #697, #768, #218 ) ;
#573 = ORIENTED_EDGE ( 'NONE', *, *, #954, .T. ) ;
#574 = DIRECTION ( 'NONE',  ( 2.312964634635751339E-15, 1.000000000000000000, 0.000000000000000000 ) ) ;
#575 = CARTESIAN_POINT ( 'NONE',  ( 13.00000000000010836, 9.999999999999964473, 4.000000000000000000 ) ) ;
#576 = DIRECTION ( 'NONE',  ( 0.000000000000000000, 0.000000000000000000, -1.000000000000000000 ) ) ;
#577 = EDGE_LOOP ( 'NONE', ( #708, #976 ) ) ;
#578 = EDGE_CURVE ( 'NONE', #352, #790, #10, .T. ) ;
#579 = DIRECTION ( 'NONE',  ( 0.000000000000000000, 1.000000000000000000, 0.000000000000000000 ) ) ;
#580 = ORIENTED_EDGE ( 'NONE', *, *, #465, .T. ) ;
#581 = AXIS2_PLACEMENT_3D ( 'NONE', #165, #474, #393 ) ;
#582 = DIRECTION ( 'NONE',  ( 1.000000000000000000, -3.736327486719282280E-15, 0.000000000000000000 ) ) ;
#583 = EDGE_CURVE ( 'NONE', #978, #837, #90, .T. ) ;
#584 = VECTOR ( 'NONE', #214, 1000.000000000000000 ) ;
#585 = AXIS2_PLACEMENT_3D ( 'NONE', #812, #244, #576 ) ;
#586 = ORIENTED_EDGE ( 'NONE', *, *, #552, .T. ) ;
#587 = FACE_OUTER_BOUND ( 'NONE', #33, .T. ) ;
#588 = VERTEX_POINT ( 'NONE', #316 ) ;
#589 = VERTEX_POINT ( 'NONE', #640 ) ;
#590 = ADVANCED_FACE ( 'NONE', ( #943 ), #245, .F. ) ;
#591 = DIRECTION ( 'NONE',  ( -0.000000000000000000, -0.000000000000000000, -1.000000000000000000 ) ) ;
#592 = ORIENTED_EDGE ( 'NONE', *, *, #54, .T. ) ;
#593 = CARTESIAN_POINT ( 'NONE',  ( -6.938893903907234689E-14, -13.00000000000001066, 0.000000000000000000 ) ) ;
#594 = DIRECTION ( 'NONE',  ( 1.000000000000000000, -2.775557561562892140E-15, -0.000000000000000000 ) ) ;
#595 = ORIENTED_EDGE ( 'NONE', *, *, #988, .T. ) ;
#596 = ADVANCED_FACE ( 'NONE', ( #870, #486 ), #798, .T. ) ;
#597 = CARTESIAN_POINT ( 'NONE',  ( 5.045131502634605525, -15.00000000000003553, -33.54101966249677247 ) ) ;
#598 = EDGE_CURVE ( 'NONE', #589, #194, #522, .T. ) ;
#599 = ORIENTED_EDGE ( 'NONE', *, *, #81, .F. ) ;
#600 = CARTESIAN_POINT ( 'NONE',  ( -6.938893903907234689E-14, -13.00000000000001066, 8.000000000000000000 ) ) ;
#601 = VECTOR ( 'NONE', #182, 1000.000000000000000 ) ;
#602 = VECTOR ( 'NONE', #614, 1000.000000000000000 ) ;
#603 = FACE_OUTER_BOUND ( 'NONE', #137, .T. ) ;
#604 = VECTOR ( 'NONE', #890, 1000.000000000000000 ) ;
#605 = VERTEX_POINT ( 'NONE', #300 ) ;
#606 = DIRECTION ( 'NONE',  ( 3.469446951953627205E-15, 1.000000000000000000, 0.000000000000000000 ) ) ;
#607 = ORIENTED_EDGE ( 'NONE', *, *, #337, .T. ) ;
#608 = LINE ( 'NONE', #281, #653 ) ;
#609 = ORIENTED_EDGE ( 'NONE', *, *, #583, .T. ) ;
#610 = ORIENTED_EDGE ( 'NONE', *, *, #939, .F. ) ;
#611 = CARTESIAN_POINT ( 'NONE',  ( 0.000000000000000000, -30.00000000000000355, 8.000000000000000000 ) ) ;
#612 = EDGE_CURVE ( 'NONE', #166, #521, #546, .T. ) ;
#613 = DIRECTION ( 'NONE',  ( 1.000000000000000000, -3.700743415417198986E-15, 0.000000000000000000 ) ) ;
#614 = DIRECTION ( 'NONE',  ( -0.000000000000000000, -0.000000000000000000, -1.000000000000000000 ) ) ;
#615 = VERTEX_POINT ( 'NONE', #307 ) ;
#616 = DIRECTION ( 'NONE',  ( -1.000000000000000000, 0.000000000000000000, 0.000000000000000000 ) ) ;
#617 = CARTESIAN_POINT ( 'NONE',  ( -5.551115123125804790E-14, -15.00000000000001599, 0.000000000000000000 ) ) ;
#618 = APPROVAL ( #312, 'æœª' ) ;
#619 = ORIENTED_EDGE ( 'NONE', *, *, #186, .T. ) ;
#620 = CARTESIAN_POINT ( 'NONE',  ( -29.00000000000000000, 8.500000000000083489, 4.000000000000000000 ) ) ;
#621 = CIRCLE ( 'NONE', #350, 1.499999999999994449 ) ;
#622 = LOCAL_TIME ( 9, 2, 47.00000000000000000, #857 ) ;
#623 = FACE_OUTER_BOUND ( 'NONE', #511, .T. ) ;
#624 = EDGE_LOOP ( 'NONE', ( #269, #212, #525, #40 ) ) ;
#625 = CYLINDRICAL_SURFACE ( 'NONE', #786, 1.499999999999996225 ) ;
#626 = ORIENTED_EDGE ( 'NONE', *, *, #363, .T. ) ;
#627 = DIRECTION ( 'NONE',  ( 2.388915523584354979E-16, -1.000000000000000000, 0.000000000000000000 ) ) ;
#628 = DATE_AND_TIME ( #704, #27 ) ;
#629 = EDGE_CURVE ( 'NONE', #785, #837, #228, .T. ) ;
#630 = LINE ( 'NONE', #383, #970 ) ;
#631 = CARTESIAN_POINT ( 'NONE',  ( 1.836970198721030181E-16, -18.00000000000000355, 5.500000000000000888 ) ) ;
#632 = APPROVAL_STATUS ( 'not_yet_approved' ) ;
#633 = ADVANCED_FACE ( 'NONE', ( #381 ), #856, .F. ) ;
#634 = PERSON ( 'æœª', 'æœª', 'æœª', ('æœª'), ('æœª'), ('æœª') ) ;
#635 = DIRECTION ( 'NONE',  ( -1.000000000000000000, -2.388915523584355472E-16, 0.000000000000000000 ) ) ;
#636 = DIRECTION ( 'NONE',  ( 0.000000000000000000, -1.000000000000000000, 0.000000000000000000 ) ) ;
#637 = AXIS2_PLACEMENT_3D ( 'NONE', #888, #991, #118 ) ;
#638 = DIRECTION ( 'NONE',  ( 1.000000000000000000, -2.775557561562892140E-15, -0.000000000000000000 ) ) ;
#639 = CIRCLE ( 'NONE', #705, 1.499999999999994449 ) ;
#640 = CARTESIAN_POINT ( 'NONE',  ( -14.99999999999996092, -11.49999999999995381, 4.000000000000000000 ) ) ;
#641 = PLANE ( 'NONE',  #105 ) ;
#642 = DIRECTION ( 'NONE',  ( 0.000000000000000000, 0.000000000000000000, 1.000000000000000000 ) ) ;
#643 = LINE ( 'NONE', #946, #177 ) ;
#644 = LINE ( 'NONE', #11, #762 ) ;
#645 = EDGE_CURVE ( 'NONE', #242, #467, #80, .T. ) ;
#646 = CARTESIAN_POINT ( 'NONE',  ( -29.00000000000005329, -9.999999999999920064, 4.000000000000000000 ) ) ;
#647 = DIRECTION ( 'NONE',  ( 2.312964634635748578E-15, 1.000000000000000000, 0.000000000000000000 ) ) ;
#648 = DIRECTION ( 'NONE',  ( 3.469446951953627205E-15, 1.000000000000000000, 0.000000000000000000 ) ) ;
#649 = VERTEX_POINT ( 'NONE', #842 ) ;
#650 = FACE_OUTER_BOUND ( 'NONE', #754, .T. ) ;
#651 = VECTOR ( 'NONE', #700, 1000.000000000000000 ) ;
#652 = DIRECTION ( 'NONE',  ( -1.000000000000000000, -2.388915523584355472E-16, 0.000000000000000000 ) ) ;
#653 = VECTOR ( 'NONE', #505, 1000.000000000000000 ) ;
#654 = AXIS2_PLACEMENT_3D ( 'NONE', #832, #884, #987 ) ;
#655 = DIRECTION ( 'NONE',  ( 1.000000000000000000, -3.736327486719282280E-15, 0.000000000000000000 ) ) ;
#656 = CC_DESIGN_APPROVAL ( #100, ( #255 ) ) ;
#657 = LINE ( 'NONE', #88, #124 ) ;
#658 = EDGE_CURVE ( 'NONE', #740, #833, #836, .T. ) ;
#659 = ORIENTED_EDGE ( 'NONE', *, *, #301, .T. ) ;
#660 = CARTESIAN_POINT ( 'NONE',  ( -14.99999999999988631, -30.00000000000000355, 0.000000000000000000 ) ) ;
#661 = ADVANCED_FACE ( 'NONE', ( #603 ), #849, .F. ) ;
#662 = VERTEX_POINT ( 'NONE', #470 ) ;
#663 = DIRECTION ( 'NONE',  ( 3.469446951953622866E-15, 1.000000000000000000, 0.000000000000000000 ) ) ;
#664 = VERTEX_POINT ( 'NONE', #778 ) ;
#665 = ORIENTED_EDGE ( 'NONE', *, *, #564, .T. ) ;
#666 = ORIENTED_EDGE ( 'NONE', *, *, #658, .T. ) ;
#667 = VECTOR ( 'NONE', #304, 1000.000000000000000 ) ;
#668 = CARTESIAN_POINT ( 'NONE',  ( 15.00000000000002665, -22.73844780675204191, -33.54101966249677247 ) ) ;
#669 = APPROVAL_PERSON_ORGANIZATION ( #72, #618, #995 ) ;
#670 = EDGE_CURVE ( 'NONE', #475, #434, #143, .T. ) ;
#671 = EDGE_LOOP ( 'NONE', ( #928, #48, #368, #457 ) ) ;
#672 = EDGE_LOOP ( 'NONE', ( #433, #997, #515, #736 ) ) ;
#673 = ORIENTED_EDGE ( 'NONE', *, *, #921, .T. ) ;
#674 = LINE ( 'NONE', #115, #351 ) ;
#675 = ORIENTED_EDGE ( 'NONE', *, *, #5, .T. ) ;
#676 = LINE ( 'NONE', #513, #990 ) ;
#677 = LINE ( 'NONE', #816, #107 ) ;
#678 = EDGE_CURVE ( 'NONE', #790, #517, #452, .T. ) ;
#679 = ORIENTED_EDGE ( 'NONE', *, *, #645, .T. ) ;
#680 = DIRECTION ( 'NONE',  ( 5.337610695313252962E-15, 1.000000000000000000, -0.000000000000000000 ) ) ;
#681 = EDGE_LOOP ( 'NONE', ( #897, #357, #981, #724 ) ) ;
#682 = FACE_OUTER_BOUND ( 'NONE', #920, .T. ) ;
#683 = VERTEX_POINT ( 'NONE', #367 ) ;
#684 = EDGE_LOOP ( 'NONE', ( #60, #915, #386, #665 ) ) ;
#685 = LINE ( 'NONE', #135, #604 ) ;
#686 = DIRECTION ( 'NONE',  ( 0.000000000000000000, 0.000000000000000000, -1.000000000000000000 ) ) ;
#687 = AXIS2_PLACEMENT_3D ( 'NONE', #437, #747, #46 ) ;
#688 = CARTESIAN_POINT ( 'NONE',  ( -4.954868497365396252, -14.99999999999999822, 0.000000000000000000 ) ) ;
#689 = CIRCLE ( 'NONE', #654, 1.499999999999994449 ) ;
#690 = VERTEX_POINT ( 'NONE', #688 ) ;
#691 = PERSON_AND_ORGANIZATION_ROLE ( 'classification_officer' ) ;
#692 = EDGE_CURVE ( 'NONE', #285, #911, #993, .T. ) ;
#693 = LINE ( 'NONE', #454, #584 ) ;
#694 = DIRECTION ( 'NONE',  ( 0.000000000000000000, 0.000000000000000000, 1.000000000000000000 ) ) ;
#695 = UNCERTAINTY_MEASURE_WITH_UNIT (LENGTH_MEASURE( 1.000000000000000082E-05 ), #272, 'distance_accuracy_value', 'NONE');
#696 = EDGE_LOOP ( 'NONE', ( #376, #813, #227, #207 ) ) ;
#697 = CARTESIAN_POINT ( 'NONE',  ( -12.99999999999992539, 10.00000000000003553, 4.000000000000000000 ) ) ;
#698 = LINE ( 'NONE', #298, #537 ) ;
#699 = CARTESIAN_POINT ( 'NONE',  ( 13.00000000000005329, -6.938893903907261194E-14, 8.000000000000000000 ) ) ;
#700 = DIRECTION ( 'NONE',  ( 1.000000000000000000, -4.536969091016258944E-15, 0.000000000000000000 ) ) ;
#701 = ORIENTED_EDGE ( 'NONE', *, *, #876, .T. ) ;
#702 = EDGE_CURVE ( 'NONE', #242, #894, #771, .T. ) ;
#703 = VECTOR ( 'NONE', #18, 1000.000000000000000 ) ;
#704 = CALENDAR_DATE ( 2026, 6, 5 ) ;
#705 = AXIS2_PLACEMENT_3D ( 'NONE', #821, #428, #606 ) ;
#706 = CARTESIAN_POINT ( 'NONE',  ( 0.000000000000000000, -22.73844780675204191, -33.54101966249677247 ) ) ;
#707 = LINE ( 'NONE', #147, #158 ) ;
#708 = ORIENTED_EDGE ( 'NONE', *, *, #289, .T. ) ;
#709 = DIRECTION ( 'NONE',  ( 1.000000000000000000, -2.775557561562892140E-15, -0.000000000000000000 ) ) ;
#710 = ADVANCED_FACE ( 'NONE', ( #75 ), #156, .T. ) ;
#711 = CARTESIAN_POINT ( 'NONE',  ( 13.00000000000012257, 12.99999999999990408, 8.000000000000000000 ) ) ;
#712 = LINE ( 'NONE', #927, #799 ) ;
#713 = PLANE ( 'NONE',  #886 ) ;
#714 = ORIENTED_EDGE ( 'NONE', *, *, #612, .F. ) ;
#715 = VECTOR ( 'NONE', #947, 1000.000000000000000 ) ;
#716 = AXIS2_PLACEMENT_3D ( 'NONE', #410, #951, #558 ) ;
#717 = CARTESIAN_POINT ( 'NONE',  ( -12.99999999999991473, 13.00000000000002132, 0.000000000000000000 ) ) ;
#718 =( GEOMETRIC_REPRESENTATION_CONTEXT ( 3 ) GLOBAL_UNCERTAINTY_ASSIGNED_CONTEXT ( ( #695 ) ) GLOBAL_UNIT_ASSIGNED_CONTEXT ( ( #272, #902, #353 ) ) REPRESENTATION_CONTEXT ( 'NONE', 'WORKASPACE' ) );
#719 = CARTESIAN_POINT ( 'NONE',  ( 0.000000000000000000, -30.00000000000000355, -33.54101966249677247 ) ) ;
#720 = EDGE_CURVE ( 'NONE', #134, #588, #767, .T. ) ;
#721 = DIRECTION ( 'NONE',  ( 5.337610695313256118E-15, 1.000000000000000000, 0.000000000000000000 ) ) ;
#722 = FACE_OUTER_BOUND ( 'NONE', #518, .T. ) ;
#723 = FACE_OUTER_BOUND ( 'NONE', #275, .T. ) ;
#724 = ORIENTED_EDGE ( 'NONE', *, *, #629, .F. ) ;
#725 = CYLINDRICAL_SURFACE ( 'NONE', #585, 1.500000000000000444 ) ;
#726 = DIRECTION ( 'NONE',  ( 5.782411586589371444E-15, 1.000000000000000000, 0.000000000000000000 ) ) ;
#727 = DIRECTION ( 'NONE',  ( 0.000000000000000000, -1.000000000000000000, 0.000000000000000000 ) ) ;
#728 = VERTEX_POINT ( 'NONE', #717 ) ;
#729 = ADVANCED_FACE ( 'NONE', ( #261 ), #725, .F. ) ;
#730 = DIRECTION ( 'NONE',  ( 1.000000000000000000, -2.775557561562892140E-15, -0.000000000000000000 ) ) ;
#731 = PLANE ( 'NONE',  #141 ) ;
#732 = VECTOR ( 'NONE', #538, 1000.000000000000000 ) ;
#733 = AXIS2_PLACEMENT_3D ( 'NONE', #167, #960, #797 ) ;
#734 = DIRECTION ( 'NONE',  ( -2.388915523584355472E-16, 1.000000000000000000, -0.000000000000000000 ) ) ;
#735 = PLANE ( 'NONE',  #243 ) ;
#736 = ORIENTED_EDGE ( 'NONE', *, *, #578, .F. ) ;
#737 = CARTESIAN_POINT ( 'NONE',  ( 4.163336342344338920E-14, 14.99999999999996447, 8.000000000000000000 ) ) ;
#738 = EDGE_LOOP ( 'NONE', ( #568, #969 ) ) ;
#739 = FACE_OUTER_BOUND ( 'NONE', #443, .T. ) ;
#740 = VERTEX_POINT ( 'NONE', #184 ) ;
#741 = EDGE_CURVE ( 'NONE', #475, #436, #523, .T. ) ;
#742 = DIRECTION ( 'NONE',  ( -1.000000000000000000, 0.000000000000000000, 0.000000000000000000 ) ) ;
#743 = EDGE_LOOP ( 'NONE', ( #201, #675, #619, #961 ) ) ;
#744 = ORIENTED_EDGE ( 'NONE', *, *, #451, .F. ) ;
#745 = VECTOR ( 'NONE', #203, 1000.000000000000000 ) ;
#746 = ADVANCED_FACE ( 'NONE', ( #565, #879, #418 ), #248, .F. ) ;
#747 = DIRECTION ( 'NONE',  ( -1.000000000000000000, 0.000000000000000000, 0.000000000000000000 ) ) ;
#748 = VECTOR ( 'NONE', #133, 1000.000000000000000 ) ;
#749 = VERTEX_POINT ( 'NONE', #942 ) ;
#750 = CARTESIAN_POINT ( 'NONE',  ( -6.938893903907234689E-14, -13.00000000000001066, 8.000000000000000000 ) ) ;
#751 = ORIENTED_EDGE ( 'NONE', *, *, #889, .F. ) ;
#752 = LINE ( 'NONE', #520, #77 ) ;
#753 = VERTEX_POINT ( 'NONE', #327 ) ;
#754 = EDGE_LOOP ( 'NONE', ( #25, #679, #354, #607 ) ) ;
#755 = DIRECTION ( 'NONE',  ( 2.775557561562899240E-15, 1.000000000000000000, -0.000000000000000000 ) ) ;
#756 = ORIENTED_EDGE ( 'NONE', *, *, #806, .F. ) ;
#757 = DIRECTION ( 'NONE',  ( 1.000000000000000000, -2.775557561562892140E-15, -0.000000000000000000 ) ) ;
#758 = ORIENTED_EDGE ( 'NONE', *, *, #398, .F. ) ;
#759 = ADVANCED_FACE ( 'NONE', ( #409 ), #485, .F. ) ;
#760 = CALENDAR_DATE ( 2026, 6, 5 ) ;
#761 = LINE ( 'NONE', #63, #491 ) ;
#762 = VECTOR ( 'NONE', #734, 1000.000000000000000 ) ;
#763 = DIRECTION ( 'NONE',  ( -1.000000000000000000, 4.536969091016259733E-15, 0.000000000000000000 ) ) ;
#764 = LOCAL_TIME ( 9, 2, 47.00000000000000000, #370 ) ;
#765 = EDGE_LOOP ( 'NONE', ( #893, #1008, #831, #701 ) ) ;
#766 = PERSON_AND_ORGANIZATION ( #634, #336 ) ;
#767 = LINE ( 'NONE', #414, #223 ) ;
#768 = DIRECTION ( 'NONE',  ( 1.000000000000000000, -3.736327486719282280E-15, 0.000000000000000000 ) ) ;
#769 = LINE ( 'NONE', #784, #389 ) ;
#770 = ORIENTED_EDGE ( 'NONE', *, *, #5, .F. ) ;
#771 = LINE ( 'NONE', #71, #208 ) ;
#772 = PERSON_AND_ORGANIZATION ( #634, #336 ) ;
#773 = DIRECTION ( 'NONE',  ( 1.000000000000000000, -2.775557561562894507E-15, 0.000000000000000000 ) ) ;
#774 = EDGE_CURVE ( 'NONE', #285, #216, #945, .T. ) ;
#775 = ORIENTED_EDGE ( 'NONE', *, *, #948, .F. ) ;
#776 = DIRECTION ( 'NONE',  ( -0.000000000000000000, -0.000000000000000000, -1.000000000000000000 ) ) ;
#777 = VERTEX_POINT ( 'NONE', #499 ) ;
#778 = CARTESIAN_POINT ( 'NONE',  ( 13.00000000000012257, 12.99999999999990408, 8.000000000000000000 ) ) ;
#779 = ADVANCED_BREP_SHAPE_REPRESENTATION ( '\X2\65b95f62955c67b6\X0\', ( #374, #271 ), #718 ) ;
#780 = DIRECTION ( 'NONE',  ( 0.000000000000000000, 0.000000000000000000, 1.000000000000000000 ) ) ;
#781 = DIRECTION ( 'NONE',  ( 2.312964634635751339E-15, 1.000000000000000000, 0.000000000000000000 ) ) ;
#782 = ADVANCED_FACE ( 'NONE', ( #650 ), #109, .F. ) ;
#783 = ADVANCED_FACE ( 'NONE', ( #180 ), #502, .F. ) ;
#784 = CARTESIAN_POINT ( 'NONE',  ( -5.551115123125804790E-14, -15.00000000000001599, 8.000000000000000000 ) ) ;
#785 = VERTEX_POINT ( 'NONE', #809 ) ;
#786 = AXIS2_PLACEMENT_3D ( 'NONE', #7, #385, #864 ) ;
#787 = DIRECTION ( 'NONE',  ( 2.312964634635748578E-15, 1.000000000000000000, 0.000000000000000000 ) ) ;
#788 = AXIS2_PLACEMENT_3D ( 'NONE', #114, #431, #828 ) ;
#789 = AXIS2_PLACEMENT_3D ( 'NONE', #22, #95, #402 ) ;
#790 = VERTEX_POINT ( 'NONE', #315 ) ;
#791 = DIRECTION ( 'NONE',  ( 2.388915523584355472E-16, -1.000000000000000000, 0.000000000000000000 ) ) ;
#792 = CARTESIAN_POINT ( 'NONE',  ( 15.00000000000002842, -30.00000000000000355, -33.54101966249677247 ) ) ;
#793 = CARTESIAN_POINT ( 'NONE',  ( 0.000000000000000000, -22.73844780675204191, 8.000000000000000000 ) ) ;
#794 = FACE_BOUND ( 'NONE', #577, .T. ) ;
#795 = EDGE_LOOP ( 'NONE', ( #188, #844 ) ) ;
#796 = EDGE_CURVE ( 'NONE', #808, #440, #172, .T. ) ;
#797 = DIRECTION ( 'NONE',  ( 5.782411586589371444E-15, 1.000000000000000000, 0.000000000000000000 ) ) ;
#798 = PLANE ( 'NONE',  #390 ) ;
#799 = VECTOR ( 'NONE', #226, 1000.000000000000000 ) ;
#800 = VECTOR ( 'NONE', #957, 1000.000000000000000 ) ;
#801 = CC_DESIGN_PERSON_AND_ORGANIZATION_ASSIGNMENT ( #550, #74, ( #913 ) ) ;
#802 = DIRECTION ( 'NONE',  ( -0.000000000000000000, -0.000000000000000000, -1.000000000000000000 ) ) ;
#803 = DIRECTION ( 'NONE',  ( 0.000000000000000000, -1.000000000000000000, 0.000000000000000000 ) ) ;
#804 = CARTESIAN_POINT ( 'NONE',  ( 0.000000000000000000, -30.00000000000000355, 4.000000000000000000 ) ) ;
#805 = CARTESIAN_POINT ( 'NONE',  ( -14.99999999999988631, -30.00000000000000355, 8.000000000000000000 ) ) ;
#806 = EDGE_CURVE ( 'NONE', #777, #808, #829, .T. ) ;
#807 = FACE_BOUND ( 'NONE', #818, .T. ) ;
#808 = VERTEX_POINT ( 'NONE', #423 ) ;
#809 = CARTESIAN_POINT ( 'NONE',  ( 13.00000000000012257, 12.99999999999990408, 0.000000000000000000 ) ) ;
#810 = DIRECTION ( 'NONE',  ( 3.700743415417198986E-15, 1.000000000000000000, -0.000000000000000000 ) ) ;
#811 = EDGE_LOOP ( 'NONE', ( #751, #94, #176, #823 ) ) ;
#812 = CARTESIAN_POINT ( 'NONE',  ( 0.000000000000000000, -18.00000000000000355, 4.000000000000000000 ) ) ;
#813 = ORIENTED_EDGE ( 'NONE', *, *, #268, .T. ) ;
#814 = CIRCLE ( 'NONE', #940, 1.499999999999996225 ) ;
#815 = AXIS2_PLACEMENT_3D ( 'NONE', #17, #866, #869 ) ;
#816 = CARTESIAN_POINT ( 'NONE',  ( -14.99999999999988631, -30.00000000000000355, -33.54101966249677247 ) ) ;
#817 = CARTESIAN_POINT ( 'NONE',  ( 5.898059818321118877E-14, 12.99999999999996270, 8.000000000000000000 ) ) ;
#818 = EDGE_LOOP ( 'NONE', ( #984, #394 ) ) ;
#819 = DIRECTION ( 'NONE',  ( 1.000000000000000000, -2.775557561562892140E-15, -0.000000000000000000 ) ) ;
#820 = ORIENTED_EDGE ( 'NONE', *, *, #81, .T. ) ;
#821 = CARTESIAN_POINT ( 'NONE',  ( -13.00000000000000178, -9.999999999999966249, 4.000000000000000000 ) ) ;
#822 = EDGE_CURVE ( 'NONE', #615, #503, #372, .T. ) ;
#823 = ORIENTED_EDGE ( 'NONE', *, *, #53, .T. ) ;
#824 = PLANE ( 'NONE',  #687 ) ;
#825 = ORIENTED_EDGE ( 'NONE', *, *, #411, .T. ) ;
#826 = EDGE_LOOP ( 'NONE', ( #197, #265 ) ) ;
#827 = CLOSED_SHELL ( 'NONE', ( #729, #590, #759, #633, #219, #569, #661, #139, #982, #152, #215, #746, #526, #496, #246, #348, #783, #846, #89, #67, #356, #782, #318, #230, #710, #596, #508, #258, #160 ) ) ;
#828 = DIRECTION ( 'NONE',  ( 1.000000000000000000, 0.000000000000000000, 0.000000000000000000 ) ) ;
#829 = CIRCLE ( 'NONE', #815, 1.499999999999994449 ) ;
#830 = ORIENTED_EDGE ( 'NONE', *, *, #489, .T. ) ;
#831 = ORIENTED_EDGE ( 'NONE', *, *, #796, .T. ) ;
#832 = CARTESIAN_POINT ( 'NONE',  ( 14.99999999999995737, -10.00000000000004263, 4.000000000000000000 ) ) ;
#833 = VERTEX_POINT ( 'NONE', #338 ) ;
#834 = CARTESIAN_POINT ( 'NONE',  ( -14.99999999999997158, -14.99999999999996092, 8.000000000000000000 ) ) ;
#835 = EDGE_CURVE ( 'NONE', #200, #728, #657, .T. ) ;
#836 = LINE ( 'NONE', #620, #45 ) ;
#837 = VERTEX_POINT ( 'NONE', #488 ) ;
#838 = CARTESIAN_POINT ( 'NONE',  ( 12.99999999999998401, -13.00000000000008171, 8.000000000000000000 ) ) ;
#839 = CARTESIAN_POINT ( 'NONE',  ( -13.00000000000000711, -11.49999999999995914, 4.000000000000000000 ) ) ;
#840 = DIRECTION ( 'NONE',  ( -0.000000000000000000, 0.000000000000000000, 1.000000000000000000 ) ) ;
#841 = VECTOR ( 'NONE', #151, 1000.000000000000000 ) ;
#842 = CARTESIAN_POINT ( 'NONE',  ( -12.99999999999992006, 11.50000000000003020, 4.000000000000000000 ) ) ;
#843 = LOCAL_TIME ( 9, 2, 47.00000000000000000, #471 ) ;
#844 = ORIENTED_EDGE ( 'NONE', *, *, #411, .F. ) ;
#845 = APPROVAL_STATUS ( 'not_yet_approved' ) ;
#846 = ADVANCED_FACE ( 'NONE', ( #722 ), #250, .F. ) ;
#847 = LINE ( 'NONE', #699, #667 ) ;
#848 = FACE_OUTER_BOUND ( 'NONE', #529, .T. ) ;
#849 = PLANE ( 'NONE',  #874 ) ;
#850 = APPLICATION_CONTEXT ( 'configuration controlled 3d designs of mechanical parts and assemblies' ) ;
#851 = CALENDAR_DATE ( 2026, 6, 5 ) ;
#852 = EDGE_CURVE ( 'NONE', #397, #434, #13, .T. ) ;
#853 = CARTESIAN_POINT ( 'NONE',  ( 14.99999999999995737, -10.00000000000004263, 4.000000000000000000 ) ) ;
#854 = CARTESIAN_POINT ( 'NONE',  ( 15.00000000000002665, -22.73844780675204191, 8.000000000000000000 ) ) ;
#855 = EDGE_LOOP ( 'NONE', ( #900, #666, #263, #881 ) ) ;
#856 = CYLINDRICAL_SURFACE ( 'NONE', #93, 1.499999999999996225 ) ;
#857 = COORDINATED_UNIVERSAL_TIME_OFFSET ( 8, 0, .AHEAD. ) ;
#858 = PRODUCT_RELATED_PRODUCT_CATEGORY ( 'detail', '', ( #512 ) ) ;
#859 = DIRECTION ( 'NONE',  ( 2.312964634635748578E-15, 1.000000000000000000, 0.000000000000000000 ) ) ;
#860 = AXIS2_PLACEMENT_3D ( 'NONE', #266, #582, #663 ) ;
#861 = SHAPE_DEFINITION_REPRESENTATION ( #425, #779 ) ;
#862 = CC_DESIGN_APPROVAL ( #618, ( #303 ) ) ;
#863 = DIRECTION ( 'NONE',  ( 1.000000000000000000, -2.775557561562892140E-15, -0.000000000000000000 ) ) ;
#864 = DIRECTION ( 'NONE',  ( 2.312964634635748578E-15, 1.000000000000000000, 0.000000000000000000 ) ) ;
#865 = EDGE_CURVE ( 'NONE', #467, #753, #912, .T. ) ;
#866 = DIRECTION ( 'NONE',  ( 1.000000000000000000, -5.337610695313256118E-15, 0.000000000000000000 ) ) ;
#867 = CARTESIAN_POINT ( 'NONE',  ( -14.99999999999988809, -22.73844780675204191, -33.54101966249677247 ) ) ;
#868 = EDGE_LOOP ( 'NONE', ( #330, #344 ) ) ;
#869 = DIRECTION ( 'NONE',  ( 5.782411586589378544E-15, 1.000000000000000000, 0.000000000000000000 ) ) ;
#870 = FACE_BOUND ( 'NONE', #883, .T. ) ;
#871 = DIRECTION ( 'NONE',  ( 2.775557561562891745E-15, 1.000000000000000000, 0.000000000000000000 ) ) ;
#872 = VECTOR ( 'NONE', #877, 1000.000000000000000 ) ;
#873 = ORIENTED_EDGE ( 'NONE', *, *, #308, .F. ) ;
#874 = AXIS2_PLACEMENT_3D ( 'NONE', #65, #149, #763 ) ;
#875 = DIRECTION ( 'NONE',  ( 1.000000000000000000, -2.775557561562892140E-15, -0.000000000000000000 ) ) ;
#876 = EDGE_CURVE ( 'NONE', #440, #975, #689, .T. ) ;
#877 = DIRECTION ( 'NONE',  ( 0.000000000000000000, 0.000000000000000000, 1.000000000000000000 ) ) ;
#878 = EDGE_LOOP ( 'NONE', ( #202, #42, #830, #101 ) ) ;
#879 = FACE_BOUND ( 'NONE', #826, .T. ) ;
#880 = CARTESIAN_POINT ( 'NONE',  ( -12.99999999999996270, 4.857225732735052922E-14, 8.000000000000000000 ) ) ;
#881 = ORIENTED_EDGE ( 'NONE', *, *, #236, .F. ) ;
#882 = DIRECTION ( 'NONE',  ( 2.312964634635751339E-15, 1.000000000000000000, 0.000000000000000000 ) ) ;
#883 = EDGE_LOOP ( 'NONE', ( #183, #116 ) ) ;
#884 = DIRECTION ( 'NONE',  ( 1.000000000000000000, -2.775557561562891745E-15, 0.000000000000000000 ) ) ;
#885 = ORIENTED_EDGE ( 'NONE', *, *, #445, .T. ) ;
#886 = AXIS2_PLACEMENT_3D ( 'NONE', #323, #652, #173 ) ;
#887 = AXIS2_PLACEMENT_3D ( 'NONE', #561, #638, #574 ) ;
#888 = CARTESIAN_POINT ( 'NONE',  ( -29.00000000000005329, -9.999999999999920064, 4.000000000000000000 ) ) ;
#889 = EDGE_CURVE ( 'NONE', #127, #895, #284, .T. ) ;
#890 = DIRECTION ( 'NONE',  ( -3.736327486719282280E-15, -1.000000000000000000, 0.000000000000000000 ) ) ;
#891 = ORIENTED_EDGE ( 'NONE', *, *, #276, .T. ) ;
#892 = LINE ( 'NONE', #600, #926 ) ;
#893 = ORIENTED_EDGE ( 'NONE', *, *, #921, .F. ) ;
#894 = VERTEX_POINT ( 'NONE', #213 ) ;
#895 = VERTEX_POINT ( 'NONE', #191 ) ;
#896 = DIRECTION ( 'NONE',  ( 1.000000000000000000, -2.775557561562892140E-15, -0.000000000000000000 ) ) ;
#897 = ORIENTED_EDGE ( 'NONE', *, *, #54, .F. ) ;
#898 = CARTESIAN_POINT ( 'NONE',  ( 12.99999999999999822, -10.00000000000003730, 4.000000000000000000 ) ) ;
#899 = CARTESIAN_POINT ( 'NONE',  ( 0.000000000000000000, -18.00000000000000355, 4.000000000000000000 ) ) ;
#900 = ORIENTED_EDGE ( 'NONE', *, *, #445, .F. ) ;
#901 = ORIENTED_EDGE ( 'NONE', *, *, #268, .F. ) ;
#902 =( NAMED_UNIT ( * ) PLANE_ANGLE_UNIT ( ) SI_UNIT ( $, .RADIAN. ) );
#903 = VERTEX_POINT ( 'NONE', #129 ) ;
#904 = VECTOR ( 'NONE', #232, 1000.000000000000000 ) ;
#905 = EDGE_CURVE ( 'NONE', #728, #521, #685, .T. ) ;
#906 = AXIS2_PLACEMENT_3D ( 'NONE', #562, #168, #490 ) ;
#907 = DIRECTION ( 'NONE',  ( 0.000000000000000000, -0.000000000000000000, -1.000000000000000000 ) ) ;
#908 = VECTOR ( 'NONE', #950, 1000.000000000000000 ) ;
#909 = ORIENTED_EDGE ( 'NONE', *, *, #612, .T. ) ;
#910 = CARTESIAN_POINT ( 'NONE',  ( -13.00000000000001066, -12.99999999999994138, 8.000000000000000000 ) ) ;
#911 = VERTEX_POINT ( 'NONE', #112 ) ;
#912 = LINE ( 'NONE', #597, #178 ) ;
#913 = PRODUCT_DEFINITION ( 'æœ', '', #303, #295 ) ;
#914 = CARTESIAN_POINT ( 'NONE',  ( 0.000000000000000000, -22.73844780675204191, -33.54101966249677247 ) ) ;
#915 = ORIENTED_EDGE ( 'NONE', *, *, #741, .F. ) ;
#916 = VERTEX_POINT ( 'NONE', #660 ) ;
#917 = CALENDAR_DATE ( 2026, 6, 5 ) ;
#918 = DIRECTION ( 'NONE',  ( 0.000000000000000000, -0.000000000000000000, -1.000000000000000000 ) ) ;
#919 = LINE ( 'NONE', #617, #904 ) ;
#920 = EDGE_LOOP ( 'NONE', ( #280, #273, #130, #934, #278, #360, #432, #192, #1010, #56, #974, #949 ) ) ;
#921 = EDGE_CURVE ( 'NONE', #777, #975, #346, .T. ) ;
#922 = ORIENTED_EDGE ( 'NONE', *, *, #32, .F. ) ;
#923 = APPROVAL_DATE_TIME ( #554, #100 ) ;
#924 = ORIENTED_EDGE ( 'NONE', *, *, #106, .T. ) ;
#925 = CARTESIAN_POINT ( 'NONE',  ( 1.836970198721029934E-16, -18.00000000000000355, 5.500000000000000888 ) ) ;
#926 = VECTOR ( 'NONE', #198, 1000.000000000000000 ) ;
#927 = CARTESIAN_POINT ( 'NONE',  ( -4.954868497365396252, 0.000000000000000000, 8.000000000000000000 ) ) ;
#928 = ORIENTED_EDGE ( 'NONE', *, *, #629, .T. ) ;
#929 = VECTOR ( 'NONE', #514, 1000.000000000000000 ) ;
#930 = DIRECTION ( 'NONE',  ( 1.000000000000000000, -2.775557561562894507E-15, 0.000000000000000000 ) ) ;
#931 = EDGE_CURVE ( 'NONE', #911, #903, #532, .T. ) ;
#932 = APPROVAL_ROLE ( '' ) ;
#933 = DIRECTION ( 'NONE',  ( 1.000000000000000000, -2.775557561562894507E-15, 0.000000000000000000 ) ) ;
#934 = ORIENTED_EDGE ( 'NONE', *, *, #171, .T. ) ;
#935 = PERSON_AND_ORGANIZATION ( #634, #336 ) ;
#936 = CARTESIAN_POINT ( 'NONE',  ( 0.000000000000000000, -30.00000000000000355, 2.499999999999999556 ) ) ;
#937 = CALENDAR_DATE ( 2026, 6, 5 ) ;
#938 = CARTESIAN_POINT ( 'NONE',  ( 12.99999999999998401, -13.00000000000008171, 8.000000000000000000 ) ) ;
#939 = EDGE_CURVE ( 'NONE', #340, #916, #49, .T. ) ;
#940 = AXIS2_PLACEMENT_3D ( 'NONE', #293, #773, #297 ) ;
#941 = AXIS2_PLACEMENT_3D ( 'NONE', #804, #98, #967 ) ;
#942 = CARTESIAN_POINT ( 'NONE',  ( -4.954868497365396252, -14.99999999999999822, 8.000000000000000000 ) ) ;
#943 = FACE_OUTER_BOUND ( 'NONE', #878, .T. ) ;
#944 = CARTESIAN_POINT ( 'NONE',  ( 0.000000000000000000, -18.00000000000000355, 4.000000000000000000 ) ) ;
#945 = LINE ( 'NONE', #9, #908 ) ;
#946 = CARTESIAN_POINT ( 'NONE',  ( -28.99999999999999289, 11.50000000000007638, 4.000000000000000000 ) ) ;
#947 = DIRECTION ( 'NONE',  ( 1.000000000000000000, -3.700743415417198986E-15, 0.000000000000000000 ) ) ;
#948 = EDGE_CURVE ( 'NONE', #134, #690, #962, .T. ) ;
#949 = ORIENTED_EDGE ( 'NONE', *, *, #37, .T. ) ;
#950 = DIRECTION ( 'NONE',  ( -2.775557561562894507E-15, -1.000000000000000000, 0.000000000000000000 ) ) ;
#951 = DIRECTION ( 'NONE',  ( 3.700743415417198986E-15, 1.000000000000000000, -0.000000000000000000 ) ) ;
#952 = CIRCLE ( 'NONE', #968, 1.499999999999996225 ) ;
#953 = ORIENTED_EDGE ( 'NONE', *, *, #519, .T. ) ;
#954 = EDGE_CURVE ( 'NONE', #123, #427, #639, .T. ) ;
#955 = VECTOR ( 'NONE', #279, 1000.000000000000000 ) ;
#956 = CARTESIAN_POINT ( 'NONE',  ( 5.045131502634605525, 0.000000000000000000, -33.54101966249677247 ) ) ;
#957 = DIRECTION ( 'NONE',  ( -3.736327486719282280E-15, -1.000000000000000000, 0.000000000000000000 ) ) ;
#958 = FACE_OUTER_BOUND ( 'NONE', #811, .T. ) ;
#959 = CC_DESIGN_DATE_AND_TIME_ASSIGNMENT ( #82, #463, ( #255 ) ) ;
#960 = DIRECTION ( 'NONE',  ( 1.000000000000000000, -5.337610695313256118E-15, 0.000000000000000000 ) ) ;
#961 = ORIENTED_EDGE ( 'NONE', *, *, #964, .F. ) ;
#962 = LINE ( 'NONE', #196, #507 ) ;
#963 = ORIENTED_EDGE ( 'NONE', *, *, #171, .F. ) ;
#964 = EDGE_CURVE ( 'NONE', #194, #123, #674, .T. ) ;
#965 = FACE_OUTER_BOUND ( 'NONE', #684, .T. ) ;
#966 = AXIS2_PLACEMENT_3D ( 'NONE', #899, #986, #1009 ) ;
#967 = DIRECTION ( 'NONE',  ( 0.000000000000000000, 0.000000000000000000, -1.000000000000000000 ) ) ;
#968 = AXIS2_PLACEMENT_3D ( 'NONE', #575, #415, #726 ) ;
#969 = ORIENTED_EDGE ( 'NONE', *, *, #186, .F. ) ;
#970 = VECTOR ( 'NONE', #636, 1000.000000000000000 ) ;
#971 = APPROVAL_PERSON_ORGANIZATION ( #766, #973, #932 ) ;
#972 = DIRECTION ( 'NONE',  ( 0.000000000000000000, 0.000000000000000000, 1.000000000000000000 ) ) ;
#973 = APPROVAL ( #845, 'æœª' ) ;
#974 = ORIENTED_EDGE ( 'NONE', *, *, #337, .F. ) ;
#975 = VERTEX_POINT ( 'NONE', #977 ) ;
#976 = ORIENTED_EDGE ( 'NONE', *, *, #806, .T. ) ;
#977 = CARTESIAN_POINT ( 'NONE',  ( 14.99999999999995381, -11.50000000000003553, 4.000000000000000000 ) ) ;
#978 = VERTEX_POINT ( 'NONE', #838 ) ;
#979 = LINE ( 'NONE', #426, #422 ) ;
#980 = LINE ( 'NONE', #282, #989 ) ;
#981 = ORIENTED_EDGE ( 'NONE', *, *, #324, .T. ) ;
#982 = ADVANCED_FACE ( 'NONE', ( #739 ), #735, .T. ) ;
#983 = CARTESIAN_POINT ( 'NONE',  ( -14.99999999999988809, 15.00000000000000711, 8.000000000000000000 ) ) ;
#984 = ORIENTED_EDGE ( 'NONE', *, *, #527, .T. ) ;
#985 = PLANE ( 'NONE',  #788 ) ;
#986 = DIRECTION ( 'NONE',  ( 0.000000000000000000, -1.000000000000000000, 0.000000000000000000 ) ) ;
#987 = DIRECTION ( 'NONE',  ( 2.312964634635751339E-15, 1.000000000000000000, 0.000000000000000000 ) ) ;
#988 = EDGE_CURVE ( 'NONE', #200, #664, #510, .T. ) ;
#989 = VECTOR ( 'NONE', #132, 1000.000000000000000 ) ;
#990 = VECTOR ( 'NONE', #819, 1000.000000000000000 ) ;
#991 = DIRECTION ( 'NONE',  ( 1.000000000000000000, -2.775557561562892140E-15, -0.000000000000000000 ) ) ;
#992 = AXIS2_PLACEMENT_3D ( 'NONE', #956, #257, #187 ) ;
#993 = LINE ( 'NONE', #291, #92 ) ;
#994 = ORIENTED_EDGE ( 'NONE', *, *, #464, .F. ) ;
#995 = APPROVAL_ROLE ( '' ) ;
#996 = DIRECTION ( 'NONE',  ( 2.312964634635751339E-15, 1.000000000000000000, 0.000000000000000000 ) ) ;
#997 = ORIENTED_EDGE ( 'NONE', *, *, #195, .T. ) ;
#998 = ORIENTED_EDGE ( 'NONE', *, *, #236, .T. ) ;
#999 = DIRECTION ( 'NONE',  ( 0.000000000000000000, -1.000000000000000000, 0.000000000000000000 ) ) ;
#1000 = EDGE_LOOP ( 'NONE', ( #595, #448, #873, #233 ) ) ;
#1001 = EDGE_CURVE ( 'NONE', #285, #605, #447, .T. ) ;
#1002 = CYLINDRICAL_SURFACE ( 'NONE', #333, 1.499999999999994449 ) ;
#1003 = ORIENTED_EDGE ( 'NONE', *, *, #527, .F. ) ;
#1004 = CARTESIAN_POINT ( 'NONE',  ( -14.99999999999995737, -9.999999999999959144, 4.000000000000000000 ) ) ;
#1005 = PERSON_AND_ORGANIZATION ( #634, #336 ) ;
#1006 = CARTESIAN_POINT ( 'NONE',  ( -14.99999999999989875, 11.50000000000003730, 4.000000000000000000 ) ) ;
#1007 = AXIS2_PLACEMENT_3D ( 'NONE', #274, #193, #686 ) ;
#1008 = ORIENTED_EDGE ( 'NONE', *, *, #289, .F. ) ;
#1009 = DIRECTION ( 'NONE',  ( 0.000000000000000000, 0.000000000000000000, -1.000000000000000000 ) ) ;
#1010 = ORIENTED_EDGE ( 'NONE', *, *, #484, .F. ) ;
#1011 = VECTOR ( 'NONE', #264, 1000.000000000000000 ) ;
#1012 = CARTESIAN_POINT ( 'NONE',  ( -28.99999999999999645, 10.00000000000007994, 4.000000000000000000 ) ) ;
#1013 = PERSON_AND_ORGANIZATION_ROLE ( 'design_supplier' ) ;
ENDSEC;
END-ISO-10303-21;
