ISO-10303-21;
HEADER;
FILE_DESCRIPTION (( 'STEP AP203' ),
    '1' );
FILE_NAME ('¸ü»»²âÁ¿°å.STEP',
    '2026-05-07T04:49:04',
    ( '' ),
    ( '' ),
    'SwSTEP 2.0',
    'SolidWorks 2024',
    '' );
FILE_SCHEMA (( 'CONFIG_CONTROL_DESIGN' ));
ENDSEC;

DATA;
#1 = COORDINATED_UNIVERSAL_TIME_OFFSET ( 8, 0, .AHEAD. ) ;
#2 = DIRECTION ( 'NONE',  ( -0.000000000000000000, -0.000000000000000000, -1.000000000000000000 ) ) ;
#3 = ORIENTED_EDGE ( 'NONE', *, *, #28, .T. ) ;
#4 = CARTESIAN_POINT ( 'NONE',  ( -29.99999999999999289, 25.00000000000000000, 7.400000000000000355 ) ) ;
#5 = APPROVAL_DATE_TIME ( #185, #317 ) ;
#6 = VECTOR ( 'NONE', #303, 1000.000000000000000 ) ;
#7 = DIRECTION ( 'NONE',  ( -0.000000000000000000, -1.000000000000000000, -0.000000000000000000 ) ) ;
#8 = DIRECTION ( 'NONE',  ( 0.000000000000000000, -0.000000000000000000, -1.000000000000000000 ) ) ;
#9 = ADVANCED_FACE ( 'NONE', ( #189 ), #302, .F. ) ;
#10 = CARTESIAN_POINT ( 'NONE',  ( -29.99999999999999289, -25.00000000000000000, 7.400000000000000355 ) ) ;
#11 = ORIENTED_EDGE ( 'NONE', *, *, #169, .F. ) ;
#12 = LINE ( 'NONE', #128, #6 ) ;
#13 = ORIENTED_EDGE ( 'NONE', *, *, #191, .F. ) ;
#14 = ORIENTED_EDGE ( 'NONE', *, *, #45, .T. ) ;
#15 = DIRECTION ( 'NONE',  ( 0.000000000000000000, 1.000000000000000000, 0.000000000000000000 ) ) ;
#16 = ORIENTED_EDGE ( 'NONE', *, *, #301, .F. ) ;
#17 = APPROVAL_PERSON_ORGANIZATION ( #251, #350, #192 ) ;
#18 = CARTESIAN_POINT ( 'NONE',  ( -29.99999999999999289, 25.00000000000000000, 7.400000000000000355 ) ) ;
#19 = DIRECTION ( 'NONE',  ( 0.000000000000000000, -1.000000000000000000, 0.000000000000000000 ) ) ;
#20 = DIRECTION ( 'NONE',  ( -1.000000000000000000, -5.782411586589357392E-17, 0.000000000000000000 ) ) ;
#21 = UNCERTAINTY_MEASURE_WITH_UNIT (LENGTH_MEASURE( 1.000000000000000082E-05 ), #75, 'distance_accuracy_value', 'NONE');
#22 = ADVANCED_FACE ( 'NONE', ( #39 ), #166, .F. ) ;
#23 = ORIENTED_EDGE ( 'NONE', *, *, #200, .T. ) ;
#24 = VECTOR ( 'NONE', #239, 1000.000000000000000 ) ;
#25 = DIRECTION ( 'NONE',  ( -0.000000000000000000, -0.000000000000000000, -1.000000000000000000 ) ) ;
#26 = PERSON_AND_ORGANIZATION ( #210, #188 ) ;
#27 = DIRECTION ( 'NONE',  ( 1.000000000000000000, 0.000000000000000000, 0.000000000000000000 ) ) ;
#28 = EDGE_CURVE ( 'NONE', #254, #309, #315, .T. ) ;
#29 = PRODUCT ( '\X2\66f463626d4b91cf677f\X0\', '\X2\66f463626d4b91cf677f\X0\', '', ( #361 ) ) ;
#30 = CARTESIAN_POINT ( 'NONE',  ( -2.500000000000000444, 2.499999999999999556, 27.40000000000000213 ) ) ;
#31 = COORDINATED_UNIVERSAL_TIME_OFFSET ( 8, 0, .AHEAD. ) ;
#32 = VECTOR ( 'NONE', #207, 1000.000000000000000 ) ;
#33 = DIRECTION ( 'NONE',  ( -1.000000000000000000, -0.000000000000000000, -0.000000000000000000 ) ) ;
#34 = CARTESIAN_POINT ( 'NONE',  ( -2.500000000000000444, -2.500000000000000444, 27.40000000000000213 ) ) ;
#35 = PERSON_AND_ORGANIZATION ( #210, #188 ) ;
#36 = CARTESIAN_POINT ( 'NONE',  ( 2.499999999999999556, -2.500000000000000444, 7.400000000000000355 ) ) ;
#37 = CARTESIAN_POINT ( 'NONE',  ( -2.500000000000000444, 2.499999999999999556, 27.40000000000000213 ) ) ;
#38 = EDGE_CURVE ( 'NONE', #42, #230, #112, .T. ) ;
#39 = FACE_OUTER_BOUND ( 'NONE', #329, .T. ) ;
#40 = ORIENTED_EDGE ( 'NONE', *, *, #301, .T. ) ;
#41 = CALENDAR_DATE ( 2026, 7, 5 ) ;
#42 = VERTEX_POINT ( 'NONE', #235 ) ;
#43 = VECTOR ( 'NONE', #145, 1000.000000000000000 ) ;
#44 = DIRECTION ( 'NONE',  ( 0.000000000000000000, 0.000000000000000000, 1.000000000000000000 ) ) ;
#45 = EDGE_CURVE ( 'NONE', #220, #165, #57, .T. ) ;
#46 = EDGE_LOOP ( 'NONE', ( #249, #227, #340, #193 ) ) ;
#47 = DIRECTION ( 'NONE',  ( 0.000000000000000000, 0.000000000000000000, -1.000000000000000000 ) ) ;
#48 = ORIENTED_EDGE ( 'NONE', *, *, #173, .F. ) ;
#49 = LINE ( 'NONE', #284, #32 ) ;
#50 = LINE ( 'NONE', #172, #43 ) ;
#51 = EDGE_CURVE ( 'NONE', #159, #366, #50, .T. ) ;
#52 = FACE_OUTER_BOUND ( 'NONE', #368, .T. ) ;
#53 = CC_DESIGN_PERSON_AND_ORGANIZATION_ASSIGNMENT ( #26, #176, ( #113 ) ) ;
#54 = DIRECTION ( 'NONE',  ( 1.000000000000000000, 5.782411586589357392E-17, 0.000000000000000000 ) ) ;
#55 = AXIS2_PLACEMENT_3D ( 'NONE', #74, #255, #134 ) ;
#56 = VECTOR ( 'NONE', #218, 1000.000000000000000 ) ;
#57 = LINE ( 'NONE', #87, #280 ) ;
#58 = EDGE_CURVE ( 'NONE', #110, #214, #260, .T. ) ;
#59 = APPROVAL_ROLE ( '' ) ;
#60 = CARTESIAN_POINT ( 'NONE',  ( 0.000000000000000000, 0.000000000000000000, 27.40000000000000213 ) ) ;
#61 = CARTESIAN_POINT ( 'NONE',  ( -29.99999999999999289, -25.00000000000000000, 0.000000000000000000 ) ) ;
#62 = APPROVAL ( #116, 'æœª' ) ;
#63 = AXIS2_PLACEMENT_3D ( 'NONE', #34, #69, #378 ) ;
#64 = CC_DESIGN_APPROVAL ( #317, ( #183 ) ) ;
#65 = CARTESIAN_POINT ( 'NONE',  ( -2.500000000000000444, -2.500000000000000444, 27.40000000000000213 ) ) ;
#66 = ORIENTED_EDGE ( 'NONE', *, *, #127, .T. ) ;
#67 = COORDINATED_UNIVERSAL_TIME_OFFSET ( 8, 0, .AHEAD. ) ;
#68 = CARTESIAN_POINT ( 'NONE',  ( 30.00000000000000711, 25.00000000000000000, 7.400000000000000355 ) ) ;
#69 = DIRECTION ( 'NONE',  ( 1.000000000000000000, 0.000000000000000000, 0.000000000000000000 ) ) ;
#70 = CC_DESIGN_PERSON_AND_ORGANIZATION_ASSIGNMENT ( #365, #160, ( #29 ) ) ;
#71 = ORIENTED_EDGE ( 'NONE', *, *, #38, .F. ) ;
#72 = ORIENTED_EDGE ( 'NONE', *, *, #173, .T. ) ;
#73 = APPROVAL_STATUS ( 'not_yet_approved' ) ;
#74 = CARTESIAN_POINT ( 'NONE',  ( 2.499999999999999556, -2.500000000000000444, 27.40000000000000213 ) ) ;
#75 =( LENGTH_UNIT ( ) NAMED_UNIT ( * ) SI_UNIT ( .MILLI., .METRE. ) );
#76 = VECTOR ( 'NONE', #293, 1000.000000000000000 ) ;
#77 = CARTESIAN_POINT ( 'NONE',  ( -2.500000000000000444, -2.500000000000000444, 27.40000000000000213 ) ) ;
#78 = APPROVAL_PERSON_ORGANIZATION ( #153, #317, #59 ) ;
#79 = ORIENTED_EDGE ( 'NONE', *, *, #275, .T. ) ;
#80 = FACE_OUTER_BOUND ( 'NONE', #341, .T. ) ;
#81 = CARTESIAN_POINT ( 'NONE',  ( 2.499999999999999556, 2.499999999999999556, 27.40000000000000213 ) ) ;
#82 = VECTOR ( 'NONE', #374, 1000.000000000000000 ) ;
#83 = LOCAL_TIME ( 12, 49, 4.000000000000000000, #31 ) ;
#84 = DIRECTION ( 'NONE',  ( 0.000000000000000000, 1.000000000000000000, 0.000000000000000000 ) ) ;
#85 = DIRECTION ( 'NONE',  ( -1.000000000000000000, 0.000000000000000000, 0.000000000000000000 ) ) ;
#86 = DATE_AND_TIME ( #209, #90 ) ;
#87 = CARTESIAN_POINT ( 'NONE',  ( -2.500000000000000444, -2.500000000000000444, 27.40000000000000213 ) ) ;
#88 = VECTOR ( 'NONE', #7, 1000.000000000000000 ) ;
#89 = CALENDAR_DATE ( 2026, 7, 5 ) ;
#90 = LOCAL_TIME ( 12, 49, 4.000000000000000000, #1 ) ;
#91 = DIRECTION ( 'NONE',  ( -0.000000000000000000, -1.000000000000000000, -0.000000000000000000 ) ) ;
#92 = PERSON_AND_ORGANIZATION ( #210, #188 ) ;
#93 = PLANE ( 'NONE',  #216 ) ;
#94 = ORIENTED_EDGE ( 'NONE', *, *, #164, .T. ) ;
#95 = DIRECTION ( 'NONE',  ( 0.000000000000000000, 0.000000000000000000, -1.000000000000000000 ) ) ;
#96 = LINE ( 'NONE', #178, #56 ) ;
#97 = CC_DESIGN_DATE_AND_TIME_ASSIGNMENT ( #86, #326, ( #183 ) ) ;
#98 = DIRECTION ( 'NONE',  ( 0.000000000000000000, -1.000000000000000000, 0.000000000000000000 ) ) ;
#99 = ORIENTED_EDGE ( 'NONE', *, *, #201, .F. ) ;
#100 = APPLICATION_PROTOCOL_DEFINITION ( 'international standard', 'config_control_design', 1994, #206 ) ;
#101 = ADVANCED_FACE ( 'NONE', ( #52 ), #285, .F. ) ;
#102 = ORIENTED_EDGE ( 'NONE', *, *, #371, .T. ) ;
#103 = ADVANCED_FACE ( 'NONE', ( #80, #175 ), #114, .F. ) ;
#104 = ORIENTED_EDGE ( 'NONE', *, *, #180, .F. ) ;
#105 = EDGE_CURVE ( 'NONE', #225, #42, #174, .T. ) ;
#106 = EDGE_LOOP ( 'NONE', ( #360, #282, #99, #321 ) ) ;
#107 = EDGE_LOOP ( 'NONE', ( #336, #11, #257, #364 ) ) ;
#108 = AXIS2_PLACEMENT_3D ( 'NONE', #77, #15, #135 ) ;
#109 = EDGE_CURVE ( 'NONE', #309, #272, #286, .T. ) ;
#110 = VERTEX_POINT ( 'NONE', #262 ) ;
#111 = DIRECTION ( 'NONE',  ( 1.000000000000000000, 0.000000000000000000, 0.000000000000000000 ) ) ;
#112 = LINE ( 'NONE', #234, #250 ) ;
#113 = PRODUCT_DEFINITION_FORMATION_WITH_SPECIFIED_SOURCE ( 'ä»', '', #29, .NOT_KNOWN. ) ;
#114 = PLANE ( 'NONE',  #357 ) ;
#115 = LINE ( 'NONE', #138, #150 ) ;
#116 = APPROVAL_STATUS ( 'not_yet_approved' ) ;
#117 = CLOSED_SHELL ( 'NONE', ( #103, #136, #101, #363, #139, #333, #9, #238, #253, #22, #194 ) ) ;
#118 = CARTESIAN_POINT ( 'NONE',  ( -29.99999999999999289, -25.00000000000000000, 7.400000000000000355 ) ) ;
#119 = FACE_OUTER_BOUND ( 'NONE', #359, .T. ) ;
#120 = COORDINATED_UNIVERSAL_TIME_OFFSET ( 8, 0, .AHEAD. ) ;
#121 = CARTESIAN_POINT ( 'NONE',  ( 30.00000000000000711, -24.99999999999999645, 0.000000000000000000 ) ) ;
#122 = ORIENTED_EDGE ( 'NONE', *, *, #338, .T. ) ;
#123 = CC_DESIGN_DATE_AND_TIME_ASSIGNMENT ( #292, #217, ( #221 ) ) ;
#124 = AXIS2_PLACEMENT_3D ( 'NONE', #244, #351, #324 ) ;
#125 = FACE_OUTER_BOUND ( 'NONE', #106, .T. ) ;
#126 = FACE_OUTER_BOUND ( 'NONE', #325, .T. ) ;
#127 = EDGE_CURVE ( 'NONE', #220, #110, #115, .T. ) ;
#128 = CARTESIAN_POINT ( 'NONE',  ( -2.500000000000000444, -2.500000000000000444, 27.40000000000000213 ) ) ;
#129 = ORIENTED_EDGE ( 'NONE', *, *, #248, .T. ) ;
#130 = VECTOR ( 'NONE', #84, 1000.000000000000000 ) ;
#131 = CC_DESIGN_PERSON_AND_ORGANIZATION_ASSIGNMENT ( #148, #212, ( #183 ) ) ;
#132 = EDGE_LOOP ( 'NONE', ( #287, #48, #71, #283 ) ) ;
#133 = DATE_AND_TIME ( #41, #240 ) ;
#134 = DIRECTION ( 'NONE',  ( 0.000000000000000000, 0.000000000000000000, 1.000000000000000000 ) ) ;
#135 = DIRECTION ( 'NONE',  ( 0.000000000000000000, -0.000000000000000000, 1.000000000000000000 ) ) ;
#136 = ADVANCED_FACE ( 'NONE', ( #258 ), #343, .F. ) ;
#137 = ORIENTED_EDGE ( 'NONE', *, *, #344, .T. ) ;
#138 = CARTESIAN_POINT ( 'NONE',  ( -2.500000000000000444, -2.500000000000000444, 27.40000000000000213 ) ) ;
#139 = ADVANCED_FACE ( 'NONE', ( #291 ), #259, .F. ) ;
#140 = CARTESIAN_POINT ( 'NONE',  ( 30.00000000000000711, -24.99999999999999645, 7.400000000000000355 ) ) ;
#141 = MANIFOLD_SOLID_BREP ( '\X2\51f853f0\X0\-\X2\62c94f38\X0\2', #117 ) ;
#142 = CARTESIAN_POINT ( 'NONE',  ( 2.499999999999999556, -2.500000000000000444, 27.40000000000000213 ) ) ;
#143 = ORIENTED_EDGE ( 'NONE', *, *, #248, .F. ) ;
#144 = AXIS2_PLACEMENT_3D ( 'NONE', #18, #19, #177 ) ;
#145 = DIRECTION ( 'NONE',  ( -1.000000000000000000, -0.000000000000000000, -0.000000000000000000 ) ) ;
#146 = APPROVAL_STATUS ( 'not_yet_approved' ) ;
#147 = DIRECTION ( 'NONE',  ( -5.782411586589357392E-17, 1.000000000000000000, 0.000000000000000000 ) ) ;
#148 = PERSON_AND_ORGANIZATION ( #210, #188 ) ;
#149 = DIRECTION ( 'NONE',  ( -1.000000000000000000, 0.000000000000000000, -0.000000000000000000 ) ) ;
#150 = VECTOR ( 'NONE', #25, 1000.000000000000000 ) ;
#151 = APPROVAL_ROLE ( '' ) ;
#152 = FACE_OUTER_BOUND ( 'NONE', #132, .T. ) ;
#153 = PERSON_AND_ORGANIZATION ( #210, #188 ) ;
#154 = LINE ( 'NONE', #4, #157 ) ;
#155 = ORIENTED_EDGE ( 'NONE', *, *, #344, .F. ) ;
#156 = DIRECTION ( 'NONE',  ( -0.000000000000000000, -0.000000000000000000, -1.000000000000000000 ) ) ;
#157 = VECTOR ( 'NONE', #156, 1000.000000000000000 ) ;
#158 = DIRECTION ( 'NONE',  ( 0.000000000000000000, 1.000000000000000000, 0.000000000000000000 ) ) ;
#159 = VERTEX_POINT ( 'NONE', #375 ) ;
#160 = PERSON_AND_ORGANIZATION_ROLE ( 'design_owner' ) ;
#161 = ORIENTED_EDGE ( 'NONE', *, *, #195, .T. ) ;
#162 = PRODUCT_DEFINITION_SHAPE ( 'NONE', 'NONE',  #221 ) ;
#163 = CARTESIAN_POINT ( 'NONE',  ( -2.500000000000000444, 2.499999999999999556, 7.400000000000000355 ) ) ;
#164 = EDGE_CURVE ( 'NONE', #309, #277, #348, .T. ) ;
#165 = VERTEX_POINT ( 'NONE', #142 ) ;
#166 = PLANE ( 'NONE',  #108 ) ;
#167 = CC_DESIGN_PERSON_AND_ORGANIZATION_ASSIGNMENT ( #92, #376, ( #221 ) ) ;
#168 = VERTEX_POINT ( 'NONE', #204 ) ;
#169 = EDGE_CURVE ( 'NONE', #254, #230, #199, .T. ) ;
#170 = CARTESIAN_POINT ( 'NONE',  ( 0.000000000000000000, 0.000000000000000000, 7.400000000000000355 ) ) ;
#171 = CC_DESIGN_APPROVAL ( #62, ( #113 ) ) ;
#172 = CARTESIAN_POINT ( 'NONE',  ( -2.500000000000000444, 2.499999999999999556, 7.400000000000000355 ) ) ;
#173 = EDGE_CURVE ( 'NONE', #230, #272, #49, .T. ) ;
#174 = LINE ( 'NONE', #310, #196 ) ;
#175 = FACE_BOUND ( 'NONE', #46, .T. ) ;
#176 = PERSON_AND_ORGANIZATION_ROLE ( 'creator' ) ;
#177 = DIRECTION ( 'NONE',  ( 0.000000000000000000, -0.000000000000000000, -1.000000000000000000 ) ) ;
#178 = CARTESIAN_POINT ( 'NONE',  ( 30.00000000000000711, 25.00000000000000000, 7.400000000000000355 ) ) ;
#179 = APPROVAL_DATE_TIME ( #133, #350 ) ;
#180 = EDGE_CURVE ( 'NONE', #243, #159, #232, .T. ) ;
#181 = CARTESIAN_POINT ( 'NONE',  ( 2.499999999999999556, -2.500000000000000444, 27.40000000000000213 ) ) ;
#182 = ORIENTED_EDGE ( 'NONE', *, *, #191, .T. ) ;
#183 = SECURITY_CLASSIFICATION ( '', '', #273 ) ;
#184 = PLANE ( 'NONE',  #300 ) ;
#185 = DATE_AND_TIME ( #89, #377 ) ;
#186 = CARTESIAN_POINT ( 'NONE',  ( 30.00000000000000711, 25.00000000000000000, 0.000000000000000000 ) ) ;
#187 = CARTESIAN_POINT ( 'NONE',  ( 30.00000000000000711, -24.99999999999999645, 7.400000000000000355 ) ) ;
#188 = ORGANIZATION ( 'æœª', 'æœª', '' ) ;
#189 = FACE_OUTER_BOUND ( 'NONE', #335, .T. ) ;
#190 = ORIENTED_EDGE ( 'NONE', *, *, #58, .T. ) ;
#191 = EDGE_CURVE ( 'NONE', #165, #214, #311, .T. ) ;
#192 = APPROVAL_ROLE ( '' ) ;
#193 = ORIENTED_EDGE ( 'NONE', *, *, #51, .F. ) ;
#194 = ADVANCED_FACE ( 'NONE', ( #119 ), #93, .F. ) ;
#195 = EDGE_CURVE ( 'NONE', #168, #254, #215, .T. ) ;
#196 = VECTOR ( 'NONE', #264, 1000.000000000000000 ) ;
#197 = ORIENTED_EDGE ( 'NONE', *, *, #201, .T. ) ;
#198 = ORIENTED_EDGE ( 'NONE', *, *, #109, .T. ) ;
#199 = LINE ( 'NONE', #313, #82 ) ;
#200 = EDGE_CURVE ( 'NONE', #272, #225, #276, .T. ) ;
#201 = EDGE_CURVE ( 'NONE', #243, #228, #241, .T. ) ;
#202 = AXIS2_PLACEMENT_3D ( 'NONE', #237, #85, #373 ) ;
#203 = DIRECTION ( 'NONE',  ( -0.000000000000000000, -0.000000000000000000, -1.000000000000000000 ) ) ;
#204 = CARTESIAN_POINT ( 'NONE',  ( -29.99999999999999289, 25.00000000000000000, 7.400000000000000355 ) ) ;
#205 = CARTESIAN_POINT ( 'NONE',  ( -29.99999999999999289, -25.00000000000000000, 7.400000000000000355 ) ) ;
#206 = APPLICATION_CONTEXT ( 'configuration controlled 3d designs of mechanical parts and assemblies' ) ;
#207 = DIRECTION ( 'NONE',  ( 1.000000000000000000, 5.782411586589357392E-17, 0.000000000000000000 ) ) ;
#208 = CC_DESIGN_SECURITY_CLASSIFICATION ( #183, ( #113 ) ) ;
#209 = CALENDAR_DATE ( 2026, 7, 5 ) ;
#210 = PERSON ( 'æœª', 'æœª', 'æœª', ('æœª'), ('æœª'), ('æœª') ) ;
#211 = DIRECTION ( 'NONE',  ( -1.000000000000000000, -0.000000000000000000, -0.000000000000000000 ) ) ;
#212 = PERSON_AND_ORGANIZATION_ROLE ( 'classification_officer' ) ;
#213 = DIRECTION ( 'NONE',  ( 0.000000000000000000, 1.000000000000000000, 0.000000000000000000 ) ) ;
#214 = VERTEX_POINT ( 'NONE', #356 ) ;
#215 = LINE ( 'NONE', #118, #88 ) ;
#216 = AXIS2_PLACEMENT_3D ( 'NONE', #60, #95, #149 ) ;
#217 = DATE_TIME_ROLE ( 'creation_date' ) ;
#218 = DIRECTION ( 'NONE',  ( -0.000000000000000000, -0.000000000000000000, -1.000000000000000000 ) ) ;
#219 = LINE ( 'NONE', #328, #76 ) ;
#220 = VERTEX_POINT ( 'NONE', #65 ) ;
#221 = PRODUCT_DEFINITION ( 'æœ', '', #113, #265 ) ;
#222 = APPLICATION_CONTEXT ( 'configuration controlled 3d designs of mechanical parts and assemblies' ) ;
#223 = ORIENTED_EDGE ( 'NONE', *, *, #28, .F. ) ;
#224 = AXIS2_PLACEMENT_3D ( 'NONE', #205, #147, #20 ) ;
#225 = VERTEX_POINT ( 'NONE', #186 ) ;
#226 =( NAMED_UNIT ( * ) PLANE_ANGLE_UNIT ( ) SI_UNIT ( $, .RADIAN. ) );
#227 = ORIENTED_EDGE ( 'NONE', *, *, #58, .F. ) ;
#228 = VERTEX_POINT ( 'NONE', #37 ) ;
#229 = VECTOR ( 'NONE', #158, 1000.000000000000000 ) ;
#230 = VERTEX_POINT ( 'NONE', #61 ) ;
#231 = ORIENTED_EDGE ( 'NONE', *, *, #164, .F. ) ;
#232 = LINE ( 'NONE', #81, #245 ) ;
#233 = VECTOR ( 'NONE', #213, 1000.000000000000000 ) ;
#234 = CARTESIAN_POINT ( 'NONE',  ( -29.99999999999999289, -25.00000000000000000, 0.000000000000000000 ) ) ;
#235 = CARTESIAN_POINT ( 'NONE',  ( -29.99999999999999289, 25.00000000000000000, 0.000000000000000000 ) ) ;
#236 = CC_DESIGN_PERSON_AND_ORGANIZATION_ASSIGNMENT ( #35, #353, ( #113 ) ) ;
#237 = CARTESIAN_POINT ( 'NONE',  ( 30.00000000000000711, -24.99999999999999645, 7.400000000000000355 ) ) ;
#238 = ADVANCED_FACE ( 'NONE', ( #125 ), #184, .F. ) ;
#239 = DIRECTION ( 'NONE',  ( -0.000000000000000000, -0.000000000000000000, -1.000000000000000000 ) ) ;
#240 = LOCAL_TIME ( 12, 49, 4.000000000000000000, #247 ) ;
#241 = LINE ( 'NONE', #320, #367 ) ;
#242 = LINE ( 'NONE', #352, #288 ) ;
#243 = VERTEX_POINT ( 'NONE', #358 ) ;
#244 = CARTESIAN_POINT ( 'NONE',  ( 0.000000000000000000, 0.000000000000000000, 0.000000000000000000 ) ) ;
#245 = VECTOR ( 'NONE', #203, 1000.000000000000000 ) ;
#246 = DIRECTION ( 'NONE',  ( -0.000000000000000000, -0.000000000000000000, -1.000000000000000000 ) ) ;
#247 = COORDINATED_UNIVERSAL_TIME_OFFSET ( 8, 0, .AHEAD. ) ;
#248 = EDGE_CURVE ( 'NONE', #165, #243, #219, .T. ) ;
#249 = ORIENTED_EDGE ( 'NONE', *, *, #312, .F. ) ;
#250 = VECTOR ( 'NONE', #347, 1000.000000000000000 ) ;
#251 = PERSON_AND_ORGANIZATION ( #210, #188 ) ;
#252 = EDGE_LOOP ( 'NONE', ( #72, #306, #223, #279 ) ) ;
#253 = ADVANCED_FACE ( 'NONE', ( #126 ), #266, .F. ) ;
#254 = VERTEX_POINT ( 'NONE', #327 ) ;
#255 = DIRECTION ( 'NONE',  ( -1.000000000000000000, 0.000000000000000000, 0.000000000000000000 ) ) ;
#256 = CC_DESIGN_APPROVAL ( #350, ( #221 ) ) ;
#257 = ORIENTED_EDGE ( 'NONE', *, *, #195, .F. ) ;
#258 = FACE_OUTER_BOUND ( 'NONE', #332, .T. ) ;
#259 = PLANE ( 'NONE',  #224 ) ;
#260 = LINE ( 'NONE', #369, #261 ) ;
#261 = VECTOR ( 'NONE', #111, 1000.000000000000000 ) ;
#262 = CARTESIAN_POINT ( 'NONE',  ( -2.500000000000000444, -2.500000000000000444, 7.400000000000000355 ) ) ;
#263 = SHAPE_DEFINITION_REPRESENTATION ( #162, #319 ) ;
#264 = DIRECTION ( 'NONE',  ( -1.000000000000000000, -0.000000000000000000, -0.000000000000000000 ) ) ;
#265 = DESIGN_CONTEXT ( 'detailed design', #222, 'design' ) ;
#266 = PLANE ( 'NONE',  #63 ) ;
#267 = VECTOR ( 'NONE', #2, 1000.000000000000000 ) ;
#268 = VECTOR ( 'NONE', #54, 1000.000000000000000 ) ;
#269 = PERSON_AND_ORGANIZATION ( #210, #188 ) ;
#270 = PLANE ( 'NONE',  #124 ) ;
#271 = CARTESIAN_POINT ( 'NONE',  ( 30.00000000000000711, -24.99999999999999645, 0.000000000000000000 ) ) ;
#272 = VERTEX_POINT ( 'NONE', #121 ) ;
#273 = SECURITY_CLASSIFICATION_LEVEL ( 'unclassified' ) ;
#274 = FACE_OUTER_BOUND ( 'NONE', #107, .T. ) ;
#275 = EDGE_CURVE ( 'NONE', #228, #366, #298, .T. ) ;
#276 = LINE ( 'NONE', #271, #233 ) ;
#277 = VERTEX_POINT ( 'NONE', #68 ) ;
#278 = DIRECTION ( 'NONE',  ( 1.000000000000000000, 0.000000000000000000, 0.000000000000000000 ) ) ;
#279 = ORIENTED_EDGE ( 'NONE', *, *, #169, .T. ) ;
#280 = VECTOR ( 'NONE', #27, 1000.000000000000000 ) ;
#281 = ORIENTED_EDGE ( 'NONE', *, *, #312, .T. ) ;
#282 = ORIENTED_EDGE ( 'NONE', *, *, #275, .F. ) ;
#283 = ORIENTED_EDGE ( 'NONE', *, *, #105, .F. ) ;
#284 = CARTESIAN_POINT ( 'NONE',  ( -29.99999999999999289, -25.00000000000000000, 0.000000000000000000 ) ) ;
#285 = PLANE ( 'NONE',  #144 ) ;
#286 = LINE ( 'NONE', #140, #24 ) ;
#287 = ORIENTED_EDGE ( 'NONE', *, *, #200, .F. ) ;
#288 = VECTOR ( 'NONE', #33, 1000.000000000000000 ) ;
#289 = DIRECTION ( 'NONE',  ( -1.000000000000000000, 0.000000000000000000, -0.000000000000000000 ) ) ;
#290 = APPROVAL_DATE_TIME ( #355, #62 ) ;
#291 = FACE_OUTER_BOUND ( 'NONE', #252, .T. ) ;
#292 = DATE_AND_TIME ( #318, #331 ) ;
#293 = DIRECTION ( 'NONE',  ( 0.000000000000000000, 1.000000000000000000, 0.000000000000000000 ) ) ;
#294 = PRODUCT_RELATED_PRODUCT_CATEGORY ( 'detail', '', ( #29 ) ) ;
#295 = CARTESIAN_POINT ( 'NONE',  ( -2.500000000000000444, 2.499999999999999556, 27.40000000000000213 ) ) ;
#296 = ORIENTED_EDGE ( 'NONE', *, *, #342, .F. ) ;
#297 = CARTESIAN_POINT ( 'NONE',  ( -2.500000000000000444, -2.500000000000000444, 7.400000000000000355 ) ) ;
#298 = LINE ( 'NONE', #30, #267 ) ;
#299 = LINE ( 'NONE', #36, #229 ) ;
#300 = AXIS2_PLACEMENT_3D ( 'NONE', #295, #98, #8 ) ;
#301 = EDGE_CURVE ( 'NONE', #277, #168, #242, .T. ) ;
#302 = PLANE ( 'NONE',  #55 ) ;
#303 = DIRECTION ( 'NONE',  ( -0.000000000000000000, -1.000000000000000000, -0.000000000000000000 ) ) ;
#304 = ORIENTED_EDGE ( 'NONE', *, *, #105, .T. ) ;
#305 = APPLICATION_PROTOCOL_DEFINITION ( 'international standard', 'config_control_design', 1994, #222 ) ;
#306 = ORIENTED_EDGE ( 'NONE', *, *, #109, .F. ) ;
#307 = CARTESIAN_POINT ( 'NONE',  ( 0.000000000000000000, 0.000000000000000000, 0.000000000000000000 ) ) ;
#308 = ORIENTED_EDGE ( 'NONE', *, *, #45, .F. ) ;
#309 = VERTEX_POINT ( 'NONE', #187 ) ;
#310 = CARTESIAN_POINT ( 'NONE',  ( -29.99999999999999289, 25.00000000000000000, 0.000000000000000000 ) ) ;
#311 = LINE ( 'NONE', #181, #345 ) ;
#312 = EDGE_CURVE ( 'NONE', #214, #159, #299, .T. ) ;
#313 = CARTESIAN_POINT ( 'NONE',  ( -29.99999999999999289, -25.00000000000000000, 7.400000000000000355 ) ) ;
#314 = CARTESIAN_POINT ( 'NONE',  ( -29.99999999999999289, -25.00000000000000000, 7.400000000000000355 ) ) ;
#315 = LINE ( 'NONE', #314, #268 ) ;
#316 = PLANE ( 'NONE',  #337 ) ;
#317 = APPROVAL ( #146, 'æœª' ) ;
#318 = CALENDAR_DATE ( 2026, 7, 5 ) ;
#319 = ADVANCED_BREP_SHAPE_REPRESENTATION ( '\X2\66f463626d4b91cf677f\X0\', ( #141, #323 ), #349 ) ;
#320 = CARTESIAN_POINT ( 'NONE',  ( -2.500000000000000444, 2.499999999999999556, 27.40000000000000213 ) ) ;
#321 = ORIENTED_EDGE ( 'NONE', *, *, #180, .T. ) ;
#322 = CALENDAR_DATE ( 2026, 7, 5 ) ;
#323 = AXIS2_PLACEMENT_3D ( 'NONE', #307, #44, #278 ) ;
#324 = DIRECTION ( 'NONE',  ( -1.000000000000000000, 0.000000000000000000, -0.000000000000000000 ) ) ;
#325 = EDGE_LOOP ( 'NONE', ( #122, #362, #379, #79 ) ) ;
#326 = DATE_TIME_ROLE ( 'classification_date' ) ;
#327 = CARTESIAN_POINT ( 'NONE',  ( -29.99999999999999289, -25.00000000000000000, 7.400000000000000355 ) ) ;
#328 = CARTESIAN_POINT ( 'NONE',  ( 2.499999999999999556, -2.500000000000000444, 27.40000000000000213 ) ) ;
#329 = EDGE_LOOP ( 'NONE', ( #190, #13, #308, #66 ) ) ;
#330 = VECTOR ( 'NONE', #91, 1000.000000000000000 ) ;
#331 = LOCAL_TIME ( 12, 49, 4.000000000000000000, #120 ) ;
#332 = EDGE_LOOP ( 'NONE', ( #23, #155, #231, #198 ) ) ;
#333 = ADVANCED_FACE ( 'NONE', ( #152 ), #270, .T. ) ;
#334 =( NAMED_UNIT ( * ) SI_UNIT ( $, .STERADIAN. ) SOLID_ANGLE_UNIT ( ) );
#335 = EDGE_LOOP ( 'NONE', ( #281, #104, #143, #182 ) ) ;
#336 = ORIENTED_EDGE ( 'NONE', *, *, #38, .T. ) ;
#337 = AXIS2_PLACEMENT_3D ( 'NONE', #10, #339, #47 ) ;
#338 = EDGE_CURVE ( 'NONE', #366, #110, #354, .T. ) ;
#339 = DIRECTION ( 'NONE',  ( 1.000000000000000000, 0.000000000000000000, 0.000000000000000000 ) ) ;
#340 = ORIENTED_EDGE ( 'NONE', *, *, #338, .F. ) ;
#341 = EDGE_LOOP ( 'NONE', ( #94, #40, #161, #3 ) ) ;
#342 = EDGE_CURVE ( 'NONE', #168, #42, #154, .T. ) ;
#343 = PLANE ( 'NONE',  #202 ) ;
#344 = EDGE_CURVE ( 'NONE', #277, #225, #96, .T. ) ;
#345 = VECTOR ( 'NONE', #246, 1000.000000000000000 ) ;
#346 = CARTESIAN_POINT ( 'NONE',  ( 30.00000000000000711, -24.99999999999999645, 7.400000000000000355 ) ) ;
#347 = DIRECTION ( 'NONE',  ( -0.000000000000000000, -1.000000000000000000, -0.000000000000000000 ) ) ;
#348 = LINE ( 'NONE', #346, #130 ) ;
#349 =( GEOMETRIC_REPRESENTATION_CONTEXT ( 3 ) GLOBAL_UNCERTAINTY_ASSIGNED_CONTEXT ( ( #21 ) ) GLOBAL_UNIT_ASSIGNED_CONTEXT ( ( #75, #226, #334 ) ) REPRESENTATION_CONTEXT ( 'NONE', 'WORKASPACE' ) );
#350 = APPROVAL ( #73, 'æœª' ) ;
#351 = DIRECTION ( 'NONE',  ( 0.000000000000000000, 0.000000000000000000, -1.000000000000000000 ) ) ;
#352 = CARTESIAN_POINT ( 'NONE',  ( -29.99999999999999289, 25.00000000000000000, 7.400000000000000355 ) ) ;
#353 = PERSON_AND_ORGANIZATION_ROLE ( 'design_supplier' ) ;
#354 = LINE ( 'NONE', #297, #330 ) ;
#355 = DATE_AND_TIME ( #322, #83 ) ;
#356 = CARTESIAN_POINT ( 'NONE',  ( 2.499999999999999556, -2.500000000000000444, 7.400000000000000355 ) ) ;
#357 = AXIS2_PLACEMENT_3D ( 'NONE', #170, #370, #289 ) ;
#358 = CARTESIAN_POINT ( 'NONE',  ( 2.499999999999999556, 2.499999999999999556, 27.40000000000000213 ) ) ;
#359 = EDGE_LOOP ( 'NONE', ( #129, #197, #102, #14 ) ) ;
#360 = ORIENTED_EDGE ( 'NONE', *, *, #51, .T. ) ;
#361 = MECHANICAL_CONTEXT ( 'NONE', #206, 'mechanical' ) ;
#362 = ORIENTED_EDGE ( 'NONE', *, *, #127, .F. ) ;
#363 = ADVANCED_FACE ( 'NONE', ( #274 ), #316, .F. ) ;
#364 = ORIENTED_EDGE ( 'NONE', *, *, #342, .T. ) ;
#365 = PERSON_AND_ORGANIZATION ( #210, #188 ) ;
#366 = VERTEX_POINT ( 'NONE', #163 ) ;
#367 = VECTOR ( 'NONE', #211, 1000.000000000000000 ) ;
#368 = EDGE_LOOP ( 'NONE', ( #304, #296, #16, #137 ) ) ;
#369 = CARTESIAN_POINT ( 'NONE',  ( -2.500000000000000444, -2.500000000000000444, 7.400000000000000355 ) ) ;
#370 = DIRECTION ( 'NONE',  ( 0.000000000000000000, 0.000000000000000000, -1.000000000000000000 ) ) ;
#371 = EDGE_CURVE ( 'NONE', #228, #220, #12, .T. ) ;
#372 = APPROVAL_PERSON_ORGANIZATION ( #269, #62, #151 ) ;
#373 = DIRECTION ( 'NONE',  ( 0.000000000000000000, 0.000000000000000000, 1.000000000000000000 ) ) ;
#374 = DIRECTION ( 'NONE',  ( -0.000000000000000000, -0.000000000000000000, -1.000000000000000000 ) ) ;
#375 = CARTESIAN_POINT ( 'NONE',  ( 2.499999999999999556, 2.499999999999999556, 7.400000000000000355 ) ) ;
#376 = PERSON_AND_ORGANIZATION_ROLE ( 'creator' ) ;
#377 = LOCAL_TIME ( 12, 49, 4.000000000000000000, #67 ) ;
#378 = DIRECTION ( 'NONE',  ( 0.000000000000000000, 0.000000000000000000, -1.000000000000000000 ) ) ;
#379 = ORIENTED_EDGE ( 'NONE', *, *, #371, .F. ) ;
ENDSEC;
END-ISO-10303-21;
