ISO-10303-21;
HEADER;
FILE_DESCRIPTION (( 'STEP AP203' ),
    '1' );
FILE_NAME ('²âÊÔ¸ü»»Ä£¿é.STEP',
    '2026-05-07T11:38:30',
    ( '' ),
    ( '' ),
    'SwSTEP 2.0',
    'SolidWorks 2024',
    '' );
FILE_SCHEMA (( 'CONFIG_CONTROL_DESIGN' ));
ENDSEC;

DATA;
#1 = PERSON_AND_ORGANIZATION_ROLE ( 'classification_officer' ) ;
#2 = ORIENTED_EDGE ( 'NONE', *, *, #187, .T. ) ;
#3 = APPROVAL_STATUS ( 'not_yet_approved' ) ;
#4 = DIRECTION ( 'NONE',  ( -0.000000000000000000, -0.000000000000000000, -1.000000000000000000 ) ) ;
#5 = CARTESIAN_POINT ( 'NONE',  ( -2.500000000000000444, -2.500000000000000444, 27.40000000000000213 ) ) ;
#6 = ORIENTED_EDGE ( 'NONE', *, *, #311, .T. ) ;
#7 = DIRECTION ( 'NONE',  ( -0.000000000000000000, -0.000000000000000000, -1.000000000000000000 ) ) ;
#8 = ORIENTED_EDGE ( 'NONE', *, *, #228, .T. ) ;
#9 = APPROVAL_STATUS ( 'not_yet_approved' ) ;
#10 =( GEOMETRIC_REPRESENTATION_CONTEXT ( 3 ) GLOBAL_UNCERTAINTY_ASSIGNED_CONTEXT ( ( #319 ) ) GLOBAL_UNIT_ASSIGNED_CONTEXT ( ( #119, #116, #282 ) ) REPRESENTATION_CONTEXT ( 'NONE', 'WORKASPACE' ) );
#11 = LINE ( 'NONE', #5, #128 ) ;
#12 = VERTEX_POINT ( 'NONE', #42 ) ;
#13 = VECTOR ( 'NONE', #61, 1000.000000000000000 ) ;
#14 = LINE ( 'NONE', #293, #226 ) ;
#15 = ORIENTED_EDGE ( 'NONE', *, *, #107, .F. ) ;
#16 = ORIENTED_EDGE ( 'NONE', *, *, #89, .T. ) ;
#17 = DIRECTION ( 'NONE',  ( -1.000000000000000000, -0.000000000000000000, -0.000000000000000000 ) ) ;
#18 = DIRECTION ( 'NONE',  ( -1.000000000000000000, -0.000000000000000000, -0.000000000000000000 ) ) ;
#19 = CARTESIAN_POINT ( 'NONE',  ( -29.89999999999999147, 24.91666666666667140, 7.400000000000000355 ) ) ;
#20 = EDGE_CURVE ( 'NONE', #288, #326, #222, .T. ) ;
#21 = FACE_BOUND ( 'NONE', #29, .T. ) ;
#22 = CARTESIAN_POINT ( 'NONE',  ( 29.90000000000000568, 24.91666666666667140, 0.000000000000000000 ) ) ;
#23 = DIRECTION ( 'NONE',  ( 0.000000000000000000, 0.000000000000000000, 1.000000000000000000 ) ) ;
#24 = APPROVAL_PERSON_ORGANIZATION ( #305, #214, #212 ) ;
#25 = CALENDAR_DATE ( 2026, 7, 5 ) ;
#26 = VECTOR ( 'NONE', #307, 1000.000000000000000 ) ;
#27 = CARTESIAN_POINT ( 'NONE',  ( 0.000000000000000000, 0.000000000000000000, 0.000000000000000000 ) ) ;
#28 = CARTESIAN_POINT ( 'NONE',  ( 29.90000000000000568, -24.91666666666666785, 7.400000000000000355 ) ) ;
#29 = EDGE_LOOP ( 'NONE', ( #97, #247, #240, #91 ) ) ;
#30 = ADVANCED_FACE ( 'NONE', ( #336 ), #190, .T. ) ;
#31 = LINE ( 'NONE', #262, #341 ) ;
#32 = ORIENTED_EDGE ( 'NONE', *, *, #89, .F. ) ;
#33 = DIRECTION ( 'NONE',  ( -1.000000000000000000, 0.000000000000000000, -0.000000000000000000 ) ) ;
#34 = PRODUCT_DEFINITION ( 'æœ', '', #315, #334 ) ;
#35 = ORIENTED_EDGE ( 'NONE', *, *, #40, .T. ) ;
#36 = DIRECTION ( 'NONE',  ( 0.000000000000000000, 1.000000000000000000, 0.000000000000000000 ) ) ;
#37 = VERTEX_POINT ( 'NONE', #290 ) ;
#38 = FACE_OUTER_BOUND ( 'NONE', #273, .T. ) ;
#39 = ORIENTED_EDGE ( 'NONE', *, *, #200, .T. ) ;
#40 = EDGE_CURVE ( 'NONE', #59, #62, #31, .T. ) ;
#41 = VECTOR ( 'NONE', #18, 1000.000000000000000 ) ;
#42 = CARTESIAN_POINT ( 'NONE',  ( -29.89999999999999147, 24.91666666666667140, 0.000000000000000000 ) ) ;
#43 = AXIS2_PLACEMENT_3D ( 'NONE', #83, #346, #379 ) ;
#44 = CARTESIAN_POINT ( 'NONE',  ( 2.499999999999999556, -2.500000000000000444, 7.400000000000000355 ) ) ;
#45 = ADVANCED_FACE ( 'NONE', ( #38 ), #241, .F. ) ;
#46 = LOCAL_TIME ( 19, 38, 30.00000000000000000, #329 ) ;
#47 = DIRECTION ( 'NONE',  ( 0.000000000000000000, 0.000000000000000000, -1.000000000000000000 ) ) ;
#48 = DIRECTION ( 'NONE',  ( 0.000000000000000000, -1.000000000000000000, 0.000000000000000000 ) ) ;
#49 = LINE ( 'NONE', #168, #41 ) ;
#50 = LINE ( 'NONE', #199, #253 ) ;
#51 = ADVANCED_FACE ( 'NONE', ( #153 ), #63, .F. ) ;
#52 = CARTESIAN_POINT ( 'NONE',  ( 0.000000000000000000, 0.000000000000000000, 7.400000000000000355 ) ) ;
#53 = CALENDAR_DATE ( 2026, 7, 5 ) ;
#54 = CC_DESIGN_APPROVAL ( #113, ( #34 ) ) ;
#55 = PERSON_AND_ORGANIZATION ( #163, #339 ) ;
#56 = AXIS2_PLACEMENT_3D ( 'NONE', #372, #308, #255 ) ;
#57 = PLANE ( 'NONE',  #109 ) ;
#58 = DIRECTION ( 'NONE',  ( 1.000000000000000000, 5.801750755775275013E-17, 0.000000000000000000 ) ) ;
#59 = VERTEX_POINT ( 'NONE', #215 ) ;
#60 = VECTOR ( 'NONE', #229, 1000.000000000000000 ) ;
#61 = DIRECTION ( 'NONE',  ( -0.000000000000000000, -1.000000000000000000, -0.000000000000000000 ) ) ;
#62 = VERTEX_POINT ( 'NONE', #181 ) ;
#63 = PLANE ( 'NONE',  #173 ) ;
#64 = VERTEX_POINT ( 'NONE', #287 ) ;
#65 = CARTESIAN_POINT ( 'NONE',  ( -2.500000000000000444, 2.499999999999999556, 7.400000000000000355 ) ) ;
#66 = ORIENTED_EDGE ( 'NONE', *, *, #159, .T. ) ;
#67 = DIRECTION ( 'NONE',  ( 0.000000000000000000, 0.000000000000000000, 1.000000000000000000 ) ) ;
#68 = ORIENTED_EDGE ( 'NONE', *, *, #337, .F. ) ;
#69 = ORIENTED_EDGE ( 'NONE', *, *, #335, .F. ) ;
#70 = LINE ( 'NONE', #201, #230 ) ;
#71 = EDGE_CURVE ( 'NONE', #182, #361, #96, .T. ) ;
#72 = EDGE_CURVE ( 'NONE', #37, #132, #322, .T. ) ;
#73 = DIRECTION ( 'NONE',  ( -5.801750755775275013E-17, 1.000000000000000000, 0.000000000000000000 ) ) ;
#74 = CARTESIAN_POINT ( 'NONE',  ( -2.500000000000000444, -2.500000000000000444, 27.40000000000000213 ) ) ;
#75 = CLOSED_SHELL ( 'NONE', ( #317, #117, #84, #45, #285, #30, #373, #345, #51, #218, #363 ) ) ;
#76 = CARTESIAN_POINT ( 'NONE',  ( -2.500000000000000444, -2.500000000000000444, 27.40000000000000213 ) ) ;
#77 = AXIS2_PLACEMENT_3D ( 'NONE', #196, #48, #251 ) ;
#78 = FACE_OUTER_BOUND ( 'NONE', #151, .T. ) ;
#79 = FACE_OUTER_BOUND ( 'NONE', #267, .T. ) ;
#80 = PERSON_AND_ORGANIZATION_ROLE ( 'design_supplier' ) ;
#81 = CC_DESIGN_PERSON_AND_ORGANIZATION_ASSIGNMENT ( #87, #180, ( #34 ) ) ;
#82 = DATE_AND_TIME ( #25, #193 ) ;
#83 = CARTESIAN_POINT ( 'NONE',  ( 2.499999999999999556, -2.500000000000000444, 27.40000000000000213 ) ) ;
#84 = ADVANCED_FACE ( 'NONE', ( #237 ), #145, .F. ) ;
#85 = VECTOR ( 'NONE', #309, 1000.000000000000000 ) ;
#86 = ORIENTED_EDGE ( 'NONE', *, *, #337, .T. ) ;
#87 = PERSON_AND_ORGANIZATION ( #163, #339 ) ;
#88 = CARTESIAN_POINT ( 'NONE',  ( -2.500000000000000444, -2.500000000000000444, 7.400000000000000355 ) ) ;
#89 = EDGE_CURVE ( 'NONE', #127, #300, #150, .T. ) ;
#90 = LINE ( 'NONE', #175, #271 ) ;
#91 = ORIENTED_EDGE ( 'NONE', *, *, #187, .F. ) ;
#92 = LOCAL_TIME ( 19, 38, 30.00000000000000000, #314 ) ;
#93 = CARTESIAN_POINT ( 'NONE',  ( 29.90000000000000568, -24.91666666666666785, 7.400000000000000355 ) ) ;
#94 = ORIENTED_EDGE ( 'NONE', *, *, #333, .F. ) ;
#95 = AXIS2_PLACEMENT_3D ( 'NONE', #183, #120, #266 ) ;
#96 = LINE ( 'NONE', #123, #106 ) ;
#97 = ORIENTED_EDGE ( 'NONE', *, *, #20, .F. ) ;
#98 = ORIENTED_EDGE ( 'NONE', *, *, #71, .F. ) ;
#99 = ORIENTED_EDGE ( 'NONE', *, *, #349, .T. ) ;
#100 = EDGE_CURVE ( 'NONE', #156, #331, #155, .T. ) ;
#101 = EDGE_CURVE ( 'NONE', #235, #331, #11, .T. ) ;
#102 = PLANE ( 'NONE',  #56 ) ;
#103 = LINE ( 'NONE', #340, #286 ) ;
#104 = LOCAL_TIME ( 19, 38, 30.00000000000000000, #208 ) ;
#105 = LINE ( 'NONE', #76, #274 ) ;
#106 = VECTOR ( 'NONE', #178, 1000.000000000000000 ) ;
#107 = EDGE_CURVE ( 'NONE', #182, #326, #90, .T. ) ;
#108 = DIRECTION ( 'NONE',  ( -0.000000000000000000, -0.000000000000000000, -1.000000000000000000 ) ) ;
#109 = AXIS2_PLACEMENT_3D ( 'NONE', #324, #174, #205 ) ;
#110 = CARTESIAN_POINT ( 'NONE',  ( -2.500000000000000444, -2.500000000000000444, 27.40000000000000213 ) ) ;
#111 = EDGE_CURVE ( 'NONE', #64, #182, #330, .T. ) ;
#112 = APPROVAL_DATE_TIME ( #82, #369 ) ;
#113 = APPROVAL ( #3, 'æœª' ) ;
#114 = PERSON_AND_ORGANIZATION_ROLE ( 'design_owner' ) ;
#115 = EDGE_LOOP ( 'NONE', ( #272, #364, #186, #245 ) ) ;
#116 =( NAMED_UNIT ( * ) PLANE_ANGLE_UNIT ( ) SI_UNIT ( $, .RADIAN. ) );
#117 = ADVANCED_FACE ( 'NONE', ( #130 ), #325, .F. ) ;
#118 = ORIENTED_EDGE ( 'NONE', *, *, #278, .F. ) ;
#119 =( LENGTH_UNIT ( ) NAMED_UNIT ( * ) SI_UNIT ( .MILLI., .METRE. ) );
#120 = DIRECTION ( 'NONE',  ( 1.000000000000000000, 0.000000000000000000, 0.000000000000000000 ) ) ;
#121 = CARTESIAN_POINT ( 'NONE',  ( 0.000000000000000000, 0.000000000000000000, 0.000000000000000000 ) ) ;
#122 = ORIENTED_EDGE ( 'NONE', *, *, #250, .T. ) ;
#123 = CARTESIAN_POINT ( 'NONE',  ( -2.500000000000000444, 2.499999999999999556, 27.40000000000000213 ) ) ;
#124 = ORIENTED_EDGE ( 'NONE', *, *, #111, .F. ) ;
#125 = AXIS2_PLACEMENT_3D ( 'NONE', #27, #23, #238 ) ;
#126 = CARTESIAN_POINT ( 'NONE',  ( 29.90000000000000568, 24.91666666666667140, 7.400000000000000355 ) ) ;
#127 = VERTEX_POINT ( 'NONE', #270 ) ;
#128 = VECTOR ( 'NONE', #239, 1000.000000000000000 ) ;
#129 = APPLICATION_CONTEXT ( 'configuration controlled 3d designs of mechanical parts and assemblies' ) ;
#130 = FACE_OUTER_BOUND ( 'NONE', #332, .T. ) ;
#131 = ORIENTED_EDGE ( 'NONE', *, *, #250, .F. ) ;
#132 = VERTEX_POINT ( 'NONE', #126 ) ;
#133 = PLANE ( 'NONE',  #77 ) ;
#134 = DIRECTION ( 'NONE',  ( -1.000000000000000000, -5.801750755775275013E-17, 0.000000000000000000 ) ) ;
#135 = CARTESIAN_POINT ( 'NONE',  ( 2.499999999999999556, 2.499999999999999556, 7.400000000000000355 ) ) ;
#136 = PLANE ( 'NONE',  #304 ) ;
#137 = VECTOR ( 'NONE', #17, 1000.000000000000000 ) ;
#138 = EDGE_CURVE ( 'NONE', #59, #37, #246, .T. ) ;
#139 = DIRECTION ( 'NONE',  ( -0.000000000000000000, -0.000000000000000000, -1.000000000000000000 ) ) ;
#140 = CC_DESIGN_SECURITY_CLASSIFICATION ( #357, ( #315 ) ) ;
#141 = PERSON_AND_ORGANIZATION ( #163, #339 ) ;
#142 = VECTOR ( 'NONE', #303, 1000.000000000000000 ) ;
#143 = EDGE_CURVE ( 'NONE', #331, #288, #14, .T. ) ;
#144 = PERSON_AND_ORGANIZATION ( #163, #339 ) ;
#145 = PLANE ( 'NONE',  #301 ) ;
#146 = COORDINATED_UNIVERSAL_TIME_OFFSET ( 8, 0, .AHEAD. ) ;
#147 = DIRECTION ( 'NONE',  ( 0.000000000000000000, 0.000000000000000000, -1.000000000000000000 ) ) ;
#148 = EDGE_LOOP ( 'NONE', ( #2, #131, #98, #358 ) ) ;
#149 = MECHANICAL_CONTEXT ( 'NONE', #129, 'mechanical' ) ;
#150 = LINE ( 'NONE', #264, #283 ) ;
#151 = EDGE_LOOP ( 'NONE', ( #8, #347, #176, #35 ) ) ;
#152 = CC_DESIGN_PERSON_AND_ORGANIZATION_ASSIGNMENT ( #348, #114, ( #167 ) ) ;
#153 = FACE_OUTER_BOUND ( 'NONE', #216, .T. ) ;
#154 = EDGE_LOOP ( 'NONE', ( #354, #86, #66, #318 ) ) ;
#155 = LINE ( 'NONE', #88, #13 ) ;
#156 = VERTEX_POINT ( 'NONE', #65 ) ;
#157 = VECTOR ( 'NONE', #210, 1000.000000000000000 ) ;
#158 = DATE_AND_TIME ( #53, #92 ) ;
#159 = EDGE_CURVE ( 'NONE', #265, #59, #244, .T. ) ;
#160 = ORIENTED_EDGE ( 'NONE', *, *, #261, .F. ) ;
#161 = DATE_AND_TIME ( #191, #46 ) ;
#162 = VECTOR ( 'NONE', #195, 1000.000000000000000 ) ;
#163 = PERSON ( 'æœª', 'æœª', 'æœª', ('æœª'), ('æœª'), ('æœª') ) ;
#164 = DIRECTION ( 'NONE',  ( -1.000000000000000000, 0.000000000000000000, -0.000000000000000000 ) ) ;
#165 = CC_DESIGN_PERSON_AND_ORGANIZATION_ASSIGNMENT ( #144, #80, ( #315 ) ) ;
#166 = CARTESIAN_POINT ( 'NONE',  ( -2.500000000000000444, 2.499999999999999556, 27.40000000000000213 ) ) ;
#167 = PRODUCT ( '\X2\6d4b8bd566f463626a215757\X0\', '\X2\6d4b8bd566f463626a215757\X0\', '', ( #149 ) ) ;
#168 = CARTESIAN_POINT ( 'NONE',  ( -2.500000000000000444, 2.499999999999999556, 7.400000000000000355 ) ) ;
#169 = DIRECTION ( 'NONE',  ( -1.000000000000000000, -0.000000000000000000, -0.000000000000000000 ) ) ;
#170 = CARTESIAN_POINT ( 'NONE',  ( -2.500000000000000444, -2.500000000000000444, 7.400000000000000355 ) ) ;
#171 = APPROVAL_PERSON_ORGANIZATION ( #141, #113, #177 ) ;
#172 = APPROVAL_ROLE ( '' ) ;
#173 = AXIS2_PLACEMENT_3D ( 'NONE', #353, #295, #147 ) ;
#174 = DIRECTION ( 'NONE',  ( 0.000000000000000000, 0.000000000000000000, -1.000000000000000000 ) ) ;
#175 = CARTESIAN_POINT ( 'NONE',  ( 2.499999999999999556, 2.499999999999999556, 27.40000000000000213 ) ) ;
#176 = ORIENTED_EDGE ( 'NONE', *, *, #138, .F. ) ;
#177 = APPROVAL_ROLE ( '' ) ;
#178 = DIRECTION ( 'NONE',  ( -1.000000000000000000, -0.000000000000000000, -0.000000000000000000 ) ) ;
#179 = ORIENTED_EDGE ( 'NONE', *, *, #198, .T. ) ;
#180 = PERSON_AND_ORGANIZATION_ROLE ( 'creator' ) ;
#181 = CARTESIAN_POINT ( 'NONE',  ( -29.89999999999999147, -24.91666666666667140, 0.000000000000000000 ) ) ;
#182 = VERTEX_POINT ( 'NONE', #362 ) ;
#183 = CARTESIAN_POINT ( 'NONE',  ( -29.89999999999999147, -24.91666666666667140, 7.400000000000000355 ) ) ;
#184 = EDGE_LOOP ( 'NONE', ( #32, #284, #294, #160 ) ) ;
#185 = CARTESIAN_POINT ( 'NONE',  ( -29.89999999999999147, -24.91666666666667140, 7.400000000000000355 ) ) ;
#186 = ORIENTED_EDGE ( 'NONE', *, *, #333, .T. ) ;
#187 = EDGE_CURVE ( 'NONE', #326, #156, #49, .T. ) ;
#188 = APPROVAL_DATE_TIME ( #161, #214 ) ;
#189 = ORIENTED_EDGE ( 'NONE', *, *, #311, .F. ) ;
#190 = PLANE ( 'NONE',  #359 ) ;
#191 = CALENDAR_DATE ( 2026, 7, 5 ) ;
#192 = CARTESIAN_POINT ( 'NONE',  ( -29.89999999999999147, -24.91666666666667140, 0.000000000000000000 ) ) ;
#193 = LOCAL_TIME ( 19, 38, 30.00000000000000000, #377 ) ;
#194 = VECTOR ( 'NONE', #36, 1000.000000000000000 ) ;
#195 = DIRECTION ( 'NONE',  ( -0.000000000000000000, -0.000000000000000000, -1.000000000000000000 ) ) ;
#196 = CARTESIAN_POINT ( 'NONE',  ( -2.500000000000000444, 2.499999999999999556, 27.40000000000000213 ) ) ;
#197 = VECTOR ( 'NONE', #277, 1000.000000000000000 ) ;
#198 = EDGE_CURVE ( 'NONE', #64, #288, #50, .T. ) ;
#199 = CARTESIAN_POINT ( 'NONE',  ( 2.499999999999999556, -2.500000000000000444, 27.40000000000000213 ) ) ;
#200 = EDGE_CURVE ( 'NONE', #12, #62, #256, .T. ) ;
#201 = CARTESIAN_POINT ( 'NONE',  ( -29.89999999999999147, 24.91666666666667140, 0.000000000000000000 ) ) ;
#202 = SECURITY_CLASSIFICATION_LEVEL ( 'unclassified' ) ;
#203 = APPROVAL_STATUS ( 'not_yet_approved' ) ;
#204 = ORIENTED_EDGE ( 'NONE', *, *, #40, .F. ) ;
#205 = DIRECTION ( 'NONE',  ( -1.000000000000000000, 0.000000000000000000, -0.000000000000000000 ) ) ;
#206 = VECTOR ( 'NONE', #299, 1000.000000000000000 ) ;
#207 = DIRECTION ( 'NONE',  ( 0.000000000000000000, 0.000000000000000000, -1.000000000000000000 ) ) ;
#208 = COORDINATED_UNIVERSAL_TIME_OFFSET ( 8, 0, .AHEAD. ) ;
#209 = DIRECTION ( 'NONE',  ( 0.000000000000000000, -0.000000000000000000, -1.000000000000000000 ) ) ;
#210 = DIRECTION ( 'NONE',  ( 0.000000000000000000, 1.000000000000000000, 0.000000000000000000 ) ) ;
#211 = EDGE_LOOP ( 'NONE', ( #269, #15, #124, #179 ) ) ;
#212 = APPROVAL_ROLE ( '' ) ;
#213 = CC_DESIGN_APPROVAL ( #369, ( #315 ) ) ;
#214 = APPROVAL ( #9, 'æœª' ) ;
#215 = CARTESIAN_POINT ( 'NONE',  ( -29.89999999999999147, -24.91666666666667140, 7.400000000000000355 ) ) ;
#216 = EDGE_LOOP ( 'NONE', ( #219, #291, #94, #122 ) ) ;
#217 = DIRECTION ( 'NONE',  ( 0.000000000000000000, 1.000000000000000000, 0.000000000000000000 ) ) ;
#218 = ADVANCED_FACE ( 'NONE', ( #79 ), #102, .F. ) ;
#219 = ORIENTED_EDGE ( 'NONE', *, *, #100, .T. ) ;
#220 = ORIENTED_EDGE ( 'NONE', *, *, #72, .F. ) ;
#221 = CC_DESIGN_PERSON_AND_ORGANIZATION_ASSIGNMENT ( #259, #1, ( #357 ) ) ;
#222 = LINE ( 'NONE', #44, #142 ) ;
#223 = LINE ( 'NONE', #192, #197 ) ;
#224 = LOCAL_TIME ( 19, 38, 30.00000000000000000, #146 ) ;
#225 = CARTESIAN_POINT ( 'NONE',  ( -29.89999999999999147, -24.91666666666667140, 0.000000000000000000 ) ) ;
#226 = VECTOR ( 'NONE', #356, 1000.000000000000000 ) ;
#227 = CARTESIAN_POINT ( 'NONE',  ( -2.500000000000000444, 2.499999999999999556, 27.40000000000000213 ) ) ;
#228 = EDGE_CURVE ( 'NONE', #62, #127, #223, .T. ) ;
#229 = DIRECTION ( 'NONE',  ( -0.000000000000000000, -0.000000000000000000, -1.000000000000000000 ) ) ;
#230 = VECTOR ( 'NONE', #169, 1000.000000000000000 ) ;
#231 = LINE ( 'NONE', #275, #137 ) ;
#232 = PERSON_AND_ORGANIZATION ( #163, #339 ) ;
#233 = CALENDAR_DATE ( 2026, 7, 5 ) ;
#234 = APPLICATION_PROTOCOL_DEFINITION ( 'international standard', 'config_control_design', 1994, #129 ) ;
#235 = VERTEX_POINT ( 'NONE', #74 ) ;
#236 = DATE_AND_TIME ( #289, #224 ) ;
#237 = FACE_OUTER_BOUND ( 'NONE', #242, .T. ) ;
#238 = DIRECTION ( 'NONE',  ( 1.000000000000000000, 0.000000000000000000, 0.000000000000000000 ) ) ;
#239 = DIRECTION ( 'NONE',  ( -0.000000000000000000, -0.000000000000000000, -1.000000000000000000 ) ) ;
#240 = ORIENTED_EDGE ( 'NONE', *, *, #100, .F. ) ;
#241 = PLANE ( 'NONE',  #95 ) ;
#242 = EDGE_LOOP ( 'NONE', ( #328, #189, #68, #296 ) ) ;
#243 = CC_DESIGN_APPROVAL ( #214, ( #357 ) ) ;
#244 = LINE ( 'NONE', #185, #206 ) ;
#245 = ORIENTED_EDGE ( 'NONE', *, *, #335, .T. ) ;
#246 = LINE ( 'NONE', #360, #371 ) ;
#247 = ORIENTED_EDGE ( 'NONE', *, *, #143, .F. ) ;
#248 = VECTOR ( 'NONE', #254, 1000.000000000000000 ) ;
#249 = ORIENTED_EDGE ( 'NONE', *, *, #198, .F. ) ;
#250 = EDGE_CURVE ( 'NONE', #361, #156, #252, .T. ) ;
#251 = DIRECTION ( 'NONE',  ( 0.000000000000000000, -0.000000000000000000, -1.000000000000000000 ) ) ;
#252 = LINE ( 'NONE', #227, #26 ) ;
#253 = VECTOR ( 'NONE', #139, 1000.000000000000000 ) ;
#254 = DIRECTION ( 'NONE',  ( -0.000000000000000000, -1.000000000000000000, -0.000000000000000000 ) ) ;
#255 = DIRECTION ( 'NONE',  ( 0.000000000000000000, -0.000000000000000000, 1.000000000000000000 ) ) ;
#256 = LINE ( 'NONE', #225, #85 ) ;
#257 = FACE_OUTER_BOUND ( 'NONE', #211, .T. ) ;
#258 = CC_DESIGN_DATE_AND_TIME_ASSIGNMENT ( #263, #292, ( #34 ) ) ;
#259 = PERSON_AND_ORGANIZATION ( #163, #339 ) ;
#260 = APPLICATION_PROTOCOL_DEFINITION ( 'international standard', 'config_control_design', 1994, #280 ) ;
#261 = EDGE_CURVE ( 'NONE', #300, #12, #70, .T. ) ;
#262 = CARTESIAN_POINT ( 'NONE',  ( -29.89999999999999147, -24.91666666666667140, 7.400000000000000355 ) ) ;
#263 = DATE_AND_TIME ( #233, #104 ) ;
#264 = CARTESIAN_POINT ( 'NONE',  ( 29.90000000000000568, -24.91666666666666785, 0.000000000000000000 ) ) ;
#265 = VERTEX_POINT ( 'NONE', #338 ) ;
#266 = DIRECTION ( 'NONE',  ( 0.000000000000000000, 0.000000000000000000, -1.000000000000000000 ) ) ;
#267 = EDGE_LOOP ( 'NONE', ( #302, #249, #69, #323 ) ) ;
#268 = DIRECTION ( 'NONE',  ( 0.000000000000000000, -1.000000000000000000, 0.000000000000000000 ) ) ;
#269 = ORIENTED_EDGE ( 'NONE', *, *, #20, .T. ) ;
#270 = CARTESIAN_POINT ( 'NONE',  ( 29.90000000000000568, -24.91666666666666785, 0.000000000000000000 ) ) ;
#271 = VECTOR ( 'NONE', #7, 1000.000000000000000 ) ;
#272 = ORIENTED_EDGE ( 'NONE', *, *, #111, .T. ) ;
#273 = EDGE_LOOP ( 'NONE', ( #39, #204, #365, #6 ) ) ;
#274 = VECTOR ( 'NONE', #281, 1000.000000000000000 ) ;
#275 = CARTESIAN_POINT ( 'NONE',  ( -29.89999999999999147, 24.91666666666667140, 7.400000000000000355 ) ) ;
#276 = CARTESIAN_POINT ( 'NONE',  ( -29.89999999999999147, -24.91666666666667140, 7.400000000000000355 ) ) ;
#277 = DIRECTION ( 'NONE',  ( 1.000000000000000000, 5.801750755775275013E-17, 0.000000000000000000 ) ) ;
#278 = EDGE_CURVE ( 'NONE', #132, #300, #306, .T. ) ;
#279 = PLANE ( 'NONE',  #374 ) ;
#280 = APPLICATION_CONTEXT ( 'configuration controlled 3d designs of mechanical parts and assemblies' ) ;
#281 = DIRECTION ( 'NONE',  ( 1.000000000000000000, 0.000000000000000000, 0.000000000000000000 ) ) ;
#282 =( NAMED_UNIT ( * ) SI_UNIT ( $, .STERADIAN. ) SOLID_ANGLE_UNIT ( ) );
#283 = VECTOR ( 'NONE', #217, 1000.000000000000000 ) ;
#284 = ORIENTED_EDGE ( 'NONE', *, *, #228, .F. ) ;
#285 = ADVANCED_FACE ( 'NONE', ( #78 ), #279, .F. ) ;
#286 = VECTOR ( 'NONE', #108, 1000.000000000000000 ) ;
#287 = CARTESIAN_POINT ( 'NONE',  ( 2.499999999999999556, -2.500000000000000444, 27.40000000000000213 ) ) ;
#288 = VERTEX_POINT ( 'NONE', #310 ) ;
#289 = CALENDAR_DATE ( 2026, 7, 5 ) ;
#290 = CARTESIAN_POINT ( 'NONE',  ( 29.90000000000000568, -24.91666666666666785, 7.400000000000000355 ) ) ;
#291 = ORIENTED_EDGE ( 'NONE', *, *, #101, .F. ) ;
#292 = DATE_TIME_ROLE ( 'creation_date' ) ;
#293 = CARTESIAN_POINT ( 'NONE',  ( -2.500000000000000444, -2.500000000000000444, 7.400000000000000355 ) ) ;
#294 = ORIENTED_EDGE ( 'NONE', *, *, #200, .F. ) ;
#295 = DIRECTION ( 'NONE',  ( 1.000000000000000000, 0.000000000000000000, 0.000000000000000000 ) ) ;
#296 = ORIENTED_EDGE ( 'NONE', *, *, #278, .T. ) ;
#297 = CC_DESIGN_PERSON_AND_ORGANIZATION_ASSIGNMENT ( #232, #316, ( #315 ) ) ;
#298 = PRODUCT_DEFINITION_SHAPE ( 'NONE', 'NONE',  #34 ) ;
#299 = DIRECTION ( 'NONE',  ( -0.000000000000000000, -1.000000000000000000, -0.000000000000000000 ) ) ;
#300 = VERTEX_POINT ( 'NONE', #22 ) ;
#301 = AXIS2_PLACEMENT_3D ( 'NONE', #351, #268, #209 ) ;
#302 = ORIENTED_EDGE ( 'NONE', *, *, #143, .T. ) ;
#303 = DIRECTION ( 'NONE',  ( 0.000000000000000000, 1.000000000000000000, 0.000000000000000000 ) ) ;
#304 = AXIS2_PLACEMENT_3D ( 'NONE', #52, #47, #164 ) ;
#305 = PERSON_AND_ORGANIZATION ( #163, #339 ) ;
#306 = LINE ( 'NONE', #368, #60 ) ;
#307 = DIRECTION ( 'NONE',  ( -0.000000000000000000, -0.000000000000000000, -1.000000000000000000 ) ) ;
#308 = DIRECTION ( 'NONE',  ( 0.000000000000000000, 1.000000000000000000, 0.000000000000000000 ) ) ;
#309 = DIRECTION ( 'NONE',  ( -0.000000000000000000, -1.000000000000000000, -0.000000000000000000 ) ) ;
#310 = CARTESIAN_POINT ( 'NONE',  ( 2.499999999999999556, -2.500000000000000444, 7.400000000000000355 ) ) ;
#311 = EDGE_CURVE ( 'NONE', #265, #12, #375, .T. ) ;
#312 = CC_DESIGN_DATE_AND_TIME_ASSIGNMENT ( #158, #367, ( #357 ) ) ;
#313 = ADVANCED_BREP_SHAPE_REPRESENTATION ( '\X2\6d4b8bd566f463626a215757\X0\', ( #376, #125 ), #10 ) ;
#314 = COORDINATED_UNIVERSAL_TIME_OFFSET ( 8, 0, .AHEAD. ) ;
#315 = PRODUCT_DEFINITION_FORMATION_WITH_SPECIFIED_SOURCE ( 'ä»', '', #167, .NOT_KNOWN. ) ;
#316 = PERSON_AND_ORGANIZATION_ROLE ( 'creator' ) ;
#317 = ADVANCED_FACE ( 'NONE', ( #342, #21 ), #136, .F. ) ;
#318 = ORIENTED_EDGE ( 'NONE', *, *, #138, .T. ) ;
#319 = UNCERTAINTY_MEASURE_WITH_UNIT (LENGTH_MEASURE( 1.000000000000000082E-05 ), #119, 'distance_accuracy_value', 'NONE');
#320 = AXIS2_PLACEMENT_3D ( 'NONE', #93, #321, #67 ) ;
#321 = DIRECTION ( 'NONE',  ( -1.000000000000000000, 0.000000000000000000, 0.000000000000000000 ) ) ;
#322 = LINE ( 'NONE', #28, #194 ) ;
#323 = ORIENTED_EDGE ( 'NONE', *, *, #101, .T. ) ;
#324 = CARTESIAN_POINT ( 'NONE',  ( 0.000000000000000000, 0.000000000000000000, 27.40000000000000213 ) ) ;
#325 = PLANE ( 'NONE',  #320 ) ;
#326 = VERTEX_POINT ( 'NONE', #135 ) ;
#327 = CARTESIAN_POINT ( 'NONE',  ( 2.499999999999999556, -2.500000000000000444, 27.40000000000000213 ) ) ;
#328 = ORIENTED_EDGE ( 'NONE', *, *, #261, .T. ) ;
#329 = COORDINATED_UNIVERSAL_TIME_OFFSET ( 8, 0, .AHEAD. ) ;
#330 = LINE ( 'NONE', #327, #157 ) ;
#331 = VERTEX_POINT ( 'NONE', #170 ) ;
#332 = EDGE_LOOP ( 'NONE', ( #16, #118, #220, #99 ) ) ;
#333 = EDGE_CURVE ( 'NONE', #361, #235, #370, .T. ) ;
#334 = DESIGN_CONTEXT ( 'detailed design', #280, 'design' ) ;
#335 = EDGE_CURVE ( 'NONE', #235, #64, #105, .T. ) ;
#336 = FACE_OUTER_BOUND ( 'NONE', #184, .T. ) ;
#337 = EDGE_CURVE ( 'NONE', #132, #265, #231, .T. ) ;
#338 = CARTESIAN_POINT ( 'NONE',  ( -29.89999999999999147, 24.91666666666667140, 7.400000000000000355 ) ) ;
#339 = ORGANIZATION ( 'æœª', 'æœª', '' ) ;
#340 = CARTESIAN_POINT ( 'NONE',  ( 29.90000000000000568, -24.91666666666666785, 7.400000000000000355 ) ) ;
#341 = VECTOR ( 'NONE', #4, 1000.000000000000000 ) ;
#342 = FACE_OUTER_BOUND ( 'NONE', #154, .T. ) ;
#343 = FACE_OUTER_BOUND ( 'NONE', #115, .T. ) ;
#344 = FACE_OUTER_BOUND ( 'NONE', #148, .T. ) ;
#345 = ADVANCED_FACE ( 'NONE', ( #344 ), #133, .F. ) ;
#346 = DIRECTION ( 'NONE',  ( -1.000000000000000000, 0.000000000000000000, 0.000000000000000000 ) ) ;
#347 = ORIENTED_EDGE ( 'NONE', *, *, #349, .F. ) ;
#348 = PERSON_AND_ORGANIZATION ( #163, #339 ) ;
#349 = EDGE_CURVE ( 'NONE', #37, #127, #103, .T. ) ;
#350 = APPROVAL_DATE_TIME ( #236, #113 ) ;
#351 = CARTESIAN_POINT ( 'NONE',  ( -29.89999999999999147, 24.91666666666667140, 7.400000000000000355 ) ) ;
#352 = PLANE ( 'NONE',  #43 ) ;
#353 = CARTESIAN_POINT ( 'NONE',  ( -2.500000000000000444, -2.500000000000000444, 27.40000000000000213 ) ) ;
#354 = ORIENTED_EDGE ( 'NONE', *, *, #72, .T. ) ;
#355 = SHAPE_DEFINITION_REPRESENTATION ( #298, #313 ) ;
#356 = DIRECTION ( 'NONE',  ( 1.000000000000000000, 0.000000000000000000, 0.000000000000000000 ) ) ;
#357 = SECURITY_CLASSIFICATION ( '', '', #202 ) ;
#358 = ORIENTED_EDGE ( 'NONE', *, *, #107, .T. ) ;
#359 = AXIS2_PLACEMENT_3D ( 'NONE', #121, #207, #33 ) ;
#360 = CARTESIAN_POINT ( 'NONE',  ( -29.89999999999999147, -24.91666666666667140, 7.400000000000000355 ) ) ;
#361 = VERTEX_POINT ( 'NONE', #166 ) ;
#362 = CARTESIAN_POINT ( 'NONE',  ( 2.499999999999999556, 2.499999999999999556, 27.40000000000000213 ) ) ;
#363 = ADVANCED_FACE ( 'NONE', ( #343 ), #57, .F. ) ;
#364 = ORIENTED_EDGE ( 'NONE', *, *, #71, .T. ) ;
#365 = ORIENTED_EDGE ( 'NONE', *, *, #159, .F. ) ;
#366 = PRODUCT_RELATED_PRODUCT_CATEGORY ( 'detail', '', ( #167 ) ) ;
#367 = DATE_TIME_ROLE ( 'classification_date' ) ;
#368 = CARTESIAN_POINT ( 'NONE',  ( 29.90000000000000568, 24.91666666666667140, 7.400000000000000355 ) ) ;
#369 = APPROVAL ( #203, 'æœª' ) ;
#370 = LINE ( 'NONE', #110, #248 ) ;
#371 = VECTOR ( 'NONE', #58, 1000.000000000000000 ) ;
#372 = CARTESIAN_POINT ( 'NONE',  ( -2.500000000000000444, -2.500000000000000444, 27.40000000000000213 ) ) ;
#373 = ADVANCED_FACE ( 'NONE', ( #257 ), #352, .F. ) ;
#374 = AXIS2_PLACEMENT_3D ( 'NONE', #276, #73, #134 ) ;
#375 = LINE ( 'NONE', #19, #162 ) ;
#376 = MANIFOLD_SOLID_BREP ( '\X2\51f853f0\X0\-\X2\62c94f38\X0\2', #75 ) ;
#377 = COORDINATED_UNIVERSAL_TIME_OFFSET ( 8, 0, .AHEAD. ) ;
#378 = APPROVAL_PERSON_ORGANIZATION ( #55, #369, #172 ) ;
#379 = DIRECTION ( 'NONE',  ( 0.000000000000000000, 0.000000000000000000, 1.000000000000000000 ) ) ;
ENDSEC;
END-ISO-10303-21;
