ISO-10303-21;
HEADER;
FILE_DESCRIPTION (( 'STEP AP203' ),
    '1' );
FILE_NAME ('¸ôÀë°å1.STEP',
    '2026-05-07T05:41:13',
    ( '' ),
    ( '' ),
    'SwSTEP 2.0',
    'SolidWorks 2024',
    '' );
FILE_SCHEMA (( 'CONFIG_CONTROL_DESIGN' ));
ENDSEC;

DATA;
#1 = LINE ( 'NONE', #81, #228 ) ;
#2 = DIRECTION ( 'NONE',  ( 9.912705577010325549E-17, 0.000000000000000000, 1.000000000000000000 ) ) ;
#3 = APPLICATION_PROTOCOL_DEFINITION ( 'international standard', 'config_control_design', 1994, #214 ) ;
#4 = AXIS2_PLACEMENT_3D ( 'NONE', #149, #127, #144 ) ;
#5 = APPROVAL_STATUS ( 'not_yet_approved' ) ;
#6 = ADVANCED_FACE ( 'NONE', ( #108 ), #52, .F. ) ;
#7 = DATE_AND_TIME ( #189, #132 ) ;
#8 = COORDINATED_UNIVERSAL_TIME_OFFSET ( 8, 0, .AHEAD. ) ;
#9 = EDGE_LOOP ( 'NONE', ( #233, #208, #113, #28 ) ) ;
#10 = ORIENTED_EDGE ( 'NONE', *, *, #105, .F. ) ;
#11 = VECTOR ( 'NONE', #230, 1000.000000000000000 ) ;
#12 = CC_DESIGN_PERSON_AND_ORGANIZATION_ASSIGNMENT ( #25, #44, ( #226 ) ) ;
#13 = VERTEX_POINT ( 'NONE', #128 ) ;
#14 = ORIENTED_EDGE ( 'NONE', *, *, #194, .F. ) ;
#15 = APPROVAL ( #5, 'æœª' ) ;
#16 = VERTEX_POINT ( 'NONE', #158 ) ;
#17 = APPROVAL_PERSON_ORGANIZATION ( #225, #166, #173 ) ;
#18 = PERSON_AND_ORGANIZATION_ROLE ( 'design_owner' ) ;
#19 = EDGE_CURVE ( 'NONE', #13, #16, #129, .T. ) ;
#20 = FACE_OUTER_BOUND ( 'NONE', #216, .T. ) ;
#21 = DIRECTION ( 'NONE',  ( 1.000000000000000000, 0.000000000000000000, 0.000000000000000000 ) ) ;
#22 = EDGE_CURVE ( 'NONE', #231, #16, #197, .T. ) ;
#23 = DATE_AND_TIME ( #122, #176 ) ;
#24 = VECTOR ( 'NONE', #49, 1000.000000000000000 ) ;
#25 = PERSON_AND_ORGANIZATION ( #76, #223 ) ;
#26 = PERSON_AND_ORGANIZATION_ROLE ( 'design_supplier' ) ;
#27 = EDGE_LOOP ( 'NONE', ( #175, #217, #229, #107 ) ) ;
#28 = ORIENTED_EDGE ( 'NONE', *, *, #19, .T. ) ;
#29 = AXIS2_PLACEMENT_3D ( 'NONE', #203, #119, #83 ) ;
#30 = CC_DESIGN_PERSON_AND_ORGANIZATION_ASSIGNMENT ( #180, #18, ( #220 ) ) ;
#31 = VERTEX_POINT ( 'NONE', #148 ) ;
#32 = DIRECTION ( 'NONE',  ( 2.973811673103097665E-16, 0.000000000000000000, 1.000000000000000000 ) ) ;
#33 = FACE_OUTER_BOUND ( 'NONE', #47, .T. ) ;
#34 = UNCERTAINTY_MEASURE_WITH_UNIT (LENGTH_MEASURE( 1.000000000000000082E-05 ), #186, 'distance_accuracy_value', 'NONE');
#35 = FACE_OUTER_BOUND ( 'NONE', #94, .T. ) ;
#36 = ORIENTED_EDGE ( 'NONE', *, *, #194, .T. ) ;
#37 = AXIS2_PLACEMENT_3D ( 'NONE', #75, #50, #32 ) ;
#38 = CARTESIAN_POINT ( 'NONE',  ( -35.00000000000000000, 5.000000000000000000, -35.00000000000000000 ) ) ;
#39 =( NAMED_UNIT ( * ) SI_UNIT ( $, .STERADIAN. ) SOLID_ANGLE_UNIT ( ) );
#40 = ADVANCED_FACE ( 'NONE', ( #130 ), #195, .F. ) ;
#41 = DIRECTION ( 'NONE',  ( -1.000000000000000000, -0.000000000000000000, -0.000000000000000000 ) ) ;
#42 = AXIS2_PLACEMENT_3D ( 'NONE', #93, #51, #110 ) ;
#43 = CC_DESIGN_APPROVAL ( #166, ( #226 ) ) ;
#44 = PERSON_AND_ORGANIZATION_ROLE ( 'creator' ) ;
#45 = DATE_AND_TIME ( #139, #80 ) ;
#46 = SHAPE_DEFINITION_REPRESENTATION ( #170, #84 ) ;
#47 = EDGE_LOOP ( 'NONE', ( #36, #193, #140, #190 ) ) ;
#48 = ADVANCED_FACE ( 'NONE', ( #33 ), #146, .F. ) ;
#49 = DIRECTION ( 'NONE',  ( 1.000000000000000000, 0.000000000000000000, 0.000000000000000000 ) ) ;
#50 = DIRECTION ( 'NONE',  ( -1.000000000000000000, 0.000000000000000000, 2.973811673103097665E-16 ) ) ;
#51 = DIRECTION ( 'NONE',  ( 0.000000000000000000, 0.000000000000000000, -1.000000000000000000 ) ) ;
#52 = PLANE ( 'NONE',  #42 ) ;
#53 = DIRECTION ( 'NONE',  ( 9.912705577010325549E-17, 0.000000000000000000, 1.000000000000000000 ) ) ;
#54 = CARTESIAN_POINT ( 'NONE',  ( -35.00000000000000000, 5.000000000000000000, -35.00000000000000000 ) ) ;
#55 = VECTOR ( 'NONE', #53, 1000.000000000000000 ) ;
#56 = CC_DESIGN_APPROVAL ( #181, ( #92 ) ) ;
#57 = ADVANCED_FACE ( 'NONE', ( #35 ), #112, .F. ) ;
#58 = LINE ( 'NONE', #54, #90 ) ;
#59 = LINE ( 'NONE', #38, #141 ) ;
#60 = PRODUCT_RELATED_PRODUCT_CATEGORY ( 'detail', '', ( #220 ) ) ;
#61 = DIRECTION ( 'NONE',  ( -2.973811673103097665E-16, -0.000000000000000000, -1.000000000000000000 ) ) ;
#62 = AXIS2_PLACEMENT_3D ( 'NONE', #165, #201, #134 ) ;
#63 = DIRECTION ( 'NONE',  ( -1.000000000000000000, -0.000000000000000000, -0.000000000000000000 ) ) ;
#64 = DATE_TIME_ROLE ( 'creation_date' ) ;
#65 = CALENDAR_DATE ( 2026, 7, 5 ) ;
#66 = COORDINATED_UNIVERSAL_TIME_OFFSET ( 8, 0, .AHEAD. ) ;
#67 = ORIENTED_EDGE ( 'NONE', *, *, #121, .T. ) ;
#68 = COORDINATED_UNIVERSAL_TIME_OFFSET ( 8, 0, .AHEAD. ) ;
#69 = VECTOR ( 'NONE', #21, 1000.000000000000000 ) ;
#70 = EDGE_CURVE ( 'NONE', #13, #91, #211, .T. ) ;
#71 = CARTESIAN_POINT ( 'NONE',  ( -35.00000000000000000, 5.000000000000000000, -35.00000000000000000 ) ) ;
#72 = CARTESIAN_POINT ( 'NONE',  ( -35.00000000000000000, 0.000000000000000000, -35.00000000000000000 ) ) ;
#73 = ORIENTED_EDGE ( 'NONE', *, *, #105, .T. ) ;
#74 = CARTESIAN_POINT ( 'NONE',  ( 35.00000000000002132, 5.000000000000000000, 35.00000000000000000 ) ) ;
#75 = CARTESIAN_POINT ( 'NONE',  ( 35.00000000000000000, 5.000000000000000000, -35.00000000000000000 ) ) ;
#76 = PERSON ( 'æœª', 'æœª', 'æœª', ('æœª'), ('æœª'), ('æœª') ) ;
#77 = EDGE_CURVE ( 'NONE', #192, #31, #95, .T. ) ;
#78 = CARTESIAN_POINT ( 'NONE',  ( 35.00000000000000000, 5.000000000000000000, -35.00000000000000000 ) ) ;
#79 = VECTOR ( 'NONE', #200, 1000.000000000000000 ) ;
#80 = LOCAL_TIME ( 13, 41, 13.00000000000000000, #66 ) ;
#81 = CARTESIAN_POINT ( 'NONE',  ( 35.00000000000000000, 0.000000000000000000, -35.00000000000000000 ) ) ;
#82 = LINE ( 'NONE', #222, #183 ) ;
#83 = DIRECTION ( 'NONE',  ( 1.000000000000000000, 0.000000000000000000, 0.000000000000000000 ) ) ;
#84 = ADVANCED_BREP_SHAPE_REPRESENTATION ( '\X2\969479bb677f\X0\1', ( #143, #29 ), #85 ) ;
#85 =( GEOMETRIC_REPRESENTATION_CONTEXT ( 3 ) GLOBAL_UNCERTAINTY_ASSIGNED_CONTEXT ( ( #34 ) ) GLOBAL_UNIT_ASSIGNED_CONTEXT ( ( #186, #137, #39 ) ) REPRESENTATION_CONTEXT ( 'NONE', 'WORKASPACE' ) );
#86 = COORDINATED_UNIVERSAL_TIME_OFFSET ( 8, 0, .AHEAD. ) ;
#87 = PERSON_AND_ORGANIZATION ( #76, #223 ) ;
#88 = CC_DESIGN_PERSON_AND_ORGANIZATION_ASSIGNMENT ( #87, #155, ( #92 ) ) ;
#89 = SECURITY_CLASSIFICATION_LEVEL ( 'unclassified' ) ;
#90 = VECTOR ( 'NONE', #2, 1000.000000000000000 ) ;
#91 = VERTEX_POINT ( 'NONE', #74 ) ;
#92 = PRODUCT_DEFINITION_FORMATION_WITH_SPECIFIED_SOURCE ( 'ä»', '', #220, .NOT_KNOWN. ) ;
#93 = CARTESIAN_POINT ( 'NONE',  ( -34.99999999999999289, 5.000000000000000000, 35.00000000000000000 ) ) ;
#94 = EDGE_LOOP ( 'NONE', ( #14, #198, #125, #10 ) ) ;
#95 = LINE ( 'NONE', #162, #103 ) ;
#96 = ORIENTED_EDGE ( 'NONE', *, *, #199, .T. ) ;
#97 = FACE_OUTER_BOUND ( 'NONE', #161, .T. ) ;
#98 = EDGE_CURVE ( 'NONE', #91, #212, #151, .T. ) ;
#99 = CARTESIAN_POINT ( 'NONE',  ( -35.00000000000000000, 5.000000000000000000, -35.00000000000000000 ) ) ;
#100 = APPROVAL_PERSON_ORGANIZATION ( #104, #181, #172 ) ;
#101 = PLANE ( 'NONE',  #207 ) ;
#102 = DATE_TIME_ROLE ( 'classification_date' ) ;
#103 = VECTOR ( 'NONE', #234, 1000.000000000000000 ) ;
#104 = PERSON_AND_ORGANIZATION ( #76, #223 ) ;
#105 = EDGE_CURVE ( 'NONE', #31, #231, #82, .T. ) ;
#106 = DATE_AND_TIME ( #120, #210 ) ;
#107 = ORIENTED_EDGE ( 'NONE', *, *, #145, .T. ) ;
#108 = FACE_OUTER_BOUND ( 'NONE', #9, .T. ) ;
#109 = APPROVAL_PERSON_ORGANIZATION ( #171, #15, #123 ) ;
#110 = DIRECTION ( 'NONE',  ( -1.000000000000000000, 0.000000000000000000, -0.000000000000000000 ) ) ;
#111 = ADVANCED_FACE ( 'NONE', ( #97 ), #169, .F. ) ;
#112 = PLANE ( 'NONE',  #4 ) ;
#113 = ORIENTED_EDGE ( 'NONE', *, *, #70, .F. ) ;
#114 = ORIENTED_EDGE ( 'NONE', *, *, #145, .F. ) ;
#115 = DIRECTION ( 'NONE',  ( -2.973811673103097665E-16, -0.000000000000000000, -1.000000000000000000 ) ) ;
#116 = LINE ( 'NONE', #236, #69 ) ;
#117 = ADVANCED_FACE ( 'NONE', ( #20 ), #101, .T. ) ;
#118 = DIRECTION ( 'NONE',  ( 0.000000000000000000, 1.000000000000000000, 0.000000000000000000 ) ) ;
#119 = DIRECTION ( 'NONE',  ( 0.000000000000000000, 0.000000000000000000, 1.000000000000000000 ) ) ;
#120 = CALENDAR_DATE ( 2026, 7, 5 ) ;
#121 = EDGE_CURVE ( 'NONE', #192, #147, #59, .T. ) ;
#122 = CALENDAR_DATE ( 2026, 7, 5 ) ;
#123 = APPROVAL_ROLE ( '' ) ;
#124 = APPROVAL_DATE_TIME ( #209, #15 ) ;
#125 = ORIENTED_EDGE ( 'NONE', *, *, #22, .F. ) ;
#126 = CC_DESIGN_DATE_AND_TIME_ASSIGNMENT ( #23, #64, ( #226 ) ) ;
#127 = DIRECTION ( 'NONE',  ( 0.000000000000000000, 1.000000000000000000, 0.000000000000000000 ) ) ;
#128 = CARTESIAN_POINT ( 'NONE',  ( -34.99999999999999289, 5.000000000000000000, 35.00000000000000000 ) ) ;
#129 = LINE ( 'NONE', #160, #11 ) ;
#130 = FACE_OUTER_BOUND ( 'NONE', #27, .T. ) ;
#131 = DIRECTION ( 'NONE',  ( 0.000000000000000000, -0.000000000000000000, 1.000000000000000000 ) ) ;
#132 = LOCAL_TIME ( 13, 41, 13.00000000000000000, #8 ) ;
#133 = LINE ( 'NONE', #78, #215 ) ;
#134 = DIRECTION ( 'NONE',  ( 1.000000000000000000, 0.000000000000000000, -0.000000000000000000 ) ) ;
#135 = AXIS2_PLACEMENT_3D ( 'NONE', #71, #196, #179 ) ;
#136 = CC_DESIGN_APPROVAL ( #15, ( #218 ) ) ;
#137 =( NAMED_UNIT ( * ) PLANE_ANGLE_UNIT ( ) SI_UNIT ( $, .RADIAN. ) );
#138 = APPROVAL_DATE_TIME ( #7, #181 ) ;
#139 = CALENDAR_DATE ( 2026, 7, 5 ) ;
#140 = ORIENTED_EDGE ( 'NONE', *, *, #205, .F. ) ;
#141 = VECTOR ( 'NONE', #63, 1000.000000000000000 ) ;
#142 = CC_DESIGN_SECURITY_CLASSIFICATION ( #218, ( #92 ) ) ;
#143 = MANIFOLD_SOLID_BREP ( '\X2\51f853f0\X0\-\X2\62c94f38\X0\1', #159 ) ;
#144 = DIRECTION ( 'NONE',  ( 0.000000000000000000, -0.000000000000000000, 1.000000000000000000 ) ) ;
#145 = EDGE_CURVE ( 'NONE', #147, #231, #224, .T. ) ;
#146 = PLANE ( 'NONE',  #37 ) ;
#147 = VERTEX_POINT ( 'NONE', #153 ) ;
#148 = CARTESIAN_POINT ( 'NONE',  ( 35.00000000000000000, 0.000000000000000000, -35.00000000000000000 ) ) ;
#149 = CARTESIAN_POINT ( 'NONE',  ( 0.000000000000000000, 0.000000000000000000, 0.000000000000000000 ) ) ;
#150 = APPLICATION_PROTOCOL_DEFINITION ( 'international standard', 'config_control_design', 1994, #202 ) ;
#151 = LINE ( 'NONE', #237, #79 ) ;
#152 = CC_DESIGN_PERSON_AND_ORGANIZATION_ASSIGNMENT ( #206, #26, ( #92 ) ) ;
#153 = CARTESIAN_POINT ( 'NONE',  ( -35.00000000000000000, 5.000000000000000000, -35.00000000000000000 ) ) ;
#154 = APPROVAL_STATUS ( 'not_yet_approved' ) ;
#155 = PERSON_AND_ORGANIZATION_ROLE ( 'creator' ) ;
#156 = ORIENTED_EDGE ( 'NONE', *, *, #70, .T. ) ;
#157 = APPROVAL_STATUS ( 'not_yet_approved' ) ;
#158 = CARTESIAN_POINT ( 'NONE',  ( -34.99999999999999289, 0.000000000000000000, 35.00000000000000000 ) ) ;
#159 = CLOSED_SHELL ( 'NONE', ( #48, #111, #40, #6, #117, #57 ) ) ;
#160 = CARTESIAN_POINT ( 'NONE',  ( -34.99999999999999289, 5.000000000000000000, 35.00000000000000000 ) ) ;
#161 = EDGE_LOOP ( 'NONE', ( #73, #114, #213, #177 ) ) ;
#162 = CARTESIAN_POINT ( 'NONE',  ( 35.00000000000000000, 5.000000000000000000, -35.00000000000000000 ) ) ;
#163 = ORIENTED_EDGE ( 'NONE', *, *, #205, .T. ) ;
#164 = CARTESIAN_POINT ( 'NONE',  ( 35.00000000000002132, 0.000000000000000000, 35.00000000000000000 ) ) ;
#165 = CARTESIAN_POINT ( 'NONE',  ( -35.00000000000000000, 5.000000000000000000, -35.00000000000000000 ) ) ;
#166 = APPROVAL ( #154, 'æœª' ) ;
#167 = VECTOR ( 'NONE', #184, 1000.000000000000000 ) ;
#168 = CARTESIAN_POINT ( 'NONE',  ( 0.000000000000000000, 5.000000000000000000, 0.000000000000000000 ) ) ;
#169 = PLANE ( 'NONE',  #62 ) ;
#170 = PRODUCT_DEFINITION_SHAPE ( 'NONE', 'NONE',  #226 ) ;
#171 = PERSON_AND_ORGANIZATION ( #76, #223 ) ;
#172 = APPROVAL_ROLE ( '' ) ;
#173 = APPROVAL_ROLE ( '' ) ;
#174 = EDGE_CURVE ( 'NONE', #16, #212, #116, .T. ) ;
#175 = ORIENTED_EDGE ( 'NONE', *, *, #22, .T. ) ;
#176 = LOCAL_TIME ( 13, 41, 13.00000000000000000, #204 ) ;
#177 = ORIENTED_EDGE ( 'NONE', *, *, #77, .T. ) ;
#178 = CARTESIAN_POINT ( 'NONE',  ( -34.99999999999999289, 5.000000000000000000, 35.00000000000000000 ) ) ;
#179 = DIRECTION ( 'NONE',  ( -9.912705577010325549E-17, 0.000000000000000000, -1.000000000000000000 ) ) ;
#180 = PERSON_AND_ORGANIZATION ( #76, #223 ) ;
#181 = APPROVAL ( #157, 'æœª' ) ;
#182 = CARTESIAN_POINT ( 'NONE',  ( -35.00000000000000000, 0.000000000000000000, -35.00000000000000000 ) ) ;
#183 = VECTOR ( 'NONE', #41, 1000.000000000000000 ) ;
#184 = DIRECTION ( 'NONE',  ( -0.000000000000000000, -1.000000000000000000, -0.000000000000000000 ) ) ;
#185 = LOCAL_TIME ( 13, 41, 13.00000000000000000, #68 ) ;
#186 =( LENGTH_UNIT ( ) NAMED_UNIT ( * ) SI_UNIT ( .MILLI., .METRE. ) );
#187 = PERSON_AND_ORGANIZATION ( #76, #223 ) ;
#188 = APPROVAL_DATE_TIME ( #106, #166 ) ;
#189 = CALENDAR_DATE ( 2026, 7, 5 ) ;
#190 = ORIENTED_EDGE ( 'NONE', *, *, #98, .T. ) ;
#191 = CC_DESIGN_DATE_AND_TIME_ASSIGNMENT ( #45, #102, ( #218 ) ) ;
#192 = VERTEX_POINT ( 'NONE', #219 ) ;
#193 = ORIENTED_EDGE ( 'NONE', *, *, #77, .F. ) ;
#194 = EDGE_CURVE ( 'NONE', #212, #31, #1, .T. ) ;
#195 = PLANE ( 'NONE',  #135 ) ;
#196 = DIRECTION ( 'NONE',  ( 1.000000000000000000, 0.000000000000000000, -9.912705577010325549E-17 ) ) ;
#197 = LINE ( 'NONE', #72, #55 ) ;
#198 = ORIENTED_EDGE ( 'NONE', *, *, #174, .F. ) ;
#199 = EDGE_CURVE ( 'NONE', #147, #13, #58, .T. ) ;
#200 = DIRECTION ( 'NONE',  ( -0.000000000000000000, -1.000000000000000000, -0.000000000000000000 ) ) ;
#201 = DIRECTION ( 'NONE',  ( 0.000000000000000000, 0.000000000000000000, 1.000000000000000000 ) ) ;
#202 = APPLICATION_CONTEXT ( 'configuration controlled 3d designs of mechanical parts and assemblies' ) ;
#203 = CARTESIAN_POINT ( 'NONE',  ( 0.000000000000000000, 0.000000000000000000, 0.000000000000000000 ) ) ;
#204 = COORDINATED_UNIVERSAL_TIME_OFFSET ( 8, 0, .AHEAD. ) ;
#205 = EDGE_CURVE ( 'NONE', #91, #192, #133, .T. ) ;
#206 = PERSON_AND_ORGANIZATION ( #76, #223 ) ;
#207 = AXIS2_PLACEMENT_3D ( 'NONE', #168, #118, #131 ) ;
#208 = ORIENTED_EDGE ( 'NONE', *, *, #98, .F. ) ;
#209 = DATE_AND_TIME ( #65, #185 ) ;
#210 = LOCAL_TIME ( 13, 41, 13.00000000000000000, #86 ) ;
#211 = LINE ( 'NONE', #178, #24 ) ;
#212 = VERTEX_POINT ( 'NONE', #164 ) ;
#213 = ORIENTED_EDGE ( 'NONE', *, *, #121, .F. ) ;
#214 = APPLICATION_CONTEXT ( 'configuration controlled 3d designs of mechanical parts and assemblies' ) ;
#215 = VECTOR ( 'NONE', #115, 1000.000000000000000 ) ;
#216 = EDGE_LOOP ( 'NONE', ( #163, #67, #96, #156 ) ) ;
#217 = ORIENTED_EDGE ( 'NONE', *, *, #19, .F. ) ;
#218 = SECURITY_CLASSIFICATION ( '', '', #89 ) ;
#219 = CARTESIAN_POINT ( 'NONE',  ( 35.00000000000000000, 5.000000000000000000, -35.00000000000000000 ) ) ;
#220 = PRODUCT ( '\X2\969479bb677f\X0\1', '\X2\969479bb677f\X0\1', '', ( #221 ) ) ;
#221 = MECHANICAL_CONTEXT ( 'NONE', #214, 'mechanical' ) ;
#222 = CARTESIAN_POINT ( 'NONE',  ( -35.00000000000000000, 0.000000000000000000, -35.00000000000000000 ) ) ;
#223 = ORGANIZATION ( 'æœª', 'æœª', '' ) ;
#224 = LINE ( 'NONE', #99, #167 ) ;
#225 = PERSON_AND_ORGANIZATION ( #76, #223 ) ;
#226 = PRODUCT_DEFINITION ( 'æœ', '', #92, #235 ) ;
#227 = PERSON_AND_ORGANIZATION_ROLE ( 'classification_officer' ) ;
#228 = VECTOR ( 'NONE', #61, 1000.000000000000000 ) ;
#229 = ORIENTED_EDGE ( 'NONE', *, *, #199, .F. ) ;
#230 = DIRECTION ( 'NONE',  ( -0.000000000000000000, -1.000000000000000000, -0.000000000000000000 ) ) ;
#231 = VERTEX_POINT ( 'NONE', #182 ) ;
#232 = CC_DESIGN_PERSON_AND_ORGANIZATION_ASSIGNMENT ( #187, #227, ( #218 ) ) ;
#233 = ORIENTED_EDGE ( 'NONE', *, *, #174, .T. ) ;
#234 = DIRECTION ( 'NONE',  ( -0.000000000000000000, -1.000000000000000000, -0.000000000000000000 ) ) ;
#235 = DESIGN_CONTEXT ( 'detailed design', #202, 'design' ) ;
#236 = CARTESIAN_POINT ( 'NONE',  ( -34.99999999999999289, 0.000000000000000000, 35.00000000000000000 ) ) ;
#237 = CARTESIAN_POINT ( 'NONE',  ( 35.00000000000002132, 5.000000000000000000, 35.00000000000000000 ) ) ;
ENDSEC;
END-ISO-10303-21;
