ISO-10303-21;
HEADER;
FILE_DESCRIPTION (( 'STEP AP203' ),
    '1' );
FILE_NAME ('¸ôÀë°å2.STEP',
    '2026-05-07T05:42:11',
    ( '' ),
    ( '' ),
    'SwSTEP 2.0',
    'SolidWorks 2024',
    '' );
FILE_SCHEMA (( 'CONFIG_CONTROL_DESIGN' ));
ENDSEC;

DATA;
#1 = CARTESIAN_POINT ( 'NONE',  ( -35.00000000000000000, 0.000000000000000000, 40.00000000000002132 ) ) ;
#2 = DIRECTION ( 'NONE',  ( -2.602085213965210642E-16, -0.000000000000000000, -1.000000000000000000 ) ) ;
#3 = CARTESIAN_POINT ( 'NONE',  ( -35.00000000000000711, 0.000000000000000000, -39.99999999999997868 ) ) ;
#4 = CC_DESIGN_APPROVAL ( #44, ( #8 ) ) ;
#5 = CARTESIAN_POINT ( 'NONE',  ( 35.00000000000001421, 5.000000000000000000, 40.00000000000002132 ) ) ;
#6 = CARTESIAN_POINT ( 'NONE',  ( 34.99999999999999289, 5.000000000000000000, -39.99999999999997868 ) ) ;
#7 = DIRECTION ( 'NONE',  ( -2.602085213965210642E-16, -0.000000000000000000, -1.000000000000000000 ) ) ;
#8 = PRODUCT_DEFINITION ( 'æœ', '', #101, #90 ) ;
#9 = CALENDAR_DATE ( 2026, 7, 5 ) ;
#10 = COORDINATED_UNIVERSAL_TIME_OFFSET ( 8, 0, .AHEAD. ) ;
#11 = FACE_OUTER_BOUND ( 'NONE', #198, .T. ) ;
#12 = LINE ( 'NONE', #1, #126 ) ;
#13 = VECTOR ( 'NONE', #100, 1000.000000000000000 ) ;
#14 = CARTESIAN_POINT ( 'NONE',  ( -35.00000000000000711, 5.000000000000000000, -39.99999999999997868 ) ) ;
#15 = DIRECTION ( 'NONE',  ( -0.000000000000000000, -1.000000000000000000, -0.000000000000000000 ) ) ;
#16 = CC_DESIGN_DATE_AND_TIME_ASSIGNMENT ( #28, #86, ( #36 ) ) ;
#17 = CARTESIAN_POINT ( 'NONE',  ( -35.00000000000000000, 0.000000000000000000, 40.00000000000002132 ) ) ;
#18 = AXIS2_PLACEMENT_3D ( 'NONE', #151, #91, #185 ) ;
#19 = CARTESIAN_POINT ( 'NONE',  ( -35.00000000000000711, 5.000000000000000000, -39.99999999999997868 ) ) ;
#20 = APPLICATION_PROTOCOL_DEFINITION ( 'international standard', 'config_control_design', 1994, #155 ) ;
#21 = APPLICATION_PROTOCOL_DEFINITION ( 'international standard', 'config_control_design', 1994, #195 ) ;
#22 = DIRECTION ( 'NONE',  ( 1.000000000000000000, 0.000000000000000000, 0.000000000000000000 ) ) ;
#23 = ORIENTED_EDGE ( 'NONE', *, *, #174, .T. ) ;
#24 = LOCAL_TIME ( 13, 42, 11.00000000000000000, #10 ) ;
#25 = DATE_AND_TIME ( #181, #130 ) ;
#26 = VERTEX_POINT ( 'NONE', #17 ) ;
#27 = PERSON_AND_ORGANIZATION ( #163, #182 ) ;
#28 = DATE_AND_TIME ( #105, #38 ) ;
#29 = CC_DESIGN_PERSON_AND_ORGANIZATION_ASSIGNMENT ( #84, #47, ( #101 ) ) ;
#30 = ORIENTED_EDGE ( 'NONE', *, *, #145, .F. ) ;
#31 = SECURITY_CLASSIFICATION_LEVEL ( 'unclassified' ) ;
#32 = DIRECTION ( 'NONE',  ( 8.673617379884035472E-17, 0.000000000000000000, 1.000000000000000000 ) ) ;
#33 = AXIS2_PLACEMENT_3D ( 'NONE', #176, #189, #85 ) ;
#34 = EDGE_CURVE ( 'NONE', #110, #109, #54, .T. ) ;
#35 = ORIENTED_EDGE ( 'NONE', *, *, #34, .F. ) ;
#36 = SECURITY_CLASSIFICATION ( '', '', #31 ) ;
#37 = LINE ( 'NONE', #173, #138 ) ;
#38 = LOCAL_TIME ( 13, 42, 11.00000000000000000, #233 ) ;
#39 = LINE ( 'NONE', #14, #175 ) ;
#40 = CARTESIAN_POINT ( 'NONE',  ( 34.99999999999999289, 0.000000000000000000, -39.99999999999997868 ) ) ;
#41 = CARTESIAN_POINT ( 'NONE',  ( 35.00000000000001421, 5.000000000000000000, 40.00000000000002132 ) ) ;
#42 = LINE ( 'NONE', #5, #153 ) ;
#43 = DIRECTION ( 'NONE',  ( 0.000000000000000000, 0.000000000000000000, 1.000000000000000000 ) ) ;
#44 = APPROVAL ( #227, 'æœª' ) ;
#45 = ORIENTED_EDGE ( 'NONE', *, *, #136, .F. ) ;
#46 = AXIS2_PLACEMENT_3D ( 'NONE', #77, #135, #139 ) ;
#47 = PERSON_AND_ORGANIZATION_ROLE ( 'creator' ) ;
#48 = PERSON_AND_ORGANIZATION ( #163, #182 ) ;
#49 = ADVANCED_FACE ( 'NONE', ( #11 ), #211, .F. ) ;
#50 = ORIENTED_EDGE ( 'NONE', *, *, #136, .T. ) ;
#51 = CALENDAR_DATE ( 2026, 7, 5 ) ;
#52 = FACE_OUTER_BOUND ( 'NONE', #224, .T. ) ;
#53 = CARTESIAN_POINT ( 'NONE',  ( -35.00000000000000000, 5.000000000000000000, 40.00000000000002132 ) ) ;
#54 = LINE ( 'NONE', #3, #94 ) ;
#55 = ORIENTED_EDGE ( 'NONE', *, *, #87, .T. ) ;
#56 = EDGE_CURVE ( 'NONE', #66, #109, #39, .T. ) ;
#57 = LOCAL_TIME ( 13, 42, 11.00000000000000000, #167 ) ;
#58 = ORIENTED_EDGE ( 'NONE', *, *, #87, .F. ) ;
#59 = PERSON_AND_ORGANIZATION_ROLE ( 'creator' ) ;
#60 = PLANE ( 'NONE',  #121 ) ;
#61 = DIRECTION ( 'NONE',  ( -1.000000000000000000, 0.000000000000000000, -0.000000000000000000 ) ) ;
#62 = ADVANCED_FACE ( 'NONE', ( #127 ), #154, .F. ) ;
#63 = EDGE_LOOP ( 'NONE', ( #112, #128, #23, #200 ) ) ;
#64 = CLOSED_SHELL ( 'NONE', ( #83, #49, #62, #168, #78, #133 ) ) ;
#65 = PERSON_AND_ORGANIZATION ( #163, #182 ) ;
#66 = VERTEX_POINT ( 'NONE', #237 ) ;
#67 = ORIENTED_EDGE ( 'NONE', *, *, #74, .F. ) ;
#68 = ORIENTED_EDGE ( 'NONE', *, *, #164, .F. ) ;
#69 = APPROVAL_PERSON_ORGANIZATION ( #89, #190, #148 ) ;
#70 = DATE_AND_TIME ( #9, #57 ) ;
#71 = LINE ( 'NONE', #93, #159 ) ;
#72 = DIRECTION ( 'NONE',  ( 1.000000000000000000, 0.000000000000000000, 0.000000000000000000 ) ) ;
#73 = FACE_OUTER_BOUND ( 'NONE', #102, .T. ) ;
#74 = EDGE_CURVE ( 'NONE', #109, #26, #204, .T. ) ;
#75 = DIRECTION ( 'NONE',  ( -1.000000000000000000, -0.000000000000000000, -0.000000000000000000 ) ) ;
#76 = DIRECTION ( 'NONE',  ( -0.000000000000000000, -1.000000000000000000, -0.000000000000000000 ) ) ;
#77 = CARTESIAN_POINT ( 'NONE',  ( 0.000000000000000000, 0.000000000000000000, 0.000000000000000000 ) ) ;
#78 = ADVANCED_FACE ( 'NONE', ( #166 ), #202, .T. ) ;
#79 = DIRECTION ( 'NONE',  ( -0.000000000000000000, -1.000000000000000000, -0.000000000000000000 ) ) ;
#80 = FACE_OUTER_BOUND ( 'NONE', #232, .T. ) ;
#81 = CC_DESIGN_APPROVAL ( #219, ( #36 ) ) ;
#82 = DIRECTION ( 'NONE',  ( -1.000000000000000000, -0.000000000000000000, -0.000000000000000000 ) ) ;
#83 = ADVANCED_FACE ( 'NONE', ( #52 ), #169, .F. ) ;
#84 = PERSON_AND_ORGANIZATION ( #163, #182 ) ;
#85 = DIRECTION ( 'NONE',  ( 1.000000000000000000, 0.000000000000000000, -0.000000000000000000 ) ) ;
#86 = DATE_TIME_ROLE ( 'classification_date' ) ;
#87 = EDGE_CURVE ( 'NONE', #26, #216, #12, .T. ) ;
#88 = DIRECTION ( 'NONE',  ( 1.000000000000000000, 0.000000000000000000, 0.000000000000000000 ) ) ;
#89 = PERSON_AND_ORGANIZATION ( #163, #182 ) ;
#90 = DESIGN_CONTEXT ( 'detailed design', #195, 'design' ) ;
#91 = DIRECTION ( 'NONE',  ( 0.000000000000000000, 1.000000000000000000, 0.000000000000000000 ) ) ;
#92 = CC_DESIGN_SECURITY_CLASSIFICATION ( #36, ( #101 ) ) ;
#93 = CARTESIAN_POINT ( 'NONE',  ( -35.00000000000000000, 5.000000000000000000, 40.00000000000002132 ) ) ;
#94 = VECTOR ( 'NONE', #75, 1000.000000000000000 ) ;
#95 = ORIENTED_EDGE ( 'NONE', *, *, #120, .F. ) ;
#96 = CARTESIAN_POINT ( 'NONE',  ( -35.00000000000000711, 5.000000000000000000, -39.99999999999997868 ) ) ;
#97 = CARTESIAN_POINT ( 'NONE',  ( 35.00000000000001421, 0.000000000000000000, 40.00000000000002132 ) ) ;
#98 = EDGE_CURVE ( 'NONE', #114, #236, #71, .T. ) ;
#99 = APPROVAL_ROLE ( '' ) ;
#100 = DIRECTION ( 'NONE',  ( -0.000000000000000000, -1.000000000000000000, -0.000000000000000000 ) ) ;
#101 = PRODUCT_DEFINITION_FORMATION_WITH_SPECIFIED_SOURCE ( 'ä»', '', #122, .NOT_KNOWN. ) ;
#102 = EDGE_LOOP ( 'NONE', ( #45, #58, #67, #35 ) ) ;
#103 = CC_DESIGN_PERSON_AND_ORGANIZATION_ASSIGNMENT ( #27, #184, ( #36 ) ) ;
#104 = PRODUCT_DEFINITION_SHAPE ( 'NONE', 'NONE',  #8 ) ;
#105 = CALENDAR_DATE ( 2026, 7, 5 ) ;
#106 = ORIENTED_EDGE ( 'NONE', *, *, #34, .T. ) ;
#107 = CARTESIAN_POINT ( 'NONE',  ( -35.00000000000000711, 5.000000000000000000, -39.99999999999997868 ) ) ;
#108 = DATE_AND_TIME ( #141, #113 ) ;
#109 = VERTEX_POINT ( 'NONE', #149 ) ;
#110 = VERTEX_POINT ( 'NONE', #222 ) ;
#111 = VECTOR ( 'NONE', #76, 1000.000000000000000 ) ;
#112 = ORIENTED_EDGE ( 'NONE', *, *, #120, .T. ) ;
#113 = LOCAL_TIME ( 13, 42, 11.00000000000000000, #234 ) ;
#114 = VERTEX_POINT ( 'NONE', #53 ) ;
#115 = PERSON_AND_ORGANIZATION ( #163, #182 ) ;
#116 = LINE ( 'NONE', #19, #210 ) ;
#117 = LINE ( 'NONE', #96, #170 ) ;
#118 = CARTESIAN_POINT ( 'NONE',  ( -35.00000000000000000, 5.000000000000000000, 40.00000000000002132 ) ) ;
#119 = ORIENTED_EDGE ( 'NONE', *, *, #150, .T. ) ;
#120 = EDGE_CURVE ( 'NONE', #236, #144, #37, .T. ) ;
#121 = AXIS2_PLACEMENT_3D ( 'NONE', #213, #212, #61 ) ;
#122 = PRODUCT ( '\X2\969479bb677f\X0\2', '\X2\969479bb677f\X0\2', '', ( #215 ) ) ;
#123 = DATE_AND_TIME ( #51, #24 ) ;
#124 = DIRECTION ( 'NONE',  ( -1.000000000000000000, 0.000000000000000000, 2.602085213965210642E-16 ) ) ;
#125 = EDGE_LOOP ( 'NONE', ( #223, #192, #187, #206 ) ) ;
#126 = VECTOR ( 'NONE', #88, 1000.000000000000000 ) ;
#127 = FACE_OUTER_BOUND ( 'NONE', #125, .T. ) ;
#128 = ORIENTED_EDGE ( 'NONE', *, *, #145, .T. ) ;
#129 = PRODUCT_RELATED_PRODUCT_CATEGORY ( 'detail', '', ( #122 ) ) ;
#130 = LOCAL_TIME ( 13, 42, 11.00000000000000000, #194 ) ;
#131 = CARTESIAN_POINT ( 'NONE',  ( 0.000000000000000000, 0.000000000000000000, 0.000000000000000000 ) ) ;
#132 = MANIFOLD_SOLID_BREP ( '\X2\51f853f0\X0\-\X2\62c94f38\X0\1', #64 ) ;
#133 = ADVANCED_FACE ( 'NONE', ( #73 ), #152, .F. ) ;
#134 = LINE ( 'NONE', #40, #199 ) ;
#135 = DIRECTION ( 'NONE',  ( 0.000000000000000000, 1.000000000000000000, 0.000000000000000000 ) ) ;
#136 = EDGE_CURVE ( 'NONE', #216, #110, #134, .T. ) ;
#137 = ORIENTED_EDGE ( 'NONE', *, *, #197, .T. ) ;
#138 = VECTOR ( 'NONE', #2, 1000.000000000000000 ) ;
#139 = DIRECTION ( 'NONE',  ( 0.000000000000000000, -0.000000000000000000, 1.000000000000000000 ) ) ;
#140 = ORIENTED_EDGE ( 'NONE', *, *, #56, .F. ) ;
#141 = CALENDAR_DATE ( 2026, 7, 5 ) ;
#142 =( GEOMETRIC_REPRESENTATION_CONTEXT ( 3 ) GLOBAL_UNCERTAINTY_ASSIGNED_CONTEXT ( ( #209 ) ) GLOBAL_UNIT_ASSIGNED_CONTEXT ( ( #196, #228, #178 ) ) REPRESENTATION_CONTEXT ( 'NONE', 'WORKASPACE' ) );
#143 = APPROVAL_DATE_TIME ( #108, #219 ) ;
#144 = VERTEX_POINT ( 'NONE', #6 ) ;
#145 = EDGE_CURVE ( 'NONE', #144, #66, #116, .T. ) ;
#146 = DIRECTION ( 'NONE',  ( -8.673617379884035472E-17, 0.000000000000000000, -1.000000000000000000 ) ) ;
#147 = CC_DESIGN_APPROVAL ( #190, ( #101 ) ) ;
#148 = APPROVAL_ROLE ( '' ) ;
#149 = CARTESIAN_POINT ( 'NONE',  ( -35.00000000000000711, 0.000000000000000000, -39.99999999999997868 ) ) ;
#150 = EDGE_CURVE ( 'NONE', #144, #110, #229, .T. ) ;
#151 = CARTESIAN_POINT ( 'NONE',  ( 0.000000000000000000, 5.000000000000000000, 0.000000000000000000 ) ) ;
#152 = PLANE ( 'NONE',  #46 ) ;
#153 = VECTOR ( 'NONE', #79, 1000.000000000000000 ) ;
#154 = PLANE ( 'NONE',  #205 ) ;
#155 = APPLICATION_CONTEXT ( 'configuration controlled 3d designs of mechanical parts and assemblies' ) ;
#156 = PERSON_AND_ORGANIZATION ( #163, #182 ) ;
#157 = LINE ( 'NONE', #118, #111 ) ;
#158 = PERSON_AND_ORGANIZATION_ROLE ( 'design_owner' ) ;
#159 = VECTOR ( 'NONE', #72, 1000.000000000000000 ) ;
#160 = PERSON_AND_ORGANIZATION ( #163, #182 ) ;
#161 = ORIENTED_EDGE ( 'NONE', *, *, #164, .T. ) ;
#162 = PERSON_AND_ORGANIZATION_ROLE ( 'design_supplier' ) ;
#163 = PERSON ( 'æœª', 'æœª', 'æœª', ('æœª'), ('æœª'), ('æœª') ) ;
#164 = EDGE_CURVE ( 'NONE', #236, #216, #42, .T. ) ;
#165 = APPROVAL_DATE_TIME ( #70, #190 ) ;
#166 = FACE_OUTER_BOUND ( 'NONE', #63, .T. ) ;
#167 = COORDINATED_UNIVERSAL_TIME_OFFSET ( 8, 0, .AHEAD. ) ;
#168 = ADVANCED_FACE ( 'NONE', ( #80 ), #60, .F. ) ;
#169 = PLANE ( 'NONE',  #231 ) ;
#170 = VECTOR ( 'NONE', #177, 1000.000000000000000 ) ;
#171 = APPROVAL_STATUS ( 'not_yet_approved' ) ;
#172 = DIRECTION ( 'NONE',  ( 2.602085213965210642E-16, 0.000000000000000000, 1.000000000000000000 ) ) ;
#173 = CARTESIAN_POINT ( 'NONE',  ( 34.99999999999999289, 5.000000000000000000, -39.99999999999997868 ) ) ;
#174 = EDGE_CURVE ( 'NONE', #66, #114, #117, .T. ) ;
#175 = VECTOR ( 'NONE', #15, 1000.000000000000000 ) ;
#176 = CARTESIAN_POINT ( 'NONE',  ( -35.00000000000000711, 5.000000000000000000, -39.99999999999997868 ) ) ;
#177 = DIRECTION ( 'NONE',  ( 8.673617379884035472E-17, 0.000000000000000000, 1.000000000000000000 ) ) ;
#178 =( NAMED_UNIT ( * ) SI_UNIT ( $, .STERADIAN. ) SOLID_ANGLE_UNIT ( ) );
#179 = ORIENTED_EDGE ( 'NONE', *, *, #98, .F. ) ;
#180 = CC_DESIGN_PERSON_AND_ORGANIZATION_ASSIGNMENT ( #115, #158, ( #122 ) ) ;
#181 = CALENDAR_DATE ( 2026, 7, 5 ) ;
#182 = ORGANIZATION ( 'æœª', 'æœª', '' ) ;
#183 = APPROVAL_DATE_TIME ( #25, #44 ) ;
#184 = PERSON_AND_ORGANIZATION_ROLE ( 'classification_officer' ) ;
#185 = DIRECTION ( 'NONE',  ( 0.000000000000000000, -0.000000000000000000, 1.000000000000000000 ) ) ;
#186 = CC_DESIGN_PERSON_AND_ORGANIZATION_ASSIGNMENT ( #160, #59, ( #8 ) ) ;
#187 = ORIENTED_EDGE ( 'NONE', *, *, #174, .F. ) ;
#188 = ORIENTED_EDGE ( 'NONE', *, *, #150, .F. ) ;
#189 = DIRECTION ( 'NONE',  ( 0.000000000000000000, 0.000000000000000000, 1.000000000000000000 ) ) ;
#190 = APPROVAL ( #203, 'æœª' ) ;
#191 = APPROVAL_PERSON_ORGANIZATION ( #48, #219, #201 ) ;
#192 = ORIENTED_EDGE ( 'NONE', *, *, #197, .F. ) ;
#193 = VECTOR ( 'NONE', #32, 1000.000000000000000 ) ;
#194 = COORDINATED_UNIVERSAL_TIME_OFFSET ( 8, 0, .AHEAD. ) ;
#195 = APPLICATION_CONTEXT ( 'configuration controlled 3d designs of mechanical parts and assemblies' ) ;
#196 =( LENGTH_UNIT ( ) NAMED_UNIT ( * ) SI_UNIT ( .MILLI., .METRE. ) );
#197 = EDGE_CURVE ( 'NONE', #114, #26, #157, .T. ) ;
#198 = EDGE_LOOP ( 'NONE', ( #106, #140, #30, #119 ) ) ;
#199 = VECTOR ( 'NONE', #7, 1000.000000000000000 ) ;
#200 = ORIENTED_EDGE ( 'NONE', *, *, #98, .T. ) ;
#201 = APPROVAL_ROLE ( '' ) ;
#202 = PLANE ( 'NONE',  #18 ) ;
#203 = APPROVAL_STATUS ( 'not_yet_approved' ) ;
#204 = LINE ( 'NONE', #220, #193 ) ;
#205 = AXIS2_PLACEMENT_3D ( 'NONE', #107, #226, #146 ) ;
#206 = ORIENTED_EDGE ( 'NONE', *, *, #56, .T. ) ;
#207 = CARTESIAN_POINT ( 'NONE',  ( 34.99999999999999289, 5.000000000000000000, -39.99999999999997868 ) ) ;
#208 = ADVANCED_BREP_SHAPE_REPRESENTATION ( '\X2\969479bb677f\X0\2', ( #132, #225 ), #142 ) ;
#209 = UNCERTAINTY_MEASURE_WITH_UNIT (LENGTH_MEASURE( 1.000000000000000082E-05 ), #196, 'distance_accuracy_value', 'NONE');
#210 = VECTOR ( 'NONE', #82, 1000.000000000000000 ) ;
#211 = PLANE ( 'NONE',  #33 ) ;
#212 = DIRECTION ( 'NONE',  ( 0.000000000000000000, 0.000000000000000000, -1.000000000000000000 ) ) ;
#213 = CARTESIAN_POINT ( 'NONE',  ( -35.00000000000000000, 5.000000000000000000, 40.00000000000002132 ) ) ;
#214 = CARTESIAN_POINT ( 'NONE',  ( 34.99999999999999289, 5.000000000000000000, -39.99999999999997868 ) ) ;
#215 = MECHANICAL_CONTEXT ( 'NONE', #155, 'mechanical' ) ;
#216 = VERTEX_POINT ( 'NONE', #97 ) ;
#217 = APPROVAL_PERSON_ORGANIZATION ( #156, #44, #99 ) ;
#218 = SHAPE_DEFINITION_REPRESENTATION ( #104, #208 ) ;
#219 = APPROVAL ( #171, 'æœª' ) ;
#220 = CARTESIAN_POINT ( 'NONE',  ( -35.00000000000000711, 0.000000000000000000, -39.99999999999997868 ) ) ;
#221 = DATE_TIME_ROLE ( 'creation_date' ) ;
#222 = CARTESIAN_POINT ( 'NONE',  ( 34.99999999999999289, 0.000000000000000000, -39.99999999999997868 ) ) ;
#223 = ORIENTED_EDGE ( 'NONE', *, *, #74, .T. ) ;
#224 = EDGE_LOOP ( 'NONE', ( #50, #188, #95, #161 ) ) ;
#225 = AXIS2_PLACEMENT_3D ( 'NONE', #131, #43, #22 ) ;
#226 = DIRECTION ( 'NONE',  ( 1.000000000000000000, 0.000000000000000000, -8.673617379884035472E-17 ) ) ;
#227 = APPROVAL_STATUS ( 'not_yet_approved' ) ;
#228 =( NAMED_UNIT ( * ) PLANE_ANGLE_UNIT ( ) SI_UNIT ( $, .RADIAN. ) );
#229 = LINE ( 'NONE', #214, #13 ) ;
#230 = CC_DESIGN_DATE_AND_TIME_ASSIGNMENT ( #123, #221, ( #8 ) ) ;
#231 = AXIS2_PLACEMENT_3D ( 'NONE', #207, #124, #172 ) ;
#232 = EDGE_LOOP ( 'NONE', ( #55, #68, #179, #137 ) ) ;
#233 = COORDINATED_UNIVERSAL_TIME_OFFSET ( 8, 0, .AHEAD. ) ;
#234 = COORDINATED_UNIVERSAL_TIME_OFFSET ( 8, 0, .AHEAD. ) ;
#235 = CC_DESIGN_PERSON_AND_ORGANIZATION_ASSIGNMENT ( #65, #162, ( #101 ) ) ;
#236 = VERTEX_POINT ( 'NONE', #41 ) ;
#237 = CARTESIAN_POINT ( 'NONE',  ( -35.00000000000000711, 5.000000000000000000, -39.99999999999997868 ) ) ;
ENDSEC;
END-ISO-10303-21;
