ISO-10303-21;
HEADER;
FILE_DESCRIPTION (( 'STEP AP203' ),
    '1' );
FILE_NAME ('¶¥¸Ç.STEP',
    '2026-05-06T13:17:09',
    ( '' ),
    ( '' ),
    'SwSTEP 2.0',
    'SolidWorks 2024',
    '' );
FILE_SCHEMA (( 'CONFIG_CONTROL_DESIGN' ));
ENDSEC;

DATA;
#1 = CARTESIAN_POINT ( 'NONE',  ( 49.99999999999999289, 2.212369611108729206, 77.50000000000002842 ) ) ;
#2 = DIRECTION ( 'NONE',  ( 0.000000000000000000, 0.000000000000000000, 1.000000000000000000 ) ) ;
#3 = ORIENTED_EDGE ( 'NONE', *, *, #502, .T. ) ;
#4 = VERTEX_POINT ( 'NONE', #197 ) ;
#5 = EDGE_CURVE ( 'NONE', #798, #144, #218, .T. ) ;
#6 = ORIENTED_EDGE ( 'NONE', *, *, #960, .T. ) ;
#7 = DIRECTION ( 'NONE',  ( 0.000000000000000000, -1.000000000000000000, 0.000000000000000000 ) ) ;
#8 = DIRECTION ( 'NONE',  ( 0.000000000000000000, 1.000000000000000000, 0.000000000000000000 ) ) ;
#9 = EDGE_CURVE ( 'NONE', #567, #634, #538, .T. ) ;
#10 = ORIENTED_EDGE ( 'NONE', *, *, #1014, .T. ) ;
#11 = ORIENTED_EDGE ( 'NONE', *, *, #1215, .T. ) ;
#12 = ORIENTED_EDGE ( 'NONE', *, *, #34, .F. ) ;
#13 = VECTOR ( 'NONE', #234, 1000.000000000000114 ) ;
#14 = VECTOR ( 'NONE', #408, 1000.000000000000114 ) ;
#15 = EDGE_CURVE ( 'NONE', #588, #391, #779, .T. ) ;
#16 = SHAPE_DEFINITION_REPRESENTATION ( #696, #19 ) ;
#17 = DIRECTION ( 'NONE',  ( 0.000000000000000000, 1.000000000000000000, 0.000000000000000000 ) ) ;
#18 = CARTESIAN_POINT ( 'NONE',  ( -86.00000000000000000, 0.000000000000000000, 38.50000000000003553 ) ) ;
#19 = ADVANCED_BREP_SHAPE_REPRESENTATION ( '\X2\987676d6\X0\', ( #608, #255 ), #217 ) ;
#20 = AXIS2_PLACEMENT_3D ( 'NONE', #33, #331, #414 ) ;
#21 = ORIENTED_EDGE ( 'NONE', *, *, #1130, .T. ) ;
#22 = LINE ( 'NONE', #777, #786 ) ;
#23 = DIRECTION ( 'NONE',  ( 0.000000000000000000, 1.000000000000000000, 0.000000000000000000 ) ) ;
#24 = CARTESIAN_POINT ( 'NONE',  ( 49.99999999999999289, 2.212369611108729206, 74.50000000000002842 ) ) ;
#25 = EDGE_CURVE ( 'NONE', #734, #595, #972, .T. ) ;
#26 = LOCAL_TIME ( 21, 17, 9.000000000000000000, #212 ) ;
#27 = CIRCLE ( 'NONE', #278, 3.000000000000002665 ) ;
#28 = CIRCLE ( 'NONE', #723, 1.499999999999994449 ) ;
#29 = CC_DESIGN_APPROVAL ( #225, ( #411 ) ) ;
#30 = LINE ( 'NONE', #1002, #1077 ) ;
#31 = CIRCLE ( 'NONE', #257, 3.000000000000002665 ) ;
#32 = FACE_OUTER_BOUND ( 'NONE', #915, .T. ) ;
#33 = CARTESIAN_POINT ( 'NONE',  ( -86.00000000000000000, 0.000000000000000000, -39.99999999999997158 ) ) ;
#34 = EDGE_CURVE ( 'NONE', #675, #734, #497, .T. ) ;
#35 = AXIS2_PLACEMENT_3D ( 'NONE', #692, #999, #898 ) ;
#36 = DIRECTION ( 'NONE',  ( -0.000000000000000000, 1.000000000000000000, -0.000000000000000000 ) ) ;
#37 = CARTESIAN_POINT ( 'NONE',  ( 86.00000000000000000, 0.000000000000000000, -39.99999999999996447 ) ) ;
#38 = CARTESIAN_POINT ( 'NONE',  ( -86.00000000000000000, 2.212369611108664813, 40.00000000000002842 ) ) ;
#39 = ORIENTED_EDGE ( 'NONE', *, *, #576, .F. ) ;
#40 = VECTOR ( 'NONE', #143, 1000.000000000000114 ) ;
#41 = AXIS2_PLACEMENT_3D ( 'NONE', #976, #1195, #622 ) ;
#42 = ADVANCED_FACE ( 'NONE', ( #492 ), #597, .F. ) ;
#43 = ADVANCED_FACE ( 'NONE', ( #201 ), #407, .F. ) ;
#44 = FACE_OUTER_BOUND ( 'NONE', #1220, .T. ) ;
#45 = CYLINDRICAL_SURFACE ( 'NONE', #419, 1.499999999999994449 ) ;
#46 = EDGE_CURVE ( 'NONE', #634, #567, #61, .T. ) ;
#47 = CARTESIAN_POINT ( 'NONE',  ( -49.99999999999999289, 2.212369611108664813, -77.49999999999997158 ) ) ;
#48 = ORIENTED_EDGE ( 'NONE', *, *, #1010, .T. ) ;
#49 = CARTESIAN_POINT ( 'NONE',  ( 86.00000000000000000, 4.000000000000000000, -36.99999999999999289 ) ) ;
#50 = DIRECTION ( 'NONE',  ( 0.000000000000000000, 1.000000000000000000, 0.000000000000000000 ) ) ;
#51 = ADVANCED_FACE ( 'NONE', ( #1057 ), #1017, .F. ) ;
#52 = DIRECTION ( 'NONE',  ( -0.000000000000000000, 1.000000000000000000, -0.000000000000000000 ) ) ;
#53 = CARTESIAN_POINT ( 'NONE',  ( 86.00000000000000000, 0.000000000000000000, 41.50000000000002132 ) ) ;
#54 = AXIS2_PLACEMENT_3D ( 'NONE', #924, #549, #362 ) ;
#55 = CARTESIAN_POINT ( 'NONE',  ( 49.99999999999999289, 2.212369611108729206, 76.00000000000002842 ) ) ;
#56 = CARTESIAN_POINT ( 'NONE',  ( -49.99999999999999289, 2.212369611108729206, 74.50000000000002842 ) ) ;
#57 = CARTESIAN_POINT ( 'NONE',  ( 86.00000000000000000, 2.212369611108737200, -39.99999999999996447 ) ) ;
#58 = LINE ( 'NONE', #53, #558 ) ;
#59 = CALENDAR_DATE ( 2026, 6, 5 ) ;
#60 = AXIS2_PLACEMENT_3D ( 'NONE', #130, #506, #420 ) ;
#61 = CIRCLE ( 'NONE', #956, 2.999999999999975131 ) ;
#62 = CARTESIAN_POINT ( 'NONE',  ( 86.00000000000000000, 2.212369611108664813, 40.00000000000002842 ) ) ;
#63 = CARTESIAN_POINT ( 'NONE',  ( 0.000000000000000000, 0.000000000000000000, 0.000000000000000000 ) ) ;
#64 = DIRECTION ( 'NONE',  ( 0.000000000000000000, 0.000000000000000000, -1.000000000000000000 ) ) ;
#65 = EDGE_LOOP ( 'NONE', ( #457, #1139 ) ) ;
#66 = CARTESIAN_POINT ( 'NONE',  ( -90.00000000000000000, 4.000000000000000000, 80.00000000000002842 ) ) ;
#67 = CARTESIAN_POINT ( 'NONE',  ( -90.00000000000000000, 4.000000000000000000, -79.99999999999997158 ) ) ;
#68 = FACE_OUTER_BOUND ( 'NONE', #283, .T. ) ;
#69 = ORIENTED_EDGE ( 'NONE', *, *, #71, .T. ) ;
#70 = EDGE_CURVE ( 'NONE', #183, #1095, #1179, .T. ) ;
#71 = EDGE_CURVE ( 'NONE', #909, #962, #639, .T. ) ;
#72 = CARTESIAN_POINT ( 'NONE',  ( 49.99999999999999289, 2.212369611108664813, -77.49999999999997158 ) ) ;
#73 = CARTESIAN_POINT ( 'NONE',  ( -86.00000000000000000, 0.000000000000000000, 41.50000000000002132 ) ) ;
#74 = DIRECTION ( 'NONE',  ( 0.000000000000000000, 1.000000000000000000, 0.000000000000000000 ) ) ;
#75 = VERTEX_POINT ( 'NONE', #514 ) ;
#76 = ORIENTED_EDGE ( 'NONE', *, *, #416, .F. ) ;
#77 = CIRCLE ( 'NONE', #775, 1.499999999999994449 ) ;
#78 = CARTESIAN_POINT ( 'NONE',  ( -86.00000000000000000, 2.212369611108664813, -38.49999999999997868 ) ) ;
#79 = EDGE_LOOP ( 'NONE', ( #12, #372, #805, #648 ) ) ;
#80 = DIRECTION ( 'NONE',  ( 0.000000000000000000, 0.7660444431189763481, 0.6427876096865412503 ) ) ;
#81 = ADVANCED_FACE ( 'NONE', ( #334 ), #45, .F. ) ;
#82 = CARTESIAN_POINT ( 'NONE',  ( 49.99999999999999289, 2.212369611108729206, 76.00000000000002842 ) ) ;
#83 = MECHANICAL_CONTEXT ( 'NONE', #349, 'mechanical' ) ;
#84 = EDGE_LOOP ( 'NONE', ( #820, #95 ) ) ;
#85 = ORIENTED_EDGE ( 'NONE', *, *, #977, .F. ) ;
#86 = DIRECTION ( 'NONE',  ( 0.000000000000000000, 1.000000000000000000, 0.000000000000000000 ) ) ;
#87 = DIRECTION ( 'NONE',  ( 0.000000000000000000, 1.000000000000000000, 0.000000000000000000 ) ) ;
#88 = EDGE_CURVE ( 'NONE', #1095, #183, #793, .T. ) ;
#89 = APPROVAL_DATE_TIME ( #778, #225 ) ;
#90 = ORIENTED_EDGE ( 'NONE', *, *, #124, .F. ) ;
#91 = ORIENTED_EDGE ( 'NONE', *, *, #773, .F. ) ;
#92 = EDGE_CURVE ( 'NONE', #475, #379, #664, .T. ) ;
#93 = CARTESIAN_POINT ( 'NONE',  ( 49.99999999999999289, 2.212369611108729206, 77.50000000000002842 ) ) ;
#94 = AXIS2_PLACEMENT_3D ( 'NONE', #988, #328, #226 ) ;
#95 = ORIENTED_EDGE ( 'NONE', *, *, #70, .T. ) ;
#96 = APPROVAL_PERSON_ORGANIZATION ( #1021, #342, #661 ) ;
#97 = AXIS2_PLACEMENT_3D ( 'NONE', #870, #489, #715 ) ;
#98 = DIRECTION ( 'NONE',  ( -0.000000000000000000, -1.000000000000000000, -0.000000000000000000 ) ) ;
#99 = APPROVAL_STATUS ( 'not_yet_approved' ) ;
#100 = ORIENTED_EDGE ( 'NONE', *, *, #271, .F. ) ;
#101 = ORIENTED_EDGE ( 'NONE', *, *, #620, .T. ) ;
#102 = ORIENTED_EDGE ( 'NONE', *, *, #1010, .F. ) ;
#103 = ORIENTED_EDGE ( 'NONE', *, *, #994, .T. ) ;
#104 = CIRCLE ( 'NONE', #160, 1.500000000000001332 ) ;
#105 = COORDINATED_UNIVERSAL_TIME_OFFSET ( 8, 0, .AHEAD. ) ;
#106 = EDGE_LOOP ( 'NONE', ( #108, #580, #1046, #312 ) ) ;
#107 = EDGE_CURVE ( 'NONE', #475, #935, #30, .T. ) ;
#108 = ORIENTED_EDGE ( 'NONE', *, *, #1086, .T. ) ;
#109 = PERSON_AND_ORGANIZATION ( #244, #629 ) ;
#110 = ORIENTED_EDGE ( 'NONE', *, *, #189, .F. ) ;
#111 = DIRECTION ( 'NONE',  ( 7.871877887342009716E-17, 0.7660444431189763481, -0.6427876096865412503 ) ) ;
#112 = ORIENTED_EDGE ( 'NONE', *, *, #733, .F. ) ;
#113 = CIRCLE ( 'NONE', #94, 1.500000000000008216 ) ;
#114 = CIRCLE ( 'NONE', #525, 2.999999999999975131 ) ;
#115 = ADVANCED_FACE ( 'NONE', ( #412 ), #439, .F. ) ;
#116 = PERSON_AND_ORGANIZATION_ROLE ( 'classification_officer' ) ;
#117 = CARTESIAN_POINT ( 'NONE',  ( -86.00000000000000000, 0.000000000000000000, 38.50000000000003553 ) ) ;
#118 = DIRECTION ( 'NONE',  ( 0.000000000000000000, -1.000000000000000000, 0.000000000000000000 ) ) ;
#119 = ORIENTED_EDGE ( 'NONE', *, *, #1152, .F. ) ;
#120 = CARTESIAN_POINT ( 'NONE',  ( -86.00000000000000000, 0.000000000000000000, -39.99999999999997158 ) ) ;
#121 = DIRECTION ( 'NONE',  ( -0.000000000000000000, -1.000000000000000000, -0.000000000000000000 ) ) ;
#122 = CIRCLE ( 'NONE', #893, 1.500000000000001332 ) ;
#123 = DIRECTION ( 'NONE',  ( 0.000000000000000000, 0.000000000000000000, 1.000000000000000000 ) ) ;
#124 = EDGE_CURVE ( 'NONE', #466, #484, #615, .T. ) ;
#125 = DIRECTION ( 'NONE',  ( 0.000000000000000000, 1.000000000000000000, 0.000000000000000000 ) ) ;
#126 = DIRECTION ( 'NONE',  ( 0.000000000000000000, -1.000000000000000000, 0.000000000000000000 ) ) ;
#127 = APPROVAL_PERSON_ORGANIZATION ( #486, #225, #947 ) ;
#128 = FACE_OUTER_BOUND ( 'NONE', #669, .T. ) ;
#129 = AXIS2_PLACEMENT_3D ( 'NONE', #707, #607, #209 ) ;
#130 = CARTESIAN_POINT ( 'NONE',  ( -49.99999999999999289, 2.212369611108664813, -75.99999999999997158 ) ) ;
#131 = CARTESIAN_POINT ( 'NONE',  ( 86.00000000000000000, 0.000000000000000000, -39.99999999999996447 ) ) ;
#132 = ORIENTED_EDGE ( 'NONE', *, *, #189, .T. ) ;
#133 = EDGE_CURVE ( 'NONE', #662, #774, #122, .T. ) ;
#134 = FACE_OUTER_BOUND ( 'NONE', #626, .T. ) ;
#135 = CARTESIAN_POINT ( 'NONE',  ( -49.99999999999999289, 0.000000000000000000, -77.49999999999997158 ) ) ;
#136 = CARTESIAN_POINT ( 'NONE',  ( -90.00000000000000000, 4.000000000000000000, 80.00000000000002842 ) ) ;
#137 = CARTESIAN_POINT ( 'NONE',  ( -49.99999999999999289, 2.212369611108664813, -75.99999999999997158 ) ) ;
#138 = ORIENTED_EDGE ( 'NONE', *, *, #140, .T. ) ;
#139 = AXIS2_PLACEMENT_3D ( 'NONE', #369, #269, #1036 ) ;
#140 = EDGE_CURVE ( 'NONE', #332, #791, #367, .T. ) ;
#141 = CARTESIAN_POINT ( 'NONE',  ( -49.99999999999999289, 0.000000000000000000, -74.49999999999997158 ) ) ;
#142 = DIRECTION ( 'NONE',  ( 0.000000000000000000, 1.000000000000000000, 0.000000000000000000 ) ) ;
#143 = DIRECTION ( 'NONE',  ( 0.000000000000000000, 0.7660444431189804559, 0.6427876096865363653 ) ) ;
#144 = VERTEX_POINT ( 'NONE', #246 ) ;
#145 = CARTESIAN_POINT ( 'NONE',  ( 49.99999999999999289, 2.212369611108664813, -74.49999999999997158 ) ) ;
#146 = EDGE_LOOP ( 'NONE', ( #399, #1228, #1004, #1156 ) ) ;
#147 = CC_DESIGN_PERSON_AND_ORGANIZATION_ASSIGNMENT ( #1064, #953, ( #174 ) ) ;
#148 = DIRECTION ( 'NONE',  ( -0.000000000000000000, 1.000000000000000000, -0.000000000000000000 ) ) ;
#149 = DIRECTION ( 'NONE',  ( 0.000000000000000000, 0.000000000000000000, 1.000000000000000000 ) ) ;
#150 = AXIS2_PLACEMENT_3D ( 'NONE', #570, #87, #2 ) ;
#151 = CIRCLE ( 'NONE', #967, 1.500000000000001332 ) ;
#152 = DIRECTION ( 'NONE',  ( 0.000000000000000000, 0.000000000000000000, -1.000000000000000000 ) ) ;
#153 = DIRECTION ( 'NONE',  ( 0.000000000000000000, 0.000000000000000000, 1.000000000000000000 ) ) ;
#154 = EDGE_LOOP ( 'NONE', ( #942, #386, #832, #816 ) ) ;
#155 = FACE_OUTER_BOUND ( 'NONE', #406, .T. ) ;
#156 = DIRECTION ( 'NONE',  ( 0.000000000000000000, 1.000000000000000000, 0.000000000000000000 ) ) ;
#157 = ADVANCED_FACE ( 'NONE', ( #128 ), #402, .F. ) ;
#158 = ORIENTED_EDGE ( 'NONE', *, *, #219, .F. ) ;
#159 = EDGE_LOOP ( 'NONE', ( #1055, #968, #273, #1213 ) ) ;
#160 = AXIS2_PLACEMENT_3D ( 'NONE', #780, #900, #700 ) ;
#161 = VECTOR ( 'NONE', #681, 1000.000000000000000 ) ;
#162 = CYLINDRICAL_SURFACE ( 'NONE', #139, 1.500000000000001332 ) ;
#163 = PLANE ( 'NONE',  #944 ) ;
#164 = CARTESIAN_POINT ( 'NONE',  ( -86.00000000000000000, 2.212369611108664813, -41.49999999999996447 ) ) ;
#165 = VERTEX_POINT ( 'NONE', #135 ) ;
#166 = EDGE_LOOP ( 'NONE', ( #11, #1174 ) ) ;
#167 = ADVANCED_FACE ( 'NONE', ( #602 ), #418, .F. ) ;
#168 = CARTESIAN_POINT ( 'NONE',  ( 49.99999999999999289, 2.212369611108664813, -74.49999999999997158 ) ) ;
#169 = CARTESIAN_POINT ( 'NONE',  ( -49.99999999999999289, 4.000000000000000000, -78.99999999999997158 ) ) ;
#170 = DIRECTION ( 'NONE',  ( 0.000000000000000000, 0.000000000000000000, 1.000000000000000000 ) ) ;
#171 = ORIENTED_EDGE ( 'NONE', *, *, #571, .T. ) ;
#172 = AXIS2_PLACEMENT_3D ( 'NONE', #740, #750, #940 ) ;
#173 = CC_DESIGN_SECURITY_CLASSIFICATION ( #411, ( #785 ) ) ;
#174 = PRODUCT_DEFINITION ( 'æœ', '', #785, #294 ) ;
#175 = EDGE_LOOP ( 'NONE', ( #450, #903, #190, #617 ) ) ;
#176 = CARTESIAN_POINT ( 'NONE',  ( -49.99999999999999289, 2.212369611108664813, -74.49999999999997158 ) ) ;
#177 = FACE_BOUND ( 'NONE', #728, .T. ) ;
#178 = CARTESIAN_POINT ( 'NONE',  ( 49.99999999999999289, 0.000000000000000000, 76.00000000000002842 ) ) ;
#179 = ORIENTED_EDGE ( 'NONE', *, *, #796, .T. ) ;
#180 = EDGE_LOOP ( 'NONE', ( #112, #1048, #679, #6 ) ) ;
#181 = CARTESIAN_POINT ( 'NONE',  ( -86.00000000000000000, 4.000000000000000000, 40.00000000000002842 ) ) ;
#182 = CARTESIAN_POINT ( 'NONE',  ( -86.00000000000000000, 2.212369611108664813, -39.99999999999997158 ) ) ;
#183 = VERTEX_POINT ( 'NONE', #609 ) ;
#184 = AXIS2_PLACEMENT_3D ( 'NONE', #853, #309, #404 ) ;
#185 = CARTESIAN_POINT ( 'NONE',  ( -49.99999999999999289, 0.000000000000000000, -75.99999999999997158 ) ) ;
#186 = DIRECTION ( 'NONE',  ( -0.000000000000000000, 1.000000000000000000, -0.000000000000000000 ) ) ;
#187 = ORIENTED_EDGE ( 'NONE', *, *, #1159, .T. ) ;
#188 = ORIENTED_EDGE ( 'NONE', *, *, #1135, .F. ) ;
#189 = EDGE_CURVE ( 'NONE', #962, #909, #291, .T. ) ;
#190 = ORIENTED_EDGE ( 'NONE', *, *, #195, .T. ) ;
#191 = CC_DESIGN_DATE_AND_TIME_ASSIGNMENT ( #384, #572, ( #411 ) ) ;
#192 = LINE ( 'NONE', #1, #290 ) ;
#193 = DIRECTION ( 'NONE',  ( 7.871877887341949318E-17, 0.7660444431189804559, -0.6427876096865363653 ) ) ;
#194 = COORDINATED_UNIVERSAL_TIME_OFFSET ( 8, 0, .AHEAD. ) ;
#195 = EDGE_CURVE ( 'NONE', #1095, #385, #58, .T. ) ;
#196 = ORIENTED_EDGE ( 'NONE', *, *, #765, .T. ) ;
#197 = CARTESIAN_POINT ( 'NONE',  ( -90.00000000000000000, 0.000000000000000000, -79.99999999999997158 ) ) ;
#198 = DIRECTION ( 'NONE',  ( 0.000000000000000000, 0.000000000000000000, 1.000000000000000000 ) ) ;
#199 = VECTOR ( 'NONE', #193, 1000.000000000000114 ) ;
#200 = EDGE_LOOP ( 'NONE', ( #1056, #862, #188, #1054 ) ) ;
#201 = FACE_OUTER_BOUND ( 'NONE', #213, .T. ) ;
#202 = EDGE_CURVE ( 'NONE', #461, #144, #690, .T. ) ;
#203 = ORIENTED_EDGE ( 'NONE', *, *, #977, .T. ) ;
#204 = VERTEX_POINT ( 'NONE', #232 ) ;
#205 = CIRCLE ( 'NONE', #693, 1.500000000000001332 ) ;
#206 = VECTOR ( 'NONE', #351, 1000.000000000000114 ) ;
#207 = PERSON_AND_ORGANIZATION ( #244, #629 ) ;
#208 = ORIENTED_EDGE ( 'NONE', *, *, #140, .F. ) ;
#209 = DIRECTION ( 'NONE',  ( 0.000000000000000000, 0.000000000000000000, -1.000000000000000000 ) ) ;
#210 = ORIENTED_EDGE ( 'NONE', *, *, #532, .T. ) ;
#211 = ADVANCED_FACE ( 'NONE', ( #879 ), #1147, .F. ) ;
#212 = COORDINATED_UNIVERSAL_TIME_OFFSET ( 8, 0, .AHEAD. ) ;
#213 = EDGE_LOOP ( 'NONE', ( #760, #645, #980, #467 ) ) ;
#214 = DIRECTION ( 'NONE',  ( -0.000000000000000000, 1.000000000000000000, -0.000000000000000000 ) ) ;
#215 = AXIS2_PLACEMENT_3D ( 'NONE', #726, #1137, #1037 ) ;
#216 = EDGE_CURVE ( 'NONE', #249, #970, #318, .T. ) ;
#217 =( GEOMETRIC_REPRESENTATION_CONTEXT ( 3 ) GLOBAL_UNCERTAINTY_ASSIGNED_CONTEXT ( ( #1118 ) ) GLOBAL_UNIT_ASSIGNED_CONTEXT ( ( #727, #643, #363 ) ) REPRESENTATION_CONTEXT ( 'NONE', 'WORKASPACE' ) );
#218 = LINE ( 'NONE', #483, #713 ) ;
#219 = EDGE_CURVE ( 'NONE', #377, #935, #113, .T. ) ;
#220 = CARTESIAN_POINT ( 'NONE',  ( -90.00000000000000000, 0.000000000000000000, 80.00000000000002842 ) ) ;
#221 = AXIS2_PLACEMENT_3D ( 'NONE', #1080, #528, #907 ) ;
#222 = CARTESIAN_POINT ( 'NONE',  ( -49.99999999999999289, 0.000000000000000000, 77.50000000000002842 ) ) ;
#223 = DIRECTION ( 'NONE',  ( 7.871877887342009716E-17, 0.7660444431189763481, -0.6427876096865411393 ) ) ;
#224 = VERTEX_POINT ( 'NONE', #982 ) ;
#225 = APPROVAL ( #99, 'æœª' ) ;
#226 = DIRECTION ( 'NONE',  ( 0.000000000000000000, 0.000000000000000000, -1.000000000000000000 ) ) ;
#227 = LINE ( 'NONE', #222, #651 ) ;
#228 = DIRECTION ( 'NONE',  ( -0.000000000000000000, 1.000000000000000000, -0.000000000000000000 ) ) ;
#229 = ORIENTED_EDGE ( 'NONE', *, *, #821, .T. ) ;
#230 = AXIS2_PLACEMENT_3D ( 'NONE', #515, #691, #1003 ) ;
#231 = CARTESIAN_POINT ( 'NONE',  ( 86.00000000000000000, 2.212369611108737200, -41.49999999999997158 ) ) ;
#232 = CARTESIAN_POINT ( 'NONE',  ( 49.99999999999999289, 4.000000000000000000, -72.99999999999997158 ) ) ;
#233 = PLANE ( 'NONE',  #761 ) ;
#234 = DIRECTION ( 'NONE',  ( 0.000000000000000000, 0.7660444431189804559, 0.6427876096865363653 ) ) ;
#235 = ORIENTED_EDGE ( 'NONE', *, *, #107, .F. ) ;
#236 = ADVANCED_FACE ( 'NONE', ( #541 ), #1025, .F. ) ;
#237 = EDGE_CURVE ( 'NONE', #671, #466, #463, .T. ) ;
#238 = CYLINDRICAL_SURFACE ( 'NONE', #592, 1.499999999999994449 ) ;
#239 = DIRECTION ( 'NONE',  ( 0.000000000000000000, 1.000000000000000000, 0.000000000000000000 ) ) ;
#240 = DIRECTION ( 'NONE',  ( 0.000000000000000000, 0.000000000000000000, -1.000000000000000000 ) ) ;
#241 = ORIENTED_EDGE ( 'NONE', *, *, #46, .T. ) ;
#242 = CARTESIAN_POINT ( 'NONE',  ( 86.00000000000000000, 4.000000000000000000, -42.99999999999994316 ) ) ;
#243 = EDGE_LOOP ( 'NONE', ( #490, #929, #21, #1015 ) ) ;
#244 = PERSON ( 'æœª', 'æœª', 'æœª', ('æœª'), ('æœª'), ('æœª') ) ;
#245 = DIRECTION ( 'NONE',  ( -0.000000000000000000, -1.000000000000000000, -0.000000000000000000 ) ) ;
#246 = CARTESIAN_POINT ( 'NONE',  ( 90.00000000000000000, 0.000000000000000000, 80.00000000000002842 ) ) ;
#247 = FACE_OUTER_BOUND ( 'NONE', #106, .T. ) ;
#248 = LINE ( 'NONE', #612, #429 ) ;
#249 = VERTEX_POINT ( 'NONE', #73 ) ;
#250 = EDGE_CURVE ( 'NONE', #1226, #536, #574, .T. ) ;
#251 = CARTESIAN_POINT ( 'NONE',  ( 86.00000000000000000, 4.000000000000000000, 37.00000000000002842 ) ) ;
#252 = CARTESIAN_POINT ( 'NONE',  ( 90.00000000000000000, 4.000000000000000000, 80.00000000000002842 ) ) ;
#253 = VECTOR ( 'NONE', #1175, 1000.000000000000000 ) ;
#254 = DATE_AND_TIME ( #59, #1009 ) ;
#255 = AXIS2_PLACEMENT_3D ( 'NONE', #1138, #170, #1107 ) ;
#256 = DIRECTION ( 'NONE',  ( 0.000000000000000000, 0.000000000000000000, 1.000000000000000000 ) ) ;
#257 = AXIS2_PLACEMENT_3D ( 'NONE', #513, #405, #614 ) ;
#258 = EDGE_CURVE ( 'NONE', #466, #578, #747, .T. ) ;
#259 = LINE ( 'NONE', #829, #314 ) ;
#260 = CONICAL_SURFACE ( 'NONE', #1093, 1.500000000000001332, 0.6981317007977280165 ) ;
#261 = CARTESIAN_POINT ( 'NONE',  ( 49.99999999999999289, 0.000000000000000000, -75.99999999999997158 ) ) ;
#262 = FACE_BOUND ( 'NONE', #554, .T. ) ;
#263 = EDGE_CURVE ( 'NONE', #422, #449, #1069, .T. ) ;
#264 = ORIENTED_EDGE ( 'NONE', *, *, #263, .F. ) ;
#265 = ORIENTED_EDGE ( 'NONE', *, *, #1067, .T. ) ;
#266 = DIRECTION ( 'NONE',  ( 0.000000000000000000, 1.000000000000000000, 0.000000000000000000 ) ) ;
#267 = CONICAL_SURFACE ( 'NONE', #683, 1.500000000000008216, 0.6981317007977343447 ) ;
#268 = CLOSED_SHELL ( 'NONE', ( #511, #1119, #282, #657, #1079, #355, #1203, #51, #695, #236, #1106, #986, #310, #167, #1111, #518, #1063, #347, #872, #672, #1208, #319, #755, #81, #891, #43, #510, #295, #526, #794, #211, #115, #1141, #157, #623, #822, #586, #42 ) ) ;
#269 = DIRECTION ( 'NONE',  ( -0.000000000000000000, 1.000000000000000000, -0.000000000000000000 ) ) ;
#270 = DIRECTION ( 'NONE',  ( 0.000000000000000000, -1.000000000000000000, 0.000000000000000000 ) ) ;
#271 = EDGE_CURVE ( 'NONE', #1023, #1151, #27, .T. ) ;
#272 = APPROVAL_STATUS ( 'not_yet_approved' ) ;
#273 = ORIENTED_EDGE ( 'NONE', *, *, #107, .T. ) ;
#274 = EDGE_LOOP ( 'NONE', ( #919, #138 ) ) ;
#275 = DIRECTION ( 'NONE',  ( 0.000000000000000000, 0.000000000000000000, -1.000000000000000000 ) ) ;
#276 = DIRECTION ( 'NONE',  ( 0.000000000000000000, 0.000000000000000000, -1.000000000000000000 ) ) ;
#277 = ORIENTED_EDGE ( 'NONE', *, *, #25, .T. ) ;
#278 = AXIS2_PLACEMENT_3D ( 'NONE', #376, #556, #660 ) ;
#279 = EDGE_LOOP ( 'NONE', ( #959, #110, #836, #776 ) ) ;
#280 = AXIS2_PLACEMENT_3D ( 'NONE', #535, #74, #444 ) ;
#281 = DIRECTION ( 'NONE',  ( 0.000000000000000000, 0.000000000000000000, -1.000000000000000000 ) ) ;
#282 = ADVANCED_FACE ( 'NONE', ( #534 ), #523, .F. ) ;
#283 = EDGE_LOOP ( 'NONE', ( #1053, #277, #736, #302 ) ) ;
#284 = CARTESIAN_POINT ( 'NONE',  ( -86.00000000000000000, 2.212369611108664813, 41.50000000000002132 ) ) ;
#285 = CARTESIAN_POINT ( 'NONE',  ( -49.99999999999999289, 2.212369611108729206, 77.50000000000002842 ) ) ;
#286 = FACE_BOUND ( 'NONE', #1090, .T. ) ;
#287 = APPLICATION_PROTOCOL_DEFINITION ( 'international standard', 'config_control_design', 1994, #403 ) ;
#288 = EDGE_LOOP ( 'NONE', ( #847, #753 ) ) ;
#289 = ORIENTED_EDGE ( 'NONE', *, *, #1067, .F. ) ;
#290 = VECTOR ( 'NONE', #382, 1000.000000000000114 ) ;
#291 = CIRCLE ( 'NONE', #975, 1.500000000000001332 ) ;
#292 = LINE ( 'NONE', #1042, #638 ) ;
#293 = CARTESIAN_POINT ( 'NONE',  ( 86.00000000000000000, 2.212369611108664813, 41.50000000000002132 ) ) ;
#294 = DESIGN_CONTEXT ( 'detailed design', #403, 'design' ) ;
#295 = ADVANCED_FACE ( 'NONE', ( #1019 ), #1210, .F. ) ;
#296 = PERSON_AND_ORGANIZATION_ROLE ( 'creator' ) ;
#297 = EDGE_LOOP ( 'NONE', ( #1154, #551, #859, #560 ) ) ;
#298 = DIRECTION ( 'NONE',  ( -0.000000000000000000, 1.000000000000000000, -0.000000000000000000 ) ) ;
#299 = ORIENTED_EDGE ( 'NONE', *, *, #424, .T. ) ;
#300 = CARTESIAN_POINT ( 'NONE',  ( 49.99999999999999289, 0.000000000000000000, -77.49999999999997158 ) ) ;
#301 = CALENDAR_DATE ( 2026, 6, 5 ) ;
#302 = ORIENTED_EDGE ( 'NONE', *, *, #427, .F. ) ;
#303 = DIRECTION ( 'NONE',  ( 0.000000000000000000, 0.000000000000000000, 1.000000000000000000 ) ) ;
#304 = ORIENTED_EDGE ( 'NONE', *, *, #571, .F. ) ;
#305 = AXIS2_PLACEMENT_3D ( 'NONE', #624, #803, #343 ) ;
#306 = VERTEX_POINT ( 'NONE', #169 ) ;
#307 = CIRCLE ( 'NONE', #97, 1.499999999999994449 ) ;
#308 = EDGE_CURVE ( 'NONE', #590, #306, #1169, .T. ) ;
#309 = DIRECTION ( 'NONE',  ( 0.000000000000000000, -1.000000000000000000, 0.000000000000000000 ) ) ;
#310 = ADVANCED_FACE ( 'NONE', ( #1217 ), #913, .F. ) ;
#311 = DIRECTION ( 'NONE',  ( 0.000000000000000000, 0.000000000000000000, 1.000000000000000000 ) ) ;
#312 = ORIENTED_EDGE ( 'NONE', *, *, #5, .T. ) ;
#313 = CIRCLE ( 'NONE', #1161, 1.499999999999994449 ) ;
#314 = VECTOR ( 'NONE', #931, 1000.000000000000000 ) ;
#315 = CARTESIAN_POINT ( 'NONE',  ( -86.00000000000000000, 2.212369611108664813, 38.50000000000003553 ) ) ;
#316 = CARTESIAN_POINT ( 'NONE',  ( -86.00000000000000000, 2.212369611108664813, 38.50000000000003553 ) ) ;
#317 = EDGE_CURVE ( 'NONE', #742, #501, #378, .T. ) ;
#318 = LINE ( 'NONE', #498, #253 ) ;
#319 = ADVANCED_FACE ( 'NONE', ( #1202, #632, #286, #562, #1012, #1031, #177, #838, #1223 ), #435, .T. ) ;
#320 = CIRCLE ( 'NONE', #471, 2.999999999999975131 ) ;
#321 = CONICAL_SURFACE ( 'NONE', #1133, 1.499999999999994449, 0.6981317007977280165 ) ;
#322 = EDGE_CURVE ( 'NONE', #798, #588, #818, .T. ) ;
#323 = DIRECTION ( 'NONE',  ( 0.000000000000000000, 1.000000000000000000, 0.000000000000000000 ) ) ;
#324 = CARTESIAN_POINT ( 'NONE',  ( 49.99999999999999289, 2.212369611108664813, -75.99999999999997158 ) ) ;
#325 = CARTESIAN_POINT ( 'NONE',  ( 49.99999999999999289, 0.000000000000000000, 77.50000000000002842 ) ) ;
#326 = DIRECTION ( 'NONE',  ( 0.000000000000000000, 1.000000000000000000, 0.000000000000000000 ) ) ;
#327 = VECTOR ( 'NONE', #912, 1000.000000000000000 ) ;
#328 = DIRECTION ( 'NONE',  ( 0.000000000000000000, 1.000000000000000000, 0.000000000000000000 ) ) ;
#329 = VECTOR ( 'NONE', #861, 1000.000000000000114 ) ;
#330 = DIRECTION ( 'NONE',  ( -0.000000000000000000, 1.000000000000000000, -0.000000000000000000 ) ) ;
#331 = DIRECTION ( 'NONE',  ( -0.000000000000000000, 1.000000000000000000, -0.000000000000000000 ) ) ;
#332 = VERTEX_POINT ( 'NONE', #636 ) ;
#333 = LINE ( 'NONE', #685, #1029 ) ;
#334 = FACE_OUTER_BOUND ( 'NONE', #79, .T. ) ;
#335 = CARTESIAN_POINT ( 'NONE',  ( -86.00000000000000000, 4.000000000000000000, -36.99999999999997158 ) ) ;
#336 = EDGE_LOOP ( 'NONE', ( #208, #494, #69, #937 ) ) ;
#337 = FACE_OUTER_BOUND ( 'NONE', #948, .T. ) ;
#338 = AXIS2_PLACEMENT_3D ( 'NONE', #38, #353, #718 ) ;
#339 = CIRCLE ( 'NONE', #1134, 1.500000000000001332 ) ;
#340 = DIRECTION ( 'NONE',  ( -0.000000000000000000, 1.000000000000000000, -0.000000000000000000 ) ) ;
#341 = DIRECTION ( 'NONE',  ( 0.000000000000000000, 0.000000000000000000, 1.000000000000000000 ) ) ;
#342 = APPROVAL ( #272, 'æœª' ) ;
#343 = DIRECTION ( 'NONE',  ( 0.000000000000000000, 0.000000000000000000, -1.000000000000000000 ) ) ;
#344 = ORIENTED_EDGE ( 'NONE', *, *, #1215, .F. ) ;
#345 = DIRECTION ( 'NONE',  ( 0.000000000000000000, -1.000000000000000000, 0.000000000000000000 ) ) ;
#346 = EDGE_LOOP ( 'NONE', ( #992, #543 ) ) ;
#347 = ADVANCED_FACE ( 'NONE', ( #448 ), #163, .F. ) ;
#348 = EDGE_CURVE ( 'NONE', #1198, #1023, #758, .T. ) ;
#349 = APPLICATION_CONTEXT ( 'configuration controlled 3d designs of mechanical parts and assemblies' ) ;
#350 = LINE ( 'NONE', #963, #1016 ) ;
#351 = DIRECTION ( 'NONE',  ( 7.871877887342009716E-17, 0.7660444431189763481, -0.6427876096865411393 ) ) ;
#352 = DIRECTION ( 'NONE',  ( -0.000000000000000000, 1.000000000000000000, -0.000000000000000000 ) ) ;
#353 = DIRECTION ( 'NONE',  ( 0.000000000000000000, 1.000000000000000000, 0.000000000000000000 ) ) ;
#354 = AXIS2_PLACEMENT_3D ( 'NONE', #697, #1188, #341 ) ;
#355 = ADVANCED_FACE ( 'NONE', ( #846 ), #1227, .F. ) ;
#356 = CARTESIAN_POINT ( 'NONE',  ( -49.99999999999999289, 2.212369611108664813, -77.49999999999997158 ) ) ;
#357 = DIRECTION ( 'NONE',  ( 0.000000000000000000, -0.000000000000000000, -1.000000000000000000 ) ) ;
#358 = DIRECTION ( 'NONE',  ( 0.000000000000000000, 1.000000000000000000, 0.000000000000000000 ) ) ;
#359 = DIRECTION ( 'NONE',  ( 0.000000000000000000, 0.000000000000000000, -1.000000000000000000 ) ) ;
#360 = EDGE_LOOP ( 'NONE', ( #1158, #1113, #958, #769 ) ) ;
#361 = DIRECTION ( 'NONE',  ( 0.000000000000000000, 0.000000000000000000, -1.000000000000000000 ) ) ;
#362 = DIRECTION ( 'NONE',  ( 0.000000000000000000, 0.000000000000000000, -1.000000000000000000 ) ) ;
#363 =( NAMED_UNIT ( * ) SI_UNIT ( $, .STERADIAN. ) SOLID_ANGLE_UNIT ( ) );
#364 = ORIENTED_EDGE ( 'NONE', *, *, #885, .F. ) ;
#365 = DIRECTION ( 'NONE',  ( 0.000000000000000000, 0.000000000000000000, 1.000000000000000000 ) ) ;
#366 = AXIS2_PLACEMENT_3D ( 'NONE', #1194, #214, #1167 ) ;
#367 = CIRCLE ( 'NONE', #1060, 1.500000000000001332 ) ;
#368 = ORIENTED_EDGE ( 'NONE', *, *, #15, .T. ) ;
#369 = CARTESIAN_POINT ( 'NONE',  ( -49.99999999999999289, 0.000000000000000000, 76.00000000000002842 ) ) ;
#370 = CARTESIAN_POINT ( 'NONE',  ( 49.99999999999999289, 0.000000000000000000, 76.00000000000002842 ) ) ;
#371 = FACE_BOUND ( 'NONE', #288, .T. ) ;
#372 = ORIENTED_EDGE ( 'NONE', *, *, #729, .F. ) ;
#373 = CARTESIAN_POINT ( 'NONE',  ( -49.99999999999999289, 2.212369611108729206, 76.00000000000002842 ) ) ;
#374 = ORIENTED_EDGE ( 'NONE', *, *, #395, .F. ) ;
#375 = DIRECTION ( 'NONE',  ( -0.000000000000000000, 1.000000000000000000, -0.000000000000000000 ) ) ;
#376 = CARTESIAN_POINT ( 'NONE',  ( -86.00000000000000000, 4.000000000000000000, -39.99999999999997158 ) ) ;
#377 = VERTEX_POINT ( 'NONE', #383 ) ;
#378 = CIRCLE ( 'NONE', #172, 1.499999999999994449 ) ;
#379 = VERTEX_POINT ( 'NONE', #1145 ) ;
#380 = CC_DESIGN_APPROVAL ( #342, ( #174 ) ) ;
#381 = ORIENTED_EDGE ( 'NONE', *, *, #1152, .T. ) ;
#382 = DIRECTION ( 'NONE',  ( 0.000000000000000000, 0.7660444431189763481, 0.6427876096865411393 ) ) ;
#383 = CARTESIAN_POINT ( 'NONE',  ( 86.00000000000000000, 2.212369611108737200, -41.49999999999997158 ) ) ;
#384 = DATE_AND_TIME ( #301, #676 ) ;
#385 = VERTEX_POINT ( 'NONE', #293 ) ;
#386 = ORIENTED_EDGE ( 'NONE', *, *, #202, .F. ) ;
#387 = AXIS2_PLACEMENT_3D ( 'NONE', #62, #748, #361 ) ;
#388 = AXIS2_PLACEMENT_3D ( 'NONE', #886, #239, #795 ) ;
#389 = DATE_TIME_ROLE ( 'creation_date' ) ;
#390 = ORIENTED_EDGE ( 'NONE', *, *, #202, .T. ) ;
#391 = VERTEX_POINT ( 'NONE', #667 ) ;
#392 = DIRECTION ( 'NONE',  ( 0.000000000000000000, 0.000000000000000000, 1.000000000000000000 ) ) ;
#393 = ORIENTED_EDGE ( 'NONE', *, *, #250, .T. ) ;
#394 = ORIENTED_EDGE ( 'NONE', *, *, #271, .T. ) ;
#395 = EDGE_CURVE ( 'NONE', #484, #470, #320, .T. ) ;
#396 = EDGE_CURVE ( 'NONE', #588, #1072, #979, .T. ) ;
#397 = ORIENTED_EDGE ( 'NONE', *, *, #882, .F. ) ;
#398 = VECTOR ( 'NONE', #810, 1000.000000000000000 ) ;
#399 = ORIENTED_EDGE ( 'NONE', *, *, #1184, .F. ) ;
#400 = ORIENTED_EDGE ( 'NONE', *, *, #576, .T. ) ;
#401 = DIRECTION ( 'NONE',  ( 0.000000000000000000, 0.000000000000000000, 1.000000000000000000 ) ) ;
#402 = CONICAL_SURFACE ( 'NONE', #221, 1.500000000000001332, 0.6981317007977343447 ) ;
#403 = APPLICATION_CONTEXT ( 'configuration controlled 3d designs of mechanical parts and assemblies' ) ;
#404 = DIRECTION ( 'NONE',  ( 0.000000000000000000, 0.000000000000000000, -1.000000000000000000 ) ) ;
#405 = DIRECTION ( 'NONE',  ( 0.000000000000000000, -1.000000000000000000, 0.000000000000000000 ) ) ;
#406 = EDGE_LOOP ( 'NONE', ( #479, #842, #1186, #179 ) ) ;
#407 = CYLINDRICAL_SURFACE ( 'NONE', #1200, 1.500000000000001332 ) ;
#408 = DIRECTION ( 'NONE',  ( 0.000000000000000000, 0.7660444431189763481, 0.6427876096865411393 ) ) ;
#409 = DIRECTION ( 'NONE',  ( 0.000000000000000000, 0.000000000000000000, -1.000000000000000000 ) ) ;
#410 = AXIS2_PLACEMENT_3D ( 'NONE', #788, #598, #123 ) ;
#411 = SECURITY_CLASSIFICATION ( '', '', #851 ) ;
#412 = FACE_OUTER_BOUND ( 'NONE', #360, .T. ) ;
#413 = DIRECTION ( 'NONE',  ( 0.000000000000000000, 0.000000000000000000, 1.000000000000000000 ) ) ;
#414 = DIRECTION ( 'NONE',  ( 0.000000000000000000, 0.000000000000000000, 1.000000000000000000 ) ) ;
#415 = AXIS2_PLACEMENT_3D ( 'NONE', #131, #508, #256 ) ;
#416 = EDGE_CURVE ( 'NONE', #1226, #567, #711, .T. ) ;
#417 = AXIS2_PLACEMENT_3D ( 'NONE', #185, #358, #916 ) ;
#418 = CYLINDRICAL_SURFACE ( 'NONE', #1098, 1.500000000000001332 ) ;
#419 = AXIS2_PLACEMENT_3D ( 'NONE', #781, #425, #808 ) ;
#420 = DIRECTION ( 'NONE',  ( 0.000000000000000000, 0.000000000000000000, -1.000000000000000000 ) ) ;
#421 = FACE_OUTER_BOUND ( 'NONE', #175, .T. ) ;
#422 = VERTEX_POINT ( 'NONE', #49 ) ;
#423 = CARTESIAN_POINT ( 'NONE',  ( 49.99999999999999289, 0.000000000000000000, 76.00000000000002842 ) ) ;
#424 = EDGE_CURVE ( 'NONE', #385, #224, #618, .T. ) ;
#425 = DIRECTION ( 'NONE',  ( -0.000000000000000000, 1.000000000000000000, -0.000000000000000000 ) ) ;
#426 = DIRECTION ( 'NONE',  ( 0.000000000000000000, 1.000000000000000000, 0.000000000000000000 ) ) ;
#427 = EDGE_CURVE ( 'NONE', #970, #1123, #248, .T. ) ;
#428 = CARTESIAN_POINT ( 'NONE',  ( 86.00000000000000000, 0.000000000000000000, -41.49999999999997158 ) ) ;
#429 = VECTOR ( 'NONE', #516, 1000.000000000000114 ) ;
#430 = CARTESIAN_POINT ( 'NONE',  ( 49.99999999999999289, 0.000000000000000000, -74.49999999999997158 ) ) ;
#431 = DIRECTION ( 'NONE',  ( -0.000000000000000000, 1.000000000000000000, -0.000000000000000000 ) ) ;
#432 = FACE_OUTER_BOUND ( 'NONE', #200, .T. ) ;
#433 = CARTESIAN_POINT ( 'NONE',  ( -86.00000000000000000, 0.000000000000000000, -41.49999999999996447 ) ) ;
#434 = CARTESIAN_POINT ( 'NONE',  ( -49.99999999999999289, 0.000000000000000000, -75.99999999999997158 ) ) ;
#435 = PLANE ( 'NONE',  #503 ) ;
#436 = FACE_BOUND ( 'NONE', #1022, .T. ) ;
#437 = ORIENTED_EDGE ( 'NONE', *, *, #796, .F. ) ;
#438 = CIRCLE ( 'NONE', #1115, 3.000000000000002665 ) ;
#439 = CONICAL_SURFACE ( 'NONE', #354, 1.499999999999994449, 0.6981317007977280165 ) ;
#440 = ORIENTED_EDGE ( 'NONE', *, *, #1097, .F. ) ;
#441 = EDGE_CURVE ( 'NONE', #379, #377, #1096, .T. ) ;
#442 = DIRECTION ( 'NONE',  ( -0.000000000000000000, 1.000000000000000000, -0.000000000000000000 ) ) ;
#443 = DIRECTION ( 'NONE',  ( 0.000000000000000000, -1.000000000000000000, 0.000000000000000000 ) ) ;
#444 = DIRECTION ( 'NONE',  ( 0.000000000000000000, 0.000000000000000000, 1.000000000000000000 ) ) ;
#445 = CC_DESIGN_PERSON_AND_ORGANIZATION_ASSIGNMENT ( #109, #116, ( #411 ) ) ;
#446 = EDGE_CURVE ( 'NONE', #742, #573, #804, .T. ) ;
#447 = DIRECTION ( 'NONE',  ( 0.000000000000000000, 0.7660444431189804559, 0.6427876096865363653 ) ) ;
#448 = FACE_OUTER_BOUND ( 'NONE', #1162, .T. ) ;
#449 = VERTEX_POINT ( 'NONE', #242 ) ;
#450 = ORIENTED_EDGE ( 'NONE', *, *, #930, .F. ) ;
#451 = CIRCLE ( 'NONE', #129, 3.000000000000002665 ) ;
#452 = DIRECTION ( 'NONE',  ( 0.000000000000000000, 0.000000000000000000, -1.000000000000000000 ) ) ;
#453 = LINE ( 'NONE', #356, #460 ) ;
#454 = VECTOR ( 'NONE', #98, 1000.000000000000000 ) ;
#455 = DIRECTION ( 'NONE',  ( 0.000000000000000000, 0.000000000000000000, -1.000000000000000000 ) ) ;
#456 = FACE_BOUND ( 'NONE', #973, .T. ) ;
#457 = ORIENTED_EDGE ( 'NONE', *, *, #133, .T. ) ;
#458 = EDGE_CURVE ( 'NONE', #734, #970, #866, .T. ) ;
#459 = CARTESIAN_POINT ( 'NONE',  ( 49.99999999999999289, 0.000000000000000000, 74.50000000000002842 ) ) ;
#460 = VECTOR ( 'NONE', #659, 1000.000000000000114 ) ;
#461 = VERTEX_POINT ( 'NONE', #890 ) ;
#462 = LINE ( 'NONE', #720, #1146 ) ;
#463 = LINE ( 'NONE', #1205, #920 ) ;
#464 = PERSON_AND_ORGANIZATION ( #244, #629 ) ;
#465 = ORIENTED_EDGE ( 'NONE', *, *, #9, .F. ) ;
#466 = VERTEX_POINT ( 'NONE', #24 ) ;
#467 = ORIENTED_EDGE ( 'NONE', *, *, #787, .T. ) ;
#468 = CARTESIAN_POINT ( 'NONE',  ( -86.00000000000000000, 4.000000000000000000, -39.99999999999997158 ) ) ;
#469 = CARTESIAN_POINT ( 'NONE',  ( -86.00000000000000000, 2.212369611108664813, -41.49999999999996447 ) ) ;
#470 = VERTEX_POINT ( 'NONE', #1089 ) ;
#471 = AXIS2_PLACEMENT_3D ( 'NONE', #1044, #126, #991 ) ;
#472 = CONICAL_SURFACE ( 'NONE', #921, 1.500000000000001332, 0.6981317007977343447 ) ;
#473 = FACE_OUTER_BOUND ( 'NONE', #279, .T. ) ;
#474 = ORIENTED_EDGE ( 'NONE', *, *, #9, .T. ) ;
#475 = VERTEX_POINT ( 'NONE', #1193 ) ;
#476 = ORIENTED_EDGE ( 'NONE', *, *, #1163, .F. ) ;
#477 = EDGE_CURVE ( 'NONE', #595, #1123, #488, .T. ) ;
#478 = ORIENTED_EDGE ( 'NONE', *, *, #458, .T. ) ;
#479 = ORIENTED_EDGE ( 'NONE', *, *, #1000, .T. ) ;
#480 = AXIS2_PLACEMENT_3D ( 'NONE', #725, #561, #938 ) ;
#481 = VECTOR ( 'NONE', #594, 1000.000000000000000 ) ;
#482 = PRODUCT ( '\X2\987676d6\X0\', '\X2\987676d6\X0\', '', ( #83 ) ) ;
#483 = CARTESIAN_POINT ( 'NONE',  ( 90.00000000000000000, 4.000000000000000000, 80.00000000000002842 ) ) ;
#484 = VERTEX_POINT ( 'NONE', #600 ) ;
#485 = EDGE_CURVE ( 'NONE', #962, #204, #1102, .T. ) ;
#486 = PERSON_AND_ORGANIZATION ( #244, #629 ) ;
#487 = ORIENTED_EDGE ( 'NONE', *, *, #613, .F. ) ;
#488 = CIRCLE ( 'NONE', #1189, 3.000000000000002665 ) ;
#489 = DIRECTION ( 'NONE',  ( 0.000000000000000000, 1.000000000000000000, 0.000000000000000000 ) ) ;
#490 = ORIENTED_EDGE ( 'NONE', *, *, #765, .F. ) ;
#491 = CIRCLE ( 'NONE', #1207, 2.999999999999975131 ) ;
#492 = FACE_OUTER_BOUND ( 'NONE', #297, .T. ) ;
#493 = CARTESIAN_POINT ( 'NONE',  ( 49.99999999999999289, 4.000000000000000000, -75.99999999999997158 ) ) ;
#494 = ORIENTED_EDGE ( 'NONE', *, *, #545, .T. ) ;
#495 = AXIS2_PLACEMENT_3D ( 'NONE', #1136, #817, #275 ) ;
#496 = CIRCLE ( 'NONE', #663, 3.000000000000002665 ) ;
#497 = LINE ( 'NONE', #117, #161 ) ;
#498 = CARTESIAN_POINT ( 'NONE',  ( -86.00000000000000000, 0.000000000000000000, 41.50000000000002132 ) ) ;
#499 = DIRECTION ( 'NONE',  ( 0.000000000000000000, 0.000000000000000000, -1.000000000000000000 ) ) ;
#500 = CARTESIAN_POINT ( 'NONE',  ( -86.00000000000000000, 4.000000000000000000, 40.00000000000002842 ) ) ;
#501 = VERTEX_POINT ( 'NONE', #433 ) ;
#502 = EDGE_CURVE ( 'NONE', #1033, #964, #965, .T. ) ;
#503 = AXIS2_PLACEMENT_3D ( 'NONE', #63, #443, #357 ) ;
#504 = VECTOR ( 'NONE', #111, 1000.000000000000227 ) ;
#505 = CARTESIAN_POINT ( 'NONE',  ( -49.99999999999999289, 0.000000000000000000, 76.00000000000002842 ) ) ;
#506 = DIRECTION ( 'NONE',  ( 0.000000000000000000, 1.000000000000000000, 0.000000000000000000 ) ) ;
#507 = ORIENTED_EDGE ( 'NONE', *, *, #317, .T. ) ;
#508 = DIRECTION ( 'NONE',  ( 0.000000000000000000, 1.000000000000000000, 0.000000000000000000 ) ) ;
#509 = ORIENTED_EDGE ( 'NONE', *, *, #865, .T. ) ;
#510 = ADVANCED_FACE ( 'NONE', ( #421 ), #784, .F. ) ;
#511 = ADVANCED_FACE ( 'NONE', ( #1173 ), #260, .F. ) ;
#512 = EDGE_CURVE ( 'NONE', #791, #332, #971, .T. ) ;
#513 = CARTESIAN_POINT ( 'NONE',  ( 86.00000000000000000, 4.000000000000000000, 40.00000000000002842 ) ) ;
#514 = CARTESIAN_POINT ( 'NONE',  ( 86.00000000000000000, 2.212369611108664813, 38.50000000000003553 ) ) ;
#515 = CARTESIAN_POINT ( 'NONE',  ( -86.00000000000000000, 0.000000000000000000, 40.00000000000002842 ) ) ;
#516 = DIRECTION ( 'NONE',  ( 0.000000000000000000, 0.7660444431189804559, 0.6427876096865363653 ) ) ;
#517 = ORIENTED_EDGE ( 'NONE', *, *, #308, .F. ) ;
#518 = ADVANCED_FACE ( 'NONE', ( #1075 ), #883, .F. ) ;
#519 = CARTESIAN_POINT ( 'NONE',  ( -49.99999999999999289, 0.000000000000000000, 74.50000000000002842 ) ) ;
#520 = DIRECTION ( 'NONE',  ( 0.000000000000000000, 1.000000000000000000, 0.000000000000000000 ) ) ;
#521 = LINE ( 'NONE', #1196, #868 ) ;
#522 = DIRECTION ( 'NONE',  ( 0.000000000000000000, 0.7660444431189804559, 0.6427876096865363653 ) ) ;
#523 = CONICAL_SURFACE ( 'NONE', #722, 1.500000000000008216, 0.6981317007977343447 ) ;
#524 = CONICAL_SURFACE ( 'NONE', #568, 1.500000000000001332, 0.6981317007977280165 ) ;
#525 = AXIS2_PLACEMENT_3D ( 'NONE', #599, #709, #240 ) ;
#526 = ADVANCED_FACE ( 'NONE', ( #337 ), #790, .F. ) ;
#527 = DIRECTION ( 'NONE',  ( 0.000000000000000000, 0.000000000000000000, 1.000000000000000000 ) ) ;
#528 = DIRECTION ( 'NONE',  ( 0.000000000000000000, 1.000000000000000000, 0.000000000000000000 ) ) ;
#529 = CARTESIAN_POINT ( 'NONE',  ( 86.00000000000000000, 0.000000000000000000, 41.50000000000002132 ) ) ;
#530 = DIRECTION ( 'NONE',  ( -0.000000000000000000, 1.000000000000000000, -0.000000000000000000 ) ) ;
#531 = EDGE_LOOP ( 'NONE', ( #158, #1168, #264, #364 ) ) ;
#532 = EDGE_CURVE ( 'NONE', #379, #475, #952, .T. ) ;
#533 = CARTESIAN_POINT ( 'NONE',  ( -90.00000000000000000, 4.000000000000000000, 80.00000000000002842 ) ) ;
#534 = FACE_OUTER_BOUND ( 'NONE', #531, .T. ) ;
#535 = CARTESIAN_POINT ( 'NONE',  ( -86.00000000000000000, 2.212369611108664813, 40.00000000000002842 ) ) ;
#536 = VERTEX_POINT ( 'NONE', #285 ) ;
#537 = VECTOR ( 'NONE', #80, 1000.000000000000227 ) ;
#538 = CIRCLE ( 'NONE', #184, 2.999999999999975131 ) ;
#539 = EDGE_CURVE ( 'NONE', #1071, #461, #939, .T. ) ;
#540 = CARTESIAN_POINT ( 'NONE',  ( 86.00000000000000000, 2.212369611108737200, -38.49999999999995737 ) ) ;
#541 = FACE_OUTER_BOUND ( 'NONE', #336, .T. ) ;
#542 = FACE_BOUND ( 'NONE', #1149, .T. ) ;
#543 = ORIENTED_EDGE ( 'NONE', *, *, #744, .T. ) ;
#544 = ORIENTED_EDGE ( 'NONE', *, *, #1163, .T. ) ;
#545 = EDGE_CURVE ( 'NONE', #332, #909, #850, .T. ) ;
#546 = VECTOR ( 'NONE', #228, 1000.000000000000000 ) ;
#547 = DIRECTION ( 'NONE',  ( 1.000000000000000000, -0.000000000000000000, 0.000000000000000000 ) ) ;
#548 = AXIS2_PLACEMENT_3D ( 'NONE', #809, #426, #413 ) ;
#549 = DIRECTION ( 'NONE',  ( 0.000000000000000000, 1.000000000000000000, 0.000000000000000000 ) ) ;
#550 = ORIENTED_EDGE ( 'NONE', *, *, #124, .T. ) ;
#551 = ORIENTED_EDGE ( 'NONE', *, *, #1051, .F. ) ;
#552 = FACE_OUTER_BOUND ( 'NONE', #557, .T. ) ;
#553 = CARTESIAN_POINT ( 'NONE',  ( -49.99999999999999289, 4.000000000000000000, -72.99999999999997158 ) ) ;
#554 = EDGE_LOOP ( 'NONE', ( #1128, #941 ) ) ;
#555 = LINE ( 'NONE', #72, #874 ) ;
#556 = DIRECTION ( 'NONE',  ( 0.000000000000000000, -1.000000000000000000, 0.000000000000000000 ) ) ;
#557 = EDGE_LOOP ( 'NONE', ( #1062, #719, #91, #754 ) ) ;
#558 = VECTOR ( 'NONE', #431, 1000.000000000000000 ) ;
#559 = DIRECTION ( 'NONE',  ( 0.000000000000000000, -1.000000000000000000, 0.000000000000000000 ) ) ;
#560 = ORIENTED_EDGE ( 'NONE', *, *, #694, .F. ) ;
#561 = DIRECTION ( 'NONE',  ( -0.000000000000000000, 1.000000000000000000, -0.000000000000000000 ) ) ;
#562 = FACE_BOUND ( 'NONE', #84, .T. ) ;
#563 = DIRECTION ( 'NONE',  ( 0.000000000000000000, 0.000000000000000000, -1.000000000000000000 ) ) ;
#564 = ORIENTED_EDGE ( 'NONE', *, *, #689, .F. ) ;
#565 = ORIENTED_EDGE ( 'NONE', *, *, #864, .T. ) ;
#566 = DIRECTION ( 'NONE',  ( 0.000000000000000000, 1.000000000000000000, 0.000000000000000000 ) ) ;
#567 = VERTEX_POINT ( 'NONE', #673 ) ;
#568 = AXIS2_PLACEMENT_3D ( 'NONE', #848, #266, #365 ) ;
#569 = DIRECTION ( 'NONE',  ( -0.000000000000000000, 1.000000000000000000, -0.000000000000000000 ) ) ;
#570 = CARTESIAN_POINT ( 'NONE',  ( -49.99999999999999289, 2.212369611108729206, 76.00000000000002842 ) ) ;
#571 = EDGE_CURVE ( 'NONE', #675, #249, #313, .T. ) ;
#572 = DATE_TIME_ROLE ( 'classification_date' ) ;
#573 = VERTEX_POINT ( 'NONE', #78 ) ;
#574 = CIRCLE ( 'NONE', #54, 1.500000000000001332 ) ;
#575 = DIRECTION ( 'NONE',  ( 0.000000000000000000, 0.000000000000000000, 1.000000000000000000 ) ) ;
#576 = EDGE_CURVE ( 'NONE', #1198, #573, #77, .T. ) ;
#577 = CARTESIAN_POINT ( 'NONE',  ( -49.99999999999999289, 4.000000000000000000, 79.00000000000000000 ) ) ;
#578 = VERTEX_POINT ( 'NONE', #93 ) ;
#579 = AXIS2_PLACEMENT_3D ( 'NONE', #807, #1066, #995 ) ;
#580 = ORIENTED_EDGE ( 'NONE', *, *, #15, .F. ) ;
#581 = EDGE_LOOP ( 'NONE', ( #103, #203 ) ) ;
#582 = CIRCLE ( 'NONE', #60, 1.500000000000001332 ) ;
#583 = DATE_AND_TIME ( #966, #26 ) ;
#584 = ORIENTED_EDGE ( 'NONE', *, *, #5, .F. ) ;
#585 = DIRECTION ( 'NONE',  ( 0.000000000000000000, 0.000000000000000000, -1.000000000000000000 ) ) ;
#586 = ADVANCED_FACE ( 'NONE', ( #473 ), #524, .F. ) ;
#587 = CALENDAR_DATE ( 2026, 6, 5 ) ;
#588 = VERTEX_POINT ( 'NONE', #647 ) ;
#589 = DIRECTION ( 'NONE',  ( 0.000000000000000000, 0.000000000000000000, -1.000000000000000000 ) ) ;
#590 = VERTEX_POINT ( 'NONE', #553 ) ;
#591 = AXIS2_PLACEMENT_3D ( 'NONE', #37, #616, #908 ) ;
#592 = AXIS2_PLACEMENT_3D ( 'NONE', #801, #52, #401 ) ;
#593 = APPROVAL ( #1148, 'æœª' ) ;
#594 = DIRECTION ( 'NONE',  ( -0.000000000000000000, -1.000000000000000000, -0.000000000000000000 ) ) ;
#595 = VERTEX_POINT ( 'NONE', #835 ) ;
#596 = CIRCLE ( 'NONE', #974, 1.500000000000008216 ) ;
#597 = CONICAL_SURFACE ( 'NONE', #855, 1.500000000000001332, 0.6981317007977280165 ) ;
#598 = DIRECTION ( 'NONE',  ( 0.000000000000000000, 1.000000000000000000, 0.000000000000000000 ) ) ;
#599 = CARTESIAN_POINT ( 'NONE',  ( 86.00000000000000000, 4.000000000000000000, -39.99999999999996447 ) ) ;
#600 = CARTESIAN_POINT ( 'NONE',  ( 49.99999999999999289, 4.000000000000000000, 73.00000000000005684 ) ) ;
#601 = ORIENTED_EDGE ( 'NONE', *, *, #960, .F. ) ;
#602 = FACE_OUTER_BOUND ( 'NONE', #1026, .T. ) ;
#603 = DIRECTION ( 'NONE',  ( -1.000000000000000000, 0.000000000000000000, 0.000000000000000000 ) ) ;
#604 = CARTESIAN_POINT ( 'NONE',  ( -49.99999999999999289, 2.212369611108664813, -75.99999999999997158 ) ) ;
#605 = ORIENTED_EDGE ( 'NONE', *, *, #396, .T. ) ;
#606 = VECTOR ( 'NONE', #610, 1000.000000000000114 ) ;
#607 = DIRECTION ( 'NONE',  ( 0.000000000000000000, -1.000000000000000000, 0.000000000000000000 ) ) ;
#608 = MANIFOLD_SOLID_BREP ( '\X2\501289d2\X0\1', #268 ) ;
#609 = CARTESIAN_POINT ( 'NONE',  ( 86.00000000000000000, 0.000000000000000000, 38.50000000000003553 ) ) ;
#610 = DIRECTION ( 'NONE',  ( 7.871877887341949318E-17, 0.7660444431189804559, -0.6427876096865363653 ) ) ;
#611 = PRODUCT_RELATED_PRODUCT_CATEGORY ( 'detail', '', ( #482 ) ) ;
#612 = CARTESIAN_POINT ( 'NONE',  ( -86.00000000000000000, 2.212369611108664813, 41.50000000000002132 ) ) ;
#613 = EDGE_CURVE ( 'NONE', #536, #1226, #151, .T. ) ;
#614 = DIRECTION ( 'NONE',  ( 0.000000000000000000, 0.000000000000000000, -1.000000000000000000 ) ) ;
#615 = LINE ( 'NONE', #1073, #206 ) ;
#616 = DIRECTION ( 'NONE',  ( -0.000000000000000000, 1.000000000000000000, -0.000000000000000000 ) ) ;
#617 = ORIENTED_EDGE ( 'NONE', *, *, #957, .T. ) ;
#618 = LINE ( 'NONE', #704, #13 ) ;
#619 = ORIENTED_EDGE ( 'NONE', *, *, #767, .T. ) ;
#620 = EDGE_CURVE ( 'NONE', #501, #742, #28, .T. ) ;
#621 = DIRECTION ( 'NONE',  ( 0.000000000000000000, 1.000000000000000000, 0.000000000000000000 ) ) ;
#622 = DIRECTION ( 'NONE',  ( 0.000000000000000000, 0.000000000000000000, 1.000000000000000000 ) ) ;
#623 = ADVANCED_FACE ( 'NONE', ( #1078 ), #321, .F. ) ;
#624 = CARTESIAN_POINT ( 'NONE',  ( 49.99999999999999289, 4.000000000000000000, -75.99999999999997158 ) ) ;
#625 = DIRECTION ( 'NONE',  ( 0.000000000000000000, 1.000000000000000000, 0.000000000000000000 ) ) ;
#626 = EDGE_LOOP ( 'NONE', ( #85, #1103, #3, #476 ) ) ;
#627 = VECTOR ( 'NONE', #359, 1000.000000000000000 ) ;
#628 = AXIS2_PLACEMENT_3D ( 'NONE', #856, #8, #392 ) ;
#629 = ORGANIZATION ( 'æœª', 'æœª', '' ) ;
#630 = DIRECTION ( 'NONE',  ( 0.000000000000000000, 0.000000000000000000, 1.000000000000000000 ) ) ;
#631 = CIRCLE ( 'NONE', #824, 3.000000000000002665 ) ;
#632 = FACE_BOUND ( 'NONE', #274, .T. ) ;
#633 = APPROVAL_DATE_TIME ( #254, #342 ) ;
#634 = VERTEX_POINT ( 'NONE', #577 ) ;
#635 = CARTESIAN_POINT ( 'NONE',  ( 86.00000000000000000, 2.212369611108737200, -38.49999999999995737 ) ) ;
#636 = CARTESIAN_POINT ( 'NONE',  ( 49.99999999999999289, 0.000000000000000000, -77.49999999999997158 ) ) ;
#637 = EDGE_LOOP ( 'NONE', ( #564, #1132, #738, #119 ) ) ;
#638 = VECTOR ( 'NONE', #569, 1000.000000000000000 ) ;
#639 = CIRCLE ( 'NONE', #388, 1.500000000000001332 ) ;
#640 = ORIENTED_EDGE ( 'NONE', *, *, #216, .F. ) ;
#641 = DIRECTION ( 'NONE',  ( 0.000000000000000000, 0.000000000000000000, 1.000000000000000000 ) ) ;
#642 = CARTESIAN_POINT ( 'NONE',  ( -49.99999999999999289, 4.000000000000000000, -75.99999999999997158 ) ) ;
#643 =( NAMED_UNIT ( * ) PLANE_ANGLE_UNIT ( ) SI_UNIT ( $, .RADIAN. ) );
#644 = ORIENTED_EDGE ( 'NONE', *, *, #733, .T. ) ;
#645 = ORIENTED_EDGE ( 'NONE', *, *, #821, .F. ) ;
#646 = DIRECTION ( 'NONE',  ( 0.000000000000000000, 1.000000000000000000, 0.000000000000000000 ) ) ;
#647 = CARTESIAN_POINT ( 'NONE',  ( 90.00000000000000000, 4.000000000000000000, -79.99999999999997158 ) ) ;
#648 = ORIENTED_EDGE ( 'NONE', *, *, #1180, .T. ) ;
#649 = VECTOR ( 'NONE', #522, 1000.000000000000114 ) ;
#650 = CYLINDRICAL_SURFACE ( 'NONE', #480, 1.499999999999994449 ) ;
#651 = VECTOR ( 'NONE', #330, 1000.000000000000000 ) ;
#652 = DIRECTION ( 'NONE',  ( 0.000000000000000000, 0.000000000000000000, 1.000000000000000000 ) ) ;
#653 = DIRECTION ( 'NONE',  ( 0.000000000000000000, 0.000000000000000000, 1.000000000000000000 ) ) ;
#654 = EDGE_LOOP ( 'NONE', ( #772, #565, #517, #764 ) ) ;
#655 = ORIENTED_EDGE ( 'NONE', *, *, #348, .T. ) ;
#656 = DIRECTION ( 'NONE',  ( -1.000000000000000000, 0.000000000000000000, -0.000000000000000000 ) ) ;
#657 = ADVANCED_FACE ( 'NONE', ( #552 ), #1170, .F. ) ;
#658 = ORIENTED_EDGE ( 'NONE', *, *, #195, .F. ) ;
#659 = DIRECTION ( 'NONE',  ( 7.871877887341949318E-17, 0.7660444431189804559, -0.6427876096865363653 ) ) ;
#660 = DIRECTION ( 'NONE',  ( 0.000000000000000000, 0.000000000000000000, -1.000000000000000000 ) ) ;
#661 = APPROVAL_ROLE ( '' ) ;
#662 = VERTEX_POINT ( 'NONE', #928 ) ;
#663 = AXIS2_PLACEMENT_3D ( 'NONE', #894, #118, #589 ) ;
#664 = CIRCLE ( 'NONE', #911, 1.500000000000008216 ) ;
#665 = ORIENTED_EDGE ( 'NONE', *, *, #620, .F. ) ;
#666 = DIRECTION ( 'NONE',  ( -0.000000000000000000, -0.000000000000000000, 1.000000000000000000 ) ) ;
#667 = CARTESIAN_POINT ( 'NONE',  ( 90.00000000000000000, 0.000000000000000000, -79.99999999999997158 ) ) ;
#668 = APPROVAL_DATE_TIME ( #768, #593 ) ;
#669 = EDGE_LOOP ( 'NONE', ( #90, #1225, #48, #374 ) ) ;
#670 = ORIENTED_EDGE ( 'NONE', *, *, #250, .F. ) ;
#671 = VERTEX_POINT ( 'NONE', #459 ) ;
#672 = ADVANCED_FACE ( 'NONE', ( #936 ), #1129, .F. ) ;
#673 = CARTESIAN_POINT ( 'NONE',  ( -49.99999999999999289, 4.000000000000000000, 73.00000000000005684 ) ) ;
#674 = EDGE_CURVE ( 'NONE', #1123, #595, #1050, .T. ) ;
#675 = VERTEX_POINT ( 'NONE', #18 ) ;
#676 = LOCAL_TIME ( 21, 17, 9.000000000000000000, #194 ) ;
#677 = CARTESIAN_POINT ( 'NONE',  ( 86.00000000000000000, 0.000000000000000000, 40.00000000000002842 ) ) ;
#678 = AXIS2_PLACEMENT_3D ( 'NONE', #434, #148, #987 ) ;
#679 = ORIENTED_EDGE ( 'NONE', *, *, #446, .T. ) ;
#680 = AXIS2_PLACEMENT_3D ( 'NONE', #904, #799, #153 ) ;
#681 = DIRECTION ( 'NONE',  ( -0.000000000000000000, 1.000000000000000000, -0.000000000000000000 ) ) ;
#682 = LINE ( 'NONE', #66, #1076 ) ;
#683 = AXIS2_PLACEMENT_3D ( 'NONE', #57, #1160, #311 ) ;
#684 = VERTEX_POINT ( 'NONE', #141 ) ;
#685 = CARTESIAN_POINT ( 'NONE',  ( -49.99999999999999289, 0.000000000000000000, 74.50000000000002842 ) ) ;
#686 = ORIENTED_EDGE ( 'NONE', *, *, #1184, .T. ) ;
#687 = ORIENTED_EDGE ( 'NONE', *, *, #34, .T. ) ;
#688 = CC_DESIGN_APPROVAL ( #593, ( #785 ) ) ;
#689 = EDGE_CURVE ( 'NONE', #377, #449, #1001, .T. ) ;
#690 = LINE ( 'NONE', #220, #875 ) ;
#691 = DIRECTION ( 'NONE',  ( -0.000000000000000000, 1.000000000000000000, -0.000000000000000000 ) ) ;
#692 = CARTESIAN_POINT ( 'NONE',  ( 49.99999999999999289, 0.000000000000000000, -75.99999999999997158 ) ) ;
#693 = AXIS2_PLACEMENT_3D ( 'NONE', #1201, #1116, #641 ) ;
#694 = EDGE_CURVE ( 'NONE', #306, #590, #451, .T. ) ;
#695 = ADVANCED_FACE ( 'NONE', ( #134 ), #1164, .F. ) ;
#696 = PRODUCT_DEFINITION_SHAPE ( 'NONE', 'NONE',  #174 ) ;
#697 = CARTESIAN_POINT ( 'NONE',  ( -86.00000000000000000, 2.212369611108664813, 40.00000000000002842 ) ) ;
#698 = FACE_OUTER_BOUND ( 'NONE', #1219, .T. ) ;
#699 = DIRECTION ( 'NONE',  ( -0.000000000000000000, 1.000000000000000000, -0.000000000000000000 ) ) ;
#700 = DIRECTION ( 'NONE',  ( 0.000000000000000000, 0.000000000000000000, -1.000000000000000000 ) ) ;
#701 = CARTESIAN_POINT ( 'NONE',  ( -49.99999999999999289, 0.000000000000000000, 76.00000000000002842 ) ) ;
#702 = LINE ( 'NONE', #1087, #14 ) ;
#703 = ORIENTED_EDGE ( 'NONE', *, *, #348, .F. ) ;
#704 = CARTESIAN_POINT ( 'NONE',  ( 86.00000000000000000, 2.212369611108664813, 41.50000000000002132 ) ) ;
#705 = VECTOR ( 'NONE', #530, 1000.000000000000000 ) ;
#706 = CARTESIAN_POINT ( 'NONE',  ( -86.00000000000000000, 0.000000000000000000, 40.00000000000002842 ) ) ;
#707 = CARTESIAN_POINT ( 'NONE',  ( -49.99999999999999289, 4.000000000000000000, -75.99999999999997158 ) ) ;
#708 = DIRECTION ( 'NONE',  ( 0.000000000000000000, 0.000000000000000000, 1.000000000000000000 ) ) ;
#709 = DIRECTION ( 'NONE',  ( 0.000000000000000000, -1.000000000000000000, 0.000000000000000000 ) ) ;
#710 = ORIENTED_EDGE ( 'NONE', *, *, #981, .F. ) ;
#711 = LINE ( 'NONE', #56, #1085 ) ;
#712 = EDGE_CURVE ( 'NONE', #857, #204, #631, .T. ) ;
#713 = VECTOR ( 'NONE', #121, 1000.000000000000000 ) ;
#714 = DIRECTION ( 'NONE',  ( 0.000000000000000000, 0.000000000000000000, -1.000000000000000000 ) ) ;
#715 = DIRECTION ( 'NONE',  ( 0.000000000000000000, 0.000000000000000000, 1.000000000000000000 ) ) ;
#716 = CARTESIAN_POINT ( 'NONE',  ( 49.99999999999999289, 0.000000000000000000, -75.99999999999997158 ) ) ;
#717 = FACE_OUTER_BOUND ( 'NONE', #877, .T. ) ;
#718 = DIRECTION ( 'NONE',  ( 0.000000000000000000, 0.000000000000000000, -1.000000000000000000 ) ) ;
#719 = ORIENTED_EDGE ( 'NONE', *, *, #1097, .T. ) ;
#720 = CARTESIAN_POINT ( 'NONE',  ( 49.99999999999999289, 0.000000000000000000, 77.50000000000002842 ) ) ;
#721 = CARTESIAN_POINT ( 'NONE',  ( 86.00000000000000000, 4.000000000000000000, -39.99999999999996447 ) ) ;
#722 = AXIS2_PLACEMENT_3D ( 'NONE', #1117, #1125, #1112 ) ;
#723 = AXIS2_PLACEMENT_3D ( 'NONE', #120, #323, #878 ) ;
#724 = CIRCLE ( 'NONE', #305, 3.000000000000002665 ) ;
#725 = CARTESIAN_POINT ( 'NONE',  ( 86.00000000000000000, 0.000000000000000000, 40.00000000000002842 ) ) ;
#726 = CARTESIAN_POINT ( 'NONE',  ( 86.00000000000000000, 0.000000000000000000, -39.99999999999996447 ) ) ;
#727 =( LENGTH_UNIT ( ) NAMED_UNIT ( * ) SI_UNIT ( .MILLI., .METRE. ) );
#728 = EDGE_LOOP ( 'NONE', ( #951, #171 ) ) ;
#729 = EDGE_CURVE ( 'NONE', #249, #675, #307, .T. ) ;
#730 = CARTESIAN_POINT ( 'NONE',  ( -90.00000000000000000, 4.000000000000000000, 80.00000000000002842 ) ) ;
#731 = DIRECTION ( 'NONE',  ( 1.000000000000000000, 0.000000000000000000, -0.000000000000000000 ) ) ;
#732 = CARTESIAN_POINT ( 'NONE',  ( -49.99999999999999289, 0.000000000000000000, -74.49999999999997158 ) ) ;
#733 = EDGE_CURVE ( 'NONE', #501, #1198, #22, .T. ) ;
#734 = VERTEX_POINT ( 'NONE', #316 ) ;
#735 = VECTOR ( 'NONE', #152, 1000.000000000000000 ) ;
#736 = ORIENTED_EDGE ( 'NONE', *, *, #674, .F. ) ;
#737 = DIRECTION ( 'NONE',  ( 0.000000000000000000, 1.000000000000000000, 0.000000000000000000 ) ) ;
#738 = ORIENTED_EDGE ( 'NONE', *, *, #885, .T. ) ;
#739 = CARTESIAN_POINT ( 'NONE',  ( 49.99999999999999289, 2.212369611108664813, -77.49999999999997158 ) ) ;
#740 = CARTESIAN_POINT ( 'NONE',  ( -86.00000000000000000, 0.000000000000000000, -39.99999999999997158 ) ) ;
#741 = CARTESIAN_POINT ( 'NONE',  ( 49.99999999999999289, 4.000000000000000000, 76.00000000000002842 ) ) ;
#742 = VERTEX_POINT ( 'NONE', #1091 ) ;
#743 = EDGE_LOOP ( 'NONE', ( #440, #1088, #299, #889 ) ) ;
#744 = EDGE_CURVE ( 'NONE', #943, #224, #31, .T. ) ;
#745 = CARTESIAN_POINT ( 'NONE',  ( -90.00000000000000000, 4.000000000000000000, 80.00000000000002842 ) ) ;
#746 = EDGE_LOOP ( 'NONE', ( #1192, #605, #863, #1040 ) ) ;
#747 = CIRCLE ( 'NONE', #1108, 1.500000000000001332 ) ;
#748 = DIRECTION ( 'NONE',  ( 0.000000000000000000, 1.000000000000000000, 0.000000000000000000 ) ) ;
#749 = AXIS2_PLACEMENT_3D ( 'NONE', #933, #918, #1206 ) ;
#750 = DIRECTION ( 'NONE',  ( 0.000000000000000000, 1.000000000000000000, 0.000000000000000000 ) ) ;
#751 = PERSON_AND_ORGANIZATION_ROLE ( 'design_owner' ) ;
#752 = ORIENTED_EDGE ( 'NONE', *, *, #258, .F. ) ;
#753 = ORIENTED_EDGE ( 'NONE', *, *, #694, .T. ) ;
#754 = ORIENTED_EDGE ( 'NONE', *, *, #424, .F. ) ;
#755 = ADVANCED_FACE ( 'NONE', ( #1099 ), #238, .F. ) ;
#756 = DIRECTION ( 'NONE',  ( 0.000000000000000000, 0.000000000000000000, -1.000000000000000000 ) ) ;
#757 = AXIS2_PLACEMENT_3D ( 'NONE', #1177, #699, #985 ) ;
#758 = LINE ( 'NONE', #469, #199 ) ;
#759 = ORIENTED_EDGE ( 'NONE', *, *, #512, .F. ) ;
#760 = ORIENTED_EDGE ( 'NONE', *, *, #237, .F. ) ;
#761 = AXIS2_PLACEMENT_3D ( 'NONE', #789, #603, #880 ) ;
#762 = AXIS2_PLACEMENT_3D ( 'NONE', #677, #17, #996 ) ;
#763 = CC_DESIGN_PERSON_AND_ORGANIZATION_ASSIGNMENT ( #464, #751, ( #482 ) ) ;
#764 = ORIENTED_EDGE ( 'NONE', *, *, #843, .F. ) ;
#765 = EDGE_CURVE ( 'NONE', #774, #1226, #333, .T. ) ;
#766 = DIRECTION ( 'NONE',  ( -0.000000000000000000, 1.000000000000000000, -0.000000000000000000 ) ) ;
#767 = EDGE_CURVE ( 'NONE', #75, #385, #1068, .T. ) ;
#768 = DATE_AND_TIME ( #587, #946 ) ;
#769 = ORIENTED_EDGE ( 'NONE', *, *, #477, .F. ) ;
#770 = DIRECTION ( 'NONE',  ( 0.000000000000000000, 0.000000000000000000, -1.000000000000000000 ) ) ;
#771 = ORIENTED_EDGE ( 'NONE', *, *, #446, .F. ) ;
#772 = ORIENTED_EDGE ( 'NONE', *, *, #502, .F. ) ;
#773 = EDGE_CURVE ( 'NONE', #224, #943, #496, .T. ) ;
#774 = VERTEX_POINT ( 'NONE', #519 ) ;
#775 = AXIS2_PLACEMENT_3D ( 'NONE', #182, #737, #452 ) ;
#776 = ORIENTED_EDGE ( 'NONE', *, *, #712, .F. ) ;
#777 = CARTESIAN_POINT ( 'NONE',  ( -86.00000000000000000, 0.000000000000000000, -41.49999999999996447 ) ) ;
#778 = DATE_AND_TIME ( #860, #1109 ) ;
#779 = LINE ( 'NONE', #954, #481 ) ;
#780 = CARTESIAN_POINT ( 'NONE',  ( 49.99999999999999289, 2.212369611108729206, 76.00000000000002842 ) ) ;
#781 = CARTESIAN_POINT ( 'NONE',  ( -86.00000000000000000, 0.000000000000000000, 40.00000000000002842 ) ) ;
#782 = CARTESIAN_POINT ( 'NONE',  ( 86.00000000000000000, 2.212369611108664813, 38.50000000000003553 ) ) ;
#783 = AXIS2_PLACEMENT_3D ( 'NONE', #721, #270, #455 ) ;
#784 = CYLINDRICAL_SURFACE ( 'NONE', #680, 1.499999999999994449 ) ;
#785 = PRODUCT_DEFINITION_FORMATION_WITH_SPECIFIED_SOURCE ( 'ä»', '', #482, .NOT_KNOWN. ) ;
#786 = VECTOR ( 'NONE', #340, 1000.000000000000000 ) ;
#787 = EDGE_CURVE ( 'NONE', #578, #466, #104, .T. ) ;
#788 = CARTESIAN_POINT ( 'NONE',  ( -86.00000000000000000, 2.212369611108664813, -39.99999999999997158 ) ) ;
#789 = CARTESIAN_POINT ( 'NONE',  ( 90.00000000000000000, 4.000000000000000000, 80.00000000000002842 ) ) ;
#790 = CYLINDRICAL_SURFACE ( 'NONE', #757, 1.500000000000001332 ) ;
#791 = VERTEX_POINT ( 'NONE', #430 ) ;
#792 = AXIS2_PLACEMENT_3D ( 'NONE', #423, #621, #527 ) ;
#793 = CIRCLE ( 'NONE', #41, 1.499999999999994449 ) ;
#794 = ADVANCED_FACE ( 'NONE', ( #44 ), #1187, .F. ) ;
#795 = DIRECTION ( 'NONE',  ( 0.000000000000000000, 0.000000000000000000, -1.000000000000000000 ) ) ;
#796 = EDGE_CURVE ( 'NONE', #1072, #4, #350, .T. ) ;
#797 = CARTESIAN_POINT ( 'NONE',  ( -86.00000000000000000, 4.000000000000000000, 43.00000000000002842 ) ) ;
#798 = VERTEX_POINT ( 'NONE', #1083 ) ;
#799 = DIRECTION ( 'NONE',  ( -0.000000000000000000, 1.000000000000000000, -0.000000000000000000 ) ) ;
#800 = ORIENTED_EDGE ( 'NONE', *, *, #1157, .F. ) ;
#801 = CARTESIAN_POINT ( 'NONE',  ( -86.00000000000000000, 0.000000000000000000, -39.99999999999997158 ) ) ;
#802 = DIRECTION ( 'NONE',  ( 0.000000000000000000, 0.000000000000000000, 1.000000000000000000 ) ) ;
#803 = DIRECTION ( 'NONE',  ( 0.000000000000000000, -1.000000000000000000, 0.000000000000000000 ) ) ;
#804 = LINE ( 'NONE', #1197, #705 ) ;
#805 = ORIENTED_EDGE ( 'NONE', *, *, #216, .T. ) ;
#806 = AXIS2_PLACEMENT_3D ( 'NONE', #1013, #826, #64 ) ;
#807 = CARTESIAN_POINT ( 'NONE',  ( 86.00000000000000000, 2.212369611108664813, 40.00000000000002842 ) ) ;
#808 = DIRECTION ( 'NONE',  ( 0.000000000000000000, 0.000000000000000000, 1.000000000000000000 ) ) ;
#809 = CARTESIAN_POINT ( 'NONE',  ( 49.99999999999999289, 2.212369611108664813, -75.99999999999997158 ) ) ;
#810 = DIRECTION ( 'NONE',  ( -1.000000000000000000, -0.000000000000000000, -0.000000000000000000 ) ) ;
#811 = VECTOR ( 'NONE', #666, 1000.000000000000000 ) ;
#812 = AXIS2_PLACEMENT_3D ( 'NONE', #871, #1155, #303 ) ;
#813 = FACE_OUTER_BOUND ( 'NONE', #243, .T. ) ;
#814 = DIRECTION ( 'NONE',  ( 0.000000000000000000, 0.000000000000000000, 1.000000000000000000 ) ) ;
#815 = FACE_OUTER_BOUND ( 'NONE', #746, .T. ) ;
#816 = ORIENTED_EDGE ( 'NONE', *, *, #865, .F. ) ;
#817 = DIRECTION ( 'NONE',  ( 0.000000000000000000, 1.000000000000000000, 0.000000000000000000 ) ) ;
#818 = LINE ( 'NONE', #252, #627 ) ;
#819 = PLANE ( 'NONE',  #749 ) ;
#820 = ORIENTED_EDGE ( 'NONE', *, *, #88, .T. ) ;
#821 = EDGE_CURVE ( 'NONE', #1047, #671, #1214, .T. ) ;
#822 = ADVANCED_FACE ( 'NONE', ( #906 ), #267, .F. ) ;
#823 = PLANE ( 'NONE',  #1038 ) ;
#824 = AXIS2_PLACEMENT_3D ( 'NONE', #493, #1061, #969 ) ;
#825 = DIRECTION ( 'NONE',  ( 0.000000000000000000, 0.000000000000000000, 1.000000000000000000 ) ) ;
#826 = DIRECTION ( 'NONE',  ( 0.000000000000000000, 1.000000000000000000, 0.000000000000000000 ) ) ;
#827 = EDGE_LOOP ( 'NONE', ( #304, #687, #478, #640 ) ) ;
#828 = CC_DESIGN_PERSON_AND_ORGANIZATION_ASSIGNMENT ( #1045, #961, ( #785 ) ) ;
#829 = CARTESIAN_POINT ( 'NONE',  ( -90.00000000000000000, 0.000000000000000000, -79.99999999999997158 ) ) ;
#830 = DIRECTION ( 'NONE',  ( 0.000000000000000000, -1.000000000000000000, 0.000000000000000000 ) ) ;
#831 = FACE_BOUND ( 'NONE', #166, .T. ) ;
#832 = ORIENTED_EDGE ( 'NONE', *, *, #1000, .F. ) ;
#833 = VECTOR ( 'NONE', #375, 1000.000000000000000 ) ;
#834 = ORIENTED_EDGE ( 'NONE', *, *, #477, .T. ) ;
#835 = CARTESIAN_POINT ( 'NONE',  ( -86.00000000000000000, 4.000000000000000000, 37.00000000000002842 ) ) ;
#836 = ORIENTED_EDGE ( 'NONE', *, *, #485, .T. ) ;
#837 = DIRECTION ( 'NONE',  ( 7.871877887341949318E-17, 0.7660444431189804559, -0.6427876096865363653 ) ) ;
#838 = FACE_BOUND ( 'NONE', #841, .T. ) ;
#839 = EDGE_CURVE ( 'NONE', #1072, #1071, #682, .T. ) ;
#840 = CARTESIAN_POINT ( 'NONE',  ( -49.99999999999999289, 2.212369611108729206, 74.50000000000002842 ) ) ;
#841 = EDGE_LOOP ( 'NONE', ( #507, #101 ) ) ;
#842 = ORIENTED_EDGE ( 'NONE', *, *, #539, .F. ) ;
#843 = EDGE_CURVE ( 'NONE', #964, #590, #1018, .T. ) ;
#844 = ORIENTED_EDGE ( 'NONE', *, *, #441, .T. ) ;
#845 = DIRECTION ( 'NONE',  ( 0.000000000000000000, -1.000000000000000000, 0.000000000000000000 ) ) ;
#846 = FACE_OUTER_BOUND ( 'NONE', #1183, .T. ) ;
#847 = ORIENTED_EDGE ( 'NONE', *, *, #308, .T. ) ;
#848 = CARTESIAN_POINT ( 'NONE',  ( 49.99999999999999289, 2.212369611108664813, -75.99999999999997158 ) ) ;
#849 = ORIENTED_EDGE ( 'NONE', *, *, #994, .F. ) ;
#850 = LINE ( 'NONE', #300, #887 ) ;
#851 = SECURITY_CLASSIFICATION_LEVEL ( 'unclassified' ) ;
#852 = ORIENTED_EDGE ( 'NONE', *, *, #396, .F. ) ;
#853 = CARTESIAN_POINT ( 'NONE',  ( -49.99999999999999289, 4.000000000000000000, 76.00000000000002842 ) ) ;
#854 = VECTOR ( 'NONE', #447, 1000.000000000000114 ) ;
#855 = AXIS2_PLACEMENT_3D ( 'NONE', #876, #23, #869 ) ;
#856 = CARTESIAN_POINT ( 'NONE',  ( 86.00000000000000000, 2.212369611108664813, 40.00000000000002842 ) ) ;
#857 = VERTEX_POINT ( 'NONE', #1030 ) ;
#858 = EDGE_CURVE ( 'NONE', #909, #857, #555, .T. ) ;
#859 = ORIENTED_EDGE ( 'NONE', *, *, #843, .T. ) ;
#860 = CALENDAR_DATE ( 2026, 6, 5 ) ;
#861 = DIRECTION ( 'NONE',  ( 7.871877887341949318E-17, 0.7660444431189804559, -0.6427876096865363653 ) ) ;
#862 = ORIENTED_EDGE ( 'NONE', *, *, #858, .T. ) ;
#863 = ORIENTED_EDGE ( 'NONE', *, *, #839, .T. ) ;
#864 = EDGE_CURVE ( 'NONE', #1033, #306, #453, .T. ) ;
#865 = EDGE_CURVE ( 'NONE', #391, #4, #259, .T. ) ;
#866 = CIRCLE ( 'NONE', #338, 1.499999999999994449 ) ;
#867 = COORDINATED_UNIVERSAL_TIME_OFFSET ( 8, 0, .AHEAD. ) ;
#868 = VECTOR ( 'NONE', #352, 1000.000000000000000 ) ;
#869 = DIRECTION ( 'NONE',  ( 0.000000000000000000, 0.000000000000000000, 1.000000000000000000 ) ) ;
#870 = CARTESIAN_POINT ( 'NONE',  ( -86.00000000000000000, 0.000000000000000000, 40.00000000000002842 ) ) ;
#871 = CARTESIAN_POINT ( 'NONE',  ( -86.00000000000000000, 2.212369611108664813, -39.99999999999997158 ) ) ;
#872 = ADVANCED_FACE ( 'NONE', ( #155 ), #823, .F. ) ;
#873 = DIRECTION ( 'NONE',  ( -0.000000000000000000, 1.000000000000000000, -0.000000000000000000 ) ) ;
#874 = VECTOR ( 'NONE', #837, 1000.000000000000114 ) ;
#875 = VECTOR ( 'NONE', #1084, 1000.000000000000000 ) ;
#876 = CARTESIAN_POINT ( 'NONE',  ( -49.99999999999999289, 2.212369611108664813, -75.99999999999997158 ) ) ;
#877 = EDGE_LOOP ( 'NONE', ( #1127, #844, #1065, #235 ) ) ;
#878 = DIRECTION ( 'NONE',  ( 0.000000000000000000, 0.000000000000000000, 1.000000000000000000 ) ) ;
#879 = FACE_OUTER_BOUND ( 'NONE', #1166, .T. ) ;
#880 = DIRECTION ( 'NONE',  ( 0.000000000000000000, 0.000000000000000000, 1.000000000000000000 ) ) ;
#881 = CIRCLE ( 'NONE', #806, 1.499999999999994449 ) ;
#882 = EDGE_CURVE ( 'NONE', #1071, #798, #1209, .T. ) ;
#883 = CYLINDRICAL_SURFACE ( 'NONE', #20, 1.499999999999994449 ) ;
#884 = AXIS2_PLACEMENT_3D ( 'NONE', #745, #281, #656 ) ;
#885 = EDGE_CURVE ( 'NONE', #935, #422, #1216, .T. ) ;
#886 = CARTESIAN_POINT ( 'NONE',  ( 49.99999999999999289, 2.212369611108664813, -75.99999999999997158 ) ) ;
#887 = VECTOR ( 'NONE', #766, 1000.000000000000000 ) ;
#888 = LINE ( 'NONE', #782, #606 ) ;
#889 = ORIENTED_EDGE ( 'NONE', *, *, #744, .F. ) ;
#890 = CARTESIAN_POINT ( 'NONE',  ( -90.00000000000000000, 0.000000000000000000, 80.00000000000002842 ) ) ;
#891 = ADVANCED_FACE ( 'NONE', ( #813 ), #162, .F. ) ;
#892 = CONICAL_SURFACE ( 'NONE', #1059, 1.500000000000001332, 0.6981317007977343447 ) ;
#893 = AXIS2_PLACEMENT_3D ( 'NONE', #505, #901, #149 ) ;
#894 = CARTESIAN_POINT ( 'NONE',  ( 86.00000000000000000, 4.000000000000000000, 40.00000000000002842 ) ) ;
#895 = DIRECTION ( 'NONE',  ( -0.000000000000000000, 1.000000000000000000, -0.000000000000000000 ) ) ;
#896 = LINE ( 'NONE', #1182, #40 ) ;
#897 = ORIENTED_EDGE ( 'NONE', *, *, #1027, .F. ) ;
#898 = DIRECTION ( 'NONE',  ( 0.000000000000000000, 0.000000000000000000, 1.000000000000000000 ) ) ;
#899 = EDGE_LOOP ( 'NONE', ( #1035, #998, #619, #658 ) ) ;
#900 = DIRECTION ( 'NONE',  ( 0.000000000000000000, 1.000000000000000000, 0.000000000000000000 ) ) ;
#901 = DIRECTION ( 'NONE',  ( 0.000000000000000000, 1.000000000000000000, 0.000000000000000000 ) ) ;
#902 = DIRECTION ( 'NONE',  ( 0.000000000000000000, 1.000000000000000000, 0.000000000000000000 ) ) ;
#903 = ORIENTED_EDGE ( 'NONE', *, *, #88, .F. ) ;
#904 = CARTESIAN_POINT ( 'NONE',  ( 86.00000000000000000, 0.000000000000000000, 40.00000000000002842 ) ) ;
#905 = AXIS2_PLACEMENT_3D ( 'NONE', #642, #830, #276 ) ;
#906 = FACE_OUTER_BOUND ( 'NONE', #637, .T. ) ;
#907 = DIRECTION ( 'NONE',  ( 0.000000000000000000, 0.000000000000000000, 1.000000000000000000 ) ) ;
#908 = DIRECTION ( 'NONE',  ( 0.000000000000000000, 0.000000000000000000, 1.000000000000000000 ) ) ;
#909 = VERTEX_POINT ( 'NONE', #739 ) ;
#910 = AXIS2_PLACEMENT_3D ( 'NONE', #1110, #86, #630 ) ;
#911 = AXIS2_PLACEMENT_3D ( 'NONE', #1171, #142, #802 ) ;
#912 = DIRECTION ( 'NONE',  ( 1.000000000000000000, 0.000000000000000000, 0.000000000000000000 ) ) ;
#913 = CYLINDRICAL_SURFACE ( 'NONE', #1049, 1.500000000000001332 ) ;
#914 = LINE ( 'NONE', #732, #1191 ) ;
#915 = EDGE_LOOP ( 'NONE', ( #752, #550, #344, #102 ) ) ;
#916 = DIRECTION ( 'NONE',  ( 0.000000000000000000, 0.000000000000000000, 1.000000000000000000 ) ) ;
#917 = DIRECTION ( 'NONE',  ( -0.000000000000000000, 1.000000000000000000, -0.000000000000000000 ) ) ;
#918 = DIRECTION ( 'NONE',  ( 0.000000000000000000, -1.000000000000000000, 0.000000000000000000 ) ) ;
#919 = ORIENTED_EDGE ( 'NONE', *, *, #512, .T. ) ;
#920 = VECTOR ( 'NONE', #1105, 1000.000000000000000 ) ;
#921 = AXIS2_PLACEMENT_3D ( 'NONE', #983, #902, #1172 ) ;
#922 = EDGE_CURVE ( 'NONE', #1047, #578, #462, .T. ) ;
#923 = DIRECTION ( 'NONE',  ( 0.000000000000000000, 0.000000000000000000, -1.000000000000000000 ) ) ;
#924 = CARTESIAN_POINT ( 'NONE',  ( -49.99999999999999289, 2.212369611108729206, 76.00000000000002842 ) ) ;
#925 = DIRECTION ( 'NONE',  ( -0.000000000000000000, 1.000000000000000000, -0.000000000000000000 ) ) ;
#926 = EDGE_LOOP ( 'NONE', ( #241, #474 ) ) ;
#927 = EDGE_LOOP ( 'NONE', ( #39, #655, #897, #289 ) ) ;
#928 = CARTESIAN_POINT ( 'NONE',  ( -49.99999999999999289, 0.000000000000000000, 77.50000000000002842 ) ) ;
#929 = ORIENTED_EDGE ( 'NONE', *, *, #133, .F. ) ;
#930 = EDGE_CURVE ( 'NONE', #183, #75, #1124, .T. ) ;
#931 = DIRECTION ( 'NONE',  ( -1.000000000000000000, -0.000000000000000000, -0.000000000000000000 ) ) ;
#932 = DIRECTION ( 'NONE',  ( 0.000000000000000000, 0.000000000000000000, -1.000000000000000000 ) ) ;
#933 = CARTESIAN_POINT ( 'NONE',  ( 0.000000000000000000, 4.000000000000000000, 0.000000000000000000 ) ) ;
#934 = ORIENTED_EDGE ( 'NONE', *, *, #539, .T. ) ;
#935 = VERTEX_POINT ( 'NONE', #540 ) ;
#936 = FACE_OUTER_BOUND ( 'NONE', #1140, .T. ) ;
#937 = ORIENTED_EDGE ( 'NONE', *, *, #1014, .F. ) ;
#938 = DIRECTION ( 'NONE',  ( 0.000000000000000000, 0.000000000000000000, 1.000000000000000000 ) ) ;
#939 = LINE ( 'NONE', #1144, #454 ) ;
#940 = DIRECTION ( 'NONE',  ( 0.000000000000000000, 0.000000000000000000, 1.000000000000000000 ) ) ;
#941 = ORIENTED_EDGE ( 'NONE', *, *, #712, .T. ) ;
#942 = ORIENTED_EDGE ( 'NONE', *, *, #1086, .F. ) ;
#943 = VERTEX_POINT ( 'NONE', #251 ) ;
#944 = AXIS2_PLACEMENT_3D ( 'NONE', #67, #825, #731 ) ;
#945 = CARTESIAN_POINT ( 'NONE',  ( -86.00000000000000000, 4.000000000000000000, -42.99999999999997868 ) ) ;
#946 = LOCAL_TIME ( 21, 17, 9.000000000000000000, #105 ) ;
#947 = APPROVAL_ROLE ( '' ) ;
#948 = EDGE_LOOP ( 'NONE', ( #1212, #759, #10, #132 ) ) ;
#949 = CARTESIAN_POINT ( 'NONE',  ( -49.99999999999999289, 4.000000000000000000, 76.00000000000002842 ) ) ;
#950 = ORIENTED_EDGE ( 'NONE', *, *, #416, .T. ) ;
#951 = ORIENTED_EDGE ( 'NONE', *, *, #729, .T. ) ;
#952 = CIRCLE ( 'NONE', #415, 1.500000000000008216 ) ;
#953 = PERSON_AND_ORGANIZATION_ROLE ( 'creator' ) ;
#954 = CARTESIAN_POINT ( 'NONE',  ( 90.00000000000000000, 4.000000000000000000, -79.99999999999997158 ) ) ;
#955 = CIRCLE ( 'NONE', #387, 1.499999999999994449 ) ;
#956 = AXIS2_PLACEMENT_3D ( 'NONE', #949, #7, #770 ) ;
#957 = EDGE_CURVE ( 'NONE', #385, #75, #955, .T. ) ;
#958 = ORIENTED_EDGE ( 'NONE', *, *, #427, .T. ) ;
#959 = ORIENTED_EDGE ( 'NONE', *, *, #858, .F. ) ;
#960 = EDGE_CURVE ( 'NONE', #573, #1198, #993, .T. ) ;
#961 = PERSON_AND_ORGANIZATION_ROLE ( 'design_supplier' ) ;
#962 = VERTEX_POINT ( 'NONE', #168 ) ;
#963 = CARTESIAN_POINT ( 'NONE',  ( -90.00000000000000000, 4.000000000000000000, -79.99999999999997158 ) ) ;
#964 = VERTEX_POINT ( 'NONE', #1204 ) ;
#965 = CIRCLE ( 'NONE', #1131, 1.500000000000001332 ) ;
#966 = CALENDAR_DATE ( 2026, 6, 5 ) ;
#967 = AXIS2_PLACEMENT_3D ( 'NONE', #373, #50, #714 ) ;
#968 = ORIENTED_EDGE ( 'NONE', *, *, #92, .F. ) ;
#969 = DIRECTION ( 'NONE',  ( 0.000000000000000000, 0.000000000000000000, -1.000000000000000000 ) ) ;
#970 = VERTEX_POINT ( 'NONE', #284 ) ;
#971 = CIRCLE ( 'NONE', #35, 1.500000000000001332 ) ;
#972 = LINE ( 'NONE', #315, #329 ) ;
#973 = EDGE_LOOP ( 'NONE', ( #1221, #834 ) ) ;
#974 = AXIS2_PLACEMENT_3D ( 'NONE', #1074, #997, #499 ) ;
#975 = AXIS2_PLACEMENT_3D ( 'NONE', #324, #520, #1181 ) ;
#976 = CARTESIAN_POINT ( 'NONE',  ( 86.00000000000000000, 0.000000000000000000, 40.00000000000002842 ) ) ;
#977 = EDGE_CURVE ( 'NONE', #165, #684, #1199, .T. ) ;
#978 = LINE ( 'NONE', #1094, #735 ) ;
#979 = LINE ( 'NONE', #1185, #398 ) ;
#980 = ORIENTED_EDGE ( 'NONE', *, *, #922, .T. ) ;
#981 = EDGE_CURVE ( 'NONE', #774, #662, #205, .T. ) ;
#982 = CARTESIAN_POINT ( 'NONE',  ( 86.00000000000000000, 4.000000000000000000, 43.00000000000002842 ) ) ;
#983 = CARTESIAN_POINT ( 'NONE',  ( -49.99999999999999289, 2.212369611108729206, 76.00000000000002842 ) ) ;
#984 = CONICAL_SURFACE ( 'NONE', #280, 1.499999999999994449, 0.6981317007977280165 ) ;
#985 = DIRECTION ( 'NONE',  ( 0.000000000000000000, 0.000000000000000000, 1.000000000000000000 ) ) ;
#986 = ADVANCED_FACE ( 'NONE', ( #1104 ), #650, .F. ) ;
#987 = DIRECTION ( 'NONE',  ( 0.000000000000000000, 0.000000000000000000, 1.000000000000000000 ) ) ;
#988 = CARTESIAN_POINT ( 'NONE',  ( 86.00000000000000000, 2.212369611108737200, -39.99999999999996447 ) ) ;
#989 = FACE_OUTER_BOUND ( 'NONE', #827, .T. ) ;
#990 = ORIENTED_EDGE ( 'NONE', *, *, #1159, .F. ) ;
#991 = DIRECTION ( 'NONE',  ( 0.000000000000000000, 0.000000000000000000, -1.000000000000000000 ) ) ;
#992 = ORIENTED_EDGE ( 'NONE', *, *, #773, .T. ) ;
#993 = CIRCLE ( 'NONE', #495, 1.499999999999994449 ) ;
#994 = EDGE_CURVE ( 'NONE', #684, #165, #1178, .T. ) ;
#995 = DIRECTION ( 'NONE',  ( 0.000000000000000000, 0.000000000000000000, -1.000000000000000000 ) ) ;
#996 = DIRECTION ( 'NONE',  ( 0.000000000000000000, 0.000000000000000000, 1.000000000000000000 ) ) ;
#997 = DIRECTION ( 'NONE',  ( 0.000000000000000000, 1.000000000000000000, 0.000000000000000000 ) ) ;
#998 = ORIENTED_EDGE ( 'NONE', *, *, #930, .T. ) ;
#999 = DIRECTION ( 'NONE',  ( 0.000000000000000000, 1.000000000000000000, 0.000000000000000000 ) ) ;
#1000 = EDGE_CURVE ( 'NONE', #4, #461, #1024, .T. ) ;
#1001 = LINE ( 'NONE', #231, #504 ) ;
#1002 = CARTESIAN_POINT ( 'NONE',  ( 86.00000000000000000, 0.000000000000000000, -38.49999999999995737 ) ) ;
#1003 = DIRECTION ( 'NONE',  ( 0.000000000000000000, 0.000000000000000000, 1.000000000000000000 ) ) ;
#1004 = ORIENTED_EDGE ( 'NONE', *, *, #258, .T. ) ;
#1005 = DIRECTION ( 'NONE',  ( 0.000000000000000000, 0.000000000000000000, -1.000000000000000000 ) ) ;
#1006 = ORIENTED_EDGE ( 'NONE', *, *, #263, .T. ) ;
#1007 = AXIS2_PLACEMENT_3D ( 'NONE', #261, #186, #814 ) ;
#1008 = AXIS2_PLACEMENT_3D ( 'NONE', #181, #559, #585 ) ;
#1009 = LOCAL_TIME ( 21, 17, 9.000000000000000000, #1039 ) ;
#1010 = EDGE_CURVE ( 'NONE', #578, #470, #192, .T. ) ;
#1011 = DIRECTION ( 'NONE',  ( -0.000000000000000000, -0.000000000000000000, 1.000000000000000000 ) ) ;
#1012 = FACE_BOUND ( 'NONE', #1032, .T. ) ;
#1013 = CARTESIAN_POINT ( 'NONE',  ( -86.00000000000000000, 2.212369611108664813, 40.00000000000002842 ) ) ;
#1014 = EDGE_CURVE ( 'NONE', #791, #962, #292, .T. ) ;
#1015 = ORIENTED_EDGE ( 'NONE', *, *, #613, .T. ) ;
#1016 = VECTOR ( 'NONE', #245, 1000.000000000000000 ) ;
#1017 = CONICAL_SURFACE ( 'NONE', #812, 1.499999999999994449, 0.6981317007977280165 ) ;
#1018 = LINE ( 'NONE', #176, #854 ) ;
#1019 = FACE_OUTER_BOUND ( 'NONE', #159, .T. ) ;
#1020 = CC_DESIGN_PERSON_AND_ORGANIZATION_ASSIGNMENT ( #207, #296, ( #785 ) ) ;
#1021 = PERSON_AND_ORGANIZATION ( #244, #629 ) ;
#1022 = EDGE_LOOP ( 'NONE', ( #1006, #381 ) ) ;
#1023 = VERTEX_POINT ( 'NONE', #945 ) ;
#1024 = LINE ( 'NONE', #1143, #811 ) ;
#1025 = CYLINDRICAL_SURFACE ( 'NONE', #1007, 1.500000000000001332 ) ;
#1026 = EDGE_LOOP ( 'NONE', ( #710, #196, #393, #1122 ) ) ;
#1027 = EDGE_CURVE ( 'NONE', #1151, #1023, #438, .T. ) ;
#1028 = ORIENTED_EDGE ( 'NONE', *, *, #92, .T. ) ;
#1029 = VECTOR ( 'NONE', #873, 1000.000000000000000 ) ;
#1030 = CARTESIAN_POINT ( 'NONE',  ( 49.99999999999999289, 4.000000000000000000, -78.99999999999997158 ) ) ;
#1031 = FACE_BOUND ( 'NONE', #65, .T. ) ;
#1032 = EDGE_LOOP ( 'NONE', ( #229, #686 ) ) ;
#1033 = VERTEX_POINT ( 'NONE', #47 ) ;
#1034 = CARTESIAN_POINT ( 'NONE',  ( 86.00000000000000000, 2.212369611108664813, 40.00000000000002842 ) ) ;
#1035 = ORIENTED_EDGE ( 'NONE', *, *, #70, .F. ) ;
#1036 = DIRECTION ( 'NONE',  ( 0.000000000000000000, 0.000000000000000000, 1.000000000000000000 ) ) ;
#1037 = DIRECTION ( 'NONE',  ( 0.000000000000000000, 0.000000000000000000, 1.000000000000000000 ) ) ;
#1038 = AXIS2_PLACEMENT_3D ( 'NONE', #730, #547, #923 ) ;
#1039 = COORDINATED_UNIVERSAL_TIME_OFFSET ( 8, 0, .AHEAD. ) ;
#1040 = ORIENTED_EDGE ( 'NONE', *, *, #882, .T. ) ;
#1041 = ORIENTED_EDGE ( 'NONE', *, *, #1027, .T. ) ;
#1042 = CARTESIAN_POINT ( 'NONE',  ( 49.99999999999999289, 0.000000000000000000, -74.49999999999997158 ) ) ;
#1043 = EDGE_CURVE ( 'NONE', #935, #377, #596, .T. ) ;
#1044 = CARTESIAN_POINT ( 'NONE',  ( 49.99999999999999289, 4.000000000000000000, 76.00000000000002842 ) ) ;
#1045 = PERSON_AND_ORGANIZATION ( #244, #629 ) ;
#1046 = ORIENTED_EDGE ( 'NONE', *, *, #322, .F. ) ;
#1047 = VERTEX_POINT ( 'NONE', #325 ) ;
#1048 = ORIENTED_EDGE ( 'NONE', *, *, #317, .F. ) ;
#1049 = AXIS2_PLACEMENT_3D ( 'NONE', #370, #917, #652 ) ;
#1050 = CIRCLE ( 'NONE', #1008, 3.000000000000002665 ) ;
#1051 = EDGE_CURVE ( 'NONE', #964, #1033, #582, .T. ) ;
#1052 = PERSON_AND_ORGANIZATION ( #244, #629 ) ;
#1053 = ORIENTED_EDGE ( 'NONE', *, *, #458, .F. ) ;
#1054 = ORIENTED_EDGE ( 'NONE', *, *, #485, .F. ) ;
#1055 = ORIENTED_EDGE ( 'NONE', *, *, #441, .F. ) ;
#1056 = ORIENTED_EDGE ( 'NONE', *, *, #71, .F. ) ;
#1057 = FACE_OUTER_BOUND ( 'NONE', #927, .T. ) ;
#1058 = CC_DESIGN_DATE_AND_TIME_ASSIGNMENT ( #583, #389, ( #174 ) ) ;
#1059 = AXIS2_PLACEMENT_3D ( 'NONE', #55, #125, #1190 ) ;
#1060 = AXIS2_PLACEMENT_3D ( 'NONE', #716, #1100, #708 ) ;
#1061 = DIRECTION ( 'NONE',  ( 0.000000000000000000, -1.000000000000000000, 0.000000000000000000 ) ) ;
#1062 = ORIENTED_EDGE ( 'NONE', *, *, #767, .F. ) ;
#1063 = ADVANCED_FACE ( 'NONE', ( #247 ), #233, .F. ) ;
#1064 = PERSON_AND_ORGANIZATION ( #244, #629 ) ;
#1065 = ORIENTED_EDGE ( 'NONE', *, *, #219, .T. ) ;
#1066 = DIRECTION ( 'NONE',  ( 0.000000000000000000, 1.000000000000000000, 0.000000000000000000 ) ) ;
#1067 = EDGE_CURVE ( 'NONE', #573, #1151, #896, .T. ) ;
#1068 = CIRCLE ( 'NONE', #579, 1.499999999999994449 ) ;
#1069 = CIRCLE ( 'NONE', #783, 2.999999999999975131 ) ;
#1070 = APPROVAL_PERSON_ORGANIZATION ( #1052, #593, #1153 ) ;
#1071 = VERTEX_POINT ( 'NONE', #136 ) ;
#1072 = VERTEX_POINT ( 'NONE', #1081 ) ;
#1073 = CARTESIAN_POINT ( 'NONE',  ( 49.99999999999999289, 2.212369611108729206, 74.50000000000002842 ) ) ;
#1074 = CARTESIAN_POINT ( 'NONE',  ( 86.00000000000000000, 2.212369611108737200, -39.99999999999996447 ) ) ;
#1075 = FACE_OUTER_BOUND ( 'NONE', #1165, .T. ) ;
#1076 = VECTOR ( 'NONE', #1011, 1000.000000000000000 ) ;
#1077 = VECTOR ( 'NONE', #36, 1000.000000000000000 ) ;
#1078 = FACE_OUTER_BOUND ( 'NONE', #743, .T. ) ;
#1079 = ADVANCED_FACE ( 'NONE', ( #32 ), #892, .F. ) ;
#1080 = CARTESIAN_POINT ( 'NONE',  ( 49.99999999999999289, 2.212369611108729206, 76.00000000000002842 ) ) ;
#1081 = CARTESIAN_POINT ( 'NONE',  ( -90.00000000000000000, 4.000000000000000000, -79.99999999999997158 ) ) ;
#1082 = DIRECTION ( 'NONE',  ( 0.000000000000000000, 0.000000000000000000, 1.000000000000000000 ) ) ;
#1083 = CARTESIAN_POINT ( 'NONE',  ( 90.00000000000000000, 4.000000000000000000, 80.00000000000002842 ) ) ;
#1084 = DIRECTION ( 'NONE',  ( 1.000000000000000000, 0.000000000000000000, 0.000000000000000000 ) ) ;
#1085 = VECTOR ( 'NONE', #223, 1000.000000000000114 ) ;
#1086 = EDGE_CURVE ( 'NONE', #144, #391, #978, .T. ) ;
#1087 = CARTESIAN_POINT ( 'NONE',  ( -49.99999999999999289, 2.212369611108729206, 77.50000000000002842 ) ) ;
#1088 = ORIENTED_EDGE ( 'NONE', *, *, #957, .F. ) ;
#1089 = CARTESIAN_POINT ( 'NONE',  ( 49.99999999999999289, 4.000000000000000000, 79.00000000000000000 ) ) ;
#1090 = EDGE_LOOP ( 'NONE', ( #1028, #210 ) ) ;
#1091 = CARTESIAN_POINT ( 'NONE',  ( -86.00000000000000000, 0.000000000000000000, -38.49999999999997868 ) ) ;
#1092 = DIRECTION ( 'NONE',  ( 0.000000000000000000, 0.000000000000000000, 1.000000000000000000 ) ) ;
#1093 = AXIS2_PLACEMENT_3D ( 'NONE', #604, #326, #1082 ) ;
#1094 = CARTESIAN_POINT ( 'NONE',  ( 90.00000000000000000, 0.000000000000000000, 80.00000000000002842 ) ) ;
#1095 = VERTEX_POINT ( 'NONE', #529 ) ;
#1096 = LINE ( 'NONE', #428, #546 ) ;
#1097 = EDGE_CURVE ( 'NONE', #75, #943, #888, .T. ) ;
#1098 = AXIS2_PLACEMENT_3D ( 'NONE', #701, #895, #1092 ) ;
#1099 = FACE_OUTER_BOUND ( 'NONE', #180, .T. ) ;
#1100 = DIRECTION ( 'NONE',  ( 0.000000000000000000, 1.000000000000000000, 0.000000000000000000 ) ) ;
#1101 = CYLINDRICAL_SURFACE ( 'NONE', #230, 1.499999999999994449 ) ;
#1102 = LINE ( 'NONE', #145, #649 ) ;
#1103 = ORIENTED_EDGE ( 'NONE', *, *, #1157, .T. ) ;
#1104 = FACE_OUTER_BOUND ( 'NONE', #899, .T. ) ;
#1105 = DIRECTION ( 'NONE',  ( -0.000000000000000000, 1.000000000000000000, -0.000000000000000000 ) ) ;
#1106 = ADVANCED_FACE ( 'NONE', ( #717 ), #1176, .F. ) ;
#1107 = DIRECTION ( 'NONE',  ( 1.000000000000000000, 0.000000000000000000, 0.000000000000000000 ) ) ;
#1108 = AXIS2_PLACEMENT_3D ( 'NONE', #82, #156, #932 ) ;
#1109 = LOCAL_TIME ( 21, 17, 9.000000000000000000, #867 ) ;
#1110 = CARTESIAN_POINT ( 'NONE',  ( -49.99999999999999289, 0.000000000000000000, -75.99999999999997158 ) ) ;
#1111 = ADVANCED_FACE ( 'NONE', ( #989 ), #1101, .F. ) ;
#1112 = DIRECTION ( 'NONE',  ( 0.000000000000000000, 0.000000000000000000, 1.000000000000000000 ) ) ;
#1113 = ORIENTED_EDGE ( 'NONE', *, *, #1180, .F. ) ;
#1114 = DIRECTION ( 'NONE',  ( 0.000000000000000000, 0.000000000000000000, 1.000000000000000000 ) ) ;
#1115 = AXIS2_PLACEMENT_3D ( 'NONE', #468, #845, #756 ) ;
#1116 = DIRECTION ( 'NONE',  ( 0.000000000000000000, 1.000000000000000000, 0.000000000000000000 ) ) ;
#1117 = CARTESIAN_POINT ( 'NONE',  ( 86.00000000000000000, 2.212369611108737200, -39.99999999999996447 ) ) ;
#1118 = UNCERTAINTY_MEASURE_WITH_UNIT (LENGTH_MEASURE( 1.000000000000000082E-05 ), #727, 'distance_accuracy_value', 'NONE');
#1119 = ADVANCED_FACE ( 'NONE', ( #432 ), #1229, .F. ) ;
#1120 = APPLICATION_PROTOCOL_DEFINITION ( 'international standard', 'config_control_design', 1994, #349 ) ;
#1121 = ORIENTED_EDGE ( 'NONE', *, *, #46, .F. ) ;
#1122 = ORIENTED_EDGE ( 'NONE', *, *, #1130, .F. ) ;
#1123 = VERTEX_POINT ( 'NONE', #797 ) ;
#1124 = LINE ( 'NONE', #1222, #833 ) ;
#1125 = DIRECTION ( 'NONE',  ( 0.000000000000000000, 1.000000000000000000, 0.000000000000000000 ) ) ;
#1126 = FACE_BOUND ( 'NONE', #926, .T. ) ;
#1127 = ORIENTED_EDGE ( 'NONE', *, *, #532, .F. ) ;
#1128 = ORIENTED_EDGE ( 'NONE', *, *, #1135, .T. ) ;
#1129 = PLANE ( 'NONE',  #884 ) ;
#1130 = EDGE_CURVE ( 'NONE', #662, #536, #227, .T. ) ;
#1131 = AXIS2_PLACEMENT_3D ( 'NONE', #137, #625, #1005 ) ;
#1132 = ORIENTED_EDGE ( 'NONE', *, *, #1043, .F. ) ;
#1133 = AXIS2_PLACEMENT_3D ( 'NONE', #1034, #646, #198 ) ;
#1134 = AXIS2_PLACEMENT_3D ( 'NONE', #178, #1211, #653 ) ;
#1135 = EDGE_CURVE ( 'NONE', #204, #857, #724, .T. ) ;
#1136 = CARTESIAN_POINT ( 'NONE',  ( -86.00000000000000000, 2.212369611108664813, -39.99999999999997158 ) ) ;
#1137 = DIRECTION ( 'NONE',  ( -0.000000000000000000, 1.000000000000000000, -0.000000000000000000 ) ) ;
#1138 = CARTESIAN_POINT ( 'NONE',  ( 0.000000000000000000, 0.000000000000000000, 0.000000000000000000 ) ) ;
#1139 = ORIENTED_EDGE ( 'NONE', *, *, #981, .T. ) ;
#1140 = EDGE_LOOP ( 'NONE', ( #390, #584, #397, #934 ) ) ;
#1141 = ADVANCED_FACE ( 'NONE', ( #698 ), #472, .F. ) ;
#1142 = ORIENTED_EDGE ( 'NONE', *, *, #1051, .T. ) ;
#1143 = CARTESIAN_POINT ( 'NONE',  ( -90.00000000000000000, 0.000000000000000000, 80.00000000000002842 ) ) ;
#1144 = CARTESIAN_POINT ( 'NONE',  ( -90.00000000000000000, 4.000000000000000000, 80.00000000000002842 ) ) ;
#1145 = CARTESIAN_POINT ( 'NONE',  ( 86.00000000000000000, 0.000000000000000000, -41.49999999999997158 ) ) ;
#1146 = VECTOR ( 'NONE', #442, 1000.000000000000000 ) ;
#1147 = CONICAL_SURFACE ( 'NONE', #410, 1.499999999999994449, 0.6981317007977280165 ) ;
#1148 = APPROVAL_STATUS ( 'not_yet_approved' ) ;
#1149 = EDGE_LOOP ( 'NONE', ( #1041, #394 ) ) ;
#1150 = CARTESIAN_POINT ( 'NONE',  ( 49.99999999999999289, 0.000000000000000000, 76.00000000000002842 ) ) ;
#1151 = VERTEX_POINT ( 'NONE', #335 ) ;
#1152 = EDGE_CURVE ( 'NONE', #449, #422, #114, .T. ) ;
#1153 = APPROVAL_ROLE ( '' ) ;
#1154 = ORIENTED_EDGE ( 'NONE', *, *, #864, .F. ) ;
#1155 = DIRECTION ( 'NONE',  ( 0.000000000000000000, 1.000000000000000000, 0.000000000000000000 ) ) ;
#1156 = ORIENTED_EDGE ( 'NONE', *, *, #922, .F. ) ;
#1157 = EDGE_CURVE ( 'NONE', #165, #1033, #521, .T. ) ;
#1158 = ORIENTED_EDGE ( 'NONE', *, *, #25, .F. ) ;
#1159 = EDGE_CURVE ( 'NONE', #536, #634, #702, .T. ) ;
#1160 = DIRECTION ( 'NONE',  ( 0.000000000000000000, 1.000000000000000000, 0.000000000000000000 ) ) ;
#1161 = AXIS2_PLACEMENT_3D ( 'NONE', #706, #566, #1114 ) ;
#1162 = EDGE_LOOP ( 'NONE', ( #509, #437, #852, #368 ) ) ;
#1163 = EDGE_CURVE ( 'NONE', #684, #964, #914, .T. ) ;
#1164 = CYLINDRICAL_SURFACE ( 'NONE', #678, 1.500000000000001332 ) ;
#1165 = EDGE_LOOP ( 'NONE', ( #665, #644, #400, #771 ) ) ;
#1166 = EDGE_LOOP ( 'NONE', ( #703, #601, #265, #100 ) ) ;
#1167 = DIRECTION ( 'NONE',  ( 0.000000000000000000, 0.000000000000000000, 1.000000000000000000 ) ) ;
#1168 = ORIENTED_EDGE ( 'NONE', *, *, #689, .T. ) ;
#1169 = CIRCLE ( 'NONE', #905, 3.000000000000002665 ) ;
#1170 = CONICAL_SURFACE ( 'NONE', #628, 1.499999999999994449, 0.6981317007977280165 ) ;
#1171 = CARTESIAN_POINT ( 'NONE',  ( 86.00000000000000000, 0.000000000000000000, -39.99999999999996447 ) ) ;
#1172 = DIRECTION ( 'NONE',  ( 0.000000000000000000, 0.000000000000000000, 1.000000000000000000 ) ) ;
#1173 = FACE_OUTER_BOUND ( 'NONE', #654, .T. ) ;
#1174 = ORIENTED_EDGE ( 'NONE', *, *, #395, .T. ) ;
#1175 = DIRECTION ( 'NONE',  ( -0.000000000000000000, 1.000000000000000000, -0.000000000000000000 ) ) ;
#1176 = CYLINDRICAL_SURFACE ( 'NONE', #591, 1.500000000000008216 ) ;
#1177 = CARTESIAN_POINT ( 'NONE',  ( 49.99999999999999289, 0.000000000000000000, -75.99999999999997158 ) ) ;
#1178 = CIRCLE ( 'NONE', #910, 1.500000000000001332 ) ;
#1179 = CIRCLE ( 'NONE', #762, 1.499999999999994449 ) ;
#1180 = EDGE_CURVE ( 'NONE', #970, #734, #881, .T. ) ;
#1181 = DIRECTION ( 'NONE',  ( 0.000000000000000000, 0.000000000000000000, -1.000000000000000000 ) ) ;
#1182 = CARTESIAN_POINT ( 'NONE',  ( -86.00000000000000000, 2.212369611108664813, -38.49999999999997868 ) ) ;
#1183 = EDGE_LOOP ( 'NONE', ( #670, #950, #1121, #990 ) ) ;
#1184 = EDGE_CURVE ( 'NONE', #671, #1047, #339, .T. ) ;
#1185 = CARTESIAN_POINT ( 'NONE',  ( -90.00000000000000000, 4.000000000000000000, -79.99999999999997158 ) ) ;
#1186 = ORIENTED_EDGE ( 'NONE', *, *, #839, .F. ) ;
#1187 = CYLINDRICAL_SURFACE ( 'NONE', #366, 1.500000000000001332 ) ;
#1188 = DIRECTION ( 'NONE',  ( 0.000000000000000000, 1.000000000000000000, 0.000000000000000000 ) ) ;
#1189 = AXIS2_PLACEMENT_3D ( 'NONE', #500, #345, #409 ) ;
#1190 = DIRECTION ( 'NONE',  ( 0.000000000000000000, 0.000000000000000000, 1.000000000000000000 ) ) ;
#1191 = VECTOR ( 'NONE', #925, 1000.000000000000000 ) ;
#1192 = ORIENTED_EDGE ( 'NONE', *, *, #322, .T. ) ;
#1193 = CARTESIAN_POINT ( 'NONE',  ( 86.00000000000000000, 0.000000000000000000, -38.49999999999995737 ) ) ;
#1194 = CARTESIAN_POINT ( 'NONE',  ( -49.99999999999999289, 0.000000000000000000, -75.99999999999997158 ) ) ;
#1195 = DIRECTION ( 'NONE',  ( 0.000000000000000000, 1.000000000000000000, 0.000000000000000000 ) ) ;
#1196 = CARTESIAN_POINT ( 'NONE',  ( -49.99999999999999289, 0.000000000000000000, -77.49999999999997158 ) ) ;
#1197 = CARTESIAN_POINT ( 'NONE',  ( -86.00000000000000000, 0.000000000000000000, -38.49999999999997868 ) ) ;
#1198 = VERTEX_POINT ( 'NONE', #164 ) ;
#1199 = CIRCLE ( 'NONE', #417, 1.500000000000001332 ) ;
#1200 = AXIS2_PLACEMENT_3D ( 'NONE', #1150, #298, #575 ) ;
#1201 = CARTESIAN_POINT ( 'NONE',  ( -49.99999999999999289, 0.000000000000000000, 76.00000000000002842 ) ) ;
#1202 = FACE_BOUND ( 'NONE', #581, .T. ) ;
#1203 = ADVANCED_FACE ( 'NONE', ( #68 ), #984, .F. ) ;
#1204 = CARTESIAN_POINT ( 'NONE',  ( -49.99999999999999289, 2.212369611108664813, -74.49999999999997158 ) ) ;
#1205 = CARTESIAN_POINT ( 'NONE',  ( 49.99999999999999289, 0.000000000000000000, 74.50000000000002842 ) ) ;
#1206 = DIRECTION ( 'NONE',  ( 0.000000000000000000, -0.000000000000000000, -1.000000000000000000 ) ) ;
#1207 = AXIS2_PLACEMENT_3D ( 'NONE', #741, #1224, #563 ) ;
#1208 = ADVANCED_FACE ( 'NONE', ( #542, #456, #1126, #831, #1218, #436, #262, #371, #815 ), #819, .F. ) ;
#1209 = LINE ( 'NONE', #533, #327 ) ;
#1210 = CYLINDRICAL_SURFACE ( 'NONE', #215, 1.500000000000008216 ) ;
#1211 = DIRECTION ( 'NONE',  ( 0.000000000000000000, 1.000000000000000000, 0.000000000000000000 ) ) ;
#1212 = ORIENTED_EDGE ( 'NONE', *, *, #545, .F. ) ;
#1213 = ORIENTED_EDGE ( 'NONE', *, *, #1043, .T. ) ;
#1214 = CIRCLE ( 'NONE', #792, 1.500000000000001332 ) ;
#1215 = EDGE_CURVE ( 'NONE', #470, #484, #491, .T. ) ;
#1216 = LINE ( 'NONE', #635, #537 ) ;
#1217 = FACE_OUTER_BOUND ( 'NONE', #146, .T. ) ;
#1218 = FACE_BOUND ( 'NONE', #346, .T. ) ;
#1219 = EDGE_LOOP ( 'NONE', ( #76, #487, #187, #465 ) ) ;
#1220 = EDGE_LOOP ( 'NONE', ( #800, #849, #544, #1142 ) ) ;
#1221 = ORIENTED_EDGE ( 'NONE', *, *, #674, .T. ) ;
#1222 = CARTESIAN_POINT ( 'NONE',  ( 86.00000000000000000, 0.000000000000000000, 38.50000000000003553 ) ) ;
#1223 = FACE_OUTER_BOUND ( 'NONE', #154, .T. ) ;
#1224 = DIRECTION ( 'NONE',  ( 0.000000000000000000, -1.000000000000000000, 0.000000000000000000 ) ) ;
#1225 = ORIENTED_EDGE ( 'NONE', *, *, #787, .F. ) ;
#1226 = VERTEX_POINT ( 'NONE', #840 ) ;
#1227 = CONICAL_SURFACE ( 'NONE', #150, 1.500000000000001332, 0.6981317007977343447 ) ;
#1228 = ORIENTED_EDGE ( 'NONE', *, *, #237, .T. ) ;
#1229 = CONICAL_SURFACE ( 'NONE', #548, 1.500000000000001332, 0.6981317007977280165 ) ;
ENDSEC;
END-ISO-10303-21;
