<svg xmlns="http://www.w3.org/2000/svg" width="1080" height="620" viewBox="0 0 1080 620">
<style>
  text { font-family: Arial, "Microsoft YaHei", sans-serif; fill: #222; }
  .title { font-size: 18px; font-weight: 700; }
  .label { font-size: 14px; }
  .tick { font-size: 12px; fill: #444; }
  .legend { font-size: 12px; }
  .grid { stroke: #dddddd; stroke-width: 1; }
</style>
<text x="540.0" y="28" text-anchor="middle" class="title">card03_rep01 smoothed normalized intensity</text>
<rect x="78" y="52" width="782" height="496" fill="#ffffff" stroke="#333333" stroke-width="1"/>
<line x1="78" y1="548.00" x2="860" y2="548.00" class="grid"/>
<text x="70" y="552.00" text-anchor="end" class="tick">0</text>
<line x1="78" y1="448.80" x2="860" y2="448.80" class="grid"/>
<text x="70" y="452.80" text-anchor="end" class="tick">0.2</text>
<line x1="78" y1="349.60" x2="860" y2="349.60" class="grid"/>
<text x="70" y="353.60" text-anchor="end" class="tick">0.4</text>
<line x1="78" y1="250.40" x2="860" y2="250.40" class="grid"/>
<text x="70" y="254.40" text-anchor="end" class="tick">0.6</text>
<line x1="78" y1="151.20" x2="860" y2="151.20" class="grid"/>
<text x="70" y="155.20" text-anchor="end" class="tick">0.8</text>
<line x1="78" y1="52.00" x2="860" y2="52.00" class="grid"/>
<text x="70" y="56.00" text-anchor="end" class="tick">1</text>
<line x1="78.00" y1="52" x2="78.00" y2="548" class="grid"/>
<text x="78.00" y="570" text-anchor="middle" class="tick">21</text>
<line x1="234.40" y1="52" x2="234.40" y2="548" class="grid"/>
<text x="234.40" y="570" text-anchor="middle" class="tick">746</text>
<line x1="390.80" y1="52" x2="390.80" y2="548" class="grid"/>
<text x="390.80" y="570" text-anchor="middle" class="tick">1471</text>
<line x1="547.20" y1="52" x2="547.20" y2="548" class="grid"/>
<text x="547.20" y="570" text-anchor="middle" class="tick">2197</text>
<line x1="703.60" y1="52" x2="703.60" y2="548" class="grid"/>
<text x="703.60" y="570" text-anchor="middle" class="tick">2922</text>
<line x1="860.00" y1="52" x2="860.00" y2="548" class="grid"/>
<text x="860.00" y="570" text-anchor="middle" class="tick">3647</text>
<polyline points="78.00,149.12 78.22,149.18 78.43,149.25 78.65,149.32 78.86,149.38 79.08,149.45 79.29,149.51 79.51,149.57 79.73,149.64 79.94,149.70 80.16,149.79 80.37,149.88 80.59,149.93 80.80,150.02 81.02,150.10 81.23,150.18 81.45,150.26 81.67,150.33 81.88,150.41 82.10,150.48 82.31,150.55 82.53,150.61 82.74,150.68 82.96,150.71 83.18,150.75 83.39,150.78 83.61,150.81 83.82,150.84 84.04,150.88 84.25,150.90 84.47,150.93 84.69,150.95 84.90,150.98 85.12,151.01 85.33,151.03 85.55,151.06 85.76,151.08 85.98,151.10 86.20,151.12 86.41,151.13 86.63,151.15 86.84,151.16 87.06,151.18 87.27,151.18 87.49,151.18 87.70,151.18 87.92,151.18 88.14,151.18 88.35,151.18 88.57,151.18 88.78,151.19 89.00,151.20 89.21,151.20 89.43,151.21 89.65,151.21 89.86,151.22 90.08,151.22 90.29,151.22 90.51,151.22 90.72,151.21 90.94,151.21 91.16,151.20 91.37,151.20 91.59,151.19 91.80,151.18 92.02,151.17 92.23,151.16 92.45,151.14 92.67,151.12 92.88,151.10 93.10,151.07 93.31,151.05 93.53,151.02 93.74,150.99 93.96,150.96 94.17,150.92 94.39,150.89 94.61,150.85 94.82,150.82 95.04,150.79 95.25,150.79 95.47,150.79 95.68,150.78 95.90,150.79 96.12,150.80 96.33,150.80 96.55,150.81 96.76,150.85 96.98,150.87 97.19,150.90 97.41,150.93 97.63,150.97 97.84,151.01 98.06,151.05 98.27,151.09 98.49,151.13 98.70,151.16 98.92,151.19 99.14,151.22 99.35,151.24 99.57,151.27 99.78,151.29 100.00,151.31 100.21,151.32 100.43,151.32 100.64,151.32 100.86,151.34 101.08,151.35 101.29,151.36 101.51,151.36 101.72,151.35 101.94,151.36 102.15,151.37 102.37,151.37 102.59,151.36 102.80,151.35 103.02,151.33 103.23,151.31 103.45,151.28 103.66,151.25 103.88,151.22 104.10,151.16 104.31,151.11 104.53,151.06 104.74,151.01 104.96,150.96 105.17,150.91 105.39,150.87 105.61,150.82 105.82,150.78 106.04,150.75 106.25,150.71 106.47,150.68 106.68,150.65 106.90,150.62 107.11,150.59 107.33,150.56 107.55,150.54 107.76,150.52 107.98,150.50 108.19,150.48 108.41,150.45 108.62,150.44 108.84,150.42 109.06,150.41 109.27,150.40 109.49,150.39 109.70,150.37 109.92,150.35 110.13,150.33 110.35,150.31 110.57,150.30 110.78,150.28 111.00,150.26 111.21,150.25 111.43,150.24 111.64,150.24 111.86,150.24 112.08,150.24 112.29,150.23 112.51,150.23 112.72,150.20 112.94,150.17 113.15,150.17 113.37,150.16 113.58,150.16 113.80,150.11 114.02,150.06 114.23,150.02 114.45,149.97 114.66,149.93 114.88,149.88 115.09,149.84 115.31,149.79 115.53,149.77 115.74,149.76 115.96,149.74 116.17,149.76 116.39,149.76 116.60,149.77 116.82,149.79 117.04,149.81 117.25,149.83 117.47,149.84 117.68,149.86 117.90,149.87 118.11,149.88 118.33,149.89 118.54,149.90 118.76,149.91 118.98,149.92 119.19,149.89 119.41,149.86 119.62,149.83 119.84,149.81 120.05,149.80 120.27,149.79 120.49,149.78 120.70,149.77 120.92,149.77 121.13,149.77 121.35,149.75 121.56,149.75 121.78,149.74 122.00,149.75 122.21,149.75 122.43,149.74 122.64,149.74 122.86,149.74 123.07,149.74 123.29,149.75 123.51,149.77 123.72,149.80 123.94,149.82 124.15,149.85 124.37,149.87 124.58,149.90 124.80,149.93 125.01,149.96 125.23,149.97 125.45,149.98 125.66,149.99 125.88,150.01 126.09,150.01 126.31,150.03 126.52,150.05 126.74,150.06 126.96,150.08 127.17,150.11 127.39,150.14 127.60,150.16 127.82,150.19 128.03,150.21 128.25,150.22 128.47,150.23 128.68,150.24 128.90,150.26 129.11,150.27 129.33,150.27 129.54,150.28 129.76,150.29 129.98,150.29 130.19,150.28 130.41,150.29 130.62,150.30 130.84,150.31 131.05,150.33 131.27,150.35 131.48,150.36 131.70,150.38 131.92,150.39 132.13,150.40 132.35,150.41 132.56,150.40 132.78,150.39 132.99,150.39 133.21,150.39 133.43,150.37 133.64,150.37 133.86,150.35 134.07,150.35 134.29,150.35 134.50,150.34 134.72,150.33 134.94,150.32 135.15,150.31 135.37,150.31 135.58,150.36 135.80,150.40 136.01,150.46 136.23,150.51 136.45,150.56 136.66,150.63 136.88,150.69 137.09,150.76 137.31,150.82 137.52,150.90 137.74,150.98 137.95,151.05 138.17,151.12 138.39,151.22 138.60,151.31 138.82,151.37 139.03,151.46 139.25,151.52 139.46,151.58 139.68,151.64 139.90,151.70 140.11,151.75 140.33,151.80 140.54,151.86 140.76,151.92 140.97,151.97 141.19,152.00 141.41,152.01 141.62,152.03 141.84,152.04 142.05,152.07 142.27,152.09 142.48,152.12 142.70,152.15 142.92,152.21 143.13,152.27 143.35,152.34 143.56,152.41 143.78,152.48 143.99,152.54 144.21,152.60 144.42,152.66 144.64,152.72 144.86,152.78 145.07,152.84 145.29,152.90 145.50,152.93 145.72,152.99 145.93,153.02 146.15,153.04 146.37,153.10 146.58,153.16 146.80,153.22 147.01,153.28 147.23,153.33 147.44,153.39 147.66,153.44 147.88,153.49 148.09,153.54 148.31,153.58 148.52,153.63 148.74,153.64 148.95,153.66 149.17,153.67 149.38,153.67 149.60,153.67 149.82,153.66 150.03,153.65 150.25,153.64 150.46,153.62 150.68,153.59 150.89,153.56 151.11,153.53 151.33,153.49 151.54,153.45 151.76,153.45 151.97,153.44 152.19,153.44 152.40,153.44 152.62,153.44 152.84,153.44 153.05,153.42 153.27,153.41 153.48,153.39 153.70,153.38 153.91,153.36 154.13,153.34 154.35,153.31 154.56,153.27 154.78,153.25 154.99,153.22 155.21,153.20 155.42,153.17 155.64,153.14 155.85,153.11 156.07,153.06 156.29,153.01 156.50,152.95 156.72,152.89 156.93,152.83 157.15,152.77 157.36,152.70 157.58,152.63 157.80,152.59 158.01,152.54 158.23,152.49 158.44,152.42 158.66,152.37 158.87,152.30 159.09,152.22 159.31,152.14 159.52,152.05 159.74,151.95 159.95,151.85 160.17,151.76 160.38,151.68 160.60,151.60 160.82,151.57 161.03,151.53 161.25,151.50 161.46,151.51 161.68,151.54 161.89,151.56 162.11,151.58 162.32,151.60 162.54,151.63 162.76,151.65 162.97,151.67 163.19,151.67 163.40,151.66 163.62,151.65 163.83,151.63 164.05,151.61 164.27,151.57 164.48,151.53 164.70,151.50 164.91,151.47 165.13,151.45 165.34,151.45 165.56,151.46 165.78,151.47 165.99,151.48 166.21,151.50 166.42,151.54 166.64,151.58 166.85,151.63 167.07,151.69 167.29,151.76 167.50,151.84 167.72,151.95 167.93,152.05 168.15,152.10 168.36,152.15 168.58,152.19 168.79,152.23 169.01,152.25 169.23,152.27 169.44,152.29 169.66,152.31 169.87,152.33 170.09,152.35 170.30,152.35 170.52,152.36 170.74,152.37 170.95,152.35 171.17,152.31 171.38,152.30 171.60,152.26 171.81,152.25 172.03,152.25 172.25,152.25 172.46,152.26 172.68,152.27 172.89,152.28 173.11,152.29 173.32,152.33 173.54,152.37 173.76,152.44 173.97,152.53 174.19,152.63 174.40,152.73 174.62,152.84 174.83,152.96 175.05,153.07 175.26,153.18 175.48,153.27 175.70,153.37 175.91,153.44 176.13,153.51 176.34,153.58 176.56,153.65 176.77,153.72 176.99,153.81 177.21,153.89 177.42,153.97 177.64,154.06 177.85,154.14 178.07,154.25 178.28,154.33 178.50,154.41 178.72,154.50 178.93,154.58 179.15,154.66 179.36,154.74 179.58,154.82 179.79,154.90 180.01,154.98 180.23,155.06 180.44,155.14 180.66,155.21 180.87,155.29 181.09,155.37 181.30,155.44 181.52,155.51 181.73,155.58 181.95,155.65 182.17,155.72 182.38,155.78 182.60,155.84 182.81,155.90 183.03,155.96 183.24,156.02 183.46,156.08 183.68,156.14 183.89,156.20 184.11,156.25 184.32,156.30 184.54,156.35 184.75,156.40 184.97,156.45 185.19,156.49 185.40,156.53 185.62,156.57 185.83,156.60 186.05,156.62 186.26,156.66 186.48,156.68 186.69,156.69 186.91,156.71 187.13,156.73 187.34,156.74 187.56,156.75 187.77,156.76 187.99,156.77 188.20,156.78 188.42,156.79 188.64,156.79 188.85,156.81 189.07,156.81 189.28,156.82 189.50,156.82 189.71,156.82 189.93,156.82 190.15,156.82 190.36,156.81 190.58,156.80 190.79,156.79 191.01,156.79 191.22,156.78 191.44,156.78 191.66,156.80 191.87,156.82 192.09,156.85 192.30,156.87 192.52,156.90 192.73,156.94 192.95,156.96 193.16,156.98 193.38,157.00 193.60,157.01 193.81,157.03 194.03,157.00 194.24,156.96 194.46,156.92 194.67,156.87 194.89,156.83 195.11,156.79 195.32,156.73 195.54,156.68 195.75,156.62 195.97,156.57 196.18,156.51 196.40,156.48 196.62,156.46 196.83,156.45 197.05,156.45 197.26,156.45 197.48,156.48 197.69,156.53 197.91,156.57 198.13,156.59 198.34,156.60 198.56,156.62 198.77,156.65 198.99,156.64 199.20,156.66 199.42,156.67 199.63,156.67 199.85,156.66 200.07,156.66 200.28,156.66 200.50,156.66 200.71,156.67 200.93,156.67 201.14,156.67 201.36,156.67 201.58,156.69 201.79,156.71 202.01,156.72 202.22,156.73 202.44,156.74 202.65,156.74 202.87,156.76 203.09,156.78 203.30,156.79 203.52,156.82 203.73,156.87 203.95,156.93 204.16,156.99 204.38,157.06 204.60,157.14 204.81,157.22 205.03,157.31 205.24,157.41 205.46,157.50 205.67,157.58 205.89,157.64 206.10,157.70 206.32,157.75 206.54,157.80 206.75,157.83 206.97,157.87 207.18,157.91 207.40,157.94 207.61,157.95 207.83,157.97 208.05,157.98 208.26,158.00 208.48,158.03 208.69,158.06 208.91,158.09 209.12,158.12 209.34,158.14 209.56,158.16 209.77,158.17 209.99,158.19 210.20,158.20 210.42,158.23 210.63,158.25 210.85,158.27 211.07,158.30 211.28,158.33 211.50,158.36 211.71,158.41 211.93,158.47 212.14,158.54 212.36,158.60 212.57,158.66 212.79,158.72 213.01,158.79 213.22,158.85 213.44,158.91 213.65,158.97 213.87,159.04 214.08,159.09 214.30,159.13 214.52,159.18 214.73,159.23 214.95,159.28 215.16,159.33 215.38,159.38 215.59,159.42 215.81,159.47 216.03,159.52 216.24,159.58 216.46,159.64 216.67,159.70 216.89,159.76 217.10,159.84 217.32,159.92 217.54,159.99 217.75,160.06 217.97,160.13 218.18,160.21 218.40,160.29 218.61,160.37 218.83,160.45 219.04,160.53 219.26,160.60 219.48,160.66 219.69,160.72 219.91,160.79 220.12,160.85 220.34,160.91 220.55,160.98 220.77,161.04 220.99,161.11 221.20,161.17 221.42,161.23 221.63,161.28 221.85,161.33 222.06,161.38 222.28,161.42 222.50,161.47 222.71,161.52 222.93,161.57 223.14,161.63 223.36,161.68 223.57,161.73 223.79,161.78 224.00,161.83 224.22,161.88 224.44,161.92 224.65,161.98 224.87,162.03 225.08,162.08 225.30,162.13 225.51,162.20 225.73,162.26 225.95,162.32 226.16,162.38 226.38,162.44 226.59,162.50 226.81,162.56 227.02,162.62 227.24,162.68 227.46,162.75 227.67,162.81 227.89,162.89 228.10,162.96 228.32,163.05 228.53,163.14 228.75,163.24 228.97,163.29 229.18,163.35 229.40,163.40 229.61,163.45 229.83,163.51 230.04,163.54 230.26,163.57 230.47,163.60 230.69,163.67 230.91,163.73 231.12,163.80 231.34,163.89 231.55,164.00 231.77,164.09 231.98,164.17 232.20,164.27 232.42,164.35 232.63,164.43 232.85,164.48 233.06,164.53 233.28,164.58 233.49,164.63 233.71,164.69 233.93,164.75 234.14,164.81 234.36,164.84 234.57,164.88 234.79,164.92 235.00,164.96 235.22,164.99 235.44,165.02 235.65,165.05 235.87,165.09 236.08,165.13 236.30,165.17 236.51,165.21 236.73,165.25 236.94,165.28 237.16,165.31 237.38,165.33 237.59,165.35 237.81,165.37 238.02,165.39 238.24,165.42 238.45,165.46 238.67,165.49 238.89,165.51 239.10,165.55 239.32,165.54 239.53,165.53 239.75,165.53 239.96,165.54 240.18,165.57 240.40,165.61 240.61,165.65 240.83,165.70 241.04,165.78 241.26,165.87 241.47,165.98 241.69,166.11 241.91,166.24 242.12,166.37 242.34,166.52 242.55,166.67 242.77,166.82 242.98,166.98 243.20,167.14 243.41,167.30 243.63,167.47 243.85,167.64 244.06,167.81 244.28,167.96 244.49,168.10 244.71,168.25 244.92,168.40 245.14,168.54 245.36,168.68 245.57,168.83 245.79,168.97 246.00,169.12 246.22,169.26 246.43,169.40 246.65,169.56 246.87,169.72 247.08,169.88 247.30,170.04 247.51,170.19 247.73,170.34 247.94,170.49 248.16,170.66 248.38,170.82 248.59,170.97 248.81,171.13 249.02,171.28 249.24,171.44 249.45,171.59 249.67,171.73 249.88,171.86 250.10,171.98 250.32,172.09 250.53,172.21 250.75,172.32 250.96,172.43 251.18,172.53 251.39,172.61 251.61,172.69 251.83,172.76 252.04,172.84 252.26,172.92 252.47,173.01 252.69,173.09 252.90,173.18 253.12,173.27 253.34,173.36 253.55,173.46 253.77,173.55 253.98,173.64 254.20,173.75 254.41,173.85 254.63,173.95 254.85,174.06 255.06,174.17 255.28,174.26 255.49,174.36 255.71,174.46 255.92,174.55 256.14,174.64 256.35,174.73 256.57,174.83 256.79,174.91 257.00,175.00 257.22,175.09 257.43,175.17 257.65,175.26 257.86,175.34 258.08,175.42 258.30,175.50 258.51,175.58 258.73,175.65 258.94,175.72 259.16,175.81 259.37,175.89 259.59,175.96 259.81,176.04 260.02,176.11 260.24,176.18 260.45,176.25 260.67,176.32 260.88,176.38 261.10,176.44 261.31,176.49 261.53,176.56 261.75,176.64 261.96,176.72 262.18,176.78 262.39,176.84 262.61,176.92 262.82,177.00 263.04,177.08 263.26,177.15 263.47,177.23 263.69,177.31 263.90,177.36 264.12,177.41 264.33,177.46 264.55,177.52 264.77,177.58 264.98,177.63 265.20,177.68 265.41,177.73 265.63,177.77 265.84,177.81 266.06,177.84 266.28,177.86 266.49,177.88 266.71,177.88 266.92,177.90 267.14,177.92 267.35,177.94 267.57,177.96 267.78,178.01 268.00,178.05 268.22,178.10 268.43,178.16 268.65,178.21 268.86,178.26 269.08,178.32 269.29,178.37 269.51,178.43 269.73,178.48 269.94,178.53 270.16,178.57 270.37,178.59 270.59,178.62 270.80,178.65 271.02,178.67 271.24,178.70 271.45,178.74 271.67,178.79 271.88,178.88 272.10,178.98 272.31,179.09 272.53,179.24 272.75,179.39 272.96,179.54 273.18,179.69 273.39,179.85 273.61,180.00 273.82,180.14 274.04,180.26 274.25,180.36 274.47,180.47 274.69,180.58 274.90,180.65 275.12,180.73 275.33,180.82 275.55,180.90 275.76,180.98 275.98,181.06 276.20,181.15 276.41,181.25 276.63,181.37 276.84,181.48 277.06,181.59 277.27,181.70 277.49,181.80 277.71,181.90 277.92,182.00 278.14,182.07 278.35,182.14 278.57,182.20 278.78,182.27 279.00,182.33 279.22,182.39 279.43,182.45 279.65,182.51 279.86,182.56 280.08,182.63 280.29,182.71 280.51,182.78 280.72,182.83 280.94,182.90 281.16,182.97 281.37,183.03 281.59,183.10 281.80,183.15 282.02,183.20 282.23,183.24 282.45,183.29 282.67,183.35 282.88,183.41 283.10,183.47 283.31,183.55 283.53,183.60 283.74,183.64 283.96,183.72 284.18,183.79 284.39,183.88 284.61,183.97 284.82,184.05 285.04,184.14 285.25,184.21 285.47,184.26 285.69,184.31 285.90,184.37 286.12,184.42 286.33,184.48 286.55,184.54 286.76,184.60 286.98,184.67 287.19,184.77 287.41,184.87 287.63,184.97 287.84,185.08 288.06,185.19 288.27,185.30 288.49,185.40 288.70,185.51 288.92,185.62 289.14,185.72 289.35,185.82 289.57,185.93 289.78,186.02 290.00,186.10 290.21,186.19 290.43,186.28 290.65,186.34 290.86,186.41 291.08,186.47 291.29,186.53 291.51,186.59 291.72,186.65 291.94,186.71 292.15,186.77 292.37,186.84 292.59,186.90 292.80,186.97 293.02,187.03 293.23,187.09 293.45,187.15 293.66,187.22 293.88,187.29 294.10,187.36 294.31,187.43 294.53,187.50 294.74,187.59 294.96,187.68 295.17,187.76 295.39,187.83 295.61,187.90 295.82,187.96 296.04,188.02 296.25,188.07 296.47,188.09 296.68,188.12 296.90,188.14 297.12,188.16 297.33,188.19 297.55,188.21 297.76,188.24 297.98,188.26 298.19,188.29 298.41,188.33 298.62,188.36 298.84,188.40 299.06,188.43 299.27,188.49 299.49,188.55 299.70,188.61 299.92,188.67 300.13,188.75 300.35,188.80 300.57,188.86 300.78,188.93 301.00,189.00 301.21,189.07 301.43,189.15 301.64,189.22 301.86,189.29 302.08,189.36 302.29,189.44 302.51,189.52 302.72,189.61 302.94,189.72 303.15,189.83 303.37,189.95 303.59,190.08 303.80,190.19 304.02,190.30 304.23,190.41 304.45,190.53 304.66,190.64 304.88,190.76 305.09,190.85 305.31,190.94 305.53,191.04 305.74,191.13 305.96,191.21 306.17,191.29 306.39,191.37 306.60,191.46 306.82,191.54 307.04,191.64 307.25,191.74 307.47,191.86 307.68,192.01 307.90,192.16 308.11,192.31 308.33,192.47 308.55,192.62 308.76,192.77 308.98,192.90 309.19,193.01 309.41,193.10 309.62,193.20 309.84,193.30 310.06,193.41 310.27,193.52 310.49,193.62 310.70,193.76 310.92,193.90 311.13,194.03 311.35,194.17 311.56,194.31 311.78,194.45 312.00,194.59 312.21,194.73 312.43,194.85 312.64,194.97 312.86,195.09 313.07,195.21 313.29,195.33 313.51,195.45 313.72,195.56 313.94,195.68 314.15,195.80 314.37,195.91 314.58,196.03 314.80,196.15 315.02,196.26 315.23,196.37 315.45,196.48 315.66,196.57 315.88,196.64 316.09,196.74 316.31,196.84 316.53,196.94 316.74,197.04 316.96,197.14 317.17,197.24 317.39,197.34 317.60,197.44 317.82,197.54 318.03,197.68 318.25,197.81 318.47,197.95 318.68,198.09 318.90,198.23 319.11,198.37 319.33,198.51 319.54,198.65 319.76,198.74 319.98,198.85 320.19,198.96 320.41,199.05 320.62,199.13 320.84,199.21 321.05,199.29 321.27,199.37 321.49,199.44 321.70,199.51 321.92,199.57 322.13,199.63 322.35,199.69 322.56,199.74 322.78,199.78 323.00,199.83 323.21,199.90 323.43,199.97 323.64,200.04 323.86,200.11 324.07,200.19 324.29,200.26 324.50,200.32 324.72,200.39 324.94,200.45 325.15,200.51 325.37,200.57 325.58,200.63 325.80,200.68 326.01,200.73 326.23,200.77 326.45,200.82 326.66,200.86 326.88,200.90 327.09,200.91 327.31,200.93 327.52,200.96 327.74,200.97 327.96,200.98 328.17,200.99 328.39,201.00 328.60,201.02 328.82,201.04 329.03,201.08 329.25,201.12 329.46,201.15 329.68,201.18 329.90,201.22 330.11,201.26 330.33,201.29 330.54,201.33 330.76,201.37 330.97,201.41 331.19,201.45 331.41,201.50 331.62,201.57 331.84,201.63 332.05,201.70 332.27,201.74 332.48,201.81 332.70,201.87 332.92,201.94 333.13,201.99 333.35,202.03 333.56,202.08 333.78,202.12 333.99,202.17 334.21,202.22 334.43,202.26 334.64,202.31 334.86,202.36 335.07,202.41 335.29,202.46 335.50,202.50 335.72,202.55 335.93,202.60 336.15,202.65 336.37,202.71 336.58,202.78 336.80,202.85 337.01,202.92 337.23,203.00 337.44,203.08 337.66,203.16 337.88,203.24 338.09,203.32 338.31,203.40 338.52,203.50 338.74,203.60 338.95,203.70 339.17,203.80 339.39,203.90 339.60,203.99 339.82,204.08 340.03,204.16 340.25,204.23 340.46,204.29 340.68,204.36 340.90,204.42 341.11,204.49 341.33,204.56 341.54,204.64 341.76,204.72 341.97,204.81 342.19,204.91 342.40,205.00 342.62,205.09 342.84,205.17 343.05,205.25 343.27,205.33 343.48,205.41 343.70,205.49 343.91,205.57 344.13,205.65 344.35,205.73 344.56,205.81 344.78,205.89 344.99,205.98 345.21,206.08 345.42,206.18 345.64,206.28 345.86,206.38 346.07,206.47 346.29,206.57 346.50,206.67 346.72,206.78 346.93,206.87 347.15,206.96 347.37,207.05 347.58,207.14 347.80,207.25 348.01,207.35 348.23,207.47 348.44,207.57 348.66,207.67 348.87,207.77 349.09,207.87 349.31,207.97 349.52,208.07 349.74,208.18 349.95,208.28 350.17,208.38 350.38,208.48 350.60,208.58 350.82,208.67 351.03,208.77 351.25,208.86 351.46,208.95 351.68,209.04 351.89,209.12 352.11,209.21 352.33,209.30 352.54,209.38 352.76,209.46 352.97,209.54 353.19,209.61 353.40,209.68 353.62,209.75 353.84,209.82 354.05,209.89 354.27,209.96 354.48,210.02 354.70,210.08 354.91,210.14 355.13,210.21 355.34,210.28 355.56,210.34 355.78,210.40 355.99,210.45 356.21,210.50 356.42,210.55 356.64,210.59 356.85,210.62 357.07,210.65 357.29,210.68 357.50,210.71 357.72,210.73 357.93,210.76 358.15,210.78 358.36,210.81 358.58,210.84 358.80,210.88 359.01,210.90 359.23,210.91 359.44,210.94 359.66,210.97 359.87,211.01 360.09,211.03 360.31,211.06 360.52,211.09 360.74,211.12 360.95,211.15 361.17,211.18 361.38,211.21 361.60,211.23 361.81,211.25 362.03,211.29 362.25,211.32 362.46,211.36 362.68,211.39 362.89,211.42 363.11,211.45 363.32,211.48 363.54,211.50 363.76,211.53 363.97,211.56 364.19,211.56 364.40,211.57 364.62,211.57 364.83,211.58 365.05,211.58 365.27,211.58 365.48,211.59 365.70,211.60 365.91,211.61 366.13,211.63 366.34,211.64 366.56,211.65 366.77,211.66 366.99,211.67 367.21,211.68 367.42,211.68 367.64,211.68 367.85,211.67 368.07,211.67 368.28,211.67 368.50,211.66 368.72,211.66 368.93,211.66 369.15,211.66 369.36,211.67 369.58,211.67 369.79,211.67 370.01,211.67 370.23,211.67 370.44,211.66 370.66,211.66 370.87,211.65 371.09,211.65 371.30,211.64 371.52,211.63 371.74,211.62 371.95,211.61 372.17,211.63 372.38,211.63 372.60,211.64 372.81,211.64 373.03,211.65 373.24,211.67 373.46,211.68 373.68,211.69 373.89,211.71 374.11,211.72 374.32,211.72 374.54,211.73 374.75,211.74 374.97,211.75 375.19,211.75 375.40,211.75 375.62,211.75 375.83,211.76 376.05,211.75 376.26,211.75 376.48,211.75 376.70,211.75 376.91,211.75 377.13,211.74 377.34,211.73 377.56,211.72 377.77,211.71 377.99,211.72 378.21,211.72 378.42,211.72 378.64,211.71 378.85,211.70 379.07,211.70 379.28,211.68 379.50,211.68 379.71,211.68 379.93,211.68 380.15,211.66 380.36,211.64 380.58,211.62 380.79,211.59 381.01,211.58 381.22,211.57 381.44,211.54 381.66,211.51 381.87,211.48 382.09,211.45 382.30,211.42 382.52,211.38 382.73,211.34 382.95,211.31 383.17,211.27 383.38,211.24 383.60,211.21 383.81,211.18 384.03,211.16 384.24,211.12 384.46,211.10 384.68,211.07 384.89,211.04 385.11,211.00 385.32,210.96 385.54,210.91 385.75,210.86 385.97,210.81 386.18,210.75 386.40,210.69 386.62,210.62 386.83,210.56 387.05,210.50 387.26,210.44 387.48,210.38 387.69,210.31 387.91,210.25 388.13,210.18 388.34,210.11 388.56,210.04 388.77,209.96 388.99,209.90 389.20,209.84 389.42,209.78 389.64,209.72 389.85,209.66 390.07,209.60 390.28,209.54 390.50,209.47 390.71,209.40 390.93,209.32 391.15,209.24 391.36,209.16 391.58,209.09 391.79,209.00 392.01,208.93 392.22,208.86 392.44,208.77 392.65,208.69 392.87,208.60 393.09,208.51 393.30,208.42 393.52,208.32 393.73,208.21 393.95,208.09 394.16,207.98 394.38,207.87 394.60,207.75 394.81,207.63 395.03,207.52 395.24,207.40 395.46,207.29 395.67,207.17 395.89,207.06 396.11,206.94 396.32,206.81 396.54,206.70 396.75,206.58 396.97,206.48 397.18,206.37 397.40,206.26 397.62,206.16 397.83,206.05 398.05,205.94 398.26,205.83 398.48,205.73 398.69,205.62 398.91,205.52 399.12,205.42 399.34,205.32 399.56,205.21 399.77,205.11 399.99,205.02 400.20,204.93 400.42,204.84 400.63,204.75 400.85,204.68 401.07,204.60 401.28,204.53 401.50,204.47 401.71,204.40 401.93,204.35 402.14,204.29 402.36,204.22 402.58,204.15 402.79,204.08 403.01,203.99 403.22,203.89 403.44,203.78 403.65,203.66 403.87,203.54 404.08,203.43 404.30,203.32 404.52,203.23 404.73,203.12 404.95,203.03 405.16,202.95 405.38,202.86 405.59,202.77 405.81,202.67 406.03,202.59 406.24,202.51 406.46,202.43 406.67,202.36 406.89,202.28 407.10,202.19 407.32,202.11 407.54,202.03 407.75,201.95 407.97,201.86 408.18,201.78 408.40,201.69 408.61,201.60 408.83,201.51 409.05,201.41 409.26,201.29 409.48,201.18 409.69,201.08 409.91,200.98 410.12,200.87 410.34,200.76 410.55,200.64 410.77,200.52 410.99,200.40 411.20,200.28 411.42,200.17 411.63,200.03 411.85,199.92 412.06,199.79 412.28,199.66 412.50,199.54 412.71,199.43 412.93,199.32 413.14,199.20 413.36,199.10 413.57,198.99 413.79,198.88 414.01,198.78 414.22,198.68 414.44,198.59 414.65,198.49 414.87,198.39 415.08,198.30 415.30,198.21 415.52,198.11 415.73,198.02 415.95,197.93 416.16,197.84 416.38,197.75 416.59,197.66 416.81,197.58 417.02,197.49 417.24,197.41 417.46,197.29 417.67,197.19 417.89,197.08 418.10,197.00 418.32,196.92 418.53,196.83 418.75,196.75 418.97,196.70 419.18,196.64 419.40,196.58 419.61,196.53 419.83,196.48 420.04,196.44 420.26,196.40 420.48,196.37 420.69,196.35 420.91,196.32 421.12,196.29 421.34,196.28 421.55,196.26 421.77,196.25 421.99,196.24 422.20,196.24 422.42,196.25 422.63,196.26 422.85,196.27 423.06,196.27 423.28,196.29 423.49,196.31 423.71,196.35 423.93,196.39 424.14,196.40 424.36,196.44 424.57,196.47 424.79,196.51 425.00,196.56 425.22,196.62 425.44,196.68 425.65,196.76 425.87,196.84 426.08,196.94 426.30,197.04 426.51,197.16 426.73,197.27 426.95,197.40 427.16,197.55 427.38,197.71 427.59,197.87 427.81,198.04 428.02,198.22 428.24,198.41 428.46,198.61 428.67,198.81 428.89,199.02 429.10,199.22 429.32,199.42 429.53,199.62 429.75,199.84 429.96,200.07 430.18,200.30 430.40,200.53 430.61,200.79 430.83,201.05 431.04,201.33 431.26,201.58 431.47,201.85 431.69,202.13 431.91,202.41 432.12,202.71 432.34,203.01 432.55,203.32 432.77,203.64 432.98,203.97 433.20,204.31 433.42,204.63 433.63,204.95 433.85,205.28 434.06,205.60 434.28,205.92 434.49,206.22 434.71,206.53 434.92,206.85 435.14,207.17 435.36,207.49 435.57,207.85 435.79,208.20 436.00,208.59 436.22,208.96 436.43,209.34 436.65,209.72 436.87,210.11 437.08,210.47 437.30,210.84 437.51,211.21 437.73,211.58 437.94,211.95 438.16,212.33 438.38,212.70 438.59,213.06 438.81,213.41 439.02,213.76 439.24,214.11 439.45,214.45 439.67,214.79 439.89,215.13 440.10,215.47 440.32,215.80 440.53,216.13 440.75,216.46 440.96,216.78 441.18,217.10 441.39,217.41 441.61,217.74 441.83,218.06 442.04,218.37 442.26,218.67 442.47,218.97 442.69,219.27 442.90,219.58 443.12,219.87 443.34,220.17 443.55,220.46 443.77,220.76 443.98,221.04 444.20,221.35 444.41,221.62 444.63,221.91 444.85,222.19 445.06,222.47 445.28,222.74 445.49,223.01 445.71,223.27 445.92,223.52 446.14,223.77 446.36,224.01 446.57,224.24 446.79,224.46 447.00,224.67 447.22,224.87 447.43,225.09 447.65,225.31 447.86,225.52 448.08,225.72 448.30,225.91 448.51,226.09 448.73,226.24 448.94,226.40 449.16,226.53 449.37,226.66 449.59,226.80 449.81,226.94 450.02,227.11 450.24,227.27 450.45,227.43 450.67,227.59 450.88,227.74 451.10,227.90 451.32,228.06 451.53,228.19 451.75,228.32 451.96,228.45 452.18,228.57 452.39,228.69 452.61,228.79 452.83,228.88 453.04,228.98 453.26,229.07 453.47,229.17 453.69,229.26 453.90,229.34 454.12,229.42 454.33,229.49 454.55,229.55 454.77,229.62 454.98,229.67 455.20,229.72 455.41,229.77 455.63,229.83 455.84,229.89 456.06,229.94 456.28,229.98 456.49,230.02 456.71,230.08 456.92,230.12 457.14,230.16 457.35,230.21 457.57,230.25 457.79,230.28 458.00,230.31 458.22,230.33 458.43,230.35 458.65,230.38 458.86,230.42 459.08,230.46 459.30,230.49 459.51,230.53 459.73,230.56 459.94,230.58 460.16,230.59 460.37,230.60 460.59,230.60 460.80,230.60 461.02,230.59 461.24,230.58 461.45,230.57 461.67,230.57 461.88,230.57 462.10,230.57 462.31,230.55 462.53,230.56 462.75,230.56 462.96,230.56 463.18,230.54 463.39,230.52 463.61,230.49 463.82,230.47 464.04,230.46 464.26,230.45 464.47,230.42 464.69,230.40 464.90,230.38 465.12,230.36 465.33,230.33 465.55,230.31 465.77,230.29 465.98,230.28 466.20,230.26 466.41,230.25 466.63,230.23 466.84,230.20 467.06,230.19 467.27,230.15 467.49,230.12 467.71,230.08 467.92,230.03 468.14,229.98 468.35,229.94 468.57,229.90 468.78,229.87 469.00,229.83 469.22,229.82 469.43,229.78 469.65,229.75 469.86,229.72 470.08,229.69 470.29,229.66 470.51,229.62 470.73,229.58 470.94,229.55 471.16,229.51 471.37,229.48 471.59,229.44 471.80,229.41 472.02,229.38 472.23,229.34 472.45,229.31 472.67,229.28 472.88,229.24 473.10,229.21 473.31,229.18 473.53,229.14 473.74,229.11 473.96,229.08 474.18,229.04 474.39,229.02 474.61,229.01 474.82,228.99 475.04,228.97 475.25,228.96 475.47,228.94 475.69,228.92 475.90,228.89 476.12,228.86 476.33,228.82 476.55,228.78 476.76,228.74 476.98,228.71 477.20,228.67 477.41,228.64 477.63,228.61 477.84,228.58 478.06,228.57 478.27,228.55 478.49,228.54 478.70,228.53 478.92,228.51 479.14,228.50 479.35,228.51 479.57,228.51 479.78,228.51 480.00,228.51 480.21,228.51 480.43,228.50 480.65,228.50 480.86,228.51 481.08,228.52 481.29,228.53 481.51,228.54 481.72,228.57 481.94,228.60 482.16,228.58 482.37,228.57 482.59,228.57 482.80,228.57 483.02,228.56 483.23,228.56 483.45,228.56 483.67,228.57 483.88,228.58 484.10,228.59 484.31,228.61 484.53,228.63 484.74,228.65 484.96,228.67 485.17,228.70 485.39,228.74 485.61,228.77 485.82,228.81 486.04,228.84 486.25,228.88 486.47,228.93 486.68,228.98 486.90,229.03 487.12,229.08 487.33,229.12 487.55,229.17 487.76,229.22 487.98,229.27 488.19,229.33 488.41,229.39 488.63,229.45 488.84,229.52 489.06,229.59 489.27,229.67 489.49,229.75 489.70,229.83 489.92,229.90 490.14,229.98 490.35,230.06 490.57,230.14 490.78,230.25 491.00,230.34 491.21,230.44 491.43,230.52 491.64,230.61 491.86,230.71 492.08,230.80 492.29,230.90 492.51,230.99 492.72,231.08 492.94,231.18 493.15,231.27 493.37,231.37 493.59,231.46 493.80,231.56 494.02,231.67 494.23,231.79 494.45,231.91 494.66,232.03 494.88,232.15 495.10,232.26 495.31,232.37 495.53,232.49 495.74,232.62 495.96,232.75 496.17,232.88 496.39,233.02 496.61,233.15 496.82,233.29 497.04,233.43 497.25,233.57 497.47,233.70 497.68,233.84 497.90,233.98 498.11,234.12 498.33,234.24 498.55,234.36 498.76,234.49 498.98,234.61 499.19,234.73 499.41,234.85 499.62,234.97 499.84,235.10 500.06,235.24 500.27,235.39 500.49,235.54 500.70,235.69 500.92,235.82 501.13,235.95 501.35,236.08 501.57,236.20 501.78,236.31 502.00,236.43 502.21,236.55 502.43,236.67 502.64,236.78 502.86,236.90 503.08,237.02 503.29,237.14 503.51,237.26 503.72,237.39 503.94,237.51 504.15,237.63 504.37,237.75 504.58,237.86 504.80,237.97 505.02,238.08 505.23,238.19 505.45,238.29 505.66,238.39 505.88,238.49 506.09,238.58 506.31,238.67 506.53,238.76 506.74,238.84 506.96,238.93 507.17,239.00 507.39,239.08 507.60,239.15 507.82,239.21 508.04,239.28 508.25,239.36 508.47,239.44 508.68,239.52 508.90,239.61 509.11,239.69 509.33,239.77 509.54,239.86 509.76,239.93 509.98,239.99 510.19,240.06 510.41,240.12 510.62,240.16 510.84,240.20 511.05,240.23 511.27,240.25 511.49,240.27 511.70,240.29 511.92,240.30 512.13,240.31 512.35,240.31 512.56,240.30 512.78,240.31 513.00,240.31 513.21,240.34 513.43,240.34 513.64,240.35 513.86,240.37 514.07,240.38 514.29,240.39 514.51,240.40 514.72,240.42 514.94,240.44 515.15,240.44 515.37,240.45 515.58,240.44 515.80,240.43 516.01,240.41 516.23,240.39 516.45,240.36 516.66,240.32 516.88,240.28 517.09,240.25 517.31,240.19 517.52,240.15 517.74,240.10 517.96,240.05 518.17,239.99 518.39,239.92 518.60,239.85 518.82,239.78 519.03,239.69 519.25,239.60 519.47,239.50 519.68,239.40 519.90,239.32 520.11,239.22 520.33,239.15 520.54,239.06 520.76,238.97 520.98,238.88 521.19,238.77 521.41,238.67 521.62,238.56 521.84,238.45 522.05,238.33 522.27,238.23 522.48,238.14 522.70,238.04 522.92,237.95 523.13,237.84 523.35,237.73 523.56,237.61 523.78,237.49 523.99,237.37 524.21,237.22 524.43,237.06 524.64,236.91 524.86,236.75 525.07,236.57 525.29,236.37 525.50,236.17 525.72,235.96 525.94,235.75 526.15,235.55 526.37,235.35 526.58,235.13 526.80,234.92 527.01,234.71 527.23,234.49 527.45,234.27 527.66,234.06 527.88,233.82 528.09,233.58 528.31,233.35 528.52,233.11 528.74,232.88 528.95,232.64 529.17,232.41 529.39,232.18 529.60,231.95 529.82,231.72 530.03,231.49 530.25,231.27 530.46,231.03 530.68,230.79 530.90,230.55 531.11,230.32 531.33,230.09 531.54,229.86 531.76,229.63 531.97,229.41 532.19,229.17 532.41,228.94 532.62,228.69 532.84,228.44 533.05,228.20 533.27,227.96 533.48,227.75 533.70,227.52 533.92,227.32 534.13,227.13 534.35,226.94 534.56,226.76 534.78,226.60 534.99,226.44 535.21,226.28 535.42,226.13 535.64,225.99 535.86,225.86 536.07,225.73 536.29,225.61 536.50,225.49 536.72,225.38 536.93,225.28 537.15,225.19 537.37,225.11 537.58,225.04 537.80,224.98 538.01,224.94 538.23,224.90 538.44,224.87 538.66,224.86 538.88,224.83 539.09,224.82 539.31,224.79 539.52,224.78 539.74,224.79 539.95,224.80 540.17,224.83 540.38,224.87 540.60,224.91 540.82,224.96 541.03,225.00 541.25,225.07 541.46,225.14 541.68,225.22 541.89,225.31 542.11,225.40 542.33,225.52 542.54,225.63 542.76,225.76 542.97,225.90 543.19,226.06 543.40,226.22 543.62,226.40 543.84,226.59 544.05,226.79 544.27,226.99 544.48,227.21 544.70,227.44 544.91,227.68 545.13,227.93 545.35,228.18 545.56,228.43 545.78,228.66 545.99,228.90 546.21,229.13 546.42,229.38 546.64,229.62 546.85,229.86 547.07,230.12 547.29,230.37 547.50,230.64 547.72,230.90 547.93,231.18 548.15,231.46 548.36,231.75 548.58,232.04 548.80,232.34 549.01,232.65 549.23,232.95 549.44,233.27 549.66,233.55 549.87,233.86 550.09,234.16 550.31,234.46 550.52,234.76 550.74,235.07 550.95,235.37 551.17,235.70 551.38,236.02 551.60,236.35 551.82,236.68 552.03,237.01 552.25,237.34 552.46,237.67 552.68,238.00 552.89,238.30 553.11,238.60 553.32,238.90 553.54,239.21 553.76,239.52 553.97,239.81 554.19,240.11 554.40,240.41 554.62,240.70 554.83,240.96 555.05,241.21 555.27,241.46 555.48,241.69 555.70,241.89 555.91,242.11 556.13,242.30 556.34,242.50 556.56,242.68 556.78,242.86 556.99,243.05 557.21,243.23 557.42,243.41 557.64,243.60 557.85,243.82 558.07,244.03 558.29,244.24 558.50,244.43 558.72,244.62 558.93,244.81 559.15,245.00 559.36,245.16 559.58,245.32 559.79,245.48 560.01,245.63 560.23,245.77 560.44,245.92 560.66,246.06 560.87,246.19 561.09,246.31 561.30,246.44 561.52,246.55 561.74,246.67 561.95,246.77 562.17,246.87 562.38,246.96 562.60,247.03 562.81,247.09 563.03,247.17 563.25,247.24 563.46,247.31 563.68,247.38 563.89,247.47 564.11,247.56 564.32,247.63 564.54,247.68 564.76,247.76 564.97,247.84 565.19,247.93 565.40,248.05 565.62,248.16 565.83,248.26 566.05,248.37 566.26,248.50 566.48,248.62 566.70,248.74 566.91,248.86 567.13,248.97 567.34,249.07 567.56,249.17 567.77,249.25 567.99,249.35 568.21,249.42 568.42,249.49 568.64,249.58 568.85,249.67 569.07,249.75 569.28,249.83 569.50,249.91 569.72,249.98 569.93,250.04 570.15,250.10 570.36,250.15 570.58,250.20 570.79,250.23 571.01,250.24 571.23,250.25 571.44,250.27 571.66,250.27 571.87,250.31 572.09,250.33 572.30,250.35 572.52,250.36 572.73,250.37 572.95,250.39 573.17,250.41 573.38,250.43 573.60,250.50 573.81,250.55 574.03,250.62 574.24,250.68 574.46,250.74 574.68,250.80 574.89,250.86 575.11,250.92 575.32,250.97 575.54,251.02 575.75,251.05 575.97,251.07 576.19,251.09 576.40,251.11 576.62,251.13 576.83,251.17 577.05,251.18 577.26,251.20 577.48,251.22 577.69,251.26 577.91,251.29 578.13,251.32 578.34,251.34 578.56,251.38 578.77,251.41 578.99,251.44 579.20,251.47 579.42,251.49 579.64,251.51 579.85,251.54 580.07,251.51 580.28,251.49 580.50,251.47 580.71,251.44 580.93,251.42 581.15,251.40 581.36,251.38 581.58,251.35 581.79,251.33 582.01,251.31 582.22,251.31 582.44,251.33 582.66,251.37 582.87,251.41 583.09,251.40 583.30,251.39 583.52,251.38 583.73,251.36 583.95,251.39 584.16,251.43 584.38,251.40 584.60,251.37 584.81,251.35 585.03,251.37 585.24,251.39 585.46,251.43 585.67,251.46 585.89,251.48 586.11,251.49 586.32,251.49 586.54,251.47 586.75,251.45 586.97,251.42 587.18,251.40 587.40,251.39 587.62,251.35 587.83,251.31 588.05,251.30 588.26,251.33 588.48,251.35 588.69,251.38 588.91,251.41 589.13,251.44 589.34,251.44 589.56,251.47 589.77,251.50 589.99,251.48 590.20,251.45 590.42,251.42 590.63,251.37 590.85,251.32 591.07,251.29 591.28,251.24 591.50,251.20 591.71,251.15 591.93,251.12 592.14,251.08 592.36,251.05 592.58,251.02 592.79,251.01 593.01,250.99 593.22,251.00 593.44,251.01 593.65,251.01 593.87,251.02 594.09,251.04 594.30,251.05 594.52,251.06 594.73,251.07 594.95,251.08 595.16,251.12 595.38,251.15 595.60,251.20 595.81,251.24 596.03,251.28 596.24,251.32 596.46,251.34 596.67,251.36 596.89,251.40 597.10,251.45 597.32,251.51 597.54,251.56 597.75,251.61 597.97,251.65 598.18,251.68 598.40,251.72 598.61,251.77 598.83,251.78 599.05,251.78 599.26,251.78 599.48,251.81 599.69,251.83 599.91,251.84 600.12,251.86 600.34,251.90 600.56,251.91 600.77,251.94 600.99,251.97 601.20,251.98 601.42,251.98 601.63,251.98 601.85,251.98 602.07,251.97 602.28,251.97 602.50,251.94 602.71,251.92 602.93,251.90 603.14,251.86 603.36,251.83 603.57,251.83 603.79,251.83 604.01,251.82 604.22,251.84 604.44,251.85 604.65,251.88 604.87,251.92 605.08,251.96 605.30,252.00 605.52,252.04 605.73,252.08 605.95,252.12 606.16,252.12 606.38,252.12 606.59,252.10 606.81,252.09 607.03,252.06 607.24,252.04 607.46,252.00 607.67,251.96 607.89,251.93 608.10,251.90 608.32,251.88 608.54,251.87 608.75,251.86 608.97,251.84 609.18,251.83 609.40,251.81 609.61,251.79 609.83,251.77 610.04,251.74 610.26,251.69 610.48,251.65 610.69,251.60 610.91,251.54 611.12,251.49 611.34,251.43 611.55,251.37 611.77,251.31 611.99,251.24 612.20,251.17 612.42,251.10 612.63,251.07 612.85,251.04 613.06,251.01 613.28,250.98 613.50,250.95 613.71,250.92 613.93,250.89 614.14,250.87 614.36,250.84 614.57,250.82 614.79,250.79 615.00,250.75 615.22,250.68 615.44,250.60 615.65,250.57 615.87,250.55 616.08,250.52 616.30,250.50 616.51,250.43 616.73,250.35 616.95,250.33 617.16,250.31 617.38,250.29 617.59,250.22 617.81,250.16 618.02,250.09 618.24,250.03 618.46,249.97 618.67,249.91 618.89,249.84 619.10,249.80 619.32,249.76 619.53,249.73 619.75,249.70 619.97,249.67 620.18,249.65 620.40,249.64 620.61,249.60 620.83,249.54 621.04,249.47 621.26,249.40 621.47,249.36 621.69,249.30 621.91,249.27 622.12,249.22 622.34,249.16 622.55,249.12 622.77,249.09 622.98,249.04 623.20,249.01 623.42,248.98 623.63,248.95 623.85,248.92 624.06,248.88 624.28,248.83 624.49,248.78 624.71,248.74 624.93,248.70 625.14,248.66 625.36,248.60 625.57,248.54 625.79,248.47 626.00,248.40 626.22,248.33 626.44,248.26 626.65,248.17 626.87,248.09 627.08,248.03 627.30,247.96 627.51,247.90 627.73,247.83 627.94,247.76 628.16,247.67 628.38,247.59 628.59,247.51 628.81,247.41 629.02,247.30 629.24,247.20 629.45,247.09 629.67,246.99 629.89,246.86 630.10,246.76 630.32,246.65 630.53,246.55 630.75,246.46 630.96,246.36 631.18,246.26 631.40,246.16 631.61,246.06 631.83,245.97 632.04,245.85 632.26,245.72 632.47,245.60 632.69,245.47 632.91,245.35 633.12,245.24 633.34,245.12 633.55,245.04 633.77,244.95 633.98,244.85 634.20,244.75 634.41,244.65 634.63,244.54 634.85,244.42 635.06,244.32 635.28,244.21 635.49,244.08 635.71,243.97 635.92,243.87 636.14,243.73 636.36,243.61 636.57,243.48 636.79,243.35 637.00,243.21 637.22,243.06 637.43,242.90 637.65,242.73 637.87,242.57 638.08,242.42 638.30,242.26 638.51,242.11 638.73,241.96 638.94,241.79 639.16,241.63 639.38,241.48 639.59,241.32 639.81,241.16 640.02,241.00 640.24,240.84 640.45,240.68 640.67,240.51 640.88,240.34 641.10,240.19 641.32,240.03 641.53,239.87 641.75,239.71 641.96,239.55 642.18,239.37 642.39,239.20 642.61,239.02 642.83,238.84 643.04,238.64 643.26,238.44 643.47,238.24 643.69,238.04 643.90,237.84 644.12,237.65 644.34,237.45 644.55,237.25 644.77,237.04 644.98,236.84 645.20,236.63 645.41,236.42 645.63,236.21 645.85,236.00 646.06,235.80 646.28,235.60 646.49,235.41 646.71,235.23 646.92,235.04 647.14,234.85 647.35,234.66 647.57,234.47 647.79,234.28 648.00,234.09 648.22,233.89 648.43,233.71 648.65,233.52 648.86,233.33 649.08,233.13 649.30,232.92 649.51,232.72 649.73,232.51 649.94,232.29 650.16,232.08 650.37,231.84 650.59,231.63 650.81,231.40 651.02,231.20 651.24,230.99 651.45,230.78 651.67,230.56 651.88,230.33 652.10,230.09 652.31,229.84 652.53,229.60 652.75,229.34 652.96,229.09 653.18,228.83 653.39,228.56 653.61,228.29 653.82,228.01 654.04,227.72 654.26,227.43 654.47,227.14 654.69,226.83 654.90,226.51 655.12,226.18 655.33,225.85 655.55,225.54 655.77,225.22 655.98,224.90 656.20,224.56 656.41,224.25 656.63,223.94 656.84,223.62 657.06,223.31 657.28,222.99 657.49,222.66 657.71,222.32 657.92,221.98 658.14,221.64 658.35,221.29 658.57,220.94 658.78,220.59 659.00,220.24 659.22,219.89 659.43,219.54 659.65,219.16 659.86,218.79 660.08,218.42 660.29,218.05 660.51,217.70 660.73,217.35 660.94,216.99 661.16,216.63 661.37,216.29 661.59,215.96 661.80,215.62 662.02,215.27 662.24,214.92 662.45,214.57 662.67,214.21 662.88,213.85 663.10,213.47 663.31,213.10 663.53,212.73 663.75,212.38 663.96,212.02 664.18,211.67 664.39,211.31 664.61,210.95 664.82,210.58 665.04,210.22 665.25,209.85 665.47,209.46 665.69,209.07 665.90,208.67 666.12,208.24 666.33,207.81 666.55,207.39 666.76,206.97 666.98,206.55 667.20,206.14 667.41,205.72 667.63,205.31 667.84,204.89 668.06,204.48 668.27,204.07 668.49,203.65 668.71,203.23 668.92,202.80 669.14,202.37 669.35,201.93 669.57,201.50 669.78,201.06 670.00,200.63 670.22,200.19 670.43,199.75 670.65,199.30 670.86,198.82 671.08,198.35 671.29,197.85 671.51,197.35 671.72,196.87 671.94,196.39 672.16,195.91 672.37,195.43 672.59,194.98 672.80,194.53 673.02,194.06 673.23,193.59 673.45,193.10 673.67,192.60 673.88,192.09 674.10,191.57 674.31,191.05 674.53,190.54 674.74,190.04 674.96,189.54 675.18,189.03 675.39,188.52 675.61,188.01 675.82,187.48 676.04,186.97 676.25,186.46 676.47,185.94 676.69,185.41 676.90,184.87 677.12,184.33 677.33,183.79 677.55,183.24 677.76,182.70 677.98,182.15 678.19,181.60 678.41,181.06 678.63,180.49 678.84,179.92 679.06,179.34 679.27,178.79 679.49,178.25 679.70,177.72 679.92,177.17 680.14,176.64 680.35,176.12 680.57,175.59 680.78,175.06 681.00,174.51 681.21,173.96 681.43,173.40 681.65,172.84 681.86,172.29 682.08,171.76 682.29,171.22 682.51,170.69 682.72,170.15 682.94,169.61 683.15,169.06 683.37,168.50 683.59,167.92 683.80,167.34 684.02,166.76 684.23,166.17 684.45,165.60 684.66,165.03 684.88,164.46 685.10,163.88 685.31,163.31 685.53,162.73 685.74,162.16 685.96,161.58 686.17,161.01 686.39,160.44 686.61,159.85 686.82,159.26 687.04,158.67 687.25,158.11 687.47,157.56 687.68,157.03 687.90,156.49 688.12,155.94 688.33,155.40 688.55,154.89 688.76,154.37 688.98,153.83 689.19,153.28 689.41,152.72 689.62,152.16 689.84,151.62 690.06,151.08 690.27,150.55 690.49,150.01 690.70,149.47 690.92,148.94 691.13,148.42 691.35,147.89 691.57,147.36 691.78,146.85 692.00,146.35 692.21,145.85 692.43,145.37 692.64,144.89 692.86,144.43 693.08,143.93 693.29,143.44 693.51,142.94 693.72,142.45 693.94,141.96 694.15,141.45 694.37,140.96 694.59,140.46 694.80,139.97 695.02,139.49 695.23,139.01 695.45,138.54 695.66,138.07 695.88,137.60 696.09,137.12 696.31,136.62 696.53,136.13 696.74,135.64 696.96,135.15 697.17,134.68 697.39,134.24 697.60,133.80 697.82,133.36 698.04,132.93 698.25,132.48 698.47,132.04 698.68,131.57 698.90,131.11 699.11,130.64 699.33,130.18 699.55,129.72 699.76,129.27 699.98,128.83 700.19,128.42 700.41,128.00 700.62,127.58 700.84,127.16 701.06,126.75 701.27,126.33 701.49,125.92 701.70,125.51 701.92,125.11 702.13,124.69 702.35,124.28 702.56,123.88 702.78,123.49 703.00,123.11 703.21,122.74 703.43,122.39 703.64,122.02 703.86,121.69 704.07,121.36 704.29,121.02 704.51,120.66 704.72,120.30 704.94,119.95 705.15,119.56 705.37,119.18 705.58,118.83 705.80,118.46 706.02,118.10 706.23,117.76 706.45,117.42 706.66,117.08 706.88,116.75 707.09,116.40 707.31,116.05 707.53,115.69 707.74,115.34 707.96,114.99 708.17,114.65 708.39,114.33 708.60,114.03 708.82,113.71 709.03,113.40 709.25,113.09 709.47,112.79 709.68,112.51 709.90,112.22 710.11,111.94 710.33,111.66 710.54,111.39 710.76,111.12 710.98,110.86 711.19,110.62 711.41,110.39 711.62,110.17 711.84,109.91 712.05,109.64 712.27,109.38 712.49,109.11 712.70,108.83 712.92,108.53 713.13,108.24 713.35,107.95 713.56,107.67 713.78,107.38 714.00,107.09 714.21,106.81 714.43,106.53 714.64,106.22 714.86,105.92 715.07,105.60 715.29,105.28 715.50,104.97 715.72,104.68 715.94,104.39 716.15,104.12 716.37,103.86 716.58,103.63 716.80,103.41 717.01,103.17 717.23,102.94 717.45,102.72 717.66,102.50 717.88,102.28 718.09,102.06 718.31,101.86 718.52,101.66 718.74,101.45 718.96,101.23 719.17,101.01 719.39,100.79 719.60,100.56 719.82,100.29 720.03,100.00 720.25,99.68 720.46,99.39 720.68,99.09 720.90,98.78 721.11,98.46 721.33,98.16 721.54,97.87 721.76,97.60 721.97,97.33 722.19,97.07 722.41,96.79 722.62,96.49 722.84,96.18 723.05,95.87 723.27,95.56 723.48,95.27 723.70,94.98 723.92,94.71 724.13,94.45 724.35,94.23 724.56,94.01 724.78,93.80 724.99,93.57 725.21,93.38 725.43,93.18 725.64,92.97 725.86,92.77 726.07,92.59 726.29,92.40 726.50,92.20 726.72,92.00 726.93,91.80 727.15,91.60 727.37,91.40 727.58,91.23 727.80,91.04 728.01,90.86 728.23,90.67 728.44,90.49 728.66,90.32 728.88,90.14 729.09,89.96 729.31,89.79 729.52,89.61 729.74,89.43 729.95,89.22 730.17,89.00 730.39,88.79 730.60,88.58 730.82,88.39 731.03,88.21 731.25,88.06 731.46,87.91 731.68,87.79 731.90,87.67 732.11,87.53 732.33,87.40 732.54,87.24 732.76,87.07 732.97,86.90 733.19,86.71 733.40,86.50 733.62,86.30 733.84,86.09 734.05,85.89 734.27,85.69 734.48,85.49 734.70,85.30 734.91,85.11 735.13,84.93 735.35,84.76 735.56,84.59 735.78,84.43 735.99,84.27 736.21,84.11 736.42,83.95 736.64,83.79 736.86,83.63 737.07,83.47 737.29,83.30 737.50,83.12 737.72,82.94 737.93,82.76 738.15,82.54 738.37,82.34 738.58,82.16 738.80,81.97 739.01,81.80 739.23,81.62 739.44,81.45 739.66,81.29 739.87,81.14 740.09,80.99 740.31,80.83 740.52,80.68 740.74,80.53 740.95,80.36 741.17,80.17 741.38,79.98 741.60,79.80 741.82,79.60 742.03,79.40 742.25,79.19 742.46,78.98 742.68,78.77 742.89,78.57 743.11,78.37 743.33,78.17 743.54,77.97 743.76,77.77 743.97,77.57 744.19,77.37 744.40,77.17 744.62,76.97 744.84,76.77 745.05,76.56 745.27,76.36 745.48,76.15 745.70,75.94 745.91,75.72 746.13,75.51 746.34,75.30 746.56,75.10 746.78,74.89 746.99,74.69 747.21,74.49 747.42,74.29 747.64,74.12 747.85,73.95 748.07,73.79 748.29,73.61 748.50,73.41 748.72,73.21 748.93,73.01 749.15,72.79 749.36,72.55 749.58,72.32 749.80,72.08 750.01,71.82 750.23,71.56 750.44,71.29 750.66,71.03 750.87,70.74 751.09,70.45 751.31,70.17 751.52,69.89 751.74,69.63 751.95,69.38 752.17,69.15 752.38,68.93 752.60,68.72 752.81,68.53 753.03,68.35 753.25,68.16 753.46,67.99 753.68,67.81 753.89,67.61 754.11,67.42 754.32,67.22 754.54,67.07 754.76,66.92 754.97,66.77 755.19,66.65 755.40,66.55 755.62,66.47 755.83,66.39 756.05,66.31 756.27,66.23 756.48,66.15 756.70,66.05 756.91,65.92 757.13,65.78 757.34,65.64 757.56,65.53 757.77,65.38 757.99,65.23 758.21,65.09 758.42,64.94 758.64,64.80 758.85,64.65 759.07,64.51 759.28,64.38 759.50,64.25 759.72,64.12 759.93,63.99 760.15,63.83 760.36,63.68 760.58,63.53 760.79,63.39 761.01,63.24 761.23,63.08 761.44,62.94 761.66,62.79 761.87,62.64 762.09,62.50 762.30,62.37 762.52,62.25 762.74,62.13 762.95,62.00 763.17,61.89 763.38,61.77 763.60,61.66 763.81,61.54 764.03,61.42 764.24,61.28 764.46,61.14 764.68,61.01 764.89,60.88 765.11,60.75 765.32,60.63 765.54,60.50 765.75,60.37 765.97,60.27 766.19,60.18 766.40,60.08 766.62,59.99 766.83,59.91 767.05,59.83 767.26,59.75 767.48,59.68 767.70,59.61 767.91,59.52 768.13,59.42 768.34,59.31 768.56,59.19 768.77,59.08 768.99,58.97 769.21,58.85 769.42,58.74 769.64,58.63 769.85,58.53 770.07,58.43 770.28,58.34 770.50,58.26 770.71,58.20 770.93,58.14 771.15,58.07 771.36,58.00 771.58,57.91 771.79,57.83 772.01,57.75 772.22,57.68 772.44,57.61 772.66,57.53 772.87,57.45 773.09,57.36 773.30,57.27 773.52,57.20 773.73,57.12 773.95,57.04 774.17,56.95 774.38,56.87 774.60,56.79 774.81,56.73 775.03,56.66 775.24,56.60 775.46,56.52 775.68,56.45 775.89,56.38 776.11,56.31 776.32,56.25 776.54,56.17 776.75,56.10 776.97,56.02 777.18,55.94 777.40,55.87 777.62,55.81 777.83,55.74 778.05,55.70 778.26,55.65 778.48,55.60 778.69,55.55 778.91,55.51 779.13,55.47 779.34,55.43 779.56,55.39 779.77,55.35 779.99,55.31 780.20,55.28 780.42,55.25 780.64,55.22 780.85,55.19 781.07,55.18 781.28,55.15 781.50,55.13 781.71,55.11 781.93,55.09 782.15,55.07 782.36,55.05 782.58,55.03 782.79,55.01 783.01,55.00 783.22,54.98 783.44,54.96 783.65,54.95 783.87,54.94 784.09,54.94 784.30,54.91 784.52,54.90 784.73,54.87 784.95,54.85 785.16,54.83 785.38,54.81 785.60,54.79 785.81,54.77 786.03,54.74 786.24,54.72 786.46,54.70 786.67,54.68 786.89,54.67 787.11,54.62 787.32,54.57 787.54,54.52 787.75,54.47 787.97,54.42 788.18,54.37 788.40,54.32 788.62,54.26 788.83,54.22 789.05,54.18 789.26,54.16 789.48,54.14 789.69,54.12 789.91,54.11 790.12,54.09 790.34,54.07 790.56,54.05 790.77,54.02 790.99,54.00 791.20,53.96 791.42,53.92 791.63,53.88 791.85,53.84 792.07,53.80 792.28,53.75 792.50,53.70 792.71,53.67 792.93,53.64 793.14,53.61 793.36,53.58 793.58,53.55 793.79,53.52 794.01,53.49 794.22,53.47 794.44,53.45 794.65,53.43 794.87,53.40 795.08,53.37 795.30,53.34 795.52,53.31 795.73,53.28 795.95,53.25 796.16,53.23 796.38,53.20 796.59,53.19 796.81,53.16 797.03,53.14 797.24,53.11 797.46,53.07 797.67,53.04 797.89,53.00 798.10,52.97 798.32,52.94 798.54,52.91 798.75,52.88 798.97,52.86 799.18,52.83 799.40,52.81 799.61,52.79 799.83,52.76 800.05,52.73 800.26,52.70 800.48,52.68 800.69,52.65 800.91,52.63 801.12,52.60 801.34,52.57 801.55,52.54 801.77,52.51 801.99,52.49 802.20,52.44 802.42,52.40 802.63,52.36 802.85,52.33 803.06,52.30 803.28,52.27 803.50,52.24 803.71,52.21 803.93,52.19 804.14,52.17 804.36,52.16 804.57,52.14 804.79,52.12 805.01,52.11 805.22,52.10 805.44,52.07 805.65,52.06 805.87,52.07 806.08,52.06 806.30,52.06 806.52,52.07 806.73,52.08 806.95,52.07 807.16,52.06 807.38,52.04 807.59,52.02 807.81,52.01 808.02,52.00 808.24,52.02 808.46,52.02 808.67,52.03 808.89,52.05 809.10,52.09 809.32,52.09 809.53,52.12 809.75,52.14 809.97,52.16 810.18,52.18 810.40,52.21 810.61,52.22 810.83,52.20 811.04,52.19 811.26,52.18 811.48,52.18 811.69,52.18 811.91,52.18 812.12,52.20 812.34,52.23 812.55,52.26 812.77,52.30 812.99,52.33 813.20,52.35 813.42,52.38 813.63,52.42 813.85,52.45 814.06,52.48 814.28,52.52 814.49,52.56 814.71,52.61 814.93,52.65 815.14,52.71 815.36,52.76 815.57,52.82 815.79,52.88 816.00,52.95 816.22,53.03 816.44,53.07 816.65,53.12 816.87,53.18 817.08,53.23 817.30,53.29 817.51,53.35 817.73,53.41 817.95,53.48 818.16,53.56 818.38,53.64 818.59,53.73 818.81,53.82 819.02,53.90 819.24,53.98 819.46,54.06 819.67,54.15 819.89,54.22 820.10,54.30 820.32,54.38 820.53,54.47 820.75,54.54 820.96,54.62 821.18,54.70 821.40,54.79 821.61,54.89 821.83,54.99 822.04,55.11 822.26,55.22 822.47,55.35 822.69,55.47 822.91,55.59 823.12,55.73 823.34,55.86 823.55,56.00 823.77,56.14 823.98,56.27 824.20,56.40 824.42,56.53 824.63,56.68 824.85,56.82 825.06,56.97 825.28,57.10 825.49,57.24 825.71,57.38 825.92,57.53 826.14,57.68 826.36,57.84 826.57,58.01 826.79,58.17 827.00,58.35 827.22,58.52 827.43,58.70 827.65,58.85 827.87,59.01 828.08,59.17 828.30,59.34 828.51,59.52 828.73,59.70 828.94,59.89 829.16,60.05 829.38,60.25 829.59,60.44 829.81,60.65 830.02,60.84 830.24,61.03 830.45,61.23 830.67,61.44 830.89,61.65 831.10,61.85 831.32,62.06 831.53,62.27 831.75,62.49 831.96,62.71 832.18,62.93 832.39,63.15 832.61,63.37 832.83,63.60 833.04,63.83 833.26,64.07 833.47,64.29 833.69,64.52 833.90,64.75 834.12,64.99 834.34,65.24 834.55,65.50 834.77,65.78 834.98,66.06 835.20,66.36 835.41,66.65 835.63,66.94 835.85,67.19 836.06,67.44 836.28,67.71 836.49,67.98 836.71,68.27 836.92,68.56 837.14,68.86 837.36,69.17 837.57,69.48 837.79,69.77 838.00,70.10 838.22,70.44 838.43,70.76 838.65,71.07 838.86,71.37 839.08,71.68 839.30,71.99 839.51,72.30 839.73,72.63 839.94,72.97 840.16,73.34 840.37,73.73 840.59,74.12 840.81,74.49 841.02,74.89 841.24,75.26 841.45,75.62 841.67,76.00 841.88,76.41 842.10,76.82 842.32,77.22 842.53,77.64 842.75,78.08 842.96,78.52 843.18,78.97 843.39,79.46 843.61,79.94 843.83,80.42 844.04,80.92 844.26,81.43 844.47,81.95 844.69,82.48 844.90,83.01 845.12,83.56 845.33,84.12 845.55,84.69 845.77,85.28 845.98,85.88 846.20,86.50 846.41,87.12 846.63,87.75 846.84,88.38 847.06,89.03 847.28,89.68 847.49,90.33 847.71,90.99 847.92,91.66 848.14,92.32 848.35,92.99 848.57,93.67 848.79,94.34 849.00,95.04 849.22,95.75 849.43,96.46 849.65,97.17 849.86,97.88 850.08,98.59 850.30,99.30 850.51,100.02 850.73,100.72 850.94,101.43 851.16,102.14 851.37,102.84 851.59,103.54 851.80,104.26 852.02,104.97 852.24,105.68 852.45,106.39 852.67,107.10 852.88,107.81 853.10,108.51 853.31,109.23 853.53,109.94 853.75,110.64 853.96,111.34 854.18,112.04 854.39,112.73 854.61,113.41 854.82,114.08 855.04,114.75 855.26,115.40 855.47,116.05 855.69,116.68 855.90,117.31 856.12,117.92 856.33,118.52 856.55,119.13 856.77,119.73 856.98,120.32 857.20,120.89 857.41,121.47 857.63,122.03 857.84,122.60 858.06,123.16 858.27,123.70 858.49,124.24 858.71,124.77 858.92,125.28 859.14,125.78 859.35,126.26 859.57,126.73 859.78,127.19 860.00,127.64" fill="none" stroke="#1f77b4" stroke-width="2" stroke-linejoin="round" stroke-linecap="round"/>
<text x="469.0" y="596" text-anchor="middle" class="label">Pixel</text>
<text x="22" y="300.0" text-anchor="middle" class="label" transform="rotate(-90 22 300.0)">Smoothed normalized intensity</text>
<line x1="882" y1="64" x2="906" y2="64" stroke="#1f77b4" stroke-width="3"/>
<text x="914" y="68" class="legend">card03_rep01</text>
</svg>